<svg xmlns="http://www.w3.org/2000/svg" viewBox="0 0 16 16">
  <g fill="none">
    <polygon fill="#000" points="0 0 16 0 16 16 0 16" opacity="0"/>
    <path stroke="#2FB3E8" stroke-width="2" d="M6.86630772,1 C8.48762671,1 9.95614366,1.64816049 11.0189488,2.69780957 C12.0771269,3.74288891 12.7327736,5.18634211 12.7327736,6.78146875 C12.7327736,8.28192337 12.1523076,9.64806734 11.2023613,10.6749557 L11.2023613,10.6749557 L14.9869478,14.4127374 L10.6532367,11.3057557 C9.58274699,12.0665702 8.28388099,12.5629531 6.86630772,12.5629531 C5.2449219,12.5629531 3.77647181,11.9148388 2.71373977,10.8652353 C1.65557494,9.82014255 1,8.37664384 1,6.78146875 C1,5.18630217 1.65557811,3.74280894 2.71374274,2.69771882 C3.77647668,1.64811584 5.24492743,1 6.86630772,1 Z"/>
  </g>
</svg>
