<svg id="图层_1" data-name="图层 1" xmlns="http://www.w3.org/2000/svg" viewBox="0 0 64 64"><title>update_1</title><path d="M55,49H51.9c-4-2.7-11.4-4.5-19.9-4.5S16.1,46.3,12.1,49H9v4H9v.5c0,5,10.3,9,23,9s23-4,23-9V53h0Z" fill="#6788c9"/><ellipse cx="32" cy="49.5" rx="23" ry="9" fill="#d9e4ff"/><rect x="13" y="15.5" width="4" height="36" rx="2" fill="#7591d8"/><rect x="48" y="15.5" width="4" height="36" rx="2" fill="#7591d8"/><path d="M46.8,41.8h0Z" fill="#005fa7"/><path d="M46.8,41.9v.3c-.3,1.9-6.2,2.5-13,1.2S23,40.3,22.1,38.5H23v-1H21.8l-.9,1a8,8,0,0,0-1.9,5c0,5.5,6.3,10,14,10s14-4.5,14-10A7.8,7.8,0,0,0,46.8,41.9Z" fill="#3d7fe0"/><path d="M44.2,28.5a8.3,8.3,0,0,0,2.8-6c0-5.5-6.3-10-14-10S19,17,19,22.5s3.2,7.4,7.9,9C28,29.5,45.4,26.5,44.2,28.5Z" fill="#bbd4ff"/><path d="M44.2,37.5l-1.2-1a15.6,15.6,0,0,0-6.3-2.6,1.5,1.5,0,0,1-.6-.5H29.8a1,1,0,0,1-.5.4A15.6,15.6,0,0,0,23,36.5l-1.2,1H24v1H42.2c2.6,1.1,4.4,2.3,4.6,3.3a8.7,8.7,0,0,0-1.7-3.3Z" fill="#bbd4ff"/><path d="M36.1,33.4A.6.6,0,0,1,36,33a1,1,0,0,1,.7-.9c3.1-.6,7.3-2.6,9.3-5.6s-18,3-19.1,5a10.5,10.5,0,0,0,2.4.6,1,1,0,0,1,.7.9c0,.2-.1.3-.2.5s2.2,2,3.2,2S36,33.5,36.1,33.4Z" fill="#204ace"/><path d="M46.8,41.9h0c-.2-1-2-2.2-4.6-3.3a39,39,0,0,0-7.2-2c-6.9-1.2-12.7-.7-13,1.2a1.1,1.1,0,0,0,.1.8c.9,1.8,5.7,3.8,11.7,4.9s12.7.7,13-1.2Z" fill="#204ace"/><ellipse cx="36.3" cy="28.3" rx="10.1" ry="2" transform="translate(-6.1 10.3) rotate(-14.9)" fill="#3d7fe0"/><path d="M55,10H51.9C47.9,7.3,40.5,5.5,32,5.5S16.1,7.3,12.1,10H9v4H9v.5c0,5,10.3,9,23,9s23-4,23-9V14h0Z" fill="#6788c9"/><ellipse cx="32" cy="10.5" rx="23" ry="9" fill="#b8d5ff"/></svg>