<svg id="图层_1" data-name="图层 1" xmlns="http://www.w3.org/2000/svg" viewBox="0 0 20 20"><title>loading14</title><path d="M6,11.1a1,1,0,1,0,0-2H2a1,1,0,0,0,0,2Z" fill="#404040" opacity="0.7"/><path d="M18,10.8a1,1,0,0,0,0-2H14a1,1,0,0,0,0,2Z" fill="#404040" opacity="0.05"/><path d="M5.2,16.5,8,13.6a1.1,1.1,0,0,0-.1-1.4,1,1,0,0,0-1.4,0L3.8,15.1a1,1,0,1,0,1.4,1.4Z" fill="#404040" opacity="0.95"/><path d="M12.1,7.8a1,1,0,0,0,1.4,0l2.7-2.9a1,1,0,0,0-1.4-1.4L12,6.4A1.1,1.1,0,0,0,12.1,7.8Z" fill="#404040" opacity="0.25"/><path d="M9.1,14v4a1,1,0,0,0,2,0V14a1,1,0,0,0-2,0Z" fill="#404040" opacity="0.9"/><path d="M10.9,6V2a1,1,0,0,0-2,0V6a1,1,0,0,0,2,0Z" fill="#404040" opacity="0.4"/><path d="M16.5,16.2a1,1,0,0,0,0-1.4L13.6,12a1.1,1.1,0,0,0-1.4.1,1,1,0,0,0,0,1.4l2.9,2.7A1,1,0,0,0,16.5,16.2Z" fill="#404040"/><path d="M7.8,7.9a1,1,0,0,0,0-1.4L4.9,3.8A1,1,0,0,0,3.5,5.2L6.4,8A1.1,1.1,0,0,0,7.8,7.9Z" fill="#404040" opacity="0.55"/></svg>