<svg id="图层_1" data-name="图层 1" xmlns="http://www.w3.org/2000/svg" viewBox="0 0 20 20"><title>loading17</title><path d="M12.1,6.5a1,1,0,0,0,1.4,1.4l2.9-2.8a1.1,1.1,0,0,0-1.5-1.5Z" fill="#404040" opacity="0.7"/><path d="M3.6,14.9a1.1,1.1,0,0,0,1.5,1.5l2.8-2.9a1,1,0,0,0-1.4-1.4Z" fill="#404040" opacity="0.05"/><path d="M9,2V6a1.1,1.1,0,0,0,1,1,1.1,1.1,0,0,0,1-1V2a1.1,1.1,0,0,0-1-1A1.1,1.1,0,0,0,9,2Z" fill="#404040" opacity="0.95"/><path d="M10,13a1.1,1.1,0,0,0-1,1v4a1.1,1.1,0,0,0,1,1,1.1,1.1,0,0,0,1-1V14A1.1,1.1,0,0,0,10,13Z" fill="#404040" opacity="0.25"/><path d="M7.9,6.5,5.1,3.6A1.1,1.1,0,0,0,3.6,5.1L6.5,7.9A1,1,0,0,0,7.9,6.5Z" fill="#404040" opacity="0.9"/><path d="M12.1,13.5l2.8,2.9a1.1,1.1,0,0,0,1.5-1.5l-2.9-2.8a1,1,0,0,0-1.4,1.4Z" fill="#404040" opacity="0.4"/><path d="M1,10a1.1,1.1,0,0,0,1,1H6a1.1,1.1,0,0,0,1-1A1.1,1.1,0,0,0,6,9H2A1.1,1.1,0,0,0,1,10Z" fill="#404040"/><path d="M13,10a1.1,1.1,0,0,0,1,1h4a1.1,1.1,0,0,0,1-1,1.1,1.1,0,0,0-1-1H14A1.1,1.1,0,0,0,13,10Z" fill="#404040" opacity="0.55"/></svg>