<?xml version="1.0" encoding="UTF-8"?>
<svg width="24px" height="24px" viewBox="0 0 24 24" version="1.1" xmlns="http://www.w3.org/2000/svg" xmlns:xlink="http://www.w3.org/1999/xlink">
    <title>icon/本地壁纸</title>
    <g id="Edu-OS-Light" stroke="none" stroke-width="1" fill="none" fill-rule="evenodd">
        <g id="PC-控制面板09-背景-图片" transform="translate(-692.000000, -942.000000)" fill-rule="nonzero">
            <g id="控制面板备份" transform="translate(360.000000, 186.000000)">
                <g id="桌面背景-图片" transform="translate(316.000000, 72.000000)">
                    <g id="btn/白底+icon+标题" transform="translate(0.000000, 668.000000)">
                        <g id="btn/icon+标题" transform="translate(16.000000, 16.000000)">
                            <g id="编组" transform="translate(0.000000, 0.000000)">
                                <rect id="矩形" fill="#000000" opacity="0" x="0" y="0" width="24" height="24"></rect>
                                <path d="M10.5,6 L20.5,6 C21.6045695,6 22.5,6.8954305 22.5,8 L22.5,12 L22.5,12 L10.5,12 L10.5,6 Z" id="矩形" fill="#2FB3E8"></path>
                                <path d="M1.51475826,18.2534711 L1.4930638,5.75347111 C1.49114675,4.64890327 2.38502184,3.75192005 3.48958967,3.75000301 C3.49074671,3.750001 3.49190375,3.75 3.49306078,3.75 L9.43539485,3.75 C10.1009243,3.75 10.7228543,4.08105496 11.0945033,4.63314772 L12.9347351,7.36685228 C13.3063842,7.91894504 13.9283142,8.25 14.5938436,8.25 L20.4895867,8.25 C21.5934784,8.25173631 22.488628,9.14610939 22.4913222,10.2499992 L22.4982644,18.2500008 C22.5009578,19.3545683 21.6063046,20.2507755 20.5017356,20.2517341 C20.501157,20.2517346 20.5005785,20.2517348 20.5,20.25 L3.51475525,20.25 C2.41154106,20.25 1.51667295,19.3566836 1.51475826,18.2534711 Z" id="形状" fill="#5FCBF7"></path>
                            </g>
                        </g>
                    </g>
                </g>
            </g>
        </g>
    </g>
</svg>