<?xml version="1.0" encoding="UTF-8"?>
<svg width="24px" height="24px" viewBox="0 0 24 24" version="1.1" xmlns="http://www.w3.org/2000/svg" xmlns:xlink="http://www.w3.org/1999/xlink">
    <title>icon/icon-恢复</title>
    <g id="Edu-OS-Light" stroke="none" stroke-width="1" fill="none" fill-rule="evenodd">
        <g id="PC-控制面板09-背景-图片" transform="translate(-852.000000, -942.000000)" fill-rule="nonzero">
            <g id="控制面板备份" transform="translate(360.000000, 186.000000)">
                <g id="桌面背景-图片" transform="translate(316.000000, 72.000000)">
                    <g id="btn/btn-无框按钮" transform="translate(160.000000, 668.000000)">
                        <g id="恢复" transform="translate(16.000000, 16.000000)">
                            <rect id="矩形" fill="#000000" opacity="0" x="0" y="0" width="24" height="24"></rect>
                            <path d="M11.1951988,18.8459202 C11.1225736,18.8386411 11.0499483,18.8265092 10.9748187,18.8168037 C10.8345769,18.7973926 10.6918307,18.7779816 10.5540931,18.7512914 C10.4689462,18.7343067 10.3863037,18.7148957 10.3011568,18.6930583 C10.1659236,18.6639417 10.0331947,18.6299724 9.90046575,18.5887239 C9.83785776,18.5693129 9.77524978,18.5474754 9.7126418,18.525638 C9.34701117,18.404319 8.99390214,18.251457 8.65832335,18.0670521 L8.63578448,18.0549202 C7.89450595,17.6400092 7.23837429,17.0940736 6.70745858,16.4438037 C6.68241539,16.4122607 6.65486788,16.375865 6.62982468,16.3418957 C5.68319197,15.138411 5.16980651,13.6655982 5.17481515,12.1539632 L6.75804388,12.1539632 C7.03418626,12.1539632 7.25804388,11.9301056 7.25804388,11.6539632 C7.25804388,11.5301087 7.21207532,11.4106622 7.12904308,11.3187624 L4.50176097,8.41089497 C4.31663467,8.20599777 4.00045814,8.1899703 3.79556094,8.3750966 C3.78294911,8.3864915 3.77092652,8.39852208 3.75954,8.41114148 L1.13576405,11.3190089 C0.950773889,11.524029 0.967011378,11.8401948 1.1720315,12.025185 C1.26390142,12.1080794 1.38324588,12.1539632 1.50698582,12.1539632 L3.08120418,12.1539632 L3.08120418,12.1539632 C3.08120418,14.0174233 3.65469331,15.7425797 4.62887353,17.166865 C4.64139513,17.1887024 4.64890808,17.2081135 4.66142968,17.2275245 C4.76410677,17.3731073 4.87429683,17.5089846 4.98448688,17.6472883 C5.02455599,17.6982423 5.06212078,17.7516227 5.10469421,17.8050031 C5.26497064,18.0015399 5.43276004,18.1835184 5.60806239,18.3654969 L5.65564446,18.4140245 C6.4119489,19.1856135 7.31350387,19.8067669 8.31272728,20.2507945 L8.47300372,20.3235859 C8.65581903,20.40123 8.84865162,20.4691687 9.03647557,20.5322546 C9.12663107,20.5637975 9.21428225,20.5953405 9.30694206,20.6220307 C9.47473146,20.6729846 9.64502517,20.7118067 9.81782321,20.7554816 C9.9330219,20.7821718 10.0457163,20.8112883 10.1634193,20.8331257 C10.2110013,20.8452577 10.2535748,20.8573896 10.3036612,20.8670951 C10.4664419,20.8962116 10.6267184,20.9131963 10.7920034,20.9326073 L10.9673058,20.9568711 C13.0534038,21.1655399 15.1470148,20.6123251 16.8324217,19.399135 C17.3082424,19.0497362 17.4234411,18.4018926 17.0903666,17.9214693 C16.9350988,17.6933896 16.6896755,17.5356748 16.411696,17.4847208 C16.1362209,17.441046 15.8507285,17.5041319 15.6253398,17.664273 C14.3506412,18.5790184 12.7704157,19.0012086 11.1951988,18.8459202 Z M12.8048012,5.15407977 C12.8774264,5.16135891 12.9500517,5.17349081 13.0251813,5.18319633 C13.1654231,5.20260738 13.3081693,5.22201842 13.4459069,5.2487086 C13.5310538,5.26569327 13.6136963,5.28510431 13.6988432,5.30694173 C13.8340764,5.3360583 13.9668053,5.37002762 14.0995343,5.41127609 C14.1621422,5.43068713 14.2247502,5.45252455 14.2873582,5.47436198 C14.6529888,5.595681 15.0060979,5.74854296 15.3416766,5.93294787 L15.3642155,5.94507977 C16.105494,6.35999081 16.7616257,6.90592639 17.2925414,7.55619633 C17.3175846,7.58773928 17.3451321,7.62413498 17.3701753,7.65810431 C18.316808,8.86158897 18.8301935,10.3344018 18.8251849,11.8460368 L17.2419561,11.8460368 C16.9658137,11.8460368 16.7419561,12.0698944 16.7419561,12.3460368 C16.7419561,12.4698913 16.7879247,12.5893378 16.8709569,12.6812376 L19.498239,15.589105 C19.6833653,15.7940022 19.9995419,15.8100297 20.2044391,15.6249034 C20.2170509,15.6135085 20.2290735,15.6014779 20.24046,15.5888585 L22.8642359,12.6809911 C23.0492261,12.475971 23.0329886,12.1598052 22.8279685,11.974815 C22.7360986,11.8919206 22.6167541,11.8460368 22.4930142,11.8460368 L20.9187958,11.8460368 L20.9187958,11.8460368 C20.9187958,9.9825767 20.3453067,8.25742026 19.3711265,6.83313498 C19.3586049,6.81129756 19.3510919,6.79188652 19.3385703,6.77247547 C19.2358932,6.62689265 19.1257032,6.49101535 19.0155131,6.35271167 C18.975444,6.30175768 18.9378792,6.24837731 18.8953058,6.19499695 C18.7350294,5.99846014 18.56724,5.81648161 18.3919376,5.63450308 L18.3443555,5.58597547 C17.5880511,4.81438652 16.6864961,4.19323315 15.6872727,3.74920554 L15.5269963,3.67641413 C15.344181,3.59876996 15.1513484,3.53083131 14.9635244,3.46774542 C14.8733689,3.43620247 14.7857178,3.40465953 14.6930579,3.37796934 C14.5252685,3.32701536 14.3549748,3.28819327 14.1821768,3.24451842 C14.0669781,3.21782824 13.9542837,3.18871167 13.8365807,3.16687425 C13.7889987,3.15474235 13.7464252,3.14261045 13.6963388,3.13290493 C13.5335581,3.10378836 13.3732816,3.0868037 13.2079966,3.06739266 L13.0326942,3.04312885 C10.9465962,2.83446014 8.85298523,3.38767486 7.16757831,4.60086505 C6.69175764,4.95026382 6.57655895,5.59810738 6.90963342,6.07853069 C7.06490122,6.30661044 7.31032451,6.46432517 7.58830396,6.51527915 C7.86377909,6.558954 8.14927149,6.49586811 8.37466024,6.33572701 C9.64935878,5.42098161 11.2295843,4.99879143 12.8048012,5.15407977 Z" id="形状" fill="#2FB3E8"></path>
                        </g>
                    </g>
                </g>
            </g>
        </g>
    </g>
</svg>