<svg id="图层_1" data-name="图层 1" xmlns="http://www.w3.org/2000/svg" viewBox="0 0 16 16"><defs><style>.cls-1{opacity:0.85;}</style></defs><title>1大化窗口</title><path class="cls-1" d="M9,6a1,1,0,0,1,1,1v3h1V7A2,2,0,0,0,9,5H6V6Z"/><path class="cls-1" d="M10,12a1,1,0,0,1-1,1H4a1,1,0,0,1-1-1V7A1,1,0,0,1,4,6H5V5H4A2,2,0,0,0,2,7v5a2,2,0,0,0,2,2H9a2,2,0,0,0,2-2V11H10Z"/><path class="cls-1" d="M12,2H7A2,2,0,0,0,5,4V5H6V4A1,1,0,0,1,7,3h5a1,1,0,0,1,1,1V9a1,1,0,0,1-1,1H11v1h1a2,2,0,0,0,2-2V4A2,2,0,0,0,12,2Z"/><rect class="cls-1" x="5" y="5" width="1" height="1"/><rect class="cls-1" x="10" y="10" width="1" height="1"/></svg>