<?xml version="1.0" encoding="UTF-8"?>
<svg width="17px" height="16px" viewBox="0 0 17 16" version="1.1" xmlns="http://www.w3.org/2000/svg" xmlns:xlink="http://www.w3.org/1999/xlink">
    <title>电池-电量</title>
    <g id="Edu-OS-Light" stroke="none" stroke-width="1" fill="none" fill-rule="evenodd">
        <g id="PC-控制面板17-电源-自定义-电源供电" transform="translate(-1186.000000, -520.000000)" fill-rule="nonzero">
            <g id="控制面板备份" transform="translate(360.000000, 186.000000)">
                <g id="开机启动" transform="translate(316.000000, 72.000000)">
                    <g id="编组-4" transform="translate(0.000000, 165.000000)">
                        <g id="tabs/bg_third" transform="translate(174.000000, 81.000000)">
                            <g id="tabs/bg_first_3" transform="translate(261.290411, 0.000000)">
                                <g id="编组-6" transform="translate(75.132410, 12.000000)">
                                    <g id="icon/battery" transform="translate(0.000000, 4.000000)">
                                        <rect id="矩形" fill="#000000" opacity="0" x="0" y="0" width="16" height="16"></rect>
                                        <path d="M7.18077641,0 L8.81922359,0 C9.27809124,-8.42926183e-17 9.67807434,0.312297374 9.78936609,0.757464375 L9.92,1.28 L9.92,1.28 L6.08,1.28 L6.21063391,0.757464375 C6.32192566,0.312297374 6.72190876,3.06337223e-16 7.18077641,0 Z" id="路径" fill="#6F6F6F"></path>
                                        <path d="M12.44,1.28 C12.9922847,1.28 13.44,1.72771525 13.44,2.28 L13.44,15 C13.44,15.5522847 12.9922847,16 12.44,16 L3.56,16 C3.00771525,16 2.56,15.5522847 2.56,15 L2.56,2.28 C2.56,1.72771525 3.00771525,1.28 3.56,1.28 L12.44,1.28 Z M11.48,3.4 L4.52,3.4 L4.52,6.04 L11.48,6.04 L11.48,3.4 Z" id="形状结合" fill="#6F6F6F"></path>
                                    </g>
                                </g>
                            </g>
                        </g>
                    </g>
                </g>
            </g>
        </g>
    </g>
</svg>