<?xml version="1.0" encoding="UTF-8"?>
<svg width="16px" height="16px" viewBox="0 0 16 16" version="1.1" xmlns="http://www.w3.org/2000/svg" xmlns:xlink="http://www.w3.org/1999/xlink">
    <title>电源</title>
    <g id="Edu-OS-Light" stroke="none" stroke-width="1" fill="none" fill-rule="evenodd">
        <g id="PC-控制面板17-电源-自定义-电源供电" transform="translate(-940.000000, -520.000000)" fill-rule="nonzero">
            <g id="控制面板备份" transform="translate(360.000000, 186.000000)">
                <g id="开机启动" transform="translate(316.000000, 72.000000)">
                    <g id="编组-4" transform="translate(0.000000, 165.000000)">
                        <g id="tabs/bg_third" transform="translate(174.000000, 81.000000)">
                            <g id="编组-5" transform="translate(89.149100, 12.000000)">
                                <g id="power" transform="translate(0.000000, 4.000000)">
                                    <g id="电源充电" transform="translate(1.000000, 0.000000)">
                                        <rect id="矩形" fill="#000000" opacity="0" x="0" y="0" width="16" height="16"></rect>
                                        <path d="M14.6585938,4.12226562 C14.4388672,4.12226562 14.2191406,4.19785156 14.0591797,4.36660156 L12.2638672,6.26210937 C12.2498047,6.27617187 12.2498047,6.29726562 12.2638672,6.31132812 L13.4029297,7.45039062 C13.4169922,7.46445312 13.4380859,7.46445312 13.4521484,7.45039062 L15.2474609,5.55488281 C15.5779297,5.22617187 15.5779297,4.6953125 15.2492188,4.36660156 C15.0892578,4.19785156 14.8695313,4.12226562 14.6585938,4.12226562 Z M11.0726563,0.536328125 C10.8617188,0.536328125 10.6419922,0.620703125 10.4820313,0.789453125 L8.68320313,2.68320312 C8.66914063,2.69726562 8.66914063,2.71835937 8.68320313,2.73242187 L9.82578125,3.875 C9.83984375,3.8890625 9.8609375,3.8890625 9.875,3.875 L11.6703125,1.97949219 C11.9990234,1.65078125 11.9990234,1.11816406 11.6703125,0.789453125 C11.5033203,0.620703125 11.2923828,0.536328125 11.0726563,0.536328125 Z" id="形状" fill="#FFFFFF"></path>
                                        <path d="M14.6726563,7.36542969 C14.6673828,7.35839844 14.665625,7.35136719 14.6585938,7.34433594 L14.0591797,6.74492188 L14.0644531,6.73964844 L12.8744141,5.54960938 L12.8691406,5.55488281 L10.4820313,3.16777344 L10.4873047,3.1625 L9.29375,1.96894531 L9.28496094,1.97773437 L8.09316406,0.7859375 C7.92792969,0.620703125 7.71347656,0.538085938 7.49726563,0.538085938 C7.28105469,0.538085938 7.06484375,0.620703125 6.90136719,0.7859375 C6.57265625,1.11464844 6.57265625,1.64726562 6.90136719,1.97773437 L4.05371094,4.821875 C3.96054688,4.91503906 3.89375,5.02402344 3.8515625,5.15058594 L2.18867188,10.1445312 C2.14648438,10.2623047 2.0796875,10.3800781 1.98652344,10.4732422 L1.53125,10.9302734 C1.20253906,11.2589844 1.20253906,11.7916016 1.53125,12.1203125 L2.10605469,12.6951172 C2.12011719,12.7091797 2.12011719,12.7302734 2.10605469,12.7443359 L0.747265625,14.0943359 C0.418554688,14.4230469 0.418554688,14.9626953 0.747265625,15.2931641 C0.916015625,15.453125 1.12695313,15.5375 1.34667969,15.5375 C1.55761719,15.5375 1.77734375,15.453125 1.93730469,15.2931641 L3.29609375,13.934375 C3.31015625,13.9203125 3.33300781,13.9203125 3.3453125,13.934375 L3.92011719,14.5091797 C4.08007813,14.6691406 4.29980469,14.7535156 4.51074219,14.7535156 C4.73046875,14.7535156 4.95019531,14.6691406 5.11015625,14.5091797 L5.56542969,14.0539063 C5.65859375,13.9607422 5.77636719,13.8939453 5.89414063,13.8517578 L10.8880859,12.190625 C11.0146484,12.1484375 11.1236328,12.0728516 11.2167969,11.9796875 L14.0609375,9.14257812 C14.2244141,9.30605469 14.440625,9.38867188 14.6550781,9.38867188 C14.8695312,9.38867188 15.0822266,9.3078125 15.2474609,9.14609375 C15.5814453,8.81738281 15.5726563,8.26894531 15.2421875,7.93847656 L14.6726563,7.36542969 Z M9.18300781,7.69765625 L8.71542969,7.69765625 C8.69082031,7.69765625 8.675,7.72050781 8.68203125,7.74335937 L9.14082031,9.11796875 C9.22695313,9.37460938 9.18300781,9.659375 9.02480469,9.87910156 C8.86660156,10.0988281 8.61171875,10.2289062 8.34101563,10.2289062 L6.65351563,10.2289062 C6.18769531,10.2289062 5.80976563,9.85097656 5.80976563,9.38515625 C5.80976563,8.91933594 6.18769531,8.54140625 6.65351563,8.54140625 L7.12109375,8.54140625 C7.14570313,8.54140625 7.16152344,8.51855469 7.15449219,8.49570312 L6.69570313,7.12109375 C6.60957031,6.86445313 6.65351563,6.5796875 6.81171875,6.35996094 C6.96992188,6.14023438 7.22480469,6.01015625 7.49550781,6.01015625 L9.18300781,6.01015625 C9.64882813,6.01015625 10.0267578,6.38808594 10.0267578,6.85390625 C10.0267578,7.31972656 9.64882813,7.69765625 9.18300781,7.69765625 L9.18300781,7.69765625 Z" id="形状" fill="#FFFFFF"></path>
                                    </g>
                                </g>
                            </g>
                        </g>
                    </g>
                </g>
            </g>
        </g>
    </g>
</svg>