<?xml version="1.0" encoding="UTF-8"?>
<svg width="16px" height="16px" viewBox="0 0 16 16" version="1.1" xmlns="http://www.w3.org/2000/svg" xmlns:xlink="http://www.w3.org/1999/xlink">
    <title>电源</title>
    <g id="Edu-OS-Light" stroke="none" stroke-width="1" fill="none" fill-rule="evenodd">
        <g id="PC-控制面板17-电源-自定义-电池供电" transform="translate(-940.000000, -520.000000)" fill-rule="nonzero">
            <g id="控制面板备份" transform="translate(360.000000, 186.000000)">
                <g id="开机启动" transform="translate(316.000000, 72.000000)">
                    <g id="编组-4" transform="translate(0.000000, 165.000000)">
                        <g id="tabs/bg_third" transform="translate(174.000000, 81.000000)">
                            <g id="编组-5" transform="translate(90.000000, 12.000000)">
                                <g id="电源充电" transform="translate(0.000000, 4.000000)">
                                    <rect id="矩形" fill="#000000" opacity="0" x="0" y="0" width="16" height="16"></rect>
                                    <path d="M13.91875,4.553125 C13.7234375,4.553125 13.528125,4.6203125 13.3859375,4.7703125 L11.7901042,6.45520833 C11.7776042,6.46770833 11.7776042,6.48645833 11.7901042,6.49895833 L12.8026042,7.51145833 C12.8151042,7.52395833 12.8338542,7.52395833 12.8463542,7.51145833 L14.4421875,5.8265625 C14.7359375,5.534375 14.7359375,5.0625 14.44375,4.7703125 C14.3015625,4.6203125 14.10625,4.553125 13.91875,4.553125 Z M10.73125,1.365625 C10.54375,1.365625 10.3484375,1.440625 10.20625,1.590625 L8.60729167,3.27395833 C8.59479167,3.28645833 8.59479167,3.30520833 8.60729167,3.31770833 L9.62291667,4.33333333 C9.63541667,4.34583333 9.65416667,4.34583333 9.66666667,4.33333333 L11.2625,2.6484375 C11.5546875,2.35625 11.5546875,1.8828125 11.2625,1.590625 C11.1140625,1.440625 10.9265625,1.365625 10.73125,1.365625 Z" id="形状" fill="#6F6F6F"></path>
                                    <path d="M13.93125,7.4359375 C13.9265625,7.4296875 13.925,7.4234375 13.91875,7.4171875 L13.3859375,6.884375 L13.390625,6.8796875 L12.3328125,5.821875 L12.328125,5.8265625 L10.20625,3.7046875 L10.2109375,3.7 L9.15,2.6390625 L9.1421875,2.646875 L8.0828125,1.5875 C7.9359375,1.440625 7.7453125,1.3671875 7.553125,1.3671875 C7.3609375,1.3671875 7.16875,1.440625 7.0234375,1.5875 C6.73125,1.8796875 6.73125,2.353125 7.0234375,2.646875 L4.4921875,5.175 C4.409375,5.2578125 4.35,5.3546875 4.3125,5.4671875 L2.834375,9.90625 C2.796875,10.0109375 2.7375,10.115625 2.6546875,10.1984375 L2.25,10.6046875 C1.9578125,10.896875 1.9578125,11.3703125 2.25,11.6625 L2.7609375,12.1734375 C2.7734375,12.1859375 2.7734375,12.2046875 2.7609375,12.2171875 L1.553125,13.4171875 C1.2609375,13.709375 1.2609375,14.1890625 1.553125,14.4828125 C1.703125,14.625 1.890625,14.7 2.0859375,14.7 C2.2734375,14.7 2.46875,14.625 2.6109375,14.4828125 L3.81875,13.275 C3.83125,13.2625 3.8515625,13.2625 3.8625,13.275 L4.3734375,13.7859375 C4.515625,13.928125 4.7109375,14.003125 4.8984375,14.003125 C5.09375,14.003125 5.2890625,13.928125 5.43125,13.7859375 L5.8359375,13.38125 C5.91875,13.2984375 6.0234375,13.2390625 6.128125,13.2015625 L10.5671875,11.725 C10.6796875,11.6875 10.7765625,11.6203125 10.859375,11.5375 L13.3875,9.015625 C13.5328125,9.1609375 13.725,9.234375 13.915625,9.234375 C14.10625,9.234375 14.2953125,9.1625 14.4421875,9.01875 C14.7390625,8.7265625 14.73125,8.2390625 14.4375,7.9453125 L13.93125,7.4359375 Z M9.0515625,7.73125 L8.6359375,7.73125 C8.6140625,7.73125 8.6,7.7515625 8.60625,7.771875 L9.0140625,8.99375 C9.090625,9.221875 9.0515625,9.475 8.9109375,9.6703125 C8.7703125,9.865625 8.54375,9.98125 8.303125,9.98125 L6.803125,9.98125 C6.3890625,9.98125 6.053125,9.6453125 6.053125,9.23125 C6.053125,8.8171875 6.3890625,8.48125 6.803125,8.48125 L7.21875,8.48125 C7.240625,8.48125 7.2546875,8.4609375 7.2484375,8.440625 L6.840625,7.21875 C6.7640625,6.990625 6.803125,6.7375 6.94375,6.5421875 C7.084375,6.346875 7.3109375,6.23125 7.5515625,6.23125 L9.0515625,6.23125 C9.465625,6.23125 9.8015625,6.5671875 9.8015625,6.98125 C9.8015625,7.3953125 9.465625,7.73125 9.0515625,7.73125 L9.0515625,7.73125 Z" id="形状" fill="#6F6F6F"></path>
                                </g>
                            </g>
                        </g>
                    </g>
                </g>
            </g>
        </g>
    </g>
</svg>