<?xml version="1.0" encoding="UTF-8"?>
<svg width="30px" height="30px" viewBox="0 0 30 30" version="1.1" xmlns="http://www.w3.org/2000/svg" xmlns:xlink="http://www.w3.org/1999/xlink">
    <title>ukui-num keypad-delete</title>
    <g id="Edu-OS-Light" stroke="none" stroke-width="1" fill="none" fill-rule="evenodd">
        <g id="PC-控制面板01-4账户信息-修改密码-弹窗" transform="translate(-304.000000, -574.000000)">
            <g id="弹窗-修改密码备份-2" transform="translate(27.000000, 141.000000)">
                <g id="编组-3" transform="translate(20.000000, 72.000000)">
                    <g transform="translate(0.000000, 40.000000)" id="编组">
                        <g transform="translate(0.000000, 64.000000)">
                            <g id="clear" transform="translate(224.000000, 240.000000)">
                                <g id="ukui-num-keypad-delete" transform="translate(33.000000, 17.000000)">
                                    <rect id="矩形" fill="#000000" fill-rule="nonzero" opacity="0" x="0" y="0" width="30" height="30"></rect>
                                    <path d="M10.1897929,6.75 L24.9361148,6.75 C25.6152356,6.75 25.8720421,6.79420046 26.1231466,6.9284926 C26.3164379,7.03186594 26.4681341,7.18356211 26.5715074,7.37685344 C26.7057995,7.62795792 26.75,7.88476438 26.75,8.5638852 L26.75,8.5638852 L26.75,20.9361148 C26.75,21.6152356 26.7057995,21.8720421 26.5715074,22.1231466 C26.4681341,22.3164379 26.3164379,22.4681341 26.1231466,22.5715074 C25.8720421,22.7057995 25.6152356,22.75 24.9361148,22.75 L24.9361148,22.75 L10.1897929,22.75 C9.19602878,22.75 8.84622777,22.7163986 8.46207139,22.6175398 C8.12542137,22.5309062 7.82877202,22.3944668 7.543906,22.1952434 C7.21884111,21.9679066 6.96568155,21.7241854 6.31894843,20.9696634 L6.31894843,20.9696634 L2.03155992,15.9677102 C1.62438461,15.4926723 1.49767499,15.2916515 1.42780864,15.0393436 C1.37453087,14.846942 1.37453087,14.653058 1.42780864,14.4606564 C1.49767499,14.2083485 1.62438461,14.0073277 2.03155992,13.5322898 L2.03155992,13.5322898 L6.31894843,8.53033655 C6.96568155,7.77581458 7.21884111,7.53209335 7.543906,7.30475656 C7.82877202,7.10553319 8.12542137,6.96909379 8.46207139,6.88246024 C8.84622777,6.78360139 9.19602878,6.75 10.1897929,6.75 L10.1897929,6.75 Z" id="矩形" stroke="#262626" stroke-width="1.5"></path>
                                    <path d="M13.1095762,11.0117777 L13.1985257,11.0296462 C13.2869552,11.0564488 13.3605141,11.0971889 13.5181139,11.2547886 L13.5181139,11.2547886 L15.9370442,13.6735442 L18.3568861,11.2547886 C18.5144859,11.0971889 18.5880448,11.0564488 18.6764743,11.0296462 C18.7649038,11.0028435 18.8553388,11.0028435 18.9437683,11.0296462 C19.0321978,11.0564488 19.1057567,11.0971889 19.2633565,11.2547886 L19.6827114,11.6741435 C19.8403111,11.8317433 19.8810512,11.9053022 19.9078538,11.9937317 C19.9346565,12.0821612 19.9346565,12.1725962 19.9078538,12.2610257 C19.8810512,12.3494552 19.8403111,12.4230141 19.6827114,12.5806139 L17.2630442,14.9995442 L19.6827114,17.4193861 C19.8140445,17.5507193 19.864225,17.6236907 19.8928146,17.6955408 L19.9078538,17.7389743 C19.9346565,17.8274038 19.9346565,17.9178388 19.9078538,18.0062683 C19.8810512,18.0946978 19.8403111,18.1682567 19.6827114,18.3258565 L19.6827114,18.3258565 L19.2633565,18.7452114 C19.1057567,18.9028111 19.0321978,18.9435512 18.9437683,18.9703538 C18.8553388,18.9971565 18.7649038,18.9971565 18.6764743,18.9703538 C18.5880448,18.9435512 18.5144859,18.9028111 18.3568861,18.7452114 L18.3568861,18.7452114 L15.9370442,16.3255442 L13.5181139,18.7452114 C13.3605141,18.9028111 13.2869552,18.9435512 13.1985257,18.9703538 C13.1100962,18.9971565 13.0196612,18.9971565 12.9312317,18.9703538 C12.8428022,18.9435512 12.7692433,18.9028111 12.6116435,18.7452114 L12.1922886,18.3258565 C12.0346889,18.1682567 11.9939488,18.0946978 11.9671462,18.0062683 C11.9403435,17.9178388 11.9403435,17.8274038 11.9671462,17.7389743 C11.9939488,17.6505448 12.0346889,17.5769859 12.1922886,17.4193861 L14.6110442,14.9995442 L12.1922886,12.5806139 C12.0609555,12.4492807 12.010775,12.3763093 11.9821854,12.3044592 L11.9671462,12.2610257 C11.9403435,12.1725962 11.9403435,12.0821612 11.9671462,11.9937317 C11.9939488,11.9053022 12.0346889,11.8317433 12.1922886,11.6741435 L12.1922886,11.6741435 L12.6116435,11.2547886 C12.7692433,11.0971889 12.8428022,11.0564488 12.9312317,11.0296462 C13.0196612,11.0028435 13.1100962,11.0028435 13.1985257,11.0296462 Z" id="形状结合" fill="#262626"></path>
                                </g>
                            </g>
                        </g>
                    </g>
                </g>
            </g>
        </g>
    </g>
</svg>