<?xml version="1.0" encoding="UTF-8"?>
<svg width="16px" height="16px" viewBox="0 0 16 16" version="1.1" xmlns="http://www.w3.org/2000/svg" xmlns:xlink="http://www.w3.org/1999/xlink">
    <title>修改</title>
    <g id="Edu-OS-Light" stroke="none" stroke-width="1" fill="none" fill-rule="evenodd">
        <g id="PC-控制面板-账户信息" transform="translate(-1335.000000, -376.000000)">
            <g id="控制面板备份" transform="translate(360.000000, 203.000000)">
                <g id="浅色-账户" transform="translate(316.000000, 72.000000)">
                    <g id="编组-5" transform="translate(659.000000, 99.000000)">
                        <g id="修改" transform="translate(0.000000, 2.000000)">
                            <rect id="矩形" fill="#000000" fill-rule="nonzero" opacity="0" x="0" y="0" width="16" height="16"></rect>
                            <path d="M12.4361148,6 C13.3276335,6 13.6509198,6.09282561 13.9768457,6.2671327 C14.3027716,6.4414398 14.5585602,6.69722837 14.7328673,7.0231543 C14.9071744,7.34908022 15,7.67236646 15,8.5638852 L15,13.4361148 C15,14.3276335 14.9071744,14.6509198 14.7328673,14.9768457 C14.5585602,15.3027716 14.3027716,15.5585602 13.9768457,15.7328673 C13.6509198,15.9071744 13.3276335,16 12.4361148,16 L3.5638852,16 C2.67236646,16 2.34908022,15.9071744 2.0231543,15.7328673 C1.69722837,15.5585602 1.4414398,15.3027716 1.2671327,14.9768457 C1.09282561,14.6509198 1,14.3276335 1,13.4361148 L1,8.5638852 C1,7.67236646 1.09282561,7.34908022 1.2671327,7.0231543 C1.4414398,6.69722837 1.69722837,6.4414398 2.0231543,6.2671327 C2.34908022,6.09282561 2.67236646,6 3.5638852,6 L12.4361148,6 Z M8.3590287,9 L7.6409713,9 C7.41809162,9 7.33727006,9.0232064 7.25578857,9.06678318 C7.17430709,9.11035995 7.11035995,9.17430709 7.06678318,9.25578857 C7.0232064,9.33727006 7,9.41809162 7,9.6409713 L7,9.6409713 L7,12.3590287 C7,12.5819084 7.0232064,12.6627299 7.06678318,12.7442114 C7.11035995,12.8256929 7.17430709,12.8896401 7.25578857,12.9332168 C7.33727006,12.9767936 7.41809162,13 7.6409713,13 L7.6409713,13 L8.3590287,13 C8.58190838,13 8.66272994,12.9767936 8.74421143,12.9332168 C8.82569291,12.8896401 8.88964005,12.8256929 8.93321682,12.7442114 C8.9767936,12.6627299 9,12.5819084 9,12.3590287 L9,12.3590287 L9,9.6409713 C9,9.41809162 8.9767936,9.33727006 8.93321682,9.25578857 C8.88964005,9.17430709 8.82569291,9.11035995 8.74421143,9.06678318 C8.66272994,9.0232064 8.58190838,9 8.3590287,9 L8.3590287,9 Z" id="形状结合" fill="#969A9F"></path>
                            <path d="M8,1 C10.209139,1 12,2.790861 12,5 L12,7 L12,7 L4,7 L4,5 C4,2.790861 5.790861,1 8,1 Z" id="矩形" stroke="#969A9F" stroke-width="2"></path>
                        </g>
                    </g>
                </g>
            </g>
        </g>
    </g>
</svg>