<?xml version="1.0" encoding="UTF-8"?>
<svg width="64px" height="64px" viewBox="0 0 64 64" version="1.1" xmlns="http://www.w3.org/2000/svg" xmlns:xlink="http://www.w3.org/1999/xlink">
    <title>warning</title>
    <g id="Edu-OS-Light" stroke="none" stroke-width="1" fill="none" fill-rule="evenodd">
        <g id="PC-控制面板01-1账户信息" transform="translate(-1657.000000, -1232.000000)">
            <g id="弹窗-修改密码备份-8" transform="translate(1509.000000, 1168.000000)">
                <g id="warning" transform="translate(148.000000, 64.000000)">
                    <rect id="矩形" stroke="#979797" stroke-width="2.66666667" fill="#D8D8D8" opacity="0" x="1.33333333" y="1.33333333" width="61.3333333" height="61.3333333" rx="2.66666667"></rect>
                    <path d="M39.0518398,10.4967676 L57.6904797,45.2888954 C59.7768851,49.1835189 58.3110348,54.0321009 54.4164112,56.1185064 C53.2544971,56.7409604 51.95678,57.0666667 50.6386399,57.0666667 L13.3613601,57.0666667 C8.9430821,57.0666667 5.3613601,53.4849447 5.3613601,49.0666667 C5.3613601,47.7485266 5.68706638,46.4508094 6.30952034,45.2888954 L24.9481602,10.4967676 C27.0345657,6.60214399 31.8831477,5.13629361 35.7777713,7.22269909 C37.1679998,7.96746438 38.3070745,9.10653901 39.0518398,10.4967676 Z" id="三角形" fill="#FF5F3D" fill-rule="nonzero"></path>
                    <path d="M32,18.6666667 C34.5086608,18.6666667 36.5423322,20.7003381 36.5423322,23.2089989 C36.5423322,23.3898813 36.5315277,23.5706022 36.5099765,23.7501961 L34.8650118,37.4582353 C34.6909791,38.9085074 33.4606767,40 32,40 C30.5393233,40 29.3090209,38.9085074 29.1349882,37.4582353 L27.4900235,23.7501961 C27.1911286,21.2594049 28.9680116,18.9979174 31.4588028,18.6990224 C31.6383967,18.6774712 31.8191176,18.6666667 32,18.6666667 Z" id="矩形" fill="#FFFFFF" fill-rule="nonzero"></path>
                    <rect id="矩形备份-19" fill="#FFFFFF" fill-rule="nonzero" x="27.7333333" y="42.1333333" width="8.53333333" height="8.53333333" rx="4.26666667"></rect>
                </g>
            </g>
        </g>
    </g>
</svg>