<svg width="16" height="16" viewBox="0 0 16 16" fill="none" xmlns="http://www.w3.org/2000/svg">
<rect opacity="0.01" width="16" height="16" rx="8" fill="white"/>
<rect x="1" y="2" width="14" height="2" rx="1" fill="white"/>
<path d="M3.6 6H12.4C12.6965 6 12.8588 6.00078 12.9754 6.0103C12.98 6.01068 12.9844 6.01107 12.9886 6.01145C12.9889 6.0156 12.9893 6.01999 12.9897 6.02463C12.9992 6.14122 13 6.30347 13 6.6V10.2C13 11.0566 12.9992 11.6389 12.9624 12.089C12.9266 12.5274 12.8617 12.7516 12.782 12.908C12.5903 13.2843 12.2843 13.5903 11.908 13.782C11.7516 13.8617 11.5274 13.9266 11.089 13.9624C10.6389 13.9992 10.0566 14 9.2 14H6.8C5.94342 14 5.36113 13.9992 4.91104 13.9624C4.47262 13.9266 4.24842 13.8617 4.09202 13.782C3.71569 13.5903 3.40973 13.2843 3.21799 12.908C3.1383 12.7516 3.07337 12.5274 3.03755 12.089C3.00078 11.6389 3 11.0566 3 10.2V6.6C3 6.30347 3.00078 6.14122 3.0103 6.02463C3.01068 6.01999 3.01107 6.0156 3.01145 6.01145C3.0156 6.01107 3.01999 6.01068 3.02463 6.0103C3.14122 6.00078 3.30347 6 3.6 6Z" stroke="white" stroke-width="2" stroke-linejoin="round"/>
<rect x="5.5" y="8.5" width="1" height="3" rx="0.5" stroke="white"/>
<rect x="9.5" y="8.5" width="1" height="3" rx="0.5" stroke="white"/>
<path d="M6 2C6 1.44772 6.44772 1 7 1H9C9.55228 1 10 1.44772 10 2V3H6V2Z" fill="white"/>
</svg>
