<?xml version="1.0" encoding="utf-8"?>
<!-- Generator: Adobe Illustrator 23.0.1, SVG Export Plug-In . SVG Version: 6.00 Build 0)  -->
<svg version="1.1" id="图层_1" xmlns="http://www.w3.org/2000/svg" xmlns:xlink="http://www.w3.org/1999/xlink" x="0px" y="0px"
	 width="188px" height="62px" viewBox="0 0 188 62" style="enable-background:new 0 0 188 62;" xml:space="preserve">
<style type="text/css">
	.st0{fill:#DD4814;}
	.st1{fill-rule:evenodd;clip-rule:evenodd;fill:#DD4814;}
	.st2{fill:#D14819;}
</style>
<g id="横向">
	<path class="st0" d="M82.8,12.3V41h-3.6c0.3-2.7,0.5-5.6,0.5-8.6V19.1c-1,1.8-2.1,3.7-3.5,5.8c-0.5-1.2-1.3-2.1-2.2-2.8
		c1.9-2.2,3.5-4.7,4.8-7.7c1.3-2.9,2.2-5.9,2.7-8.8c1.4,0.6,2.5,1,3.4,1.2c0.4,0.1,0.6,0.3,0.6,0.4c0,0.1-0.2,0.4-0.6,0.7
		C84.5,8.2,83.8,9.7,82.8,12.3z M96.8,18.7h-1.5c-0.4,4.9-1.3,9.1-2.7,12.4c-1.3,3.3-3.4,6.3-6.1,8.9c-0.9-1-2-1.7-3.3-2.1
		c2.8-2.2,4.9-4.7,6.3-7.8c1.4-3,2.2-6.8,2.7-11.4c-2.8,0-5.4,0.2-7.7,0.4v-3.7c1.8,0.2,4.4,0.4,7.9,0.4c0.1-1.3,0.1-2.9,0.1-4.8
		c0-1.9-0.1-3.7-0.4-5.5c1,0.3,2.5,0.4,4.5,0.4c0.3,0,0.4,0.1,0.4,0.3s-0.1,0.4-0.4,0.5c-0.4,0.2-0.7,0.9-0.7,2l-0.5,7.1h3.3
		c3.7,0,6.8-0.1,9.3-0.4v3.7c-2.4-0.3-5.1-0.4-8.2-0.4V34c0,0.8,0.1,1.3,0.2,1.6c0.1,0.3,0.3,0.5,0.7,0.6c0.4,0.1,1,0.2,1.9,0.2
		c0.9,0,1.5-0.1,1.9-0.3s0.7-0.6,0.9-1.3c0.2-0.7,0.4-1.9,0.6-3.5c1,1.2,2.2,1.8,3.6,2c-0.6,2.1-1.1,3.5-1.6,4.3
		c-0.4,0.8-1.1,1.3-1.8,1.5c-0.8,0.2-2.1,0.4-3.9,0.4c-1.8,0-3.1-0.1-3.8-0.3c-0.7-0.2-1.2-0.5-1.4-1c-0.2-0.5-0.3-1.4-0.3-2.8V18.7
		z M100.2,7.3c1.8,1.2,3.6,2.6,5.2,4.1l-2.3,2.8c-1.7-1.9-3.5-3.5-5.2-4.7L100.2,7.3L100.2,7.3z M124.2,5.9c0.5,1.3,0.9,2.6,1.2,3.8
		c3,0,5-0.1,5.7-0.2v2.7c-1.5-0.2-3.4-0.2-5.8-0.2h-7.5v4.3h2.9v-1.4c0-0.7-0.1-1.3-0.2-2c0.7,0.1,1.2,0.1,1.5,0.1l0.8,0
		c0.3,0,0.4,0,0.4,0.1c0,0.1-0.1,0.1-0.2,0.2c-0.2,0.1-0.3,0.3-0.3,0.6v2.5h2.4v-1.5c0-0.7-0.1-1.3-0.2-2c0.7,0.1,1.2,0.1,1.5,0.1
		l0.8,0c0.3,0,0.4,0,0.4,0.1c0,0.1-0.1,0.1-0.2,0.2c-0.2,0.1-0.3,0.3-0.3,0.6v2.6c2.5-0.1,4-0.1,4.5-0.2c0,1,0,2.5,0,4.6
		c0,2.1,0,3.4,0,3.8c-1.6-0.1-3.5-0.2-5.5-0.2h-8.4c-0.1,3.2-0.3,6-0.6,8.3c-0.3,2.3-0.9,4.7-1.8,7.1c-0.9-1.2-1.7-2-2.2-2.5
		c1-1.8,1.6-3.8,1.9-5.8c0.3-2.1,0.4-5,0.4-8.7c0-3.8,0-8.1-0.1-13c0.5,0.1,2.9,0.2,7.2,0.2c-0.5-1.4-1-2.4-1.7-3.3L124.2,5.9
		L124.2,5.9z M117.8,18.2v3.9h2.9v-3.9H117.8z M121.9,30.6v4.5c0.4-0.2,1-0.6,1.7-1.4c0.4,0.9,0.7,1.7,0.9,2.2l-4.6,3.7
		c-0.4-0.8-1-1.6-1.5-2.3c0.5-0.3,0.9-0.5,1-0.9c0.1-0.3,0.2-1,0.2-1.9v-5.7c0-1.8,0-3.1-0.1-3.7c0.7,0.1,1.2,0.1,1.7,0.1l1.1,0
		c0.3,0,0.4,0.1,0.4,0.2c0,0.1-0.1,0.2-0.2,0.4c-0.4,0.2-0.5,0.5-0.5,0.9v1.9h1c1.1,0,1.6,0,1.7-0.1v2.4c-0.4-0.1-0.9-0.1-1.7-0.1
		H121.9z M122.7,22.1h2.4v-3.9h-2.4V22.1z M127.6,30.3v5.1c1.1-0.3,2.3-1,3.6-2.3c0.1,0.8,0.4,1.6,0.8,2.5l-4.1,2.3
		c-1,0.6-1.7,1.1-2,1.5c-0.4-0.9-0.8-1.6-1.2-2.2c0.3-0.1,0.5-0.3,0.6-0.5c0.1-0.3,0.1-0.8,0.1-1.8v-6.3c0-1.9,0-3.2-0.1-3.9
		c0.5,0.1,1,0.1,1.5,0.1l1.3,0c0.3,0,0.5,0.1,0.5,0.2c0,0.1-0.1,0.3-0.3,0.4c-0.5,0.3-0.7,0.6-0.7,0.9v1.8h1.4c1.1,0,1.6,0,1.7-0.1
		v2.3c-0.4-0.1-0.9-0.1-1.7-0.1H127.6z M127.1,22.1h2.3v-3.9h-2.3V22.1z M135.5,32.2c1.1,0.8,2.1,1.2,2.9,1.3c0.2,0,0.4,0.1,0.4,0.2
		c0,0.1-0.1,0.2-0.3,0.3c-0.3,0.1-2.3,2.3-5.9,6.4c-0.8-0.9-1.6-1.5-2.6-1.8c1.8-1.3,3.1-2.3,3.7-3.2
		C134.3,34.6,134.9,33.5,135.5,32.2z M132,10.7c0.9,0.2,1.6,0.2,2.3,0.3c0-1.8-0.1-3.5-0.3-4.9c1,0.2,1.9,0.3,2.6,0.3
		c0.8,0,1.1,0.1,1.1,0.4c0,0.1-0.1,0.3-0.4,0.4c-0.2,0.1-0.4,0.3-0.5,0.4c-0.1,0.2-0.2,0.4-0.2,0.7V11h5.8c0-2.5-0.1-4.1-0.2-5
		c1.2,0.2,2.3,0.4,3.3,0.4c0.3,0,0.5,0.1,0.5,0.2c0,0.1-0.1,0.2-0.2,0.3c-0.5,0.3-0.7,0.7-0.7,1.2v2.7c0.7,0,1.5-0.1,2.5-0.2v2.6
		c-1-0.1-1.8-0.2-2.5-0.2v16.2c1.3-0.1,2.3-0.1,2.9-0.2v2.7c-0.7-0.2-3.4-0.2-8-0.2c-4.7,0-7.6,0.1-8.7,0.2v-2.7
		c0.7,0.1,1.6,0.1,2.9,0.2V13.1c-0.9,0.1-1.6,0.1-2.3,0.2V10.7L132,10.7z M136.7,17.1h5.8v-4h-5.8V17.1z M142.5,19.3h-5.8v3.5h5.8
		V19.3z M136.7,25v4.3h5.8V25H136.7z M142.8,32.2c2.1,2.4,3.8,4.4,5.1,6.1l-2.6,1.9c-1.1-2.4-2.6-4.5-4.5-6.4L142.8,32.2L142.8,32.2
		z M162.5,5.9c0.5,1.2,1,2.5,1.3,3.8c3.1,0,5-0.1,5.7-0.3v2.7c-0.8-0.1-2.4-0.2-4.6-0.3v3.3c2.1,0,3.5-0.1,4.1-0.3
		c-0.1,0.6-0.1,2.1-0.1,4.5c0,2.4,0,3.8,0.1,4.2c-0.7-0.2-2-0.2-3.9-0.3v3.2c1.1,0,1.9,0,2.4-0.1c-0.1,0.4-0.1,0.8-0.1,1.2
		c0,0.4,0,0.8,0.1,1.2c-0.5-0.1-1.3-0.1-2.4-0.1V34c1-0.7,2-1.7,3-2.9c0.2,0.7,0.6,1.4,1.1,2.1l-3.1,2.6c-1,0.9-1.8,1.7-2.2,2.5
		c-0.4-0.9-0.8-1.7-1.4-2.5c0.2-0.3,0.4-0.6,0.4-0.8c0.1-0.3,0.1-0.8,0.1-1.7v-9.8h-2.7v3.9l2.2-0.1c-0.1,0.4-0.1,0.8-0.1,1.2
		c0,0.4,0,0.8,0.1,1.2c-0.6-0.1-1.3-0.1-2.2-0.1v4.2c0.5-0.4,1-0.9,1.5-1.4c0.1,0.8,0.5,1.5,1,2.1l-2.9,2.7c-0.4,0.4-1,1-1.6,1.9
		c-0.3-1-0.8-1.8-1.4-2.6c0.8-0.6,1.2-1.6,1.2-3v-9.8h-1.7c-0.1,3.7-0.2,6.6-0.4,8.7c-0.2,2.1-0.8,4.3-1.7,6.7
		c-0.8-1.5-1.5-2.3-2.3-2.5c1.5-2.7,2.3-7.4,2.3-14.3c0-3.5-0.2-7.7-0.6-12.6c0.9,0.2,3.2,0.3,7,0.3c-0.4-1-1-2-1.6-2.9L162.5,5.9
		L162.5,5.9z M158.7,12h-2.1v3.3h2.1V12z M156.5,17.4v3.7h2.1v-3.7H156.5z M162.9,12h-2.1v3.3h2.1V12z M160.8,21.2h2.1v-3.7h-2.1
		V21.2z M164.9,21.2h2.1v-3.7h-2.1V21.2z M172.3,25.2c2.1,0,3.4-0.1,3.8-0.3c-0.1,4.9-0.8,8.4-1.9,10.5c-1.1,2.1-3,3.7-5.5,5
		c-0.6-0.9-1.4-1.6-2.3-2.2c2.7-0.9,4.6-2.2,5.7-4.1c-0.7-1-1.5-1.9-2.4-2.7l1.9-1.3c0.6,0.5,1.1,1.1,1.5,1.6
		c0.3-1.1,0.5-2.5,0.5-4.4h-2.2c-0.7,1.5-1.4,2.7-2,3.6c-0.9-0.6-1.7-0.9-2.4-0.9c2-2.3,3.2-4.8,3.6-7.5c0.9,0.4,1.7,0.6,2.4,0.7
		c0.2,0,0.3,0.1,0.3,0.2c0,0.1-0.1,0.2-0.2,0.4C173,23.7,172.7,24.2,172.3,25.2z M175.9,15c-0.6,1.7-1.2,3-1.9,3.9
		c-0.6,0.9-1.7,1.9-3.2,3.2c-0.4-0.8-0.9-1.4-1.7-1.9c1-0.6,1.9-1.3,2.6-2c0.7-0.7,1.5-1.8,2.4-3.3c-1.9,0-3.4,0.1-4.5,0.4v-2.6
		c0.6,0.2,2.7,0.4,6.2,0.4v-2.2c0-2.2-0.1-3.7-0.3-4.6c0.7,0.1,1.7,0.2,3,0.2c0.2,0,0.4,0.1,0.4,0.2c0,0.1-0.1,0.4-0.4,0.7
		c-0.2,0.3-0.4,0.8-0.4,1.5V13c4.9,0,7.6-0.1,8-0.4v2.6c-0.9-0.2-2.8-0.4-5.9-0.4c0.9,1.1,1.8,1.9,2.8,2.4c1,0.5,2.2,0.9,3.7,1.1
		c-0.7,0.9-1.3,1.9-1.6,3.2c-3.3-1.4-5.5-3.7-6.7-6.8h-0.2v2.9c0,2.1,0.1,3.9,0.3,5.5h-2.9c0.2-1.3,0.3-3.1,0.3-5.4V15z M172.2,7.2
		c0.8,1.3,1.7,2.7,2.5,4.3l-2.4,1.2c-0.4-1.3-1.2-2.7-2.4-4.2L172.2,7.2z M181.3,32.1v-4.6c-2,0-3.3,0.1-4.1,0.2V25
		c1,0.2,2.3,0.2,4,0.2c0-1.6-0.1-2.7-0.3-3.2c0.9,0.2,1.7,0.3,2.3,0.3l0.8,0c0.2,0,0.2,0,0.2,0.1c0,0.1-0.1,0.2-0.3,0.5
		c-0.2,0.2-0.3,0.6-0.3,1v1.4c1.5-0.1,2.6-0.1,3.1-0.2v2.6c-0.7-0.1-1.7-0.2-3.1-0.2v4.6c1.3,0,2.5-0.1,3.5-0.3v2.8
		c-0.8-0.2-1.9-0.2-3.5-0.3c0,2.7,0.1,4.6,0.2,5.6H181c0.2-1,0.3-2.9,0.3-5.6c-1.6,0-3.1,0.1-4.6,0.3c0.3-2,0.4-3.9,0.4-5.8
		c0.5,0.2,1.1,0.2,1.6,0.2l0.8,0c0.1,0,0.2,0.1,0.2,0.2c0,0.1-0.1,0.2-0.2,0.4c-0.1,0.1-0.2,1-0.2,2.5H181.3z M179.4,11.4
		c1.1-1.4,1.8-3,2.3-4.8c1,0.6,2,0.9,3,1.1c0.3,0.1,0.4,0.2,0.4,0.3c0,0.2-0.1,0.3-0.4,0.4c-0.2,0.1-0.5,0.3-0.9,0.8
		c-0.3,0.5-1,1.5-2,3.2C181.2,11.8,180.3,11.5,179.4,11.4L179.4,11.4z"/>
	<g>
		<g>
			<path class="st1" d="M30.9,0C13.9,0,0,13.9,0,30.9C0,48,13.9,61.9,30.9,61.9C48,61.9,61.9,48,61.9,30.9C61.9,13.9,48,0,30.9,0z
				 M42.4,7.3c2.5,0,4.5,2,4.5,4.5c0,2.5-2,4.5-4.5,4.5c-2.5,0-4.5-2-4.5-4.5C37.9,9.3,39.9,7.3,42.4,7.3z M31.1,11.4
				c1.8,0,3.6,0.3,5.3,0.7c0.2,3.1,2.8,5.6,6,5.6c1,0,1.8-0.2,2.6-0.6c3.3,3.2,5.4,7.6,5.7,12.5l-6.9,0.1
				c-0.7-6.4-6.1-11.4-12.7-11.4c-1.9,0-3.6,0.4-5.2,1.1l-3.6-6C25,12.1,28,11.4,31.1,11.4z M36.5,34.1l1,2l-1.9,1.8l0.1,1.5l-2.7,0
				l2.1-3l-0.7-0.9l-2,1.6l0,1l-2.6,0l1.7-1.5l1.6-1.9l-1.4-0.9l-1.4,0.7l-1.9,0.7l-1.7-0.3l-1,1.6l-0.3,2.3h-2.5l1.8-2.1l-0.5-1.3
				l-0.4-2.5l-1.3-3.2l2.4-4.4l2.2-1.3l2.3-2.3L28.6,23L29,23l2.5-2.5l-1.1,3.1l0.6,2.3l-1.6,2.2l2.4,1.8l3.4,1.4l2.4-1.3l1.4-2.1
				l2.3-0.7l-0.4,3l-1.5,0.5l-1.1-0.2l-2,1.1L36.5,34.1z M8.6,35.5c-2.5,0-4.5-2-4.5-4.5c0-2.5,2-4.5,4.5-4.5c2.5,0,4.5,2,4.5,4.5
				C13.1,33.5,11.1,35.5,8.6,35.5z M12,35.9c1.6-1.1,2.6-2.9,2.6-4.9c0-2-1-3.8-2.5-4.9c1.2-4.7,4.2-8.7,8.1-11.4l3.6,6
				c-3.3,2.3-5.4,6.1-5.4,10.4c0,4.2,2.1,8,5.2,10.3l-3.4,6.1C16.1,44.8,13.2,40.7,12,35.9z M42.5,54.6c-2.5,0-4.5-2-4.5-4.5
				s2-4.5,4.5-4.5c2.5,0,4.5,2,4.5,4.5S45,54.6,42.5,54.6z M45.3,44.9c-0.8-0.5-1.8-0.7-2.8-0.7c-3.3,0-6,2.7-6,6
				c-1.7,0.5-3.5,0.8-5.4,0.8c-3.2,0-6.1-0.8-8.8-2.1l3.4-6.1c1.6,0.8,3.5,1.2,5.4,1.2c6.7,0,12.2-5.1,12.7-11.6l6.9-0.1
				C50.6,37.1,48.5,41.6,45.3,44.9z"/>
		</g>
	</g>
	<g>
		<g>
			<path class="st2" d="M84,58.8c-0.8,0-1.6-0.1-2.2-0.4c-0.6-0.3-1.1-0.6-1.5-1.1c-0.4-0.5-0.7-1-0.9-1.6c-0.2-0.6-0.3-1.3-0.3-2
				v-8.1h1.8v7.9c0,1.3,0.3,2.2,0.9,2.8c0.6,0.6,1.3,0.9,2.2,0.9c0.5,0,0.9-0.1,1.3-0.2c0.4-0.1,0.7-0.4,1-0.7
				c0.3-0.3,0.5-0.7,0.6-1.1c0.1-0.5,0.2-1,0.2-1.7v-7.9h1.8v8.1c0,0.7-0.1,1.4-0.3,2c-0.2,0.6-0.5,1.2-0.9,1.6
				c-0.4,0.5-0.9,0.8-1.5,1.1C85.6,58.6,84.8,58.8,84,58.8z"/>
			<path class="st2" d="M93.7,49.2c0.2-0.1,0.5-0.3,1-0.4c0.4-0.1,0.9-0.2,1.5-0.2c0.7,0,1.3,0.1,1.9,0.4c0.5,0.2,1,0.6,1.4,1
				c0.4,0.4,0.7,1,0.8,1.6c0.2,0.6,0.3,1.3,0.3,2.1c0,0.8-0.1,1.5-0.3,2.1c-0.2,0.6-0.6,1.2-1,1.6c-0.4,0.4-0.9,0.8-1.5,1
				c-0.6,0.2-1.3,0.4-2,0.4c-0.8,0-1.5-0.1-2.1-0.2c-0.6-0.1-1.1-0.2-1.5-0.3V44.3l1.7-0.3V49.2z M93.7,57c0.2,0.1,0.4,0.1,0.7,0.1
				c0.3,0,0.7,0.1,1.2,0.1c0.9,0,1.7-0.3,2.2-0.9c0.6-0.6,0.8-1.5,0.8-2.6c0-0.5-0.1-1-0.1-1.4c-0.1-0.4-0.3-0.8-0.5-1.1
				c-0.2-0.3-0.5-0.6-0.9-0.7c-0.4-0.2-0.8-0.3-1.3-0.3c-0.5,0-0.9,0.1-1.3,0.2c-0.4,0.2-0.7,0.3-0.9,0.5V57z"/>
			<path class="st2" d="M110.8,58.2c-0.4,0.1-0.9,0.2-1.6,0.3c-0.7,0.1-1.4,0.2-2.3,0.2c-0.7,0-1.4-0.1-1.9-0.3
				c-0.5-0.2-0.9-0.5-1.2-0.9c-0.3-0.4-0.5-0.9-0.7-1.4c-0.1-0.5-0.2-1.1-0.2-1.8v-5.4h1.7v5.1c0,1.2,0.2,2,0.6,2.5
				c0.4,0.5,1,0.8,1.9,0.8c0.2,0,0.4,0,0.6,0c0.2,0,0.4,0,0.6,0c0.2,0,0.3,0,0.5-0.1c0.1,0,0.2,0,0.3-0.1v-8.2h1.7V58.2z"/>
			<path class="st2" d="M113.8,49.1c0.4-0.1,0.9-0.2,1.6-0.3c0.7-0.1,1.4-0.2,2.3-0.2c0.8,0,1.4,0.1,1.9,0.3
				c0.5,0.2,0.9,0.5,1.2,0.9c0.3,0.4,0.5,0.9,0.6,1.4c0.1,0.5,0.2,1.2,0.2,1.8v5.4h-1.7v-5.1c0-0.6,0-1.1-0.1-1.5
				c-0.1-0.4-0.2-0.8-0.4-1c-0.2-0.3-0.4-0.5-0.7-0.6c-0.3-0.1-0.7-0.2-1.2-0.2c-0.2,0-0.4,0-0.6,0c-0.2,0-0.4,0-0.6,0
				c-0.2,0-0.3,0-0.5,0.1c-0.1,0-0.2,0-0.3,0.1v8.2h-1.7V49.1z"/>
			<path class="st2" d="M126.2,48.8h3.7v1.5h-3.7v4.5c0,0.5,0,0.9,0.1,1.2c0.1,0.3,0.2,0.6,0.3,0.7c0.1,0.2,0.3,0.3,0.6,0.4
				c0.2,0.1,0.5,0.1,0.8,0.1c0.5,0,0.9-0.1,1.3-0.2c0.3-0.1,0.5-0.2,0.7-0.3l0.3,1.4c-0.2,0.1-0.5,0.2-0.9,0.3
				c-0.4,0.1-0.9,0.2-1.5,0.2c-0.7,0-1.2-0.1-1.6-0.3c-0.4-0.2-0.8-0.4-1-0.8c-0.3-0.3-0.4-0.7-0.6-1.2c-0.1-0.5-0.2-1.1-0.2-1.7
				v-8.7l1.7-0.3V48.8z"/>
			<path class="st2" d="M139.9,58.2c-0.4,0.1-0.9,0.2-1.6,0.3c-0.7,0.1-1.4,0.2-2.3,0.2c-0.7,0-1.4-0.1-1.9-0.3
				c-0.5-0.2-0.9-0.5-1.2-0.9c-0.3-0.4-0.5-0.9-0.7-1.4c-0.1-0.5-0.2-1.1-0.2-1.8v-5.4h1.7v5.1c0,1.2,0.2,2,0.6,2.5
				c0.4,0.5,1,0.8,1.9,0.8c0.2,0,0.4,0,0.6,0c0.2,0,0.4,0,0.6,0c0.2,0,0.3,0,0.5-0.1c0.1,0,0.2,0,0.3-0.1v-8.2h1.7V58.2z"/>
			<path class="st2" d="M157,45.6c-0.4,0.4-0.8,0.9-1.3,1.4c-0.5,0.5-1,1-1.5,1.6c-0.5,0.5-1.1,1.1-1.6,1.6c-0.5,0.5-1,1-1.5,1.5
				c0.5,0.4,1.1,0.8,1.7,1.4c0.6,0.5,1.2,1.1,1.8,1.8c0.6,0.6,1.1,1.3,1.6,1.9c0.5,0.6,0.9,1.3,1.3,1.8h-2.1
				c-0.4-0.6-0.8-1.2-1.3-1.8c-0.5-0.6-1-1.2-1.5-1.7c-0.5-0.5-1.1-1-1.6-1.5c-0.6-0.5-1.1-0.9-1.6-1.2v6.1h-1.8V45.6h1.8v5.7
				c0.4-0.4,0.9-0.9,1.4-1.4c0.5-0.5,1-1,1.5-1.6c0.5-0.5,1-1,1.4-1.5c0.5-0.5,0.8-0.9,1.1-1.3H157z"/>
			<path class="st2" d="M157.8,60.3c0.1,0.1,0.3,0.1,0.5,0.2c0.2,0.1,0.4,0.1,0.6,0.1c0.7,0,1.2-0.2,1.6-0.5c0.4-0.3,0.7-0.8,1-1.5
				c-0.8-1.5-1.5-3.1-2.2-4.7c-0.7-1.7-1.2-3.4-1.7-5.1h1.9c0.1,0.6,0.3,1.2,0.5,1.8c0.2,0.6,0.4,1.3,0.6,2c0.2,0.7,0.5,1.4,0.8,2.1
				c0.3,0.7,0.6,1.3,0.9,2c0.5-1.3,0.9-2.6,1.2-3.9c0.3-1.3,0.7-2.6,1-4h1.8c-0.4,1.8-0.9,3.6-1.5,5.3c-0.5,1.7-1.1,3.3-1.8,4.7
				c-0.2,0.6-0.5,1-0.8,1.4c-0.3,0.4-0.6,0.7-0.9,1c-0.3,0.3-0.7,0.5-1.1,0.6c-0.4,0.1-0.9,0.2-1.4,0.2c-0.1,0-0.3,0-0.4,0
				c-0.1,0-0.3,0-0.4-0.1c-0.1,0-0.3-0.1-0.4-0.1c-0.1,0-0.2-0.1-0.3-0.1L157.8,60.3z"/>
			<path class="st2" d="M171.2,58.7c-1.1,0-1.8-0.3-2.3-0.7c-0.4-0.4-0.7-1.1-0.7-2V44.3L170,44v11.7c0,0.3,0,0.5,0.1,0.7
				c0,0.2,0.1,0.3,0.2,0.4c0.1,0.1,0.3,0.2,0.4,0.3c0.2,0.1,0.4,0.1,0.7,0.1L171.2,58.7z"/>
			<path class="st2" d="M174.4,47c-0.3,0-0.6-0.1-0.8-0.3c-0.2-0.2-0.3-0.5-0.3-0.8c0-0.3,0.1-0.6,0.3-0.8c0.2-0.2,0.5-0.3,0.8-0.3
				c0.3,0,0.6,0.1,0.8,0.3c0.2,0.2,0.3,0.5,0.3,0.8c0,0.3-0.1,0.6-0.3,0.8C174.9,46.9,174.7,47,174.4,47z M175.2,58.5h-1.7v-9.7h1.7
				V58.5z"/>
			<path class="st2" d="M178.3,49.1c0.4-0.1,0.9-0.2,1.6-0.3c0.7-0.1,1.4-0.2,2.3-0.2c0.8,0,1.4,0.1,1.9,0.3
				c0.5,0.2,0.9,0.5,1.2,0.9c0.3,0.4,0.5,0.9,0.6,1.4c0.1,0.5,0.2,1.2,0.2,1.8v5.4h-1.7v-5.1c0-0.6,0-1.1-0.1-1.5
				c-0.1-0.4-0.2-0.8-0.4-1c-0.2-0.3-0.4-0.5-0.7-0.6c-0.3-0.1-0.7-0.2-1.2-0.2c-0.2,0-0.4,0-0.6,0c-0.2,0-0.4,0-0.6,0
				c-0.2,0-0.3,0-0.5,0.1c-0.1,0-0.2,0-0.3,0.1v8.2h-1.7V49.1z"/>
		</g>
	</g>
</g>
</svg>
