<svg id="图层_1" data-name="图层 1" xmlns="http://www.w3.org/2000/svg" viewBox="0 0 24 24"><defs><style>.cls-1{fill:#7e7e7e;}</style></defs><title>devices</title><path class="cls-1" d="M18,14.44a.59.59,0,0,1-.64-.15L9.7,6.62A.5.5,0,0,1,9.53,6,4,4,0,0,0,4,1.38L6.54,3.93A1.34,1.34,0,1,1,4.66,5.81L2.39,3.54c-.08-.08-.13-.22-.29-.19a3.75,3.75,0,0,0-.28,2.44,4,4,0,0,0,4.95,3,.49.49,0,0,1,.56.13L15,16.67a.43.43,0,0,1,.14.52,3.33,3.33,0,0,0-.12,1.57,3.92,3.92,0,0,0,5.63,3.08c-.85-.85-1.67-1.67-2.5-2.48a1.46,1.46,0,0,1-.5-1.25A1.27,1.27,0,0,1,18.54,17a1.28,1.28,0,0,1,1.44.35c.78.76,1.55,1.52,2.3,2.31.3.32.37.19.48-.13A3.73,3.73,0,0,0,22,15.64,3.82,3.82,0,0,0,18,14.44Z"/><path class="cls-1" d="M8.6,12.85c-.17-.17-.26-.14-.42,0L1.57,19.45A1.64,1.64,0,0,0,1,20.83a1.72,1.72,0,0,0,.16,1,2,2,0,0,0,3.34.54c2.23-2.17,4.42-4.38,6.63-6.57.17-.16.16-.25,0-.41C10.28,14.54,9.44,13.7,8.6,12.85Z"/><path class="cls-1" d="M22.62,1.87c-.36-.27-.6-.84-1-.87s-.8.39-1.22.54a4.31,4.31,0,0,0-2.75,2.72A5.64,5.64,0,0,1,16.1,6.4c-.85.79-1.64,1.62-2.47,2.43-.19.18-.24.29,0,.49.37.33.7.68,1.05,1a2.13,2.13,0,0,0,.22.18l.22-.21c.43-.42.88-.82,1.28-1.27a12.59,12.59,0,0,1,4.8-3.48A1.07,1.07,0,0,0,21.72,5,21.18,21.18,0,0,1,22.8,3C23.11,2.5,23.07,2.2,22.62,1.87Z"/></svg>