<svg id="图层_1" data-name="图层 1" xmlns="http://www.w3.org/2000/svg" viewBox="0 0 24 24"><title>devices_1</title><path d="M18,14.4a.6.6,0,0,1-.7-.1L9.7,6.6c-.2-.2-.2-.3-.2-.6A3.9,3.9,0,0,0,7.6,1.5,3.8,3.8,0,0,0,4,1.4L6.5,3.9a1.3,1.3,0,0,1,.1,2,1.2,1.2,0,0,1-1.9-.1L2.4,3.5c-.1,0-.1-.2-.3-.1a3.9,3.9,0,0,0-.3,2.4,4.1,4.1,0,0,0,5,3,.4.4,0,0,1,.5.1L15,16.7a.4.4,0,0,1,.2.5,2.9,2.9,0,0,0-.1,1.6,3.8,3.8,0,0,0,5.6,3l-2.5-2.4a1.4,1.4,0,0,1-.5-1.3,1.3,1.3,0,0,1,.8-1.1,1.4,1.4,0,0,1,1.5.4l2.3,2.3c.3.3.3.2.5-.1a3.9,3.9,0,0,0-.8-4A4.3,4.3,0,0,0,18,14.4Z" fill="#7e7e7e"/><path d="M8.6,12.9c-.2-.2-.3-.2-.4,0L1.6,19.5A1.4,1.4,0,0,0,1,20.8c0,.6,0,.7.2,1a2,2,0,0,0,3.3.6l6.6-6.6c.2-.2.2-.3,0-.4S9.4,13.7,8.6,12.9Z" fill="#7e7e7e"/><path d="M22.6,1.9c-.3-.3-.6-.9-1-.9s-.8.4-1.2.5a4,4,0,0,0-2.7,2.8,6.5,6.5,0,0,1-1.6,2.1L13.6,8.8c-.2.2-.2.3,0,.5l1.1,1,.2.2.2-.2A15.9,15.9,0,0,0,16.4,9a11.7,11.7,0,0,1,4.8-3.4,1,1,0,0,0,.5-.6c.4-.7.7-1.4,1.1-2S23.1,2.2,22.6,1.9Z" fill="#7e7e7e"/></svg>