<svg id="图层_1" data-name="图层 1" xmlns="http://www.w3.org/2000/svg" viewBox="0 0 24 24"><defs><style>.cls-1{fill:#7e7e7e;}</style></defs><title>network</title><path class="cls-1" d="M21,12c0-.75-1.61-1.75-4.3-2.33.07.77.11,1.55.11,2.33s0,1.56-.11,2.33C19.39,13.75,21,12.75,21,12Z"/><path class="cls-1" d="M7.57,16.43C3.9,15.78,1,14.28,1,12A11,11,0,0,0,12,23C9.72,23,8.22,20.1,7.57,16.43Z"/><path class="cls-1" d="M16.43,7.57C20.1,8.22,23,9.72,23,12A11,11,0,0,0,12,1C14.28,1,15.78,3.9,16.43,7.57Z"/><path class="cls-1" d="M3,12c0,.75,1.61,1.75,4.3,2.33-.07-.77-.11-1.55-.11-2.33s0-1.56.11-2.33C4.61,10.25,3,11.25,3,12Z"/><path class="cls-1" d="M7.57,7.57C8.22,3.9,9.72,1,12,1A11,11,0,0,0,1,12C1,9.72,3.9,8.22,7.57,7.57Z"/><path class="cls-1" d="M12,16.81c-.78,0-1.56,0-2.33-.11C10.25,19.39,11.25,21,12,21s1.75-1.61,2.33-4.3C13.56,16.77,12.78,16.81,12,16.81Z"/><path class="cls-1" d="M14.33,7.3C13.75,4.61,12.75,3,12,3S10.25,4.61,9.67,7.3c.77-.07,1.55-.11,2.33-.11S13.56,7.23,14.33,7.3Z"/><path class="cls-1" d="M14.66,14.66A22.07,22.07,0,0,0,14.81,12a22.07,22.07,0,0,0-.15-2.66A22.07,22.07,0,0,0,12,9.19a22.07,22.07,0,0,0-2.66.15A22.07,22.07,0,0,0,9.19,12a22.07,22.07,0,0,0,.15,2.66,22.07,22.07,0,0,0,2.66.15A22.07,22.07,0,0,0,14.66,14.66Z"/><path class="cls-1" d="M16.43,16.43C15.78,20.1,14.28,23,12,23A11,11,0,0,0,23,12C23,14.28,20.1,15.78,16.43,16.43Z"/></svg>