<svg id="图层_1" data-name="图层 1" xmlns="http://www.w3.org/2000/svg" viewBox="0 0 24 24"><title>network_1</title><path d="M21,12c0-.7-1.6-1.8-4.3-2.3a16.9,16.9,0,0,1,.1,2.3,16.9,16.9,0,0,1-.1,2.3C19.4,13.8,21,12.7,21,12Z" fill="#7e7e7e"/><path d="M7.6,16.4C3.9,15.8,1,14.3,1,12A11,11,0,0,0,12,23C9.7,23,8.2,20.1,7.6,16.4Z" fill="#7e7e7e"/><path d="M16.4,7.6C20.1,8.2,23,9.7,23,12A11,11,0,0,0,12,1C14.3,1,15.8,3.9,16.4,7.6Z" fill="#7e7e7e"/><path d="M3,12c0,.7,1.6,1.8,4.3,2.3A16.9,16.9,0,0,1,7.2,12a16.9,16.9,0,0,1,.1-2.3C4.6,10.2,3,11.3,3,12Z" fill="#7e7e7e"/><path d="M7.6,7.6C8.2,3.9,9.7,1,12,1A11,11,0,0,0,1,12C1,9.7,3.9,8.2,7.6,7.6Z" fill="#7e7e7e"/><path d="M12,16.8H9.7c.5,2.7,1.6,4.3,2.3,4.3s1.8-1.6,2.3-4.3Z" fill="#7e7e7e"/><path d="M14.3,7.3C13.8,4.6,12.7,3,12,3S10.2,4.6,9.7,7.3h4.6Z" fill="#7e7e7e"/><path d="M14.7,14.7a24.4,24.4,0,0,0,.1-2.7,24.4,24.4,0,0,0-.1-2.7H9.3A24.4,24.4,0,0,0,9.2,12a24.4,24.4,0,0,0,.1,2.7h5.4Z" fill="#7e7e7e"/><path d="M16.4,16.4C15.8,20.1,14.3,23,12,23A11,11,0,0,0,23,12C23,14.3,20.1,15.8,16.4,16.4Z" fill="#7e7e7e"/></svg>