<svg id="图层_1" data-name="图层 1" xmlns="http://www.w3.org/2000/svg" viewBox="0 0 24 24"><defs><style>.cls-1{fill:#7e7e7e;}</style></defs><title>personalized</title><path class="cls-1" d="M14.94,11.68c-.44.45-.56,1.1-.26,1.4a.69.69,0,0,0,.57.16,1.45,1.45,0,0,0,.84-.43L22,6.27l-.48-.48Z"/><path class="cls-1" d="M11.48,14.58h0c-.78,0-1.14.6-1.53,1.68l0,.12a7.83,7.83,0,0,1-1.09,1.87c1.77-.35,3.89-1.1,3.88-2.46A1.23,1.23,0,0,0,11.48,14.58Z"/><path class="cls-1" d="M22,6.27l-.48-.48L21.23,6c.13.21.26.42.38.64Z"/><path class="cls-1" d="M11.48,14.58h0c-.78,0-1.14.6-1.53,1.68l0,.12a7.83,7.83,0,0,1-1.09,1.87c1.77-.35,3.89-1.1,3.88-2.46A1.23,1.23,0,0,0,11.48,14.58Z"/><path class="cls-1" d="M14.68,13.08a.69.69,0,0,0,.57.16,1.45,1.45,0,0,0,.84-.43l5.52-6.15c-.12-.22-.25-.43-.38-.64l-6.29,5.66C14.5,12.13,14.38,12.78,14.68,13.08Z"/><path class="cls-1" d="M22.29,8.15l-5.11,5.69a2.93,2.93,0,0,1-1.77.89l-.27,0a2.13,2.13,0,0,1-1.52-.61,2.53,2.53,0,0,1,.27-3.54l0,0,6.4-5.76A11,11,0,1,0,12,23c2,0,4.5-1.45,5-2.48S16.5,18,17.5,17c1.27-1.27,2.59,0,3.8-.5S23,13.8,23,12A10.92,10.92,0,0,0,22.29,8.15ZM13,3a2,2,0,1,1-2,2A2,2,0,0,1,13,3ZM7,5A2,2,0,1,1,5,7,2,2,0,0,1,7,5ZM3,13a2,2,0,1,1,2,2A2,2,0,0,1,3,13Zm4,7H7a.75.75,0,0,1-.68-.43.77.77,0,0,1,.14-.84,11.06,11.06,0,0,0,2-2.85l0-.11c.29-.81,1-2.7,3-2.68a2.75,2.75,0,0,1,2.7,2.7C14.22,19.47,7.78,20,7,20Z"/></svg>