<svg id="图层_1" data-name="图层 1" xmlns="http://www.w3.org/2000/svg" viewBox="0 0 24 24"><title>personalized_1</title><path d="M14.9,11.7a1.1,1.1,0,0,0-.2,1.4c.2.2.4.2.5.1a1.1,1.1,0,0,0,.9-.4L22,6.3l-.5-.5Z" fill="#7e7e7e"/><path d="M11.5,14.6h0c-.8,0-1.2.6-1.6,1.7h0a6.7,6.7,0,0,1-1.1,1.8c1.8-.3,3.9-1,3.9-2.4A1.2,1.2,0,0,0,11.5,14.6Z" fill="#7e7e7e"/><path d="M22,6.3l-.5-.5-.3.2a1.6,1.6,0,0,1,.4.7Z" fill="#7e7e7e"/><path d="M11.5,14.6h0c-.8,0-1.2.6-1.6,1.7h0a6.7,6.7,0,0,1-1.1,1.8c1.8-.3,3.9-1,3.9-2.4A1.2,1.2,0,0,0,11.5,14.6Z" fill="#7e7e7e"/><path d="M14.7,13.1c.2.2.4.2.5.1a1.1,1.1,0,0,0,.9-.4l5.5-6.1a1.6,1.6,0,0,0-.4-.7l-6.3,5.7A1.1,1.1,0,0,0,14.7,13.1Z" fill="#7e7e7e"/><path d="M22.3,8.1l-5.1,5.7a2.4,2.4,0,0,1-1.8.9h-.3a2.2,2.2,0,0,1-1.5-.6,2.4,2.4,0,0,1,.3-3.5h0l6.4-5.8A11,11,0,1,0,12,23c2,0,4.5-1.5,5-2.5s-.5-2.5.5-3.5,2.6,0,3.8-.5S23,13.8,23,12A12.3,12.3,0,0,0,22.3,8.1ZM13,3a2,2,0,1,1-2,2A2,2,0,0,1,13,3ZM7,5A2,2,0,1,1,5,7,2,2,0,0,1,7,5ZM3,13a2,2,0,1,1,2,2A2,2,0,0,1,3,13Zm4,7H7a.8.8,0,0,1-.7-.4.8.8,0,0,1,.2-.9,13.5,13.5,0,0,0,2-2.8h0c.3-.8,1-2.7,3-2.7a2.7,2.7,0,0,1,2.7,2.7C14.2,19.5,7.8,19.9,7,20Z" fill="#7e7e7e"/></svg>