<svg id="图层_1" data-name="图层 1" xmlns="http://www.w3.org/2000/svg" viewBox="0 0 24 24"><defs><style>.cls-1{fill:#7e7e7e;}</style></defs><title>update</title><path class="cls-1" d="M16.17,11H23A11.11,11.11,0,0,0,13,1V7.83A3.17,3.17,0,0,0,16.17,11Z"/><path class="cls-1" d="M1,11H7.83A3.17,3.17,0,0,0,11,7.83V1A11.11,11.11,0,0,0,1,11Z"/><path class="cls-1" d="M7.83,13H1A11.11,11.11,0,0,0,11,23V16.17A3.17,3.17,0,0,0,7.83,13Z"/><path class="cls-1" d="M13,16.17V23A11.11,11.11,0,0,0,23,13H16.17A3.17,3.17,0,0,0,13,16.17Z"/></svg>