<svg id="图层_1" data-name="图层 1" xmlns="http://www.w3.org/2000/svg" viewBox="0 0 16 16"><rect width="16" height="16" rx="2" fill="#262626"/><path d="M0,12H4a0,0,0,0,1,0,0v4a0,0,0,0,1,0,0H2a2,2,0,0,1-2-2V12A0,0,0,0,1,0,12Z" fill="#fff"/><rect y="4" width="4" height="4" fill="#fff"/><rect x="4" width="4" height="4" fill="#fff"/><rect x="4" y="8" width="4" height="4" fill="#fff"/><rect x="8" y="12" width="4" height="4" fill="#fff"/><rect x="8" y="4" width="4" height="4" fill="#fff"/><rect x="12" y="8" width="4" height="4" fill="#fff"/><path d="M12,0h2a2,2,0,0,1,2,2V4a0,0,0,0,1,0,0H12a0,0,0,0,1,0,0V0A0,0,0,0,1,12,0Z" fill="#fff"/></svg>