<?xml version="1.0" encoding="UTF-8"?>
<svg width="16px" height="16px" viewBox="0 0 16 16" version="1.1" xmlns="http://www.w3.org/2000/svg" xmlns:xlink="http://www.w3.org/1999/xlink">
    <title>radio/selected_click</title>
    <g id="UI-Library" stroke="none" stroke-width="1" fill="none" fill-rule="evenodd">
        <g id="UI-Design-Guide-Light" transform="translate(-1202.000000, -4838.000000)">
            <g id="编组" transform="translate(87.000000, 4668.000000)">
                <g id="radio/selected_click_white" transform="translate(1115.000000, 166.000000)">
                    <g id="icon/单选-选中" transform="translate(0.000000, 4.000000)">
                        <rect id="矩形" fill="#D8D8D8" opacity="0" x="0" y="0" width="16" height="16" rx="4"></rect>
                        <path d="M8,0 C12.418278,0 16,3.581722 16,8 C16,12.418278 12.418278,16 8,16 C3.581722,16 0,12.418278 0,8 C0,3.581722 3.581722,0 8,0 Z M8,5 C6.34314575,5 5,6.34314575 5,8 C5,9.65685425 6.34314575,11 8,11 C9.65685425,11 11,9.65685425 11,8 C11,6.34314575 9.65685425,5 8,5 Z" id="形状结合" fill="#1BA0D5"></path>
                    </g>
                </g>
            </g>
        </g>
    </g>
</svg>