<svg id="图层_1" data-name="图层 1" xmlns="http://www.w3.org/2000/svg" viewBox="0 0 48 48"><title>devices</title><path d="M35.3,29.5c-.6.1-.9.1-1.3-.3L18.8,14a.9.9,0,0,1-.3-1.1,8,8,0,0,0-3.9-9.1,8,8,0,0,0-7.1-.1l5.1,5c1.2,1.3,1.3,2.9.2,3.9a2.7,2.7,0,0,1-4-.2L4.3,8c-.1-.2-.2-.5-.6-.4a7.9,7.9,0,0,0-.5,4.8A7.8,7.8,0,0,0,13,18.3a1.1,1.1,0,0,1,1.1.3L29.4,33.9c.3.3.5.5.3,1a6.5,6.5,0,0,0-.3,3.1,7.9,7.9,0,0,0,11.2,6.1l-4.9-4.9a2.7,2.7,0,0,1-1-2.5,2.5,2.5,0,0,1,1.6-2.1,2.6,2.6,0,0,1,2.9.7l4.6,4.5c.6.7.7.4.9-.2a7.8,7.8,0,0,0-9.4-10.1Z" fill="#3d6be5"/><path d="M17.2,25.7c-.4-.3-.6-.3-.9,0L3.1,38.9A3.7,3.7,0,0,0,2,41.7a3.8,3.8,0,0,0,.3,1.9A4.1,4.1,0,0,0,9,44.7L22.2,31.6c.4-.3.3-.5,0-.8Z" fill="#3d6be5"/><path d="M45.3,3.7c-.8-.5-1.2-1.6-2-1.7s-1.6.8-2.4,1.1a8.5,8.5,0,0,0-5.5,5.4,10.5,10.5,0,0,1-3,4.2l-4.9,4.8c-.4.4-.5.6,0,1l2,2,.5.4.4-.4A29.5,29.5,0,0,0,32.9,18a24.8,24.8,0,0,1,9.5-6.9A2.9,2.9,0,0,0,43.5,10a31.7,31.7,0,0,1,2.1-4.1A1.4,1.4,0,0,0,45.3,3.7Z" fill="#3d6be5"/></svg>