<svg id="图层_1" data-name="图层 1" xmlns="http://www.w3.org/2000/svg" viewBox="0 0 96 96"><defs><style>.cls-1{fill:#3d6be5;}</style></defs><title>devices_2</title><path class="cls-1" d="M70.52,58.93A2.32,2.32,0,0,1,68,58.32Q52.84,43.16,37.64,28.07A2,2,0,0,1,37,25.71,15.67,15.67,0,0,0,29.15,7.65C24.58,5.27,19.94,5.37,15,7.38c3.51,3.5,6.83,6.76,10.09,10.07,2.47,2.5,2.59,5.68.39,7.83s-5.31,2-7.85-.44c-3-3-6-6-9-8.94-.32-.31-.52-.86-1.18-.75A14.56,14.56,0,0,0,6.4,24.79,15.69,15.69,0,0,0,26,36.68a1.93,1.93,0,0,1,2.23.55q15.27,15.27,30.6,30.5a1.72,1.72,0,0,1,.54,2.07A13.37,13.37,0,0,0,58.89,76c1.33,10.66,12.87,17.12,22.33,12.18-3.38-3.35-6.63-6.59-9.9-9.81a5.6,5.6,0,0,1-2-4.9,4.93,4.93,0,0,1,3.35-4.23,5.12,5.12,0,0,1,5.73,1.37c3.07,3,6.15,6,9.1,9.11,1.2,1.26,1.49.76,1.92-.51a14.71,14.71,0,0,0-3.2-15.52C82,59,76.64,57.47,70.52,58.93Z"/><path class="cls-1" d="M34.3,51.45c-.69-.71-1-.57-1.66,0Q19.47,64.69,6.28,77.83a6.58,6.58,0,0,0-2.23,5.51c0,2.42,0,2.77.64,4A8.13,8.13,0,0,0,18,89.45c8.89-8.67,17.63-17.51,26.45-26.25.67-.67.64-1,0-1.67Q39.32,56.55,34.3,51.45Z"/><path class="cls-1" d="M90.51,7.45c-1.43-1.07-2.37-3.33-4-3.44S83.4,5.53,81.72,6.13A17,17,0,0,0,70.9,16.94a22.1,22.1,0,0,1-6.15,8.49c-3.34,3.11-6.47,6.44-9.74,9.62-.74.72-.93,1.18-.06,2,1.43,1.29,2.74,2.71,4.11,4.06.27.26.57.49.87.75.33-.31.62-.57.89-.84,1.69-1.67,3.48-3.26,5-5a50.17,50.17,0,0,1,19-13.82A3.92,3.92,0,0,0,86.93,20a87.05,87.05,0,0,1,4.29-8.18C92.43,10,92.26,8.76,90.51,7.45Z"/></svg>