<svg id="图层_1" data-name="图层 1" xmlns="http://www.w3.org/2000/svg" viewBox="0 0 96 96"><defs><style>.cls-1{fill:#3d6be5;}</style></defs><title>network_2</title><path class="cls-1" d="M8.38,47.68c0,4.56,8.39,9.48,21.72,11.91a107.7,107.7,0,0,1,0-23.81C16.77,38.21,8.38,43.12,8.38,47.68Z"/><path class="cls-1" d="M87.62,47.68c0-4.56-8.39-9.47-21.72-11.9a109.52,109.52,0,0,1,.66,11.9,109.84,109.84,0,0,1-.66,11.91C79.23,57.16,87.62,52.24,87.62,47.68Z"/><path class="cls-1" d="M30.82,64.74C17.71,62.58,6.69,57.93,4,51A44,44,0,0,0,44.65,91.36C37.68,88.69,33,77.75,30.82,64.74Z"/><path class="cls-1" d="M60,29.92C57.55,16.67,52.59,8.34,48,8.34s-9.55,8.33-12,21.58a109.24,109.24,0,0,1,24,0Z"/><path class="cls-1" d="M65.18,30.63C78.29,32.78,89.31,37.44,92,44.36A44,44,0,0,0,51.35,4C58.32,6.67,63,17.61,65.18,30.63Z"/><path class="cls-1" d="M30.82,30.63C33,17.61,37.68,6.67,44.65,4A44,44,0,0,0,4,44.36C6.69,37.44,17.71,32.78,30.82,30.63Z"/><path class="cls-1" d="M60.78,60.37a104.58,104.58,0,0,0,.76-12.69A104.58,104.58,0,0,0,60.78,35a109.26,109.26,0,0,0-25.56,0,106.32,106.32,0,0,0,0,25.38A106,106,0,0,0,48,61.13,106,106,0,0,0,60.78,60.37Z"/><path class="cls-1" d="M92,51c-2.69,6.93-13.71,11.58-26.82,13.74-2.17,13-6.86,24-13.83,26.62A44,44,0,0,0,92,51Z"/><path class="cls-1" d="M48,66.11a111.18,111.18,0,0,1-12-.66C38.45,78.69,43.41,87,48,87s9.55-8.33,12-21.57A111.18,111.18,0,0,1,48,66.11Z"/><path class="cls-1" d="M44.65,91.36a9.09,9.09,0,0,0,6.7,0c-1.11.09-2.22.14-3.35.14S45.76,91.45,44.65,91.36Z"/></svg>