<svg id="图层_1" data-name="图层 1" xmlns="http://www.w3.org/2000/svg" viewBox="0 0 48 48"><title>network</title><path d="M3.3,24c0,2.3,4.1,4.8,10.8,6q-.3-3-.3-6t.3-6C7.4,19.2,3.3,21.7,3.3,24Z" fill="#3d6be5"/><path d="M42.8,24c0-2.3-4.2-4.8-10.9-6,.2,2,.4,4,.4,6s-.2,4-.4,6C38.6,28.8,42.8,26.3,42.8,24Z" fill="#3d6be5"/><path d="M14.4,32.6c-6.5-1.1-12-3.5-13.3-6.9A21.9,21.9,0,0,0,21.3,45.9C17.9,44.6,15.5,39.1,14.4,32.6Z" fill="#3d6be5"/><path d="M29,15.1C27.8,8.4,25.3,4.3,23,4.3s-4.8,4.1-6,10.8l6-.3Z" fill="#3d6be5"/><path d="M31.6,15.4c6.5,1.1,12,3.5,13.3,6.9A21.9,21.9,0,0,0,24.7,2.1C28.1,3.4,30.5,8.9,31.6,15.4Z" fill="#3d6be5"/><path d="M14.4,15.4c1.1-6.5,3.5-12,6.9-13.3A21.9,21.9,0,0,0,1.1,22.3C2.4,18.9,7.9,16.5,14.4,15.4Z" fill="#3d6be5"/><path d="M29.4,30.4a62.8,62.8,0,0,0,.4-6.4,62.8,62.8,0,0,0-.4-6.4,64,64,0,0,0-6.4-.3,64,64,0,0,0-6.4.3,64,64,0,0,0-.3,6.4,64,64,0,0,0,.3,6.4,62.8,62.8,0,0,0,6.4.4A62.8,62.8,0,0,0,29.4,30.4Z" fill="#3d6be5"/><path d="M44.9,25.7c-1.3,3.4-6.8,5.8-13.3,6.9-1.1,6.5-3.5,12-6.9,13.3A21.9,21.9,0,0,0,44.9,25.7Z" fill="#3d6be5"/><path d="M23,33.3c-2,0-4-.2-6-.4,1.2,6.7,3.7,10.9,6,10.9s4.8-4.2,6-10.9C27,33.1,25,33.3,23,33.3Z" fill="#3d6be5"/><path d="M21.3,45.9a5.3,5.3,0,0,0,1.7.4,5.3,5.3,0,0,0,1.7-.4H21.3Z" fill="#3d6be5"/></svg>