<svg id="图层_1" data-name="图层 1" xmlns="http://www.w3.org/2000/svg" viewBox="0 0 48 48"><title>personalized</title><path d="M23,28.9h-.1c-1.8,0-2.6,1.7-3.3,3.5v.3A17.1,17.1,0,0,1,17,36.9c3.8-.7,8.6-2.3,8.6-5.3A2.7,2.7,0,0,0,23,28.9Z" fill="#3d6be5"/><path d="M43.6,11.9h0a.9.9,0,0,0-1.3-.1L29.7,23.2c-1,1-1.2,2.4-.5,3.1a1.2,1.2,0,0,0,1.3.4,3.1,3.1,0,0,0,1.9-.9L43,13.9h0l.7-.7A.9.9,0,0,0,43.6,11.9Z" fill="#3d6be5"/><path d="M23,28.9h-.1c-1.8,0-2.6,1.7-3.3,3.5v.3A17.1,17.1,0,0,1,17,36.9c3.8-.7,8.6-2.3,8.6-5.3A2.7,2.7,0,0,0,23,28.9Z" fill="#3d6be5"/><path d="M44.2,16.3l-10,11.2a5.5,5.5,0,0,1-3.4,1.7h-.5a4.2,4.2,0,0,1-2.9-1.1c-1.7-1.7-1.4-4.7.6-6.7h0l12.3-11A21.7,21.7,0,0,0,24,3a22,22,0,0,0,0,44c4,0,9-2.9,10-5s-1-5,1-7,5.2,0,7.6-1S46,28.6,46,25A21.2,21.2,0,0,0,44.2,16.3ZM26,8.5A3.5,3.5,0,1,1,22.5,12,3.5,3.5,0,0,1,26,8.5Zm-13,3A3.5,3.5,0,1,1,9.5,15,3.5,3.5,0,0,1,13,11.5ZM7.5,27A3.5,3.5,0,1,1,11,30.5,3.5,3.5,0,0,1,7.5,27Zm20.6,4.6c.1,7.1-12.6,8.1-14,8.1H14a1.1,1.1,0,0,1-1.1-.7,1.2,1.2,0,0,1,.2-1.4c.9-.9,3.4-3.8,4.1-5.8v-.2c.6-1.7,1.8-5.2,5.6-5.2H23a5.1,5.1,0,0,1,5.1,5.2Z" fill="#3d6be5"/></svg>