<svg id="图层_1" data-name="图层 1" xmlns="http://www.w3.org/2000/svg" viewBox="0 0 96 96"><defs><style>.cls-1{fill:#3d6be5;}</style></defs><title>personalized_2</title><path class="cls-1" d="M45.93,55.84h-.06c-3.74,0-5.24,3.33-6.57,7l-.18.49a33.94,33.94,0,0,1-5,8.33c7.46-1.33,17.22-4.45,17.16-10.54A5.39,5.39,0,0,0,45.93,55.84Z"/><path class="cls-1" d="M87.26,21.76h0a1.93,1.93,0,0,0-2.65-.07L59.4,44.35c-2,2-2.47,4.91-1,6.33a3.3,3.3,0,0,0,2.69.78,6.37,6.37,0,0,0,3.68-1.87L86,25.87h0l1.31-1.45A1.94,1.94,0,0,0,87.26,21.76Z"/><path class="cls-1" d="M45.93,55.84h-.06c-3.74,0-5.24,3.33-6.57,7l-.18.49a33.94,33.94,0,0,1-5,8.33c7.46-1.33,17.22-4.45,17.16-10.54A5.39,5.39,0,0,0,45.93,55.84Z"/><path class="cls-1" d="M88.45,30.66,68.35,53a11.35,11.35,0,0,1-6.76,3.4,9,9,0,0,1-1,.06,8,8,0,0,1-5.74-2.28c-3.41-3.4-2.92-9.43,1.09-13.44l.09-.09L80.66,18.52A44,44,0,1,0,48,92c8,0,18-5.81,20-9.9S66,72,70,68c5.1-5.1,10.37,0,15.18-2S92,55.21,92,48A43.91,43.91,0,0,0,88.45,30.66ZM52,15a7,7,0,1,1-7,7A7,7,0,0,1,52,15ZM26,21a7,7,0,1,1-7,7A7,7,0,0,1,26,21ZM15,52a7,7,0,1,1,7,7A7,7,0,0,1,15,52Zm41.24,9.11C56.37,75.43,31,77.3,28.14,77.47H28a2.5,2.5,0,0,1-1.81-4.23C28,71.36,33,65.6,34.42,61.66l.17-.46c1.2-3.37,3.71-10.36,11.27-10.36H46A10.42,10.42,0,0,1,56.24,61.11Z"/></svg>