<svg id="图层_1" data-name="图层 1" xmlns="http://www.w3.org/2000/svg" viewBox="0 0 96 96"><defs><style>.cls-1{fill:#3d6be5;}</style></defs><title>update_2</title><path class="cls-1" d="M64.7,44H92A44.43,44.43,0,0,0,52,4V31.3A12.71,12.71,0,0,0,64.7,44Z"/><path class="cls-1" d="M4,44H31.3A12.71,12.71,0,0,0,44,31.3V4A44.43,44.43,0,0,0,4,44Z"/><path class="cls-1" d="M31.3,52H4A44.43,44.43,0,0,0,44,92V64.7A12.71,12.71,0,0,0,31.3,52Z"/><path class="cls-1" d="M52,64.7V92A44.43,44.43,0,0,0,92,52H64.7A12.71,12.71,0,0,0,52,64.7Z"/></svg>