<svg width="48" height="48" viewBox="0 0 48 48" fill="none" xmlns="http://www.w3.org/2000/svg">
<rect opacity="0.01" x="0.5" y="0.5" width="47" height="47" rx="0.5" fill="#D8D8D8" stroke="#979797"/>
<path fill-rule="evenodd" clip-rule="evenodd" d="M29.2889 7.87097L43.2678 33.9651C44.8326 36.886 43.7332 40.5225 40.8123 42.0873C39.9408 42.5541 38.9676 42.7984 37.979 42.7984H10.021C6.70729 42.7984 4.021 40.1121 4.021 36.7984C4.021 35.8098 4.26528 34.8365 4.73212 33.9651L18.7111 7.87097C20.2759 4.95 23.9123 3.85062 26.8333 5.41542C27.876 5.97399 28.7303 6.8283 29.2889 7.87097ZM20.6175 17.811C20.3741 15.7832 21.9576 13.9984 24 13.9984C26.0424 13.9984 27.6258 15.7832 27.3825 17.811L26.1487 28.0921C26.0182 29.1798 25.0955 29.9984 24 29.9984C22.9045 29.9984 21.9817 29.1798 21.8512 28.0921L20.6175 17.811ZM24 31.5984C22.2327 31.5984 20.8 33.0311 20.8 34.7984C20.8 36.5657 22.2327 37.9984 24 37.9984C25.7673 37.9984 27.2 36.5657 27.2 34.7984C27.2 33.0311 25.7673 31.5984 24 31.5984Z" fill="#FF5F3D"/>
<path d="M43.2678 33.9651L43.7086 33.729L43.2678 33.9651ZM29.2889 7.87097L29.7296 7.63486V7.63486L29.2889 7.87097ZM40.8123 42.0873L41.0484 42.528L40.8123 42.0873ZM4.73212 33.9651L5.17286 34.2012L4.73212 33.9651ZM18.7111 7.87097L18.2704 7.63486L18.7111 7.87097ZM26.8333 5.41542L26.5972 5.85616L26.8333 5.41542ZM20.6175 17.811L21.1139 17.7515V17.7515L20.6175 17.811ZM27.3825 17.811L26.886 17.7515V17.7515L27.3825 17.811ZM26.1487 28.0921L26.6452 28.1516L26.1487 28.0921ZM21.8512 28.0921L21.3548 28.1516L21.8512 28.0921ZM43.7086 33.729L29.7296 7.63486L28.8481 8.10708L42.8271 34.2012L43.7086 33.729ZM41.0484 42.528C44.2128 40.8328 45.4038 36.8933 43.7086 33.729L42.8271 34.2012C44.2615 36.8787 43.2537 40.2121 40.5762 41.6465L41.0484 42.528ZM37.979 43.2984C39.0499 43.2984 40.1043 43.0338 41.0484 42.528L40.5762 41.6465C39.7774 42.0745 38.8852 42.2984 37.979 42.2984V43.2984ZM10.021 43.2984H37.979V42.2984H10.021V43.2984ZM3.521 36.7984C3.521 40.3882 6.43115 43.2984 10.021 43.2984V42.2984C6.98343 42.2984 4.521 39.836 4.521 36.7984H3.521ZM4.29138 33.729C3.78563 34.673 3.521 35.7274 3.521 36.7984H4.521C4.521 35.8922 4.74492 35 5.17286 34.2012L4.29138 33.729ZM18.2704 7.63486L4.29138 33.729L5.17286 34.2012L19.1518 8.10708L18.2704 7.63486ZM27.0694 4.97468C23.905 3.27948 19.9656 4.47048 18.2704 7.63486L19.1518 8.10708C20.5862 5.42953 23.9196 4.42176 26.5972 5.85616L27.0694 4.97468ZM29.7296 7.63486C29.1245 6.5053 28.199 5.5798 27.0694 4.97468L26.5972 5.85616C27.553 6.36819 28.3361 7.1513 28.8481 8.10708L29.7296 7.63486ZM24 13.4984C21.6578 13.4984 19.842 15.5451 20.1211 17.8706L21.1139 17.7515C20.9063 16.0212 22.2573 14.4984 24 14.4984V13.4984ZM27.8789 17.8706C28.158 15.5451 26.3422 13.4984 24 13.4984V14.4984C25.7426 14.4984 27.0937 16.0212 26.886 17.7515L27.8789 17.8706ZM26.6452 28.1516L27.8789 17.8706L26.886 17.7515L25.6523 28.0325L26.6452 28.1516ZM24 30.4984C25.3486 30.4984 26.4845 29.4906 26.6452 28.1516L25.6523 28.0325C25.5519 28.8689 24.8424 29.4984 24 29.4984V30.4984ZM21.3548 28.1516C21.5155 29.4906 22.6514 30.4984 24 30.4984V29.4984C23.1576 29.4984 22.448 28.8689 22.3477 28.0325L21.3548 28.1516ZM20.1211 17.8706L21.3548 28.1516L22.3477 28.0325L21.1139 17.7515L20.1211 17.8706ZM21.3 34.7984C21.3 33.3072 22.5088 32.0984 24 32.0984V31.0984C21.9565 31.0984 20.3 32.7549 20.3 34.7984H21.3ZM24 37.4984C22.5088 37.4984 21.3 36.2896 21.3 34.7984H20.3C20.3 36.8419 21.9565 38.4984 24 38.4984V37.4984ZM26.7 34.7984C26.7 36.2896 25.4911 37.4984 24 37.4984V38.4984C26.0434 38.4984 27.7 36.8418 27.7 34.7984H26.7ZM24 32.0984C25.4911 32.0984 26.7 33.3072 26.7 34.7984H27.7C27.7 32.7549 26.0434 31.0984 24 31.0984V32.0984Z" fill="url(#paint0_linear_247_58206)"/>
<defs>
<linearGradient id="paint0_linear_247_58206" x1="4.021" y1="4.70312" x2="4.021" y2="42.7984" gradientUnits="userSpaceOnUse">
<stop stop-color="#FFA08B"/>
<stop offset="1" stop-color="#F14C29"/>
</linearGradient>
</defs>
</svg>
