<svg id="图层_1" data-name="图层 1" xmlns="http://www.w3.org/2000/svg" xmlns:xlink="http://www.w3.org/1999/xlink" viewBox="0 0 256 256"><defs><style>.cls-1{fill:none;}.cls-2{clip-path:url(#clip-path);}.cls-3{opacity:0.15;}.cls-4{fill:#fff;}</style><clipPath id="clip-path"><rect class="cls-1" width="256" height="256"/></clipPath></defs><title>avatar</title><g class="cls-2"><g class="cls-2"><g class="cls-3"><g class="cls-2"><path d="M256,128A128,128,0,1,1,128,0,128,128,0,0,1,256,128"/></g></g><path class="cls-4" d="M164,143H92a30,30,0,0,0-30,30v12a18,18,0,0,0,18,18h96a18,18,0,0,0,18-18V173a30,30,0,0,0-30-30"/><path class="cls-4" d="M128,123A35,35,0,1,0,93,88a35,35,0,0,0,35,35"/></g></g></svg>