<?xml version="1.0" encoding="utf-8"?>
<!-- Generator: Adobe Illustrator 23.0.1, SVG Export Plug-In . SVG Version: 6.00 Build 0)  -->
<svg version="1.1" id="图层_1" xmlns="http://www.w3.org/2000/svg" xmlns:xlink="http://www.w3.org/1999/xlink" x="0px" y="0px"
	 width="60px" height="60px" viewBox="0 0 60 60" style="enable-background:new 0 0 60 60;" xml:space="preserve">
<style type="text/css">
	.st0{fill:#2669B5;}
</style>
<path class="st0" d="M52.2,44.9c-3-4.2-7.8-6.7-11.2-8.1l0.4-0.3l-0.8-0.7l-3.1-2.7c0.5-0.7,1-1.5,1.4-2.3c0.2,0,0.4,0.1,0.6,0.1
	c1.7,0,3.3-1.3,4.1-3.2c0.7-1.7,0.5-3.6-0.5-4.8c1.1-3.4,1-6.8-0.2-10.3c-2.5-7.1-8.1-9.6-12.4-9.6c-3.8,0-8.6,0-12.3,4.9
	c-2.6,3.5-4.7,9.6-3.3,15c-0.9,1.2-1.1,2.9-0.6,4.5c0.7,2,2.4,3.4,4.1,3.4c0.2,0,0.3,0,0.5,0c0.4,0.8,0.9,1.6,1.4,2.3l-3.1,2.7
	l-0.8,0.7l0.5,0.4c-1.9,0.9-3.7,2.1-5.6,3.8C4.1,47.2,4,55.6,4,55.9l0,1h1h22.9l0.1,0.2l1,2.8l0.9-2.8l0.1-0.2h24.8h1l0-1
	C55.8,55.7,56,50.2,52.2,44.9z M33,47.1l-1.3-2.9l0.5-0.5l0.1,0.1l6.5-6.2c3.3,1.1,8.7,3.7,12.2,8.2c2.9,3.6,3.3,8.2,3.3,9.6H30.5
	l2.6-7.6l0.1-0.4L33,47.1z M24.8,47.8l2.6,7.6H5.5c0.1-1.8,1-8.4,6.8-13.6c2.6-2.3,4.8-3.5,6.8-4.2l5.9,5.7l0,0l1,1l-1.2,2.7
	l-0.2,0.4L24.8,47.8z M28.8,39.5L28.8,39.5L27.2,38l-1.8-1.6c1,0.4,2.1,0.7,3.2,0.7c0.1,0,0.2,0,0.4,0c0.2,0,0.4,0,0.6,0
	c1.1-0.1,2.1-0.3,3-0.7l-2.5,2.2l-1.1,1L28.8,39.5L28.8,39.5z M23.7,34.3c-1.5-1.1-2.7-2.7-3.6-4.6c-0.1-0.3-0.3-0.6-0.4-0.9
	c-0.1-0.2-0.1-0.3-0.2-0.5v-7.4c0-0.8,0.3-5,5.2-8.1c0.9,1.4,4.2,6.1,7.8,7.3c3,1,5.2,1.1,6.2,1v1.8v1.3v3.3
	c-0.1,0.4-0.3,0.9-0.4,1.3c-0.1,0.3-0.3,0.7-0.4,1c-0.9,1.8-2,3.3-3.4,4.4c-0.3,0.3-0.7,0.5-1,0.7c-1.2,0.7-2.5,1.2-3.9,1.3
	c-0.3,0-0.6,0-0.8,0c-1.4-0.1-2.7-0.5-3.9-1.1C24.4,34.8,24.1,34.6,23.7,34.3z M15.8,27c-0.3-1-0.3-2.1,0.1-2.8
	c0.5,1.4,1.3,2.7,2.5,3.9c0.1,0.4,0.3,0.8,0.5,1.2C17.6,29.6,16.3,28.6,15.8,27z M18.5,20.9v0.4v2.2v3.3c-0.3-0.3-0.5-0.7-0.7-1
	c-0.5-0.8-0.9-1.6-1.1-2.4c-0.1-0.3-0.2-0.6-0.3-1c-1.1-4.8,0.8-10.3,3.1-13.6c2.9-4.3,7.8-4.3,11.1-4.3c2.9,0,8.6,1.8,11,8.6
	c1.3,3.6,1,6.8,0.2,9.3c-0.1,0.3-0.2,0.6-0.3,1c-0.4,1.1-0.9,2-1.3,2.7c-0.1,0.2-0.3,0.4-0.4,0.6l0-3.2l0-1.1l0-2.4
	c0,0-3.1,0.4-6.9-0.9c-3.8-1.3-7.5-7.2-7.5-7.2L25,11.5l-0.4,0.2c-3.6,2.1-5.1,4.8-5.7,6.8C18.6,19.6,18.5,20.6,18.5,20.9z
	 M39.1,29.3c0.1-0.2,0.2-0.4,0.2-0.6l0.2-0.2c0,0,1.5-1.6,2.6-4.3c0.4,0.8,0.5,1.9,0.1,3h0c-0.3,0.8-0.9,1.5-1.5,1.9
	C40.1,29.3,39.6,29.4,39.1,29.3z M32.4,42.4l-2.2-2.5l0.5-0.5l3.7-3.3l0.1-0.1l1.7-1.5l2.1,1.8l0.2,0.2l-0.7,0.7L32.4,42.4z
	 M23.4,36l0.3,0.3l2.8,2.5l1.2,1.1l-2.2,2.5l-5.2-5l-0.8-0.8l0,0l2.3-2L23.4,36z M26.5,43.3l0.1-0.1l1.8-1.9l0.4-0.4l0.4,0.4l2,2
	L30.6,44l-1.7,1.8l-1.6-1.6L26.5,43.3L26.5,43.3z M39.6,36.8L39.6,36.8l0.3-0.3L39.6,36.8z M21.4,33.5L21.4,33.5l-3.4,3l0.4,0.4h0
	L18,36.5L21.4,33.5z M29.1,56.4L29,56.8l-0.1-0.4l-0.3-1l-2.7-8l1.1-2.3l2,2.1L31,45l1.1,2.5l-2.7,8L29.1,56.4z"/>
</svg>
