<?xml version="1.0" encoding="utf-8"?>
<!-- Generator: Adobe Illustrator 23.0.1, SVG Export Plug-In . SVG Version: 6.00 Build 0)  -->
<svg version="1.1" id="其他" xmlns="http://www.w3.org/2000/svg" xmlns:xlink="http://www.w3.org/1999/xlink" x="0px" y="0px"
	 width="64px" height="64px" viewBox="0 0 64 64" style="enable-background:new 0 0 64 64;" xml:space="preserve">
<style type="text/css">
	.st0{fill:#2669B5;}
</style>
<g>
	<path class="st0" d="M9.9,15.7h5.6l0,0c0.1,0,0.3-0.1,0.4-0.1c0.2-0.1,0.4-0.2,0.6-0.4c0,0,0,0,0.1-0.1c0.3-0.3,0.4-0.7,0.4-1.2
		l0-4.5l0,0c0-0.4-0.1-0.9-0.4-1.2c-0.3-0.3-0.7-0.5-1.2-0.5l-5.6,0C9.4,7.8,9,8,8.7,8.3C8.4,8.6,8.3,9.1,8.3,9.5V14
		C8.2,14.9,8.9,15.6,9.9,15.7z M9.4,9c0.1-0.1,0.3-0.2,0.4-0.2l5.5,0c0.2,0,0.3,0.1,0.4,0.2C15.9,9.1,16,9.2,16,9.4l0,0l0,1.2l0,0.8
		l0,2.2l0,0.4l0,0c0,0.1,0,0.3-0.1,0.4c0,0,0,0,0,0.1c-0.1,0.1-0.3,0.2-0.4,0.2h0l-0.6,0l-4.9,0c-0.4,0-0.6-0.3-0.6-0.7l0-4.5
		C9.3,9.3,9.3,9.1,9.4,9z"/>
	<path class="st0" d="M23.9,15.7h5.6l0,0c0.4,0,0.8-0.2,1.1-0.5c0.3-0.3,0.4-0.7,0.4-1.2V9.5c0-0.4-0.1-0.9-0.4-1.2
		c-0.3-0.3-0.7-0.5-1.2-0.5l-5.6,0c-0.4,0-0.8,0.2-1.1,0.5c-0.3,0.3-0.4,0.7-0.4,1.2V14l0,0C22.3,14.9,23,15.6,23.9,15.7z M23.5,9
		c0.1-0.1,0.3-0.2,0.4-0.2l5.5,0c0.2,0,0.3,0.1,0.4,0.2C30,9.1,30,9.3,30,9.5v1.4v1.6V14l0,0c0,0.2-0.1,0.3-0.2,0.5
		c-0.1,0.1-0.3,0.2-0.4,0.2h0l-0.8,0l-1.8,0l-0.8,0l-2.1,0c-0.3,0-0.6-0.3-0.6-0.6l0-4.6C23.3,9.3,23.3,9.1,23.5,9z"/>
	<path class="st0" d="M15.3,27.9c0.3-0.3,0.4-0.7,0.4-1.2l0-4.5c0-0.4-0.1-0.9-0.4-1.2c-0.2-0.2-0.4-0.3-0.6-0.4
		c-0.2-0.1-0.3-0.1-0.5-0.1l-5.6,0c-0.2,0-0.3,0.1-0.5,0.1c-0.2,0.1-0.5,0.2-0.6,0.4C7.2,21.4,7,21.8,7,22.2v4.5
		c0,0.9,0.7,1.7,1.6,1.7l5.5,0C14.6,28.4,15,28.2,15.3,27.9z M8.7,27.4c-0.4,0-0.6-0.3-0.6-0.7l0-4.5c0-0.2,0.1-0.3,0.2-0.5
		c0.1-0.1,0.3-0.2,0.4-0.2l5.5,0c0.2,0,0.3,0.1,0.4,0.2c0.1,0.1,0.2,0.3,0.2,0.5l0,4.5l0,0c0,0.2,0,0.3-0.2,0.5
		c-0.1,0.1-0.3,0.2-0.4,0.2L8.7,27.4z"/>
	<path class="st0" d="M49.1,15.5V8.8c0.1-2.2-1.6-4-3.8-4.1l-0.1,0h-0.1h-9.4h-0.1l-0.1,0c-0.8,0-1.6,0.3-2.2,0.8
		c-0.6-0.5-1.4-0.8-2.2-0.8l-0.1,0h-0.1h-9.4h-0.1l-0.1,0c-0.8,0-1.6,0.3-2.2,0.8c-0.6-0.5-1.4-0.8-2.2-0.8l-0.1,0h-0.1H7.8H7.7
		l-0.1,0C5.5,4.8,3.8,6.6,3.9,8.8v7.8c0,0.6,0.1,1.2,0.3,1.7c-1,0.8-1.6,2-1.6,3.3v7.8c-0.1,2.2,1.6,4,3.8,4.1l0.1,0h0.1h0.3
		c-0.1,0.3-0.1,0.6-0.1,0.9v8.1l0,0l0,0c-0.1,2.2,1.7,4.1,3.9,4.1l0,0h0h16.3C28.9,57.2,36.7,62,44.5,62c8.9,0,17.8-6.2,17.8-20.2
		C62.2,30.9,56.9,19,49.1,15.5z M59.5,34.8c-3-2-7.2-3.4-11.9-3.8c-0.8-0.1-1.5-0.1-2.3-0.1c0,0-0.1,0-0.1,0v-2.1h-0.2V26
		c0.4-0.1,0.8-0.4,1-0.8c0.1-0.2,0.1-0.3,0.1-0.5v-3.5c0-0.4-0.3-0.8-0.6-1.1c-0.2-0.1-0.3-0.2-0.5-0.2v-0.2v-1v-2.2
		c0.8,0,1.5,0.2,2.2,0.4c0.6,0.2,1.3,0.5,1.9,0.8C54,20.4,57.9,27.3,59.5,34.8z M35.3,32.1c-0.3,0.1-0.6,0.2-0.9,0.3
		c-0.8,0.3-1.5,0.6-2.2,0.9c-1,0.4-1.9,0.9-2.7,1.5c0.2-0.9,0.4-1.8,0.7-2.7c0.1-0.3,0.1-0.5,0.2-0.8c0.4-1.3,0.9-2.6,1.5-3.9
		c0.3-0.6,0.6-1.2,0.9-1.8c1.3-2.5,2.9-4.7,4.8-6.3c0.3-0.3,0.6-0.5,0.9-0.8c1.7-1.3,3.6-2.1,5.7-2.2v2.2v0.8v0.5
		c-0.6,0.1-1.1,0.7-1.1,1.3v3.5c0,0.7,0.5,1.2,1.1,1.3v2.7h-0.2v2.1c-1.9,0-3.7,0.2-5.4,0.6C37.3,31.6,36.3,31.8,35.3,32.1z
		 M13.9,41.2c-0.4,0-0.7-0.3-0.7-0.7v-4.7c0-0.4,0.3-0.7,0.6-0.7l3.1,0h0.6l2.7,0l1.6,0l0.6,0l1.5,0l0.5,0h0.5l2.1,0
		c-0.4,2-0.6,4.1-0.6,6.1L13.9,41.2z M41.6,14.7l-2.7,0l-1,0c-0.2,0-0.3-0.1-0.4-0.2c-0.1-0.1-0.2-0.3-0.2-0.5l0-4.5
		c0-0.2,0.1-0.3,0.2-0.5c0.1-0.1,0.3-0.2,0.4-0.2l5.5,0c0.2,0,0.3,0.1,0.4,0.2C44,9.1,44,9.2,44,9.4V14l0,0c0,0.2,0,0.3-0.1,0.4
		c-0.6,0-1.2,0.1-1.7,0.2L41.6,14.7z M33.9,8.7c0-0.1,0-0.3,0-0.4c0-0.1,0-0.2,0.1-0.3c0.1-0.4,0.4-0.8,0.7-1
		C34.8,7,34.9,6.9,35,6.8c0.2-0.1,0.5-0.2,0.8-0.2h9.4c1.1,0.1,1.9,1,1.9,2.1v6c-0.7-0.2-1.4-0.3-2.1-0.3c0-0.1,0.1-0.3,0.1-0.5V9.5
		l0,0c0-0.4-0.1-0.9-0.4-1.2c-0.3-0.3-0.7-0.5-1.2-0.5l-5.6,0c-0.4,0-0.8,0.2-1.1,0.5c-0.3,0.3-0.4,0.7-0.4,1.2V14
		c0,0.4,0.1,0.9,0.4,1.2c0.3,0.3,0.7,0.5,1.2,0.5h1.4c-1.4,0.7-2.7,1.7-4,2.9c-0.1,0-0.2-0.1-0.4-0.1c0,0-0.1,0-0.1-0.1
		c-0.1,0-0.2-0.1-0.2-0.1c-0.3-0.2-0.5-0.5-0.6-0.8c0-0.1-0.1-0.1-0.1-0.2c0-0.1-0.1-0.2-0.1-0.2c0-0.1,0-0.3,0-0.4V8.7z M33.3,20
		c0.1-0.1,0.1-0.1,0.2-0.2c0,0,0,0,0,0c0,0,0,0,0,0c0.1,0,0.1-0.1,0.2-0.1c0.3-0.1,0.5-0.2,0.9-0.3h0c-0.7,0.7-1.3,1.5-1.9,2.4v-0.4
		c0-0.2,0-0.4,0.1-0.6c0,0,0-0.1,0-0.1C32.9,20.5,33,20.2,33.3,20C33.2,20,33.2,20,33.3,20z M19.9,8.7c0-0.2,0-0.4,0.1-0.6
		c0.1-0.4,0.4-0.8,0.7-1c0.3-0.2,0.7-0.4,1.1-0.4h9.4c0.4,0,0.8,0.2,1.1,0.4c0.3,0.3,0.6,0.6,0.7,1c0.1,0.2,0.1,0.4,0.1,0.6l0,7.9
		c0,0.2,0,0.5-0.1,0.7c-0.1,0.3-0.3,0.6-0.5,0.8c-0.1,0.1-0.1,0.1-0.2,0.2c0,0,0,0,0,0c-0.1,0-0.1,0.1-0.2,0.1
		c-0.3,0.1-0.5,0.2-0.9,0.3H31h-9.2c-0.3,0-0.6-0.1-0.8-0.2c-0.1,0-0.2-0.1-0.2-0.1c-0.1-0.1-0.2-0.2-0.3-0.3s-0.2-0.2-0.2-0.3
		c0-0.1-0.1-0.2-0.1-0.2c0-0.1-0.1-0.2-0.1-0.2c0-0.1,0-0.2-0.1-0.2c0-0.1,0-0.3,0-0.4V8.7z M19.5,19.8
		C19.5,19.8,19.5,19.8,19.5,19.8C19.5,19.8,19.5,19.8,19.5,19.8c0.1-0.1,0.1-0.1,0.2-0.1c0,0,0,0,0,0c0.3-0.1,0.5-0.2,0.9-0.3h0.2
		H30c0.3,0,0.6,0.1,0.8,0.2c0.1,0,0.2,0.1,0.2,0.1c0,0,0,0,0,0c0.3,0.2,0.5,0.5,0.6,0.8c0,0,0,0.1,0,0.1c0,0,0,0.1,0,0.1
		c0.1,0.2,0.1,0.4,0.1,0.6v1.7c-0.8,1.3-1.5,2.7-2.1,4.1c0-0.2,0.1-0.3,0.1-0.5l0-4.5c0-0.4-0.1-0.9-0.4-1.2
		c-0.2-0.2-0.4-0.3-0.6-0.4c-0.2-0.1-0.3-0.1-0.5-0.1l-5.5,0c-0.2,0-0.3,0.1-0.5,0.1c-0.2,0.1-0.5,0.2-0.6,0.4
		c-0.3,0.3-0.4,0.7-0.4,1.2v4.5c0,0.9,0.7,1.7,1.6,1.7l5.6,0c0.4,0,0.8-0.2,1.1-0.5c0.1-0.1,0.1-0.2,0.2-0.3
		c-0.5,1.2-0.9,2.5-1.3,3.7h-7.7c-0.3,0-0.6-0.1-0.9-0.3c-0.1,0-0.1-0.1-0.2-0.1c0,0,0,0,0,0c-0.3-0.2-0.5-0.5-0.7-0.9c0,0,0,0,0,0
		c0,0,0-0.1,0-0.1c-0.1-0.2-0.1-0.4-0.1-0.6v-7.9c0-0.1,0-0.2,0-0.3c0-0.1,0-0.2,0.1-0.3c0,0,0-0.1,0-0.1c0.1-0.3,0.3-0.5,0.5-0.7
		C19.3,19.9,19.4,19.9,19.5,19.8z M28.8,26.8c0,0.2-0.1,0.3-0.2,0.5c-0.1,0.1-0.3,0.2-0.4,0.2l-5.5,0c-0.2,0-0.3-0.1-0.4-0.2
		c-0.1-0.1-0.2-0.3-0.2-0.5l0-4.5c0-0.2,0.1-0.3,0.2-0.5c0.1-0.1,0.3-0.2,0.4-0.2l5.5,0c0.2,0,0.3,0.1,0.4,0.2
		c0.1,0.1,0.2,0.3,0.2,0.5L28.8,26.8L28.8,26.8z M5.9,8.7c0-0.1,0-0.3,0-0.4C6,7.7,6.4,7.1,7,6.8c0.2-0.1,0.5-0.2,0.8-0.2h9.4
		c0.4,0,0.8,0.2,1.1,0.4c0.3,0.3,0.6,0.6,0.7,1.1c0.1,0.2,0.1,0.4,0.1,0.6l0,7.9c0,0.2,0,0.4-0.1,0.6c-0.1,0.3-0.3,0.6-0.5,0.8
		c-0.1,0.1-0.1,0.1-0.2,0.2c0,0,0,0,0,0c-0.1,0-0.1,0.1-0.2,0.1c-0.3,0.1-0.5,0.2-0.9,0.3H17H7.8c-0.3,0-0.5-0.1-0.8-0.2
		c0,0-0.1,0-0.1,0c-0.4-0.2-0.7-0.5-0.9-0.9C6,17.3,5.9,17.2,5.9,17c0-0.1,0-0.3,0-0.4V8.7z M6.5,31.4c-0.8,0-1.5-0.6-1.7-1.3
		c-0.1-0.2-0.1-0.5-0.1-0.8v-7.9c0-0.3,0-0.5,0.1-0.8c0.1-0.4,0.4-0.7,0.7-0.9c0.3-0.2,0.7-0.4,1.1-0.4h0.2H16
		c0.3,0,0.6,0.1,0.8,0.2c0.1,0,0.2,0.1,0.2,0.1c0.2,0.2,0.4,0.3,0.5,0.6c0,0.1,0.1,0.2,0.1,0.2c0,0.1,0.1,0.1,0.1,0.2
		c0,0.1,0.1,0.2,0.1,0.3c0,0.1,0,0.3,0,0.4l0,7.9c0,0.2,0,0.5-0.1,0.7c0,0,0,0.1,0,0.1c-0.1,0.4-0.4,0.7-0.7,0.9
		c-0.1,0-0.1,0.1-0.2,0.1c-0.3,0.2-0.6,0.3-0.9,0.3H9.6H7.9H6.5z M10.7,44.6c-0.3,0-0.5-0.1-0.8-0.2c-0.2-0.1-0.5-0.3-0.6-0.5
		c-0.2-0.2-0.3-0.4-0.4-0.7c0-0.1-0.1-0.3-0.1-0.4c0-0.1,0-0.3,0-0.4c0,0,0,0,0,0c0,0,0,0,0,0v0v-8.2c0-0.3,0-0.6,0.2-0.9
		C9,33.2,9.1,33,9.3,32.8c0.1-0.2,0.3-0.3,0.5-0.4c0,0,0.1-0.1,0.1-0.1c0.2-0.1,0.5-0.2,0.8-0.2h6.4h0.7h1h0.6H28
		c-0.2,0.7-0.3,1.4-0.5,2l-2.3,0h-0.5l-3.8,0h-0.5l-0.5,0l-2.1,0l-3.9,0c-0.9,0-1.6,0.8-1.6,1.7v4.7c0,0.9,0.7,1.6,1.6,1.7l12.8,0
		c0,0.8,0,1.6,0.1,2.3H10.7z M44.5,60c-8.1,0-13.8-5.1-15.3-13.4c-0.1-0.6-0.2-1.3-0.3-2c-0.1-0.9-0.2-1.8-0.2-2.8c0,0,0,0,0,0
		c0-1.1,0.1-2.3,0.2-3.4c0.1-0.7,0.2-1.5,0.3-2.2c0,0,0.1,0,0.1-0.1c0.9-0.7,2-1.3,3.2-1.8c0.3-0.2,0.7-0.3,1.1-0.4
		c2.1-0.9,4.6-1.5,7.3-1.8c1.2-0.1,2.5-0.2,3.7-0.2c1.4,0,2.8,0.1,4.1,0.3c4.6,0.6,8.5,2,11.2,4.1c0.1,0.7,0.2,1.5,0.3,2.2
		c0.1,1.1,0.2,2.3,0.2,3.4C60.2,52.9,54.1,60,44.5,60z"/>
	<polygon class="st0" points="40.1,21.4 38.4,23.2 40.1,24.9 40.8,24.2 39.8,23.2 40.9,22.1 	"/>
	<polygon class="st0" points="48.1,22.1 49.1,23.2 48.1,24.2 48.8,24.9 50.6,23.2 48.8,21.4 	"/>
</g>
</svg>
