<?xml version="1.0" encoding="utf-8"?>
<!-- Generator: Adobe Illustrator 23.0.1, SVG Export Plug-In . SVG Version: 6.00 Build 0)  -->
<svg version="1.1" id="图层_1" xmlns="http://www.w3.org/2000/svg" xmlns:xlink="http://www.w3.org/1999/xlink" x="0px" y="0px"
	 width="60px" height="60px" viewBox="0 0 60 60" style="enable-background:new 0 0 60 60;" xml:space="preserve">
<style type="text/css">
	.st0{fill:#2669B5;}
</style>
<g>
	<path class="st0" d="M30,4c14.3,0,26,11.7,26,26S44.3,56,30,56S4,44.3,4,30S15.7,4,30,4 M30,2C14.5,2,2,14.5,2,30
		c0,15.5,12.5,28,28,28c15.5,0,28-12.5,28-28C58,14.5,45.5,2,30,2L30,2z"/>
</g>
<g>
	<rect x="28" y="21" class="st0" width="4" height="27"/>
</g>
<g>
	<rect x="28" y="12" class="st0" width="4" height="4"/>
</g>
</svg>
