<?xml version="1.0" encoding="utf-8"?>
<!-- Generator: Adobe Illustrator 23.0.1, SVG Export Plug-In . SVG Version: 6.00 Build 0)  -->
<svg version="1.1" id="图层_1" xmlns="http://www.w3.org/2000/svg" xmlns:xlink="http://www.w3.org/1999/xlink" x="0px" y="0px"
	 width="64px" height="64px" viewBox="0 0 64 64" style="enable-background:new 0 0 64 64;" xml:space="preserve">
<style type="text/css">
	.st0{fill:#2669B5;}
</style>
<path class="st0" d="M61.3,30.6L58,29.8c-0.9-12.9-11.4-23.2-24.3-24l-1-3.8c-0.1-0.2-0.3-0.4-0.5-0.4c0,0,0,0,0,0
	c-0.2,0-0.4,0.2-0.5,0.4l-0.9,3.8c-6,0.3-11.5,2.7-15.7,6.4L8.1,6.9c-0.2-0.2-0.5-0.1-0.7,0c-0.2,0.2-0.2,0.5,0,0.7l5.3,6.9
	C9,18.6,6.7,24,6.3,30L3,30.9c-0.2,0.1-0.4,0.3-0.4,0.5s0.2,0.4,0.4,0.5l3.2,0.8C6.8,46.1,17.6,57,31,57.6l0.8,3
	c0.1,0.2,0.3,0.4,0.5,0.4c0,0,0,0,0,0c0.2,0,0.4-0.2,0.5-0.4l0.7-3c6.1-0.3,11.6-2.7,15.9-6.5l6.4,4.9c0.1,0.1,0.2,0.1,0.3,0.1
	c0.1,0,0.3,0,0.4-0.1c0.2-0.2,0.2-0.5,0-0.7l-4.9-6.3c3.9-4.4,6.3-10.1,6.5-16.3l3.2-0.9c0.2-0.1,0.4-0.3,0.4-0.5
	C61.6,30.8,61.5,30.7,61.3,30.6z M56,29.2L47,27c-0.5-1.8-1.3-3.5-2.4-5l2.9-5.7c0.1-0.2,0.1-0.4-0.1-0.6c-0.2-0.2-0.4-0.2-0.6-0.1
	l-5.6,3c-1.5-1-3.1-1.8-4.8-2.3l-2.2-8.6C45.6,8.8,54.8,17.8,56,29.2z M30.3,7.8l-2.1,8.6c-1.7,0.5-3.3,1.3-4.7,2.3l-6.8-5.2
	C20.4,10.2,25.1,8.2,30.3,7.8z M10.6,10l3.7,2.9l1.6,1.2l6.8,5.2l0.8,0.6l1.9,1.4l0.9,0.7l4.3,3.3c-2.2,0.5-4,2.3-4.6,4.5l-3.3-4.2
	L22,24.7L20.7,23L20,22.2l-5.3-6.9l-1.2-1.6L10.6,10z M32.1,37.9c0.1,0,0.1,0,0.2,0l4.7,3.6c-1.5,0.7-3.1,1.1-4.9,1.1
	c-6.1,0-11.1-5-11.1-11.1c0-1.8,0.4-3.5,1.2-5l3.6,4.6c0,0.1,0,0.2,0,0.4C25.7,35,28.5,37.9,32.1,37.9z M32.1,36.9
	c-0.5,0-1-0.1-1.4-0.2c-2.1-0.6-3.7-2.3-3.9-4.5c0-0.2-0.1-0.4-0.1-0.6c0-0.2,0-0.4,0.1-0.7c0.3-2.5,2.4-4.5,4.9-4.7
	c0.1,0,0.2,0,0.4,0c0.5,0,1.1,0.1,1.5,0.3c1.9,0.6,3.4,2.2,3.8,4.3c0,0.3,0.1,0.6,0.1,0.9c0,0.2,0,0.5-0.1,0.7
	c-0.3,2.5-2.3,4.4-4.9,4.6C32.4,36.9,32.2,36.9,32.1,36.9z M32.1,25.1C32,25.1,32,25.1,32.1,25.1l-4.8-3.6c1.5-0.7,3.1-1.1,4.8-1.1
	c6.1,0,11.1,5,11.1,11.1c0,1.8-0.4,3.5-1.2,5l-3.6-4.6c0-0.1,0-0.3,0-0.4C38.4,28,35.6,25.1,32.1,25.1z M14,16.1l5.4,7
	c-0.3,0.4-0.5,0.8-0.7,1.3c-0.4,0.8-0.8,1.6-1,2.4l-9.4,2.6C8.8,24.3,10.9,19.7,14,16.1z M8.3,33.2l9.2,2.3c0.5,1.8,1.3,3.5,2.4,5
	L17,46.2c-0.1,0.2-0.1,0.4,0.1,0.6c0.2,0.2,0.4,0.2,0.6,0.1l5.6-3c1.4,1,3,1.8,4.7,2.3l2.4,9.4C18.6,54.7,9,45.1,8.3,33.2z
	 M32.3,58.4l-0.2-0.8l-0.5-2l-2.6-10c0-0.2-0.2-0.3-0.4-0.4c-1.8-0.5-3.5-1.3-4.9-2.4c-0.1-0.1-0.2-0.1-0.3-0.1
	c-0.1,0-0.2,0-0.2,0.1l-4.5,2.4l2.3-4.5c0.1-0.2,0.1-0.4-0.1-0.5c-1.2-1.5-2.1-3.3-2.5-5.2c0-0.2-0.2-0.3-0.4-0.4l-9.7-2.5l-2-0.5
	l-1.1-0.3L6.2,31l2-0.6l10-2.8c0.2,0,0.3-0.2,0.3-0.3c0.3-0.8,0.6-1.7,1.1-2.5c0.1-0.3,0.3-0.6,0.5-0.9l1.3,1.7
	c-1,1.7-1.5,3.7-1.5,5.9c0,6.7,5.4,12.1,12.1,12.1c2.1,0,4.1-0.5,5.8-1.5l1.8,1.3c-1.2,0.7-2.5,1.3-3.9,1.7c-0.2,0-0.3,0.2-0.4,0.4
	l-2.4,10l-0.5,2L32.3,58.4z M34,55.5l2.3-9.4c1.5-0.4,2.9-1.1,4.2-1.9l7.3,5.6C44,53,39.2,55.1,34,55.5z M53.3,52.7l-3.2-2.4
	l-1.6-1.2l-7.2-5.5l-0.8-0.6l-1.7-1.3L37.9,41l-4.3-3.3c2.2-0.6,3.9-2.3,4.6-4.4l3.3,4.2l0.7,0.8l1.3,1.7l0.6,0.8l5.5,7.1l1.2,1.6
	L53.3,52.7z M50.3,47.2L44.7,40c0.4-0.6,0.8-1.2,1.1-1.8c0.3-0.8,0.6-1.5,0.8-2.3l9.4-2.7C55.7,38.5,53.6,43.4,50.3,47.2z
	 M58.1,31.5l-2,0.6l-10,2.9c-0.2,0-0.3,0.2-0.3,0.4c-0.2,0.8-0.5,1.7-0.8,2.4c-0.2,0.5-0.5,1-0.8,1.4l-1.4-1.8
	c1-1.7,1.5-3.8,1.5-5.9c0-6.7-5.4-12.1-12.1-12.1c-2.1,0-4,0.5-5.7,1.4l-2-1.5c1.3-0.9,2.8-1.6,4.4-2c0.2,0,0.3-0.2,0.4-0.4l2.2-9.1
	l0.5-2l0.4-1.6l0.4,1.6l0.5,2l2.3,9.2c0,0.2,0.2,0.3,0.4,0.4c1.8,0.5,3.5,1.3,5,2.4c0.2,0.1,0.4,0.1,0.5,0l4.5-2.4l-2.3,4.5
	c-0.1,0.2-0.1,0.4,0,0.5c1.2,1.5,2.1,3.3,2.5,5.2c0,0.2,0.2,0.3,0.4,0.4l9.6,2.4l2,0.5l1.2,0.3L58.1,31.5z"/>
</svg>
