<?xml version="1.0" encoding="utf-8"?>
<!-- Generator: Adobe Illustrator 23.0.1, SVG Export Plug-In . SVG Version: 6.00 Build 0)  -->
<svg version="1.1" id="图层_1" xmlns="http://www.w3.org/2000/svg" xmlns:xlink="http://www.w3.org/1999/xlink" x="0px" y="0px"
	 width="64px" height="64px" viewBox="0 0 64 64" style="enable-background:new 0 0 64 64;" xml:space="preserve">
<style type="text/css">
	.st0{fill:#2669B5;}
</style>
<g>
	<path class="st0" d="M55.5,40.8H41.9l12-6.9l0.9-0.5l-0.5-0.9l-6.4-11l-0.5-0.9l-0.9,0.5L34,28.3l7.2-12.5l0.5-0.9l-0.9-0.5
		l-11-6.4L29,7.7l-0.5,0.9l-7.3,12.6V6.5v-1h-1H7.5h-1v1v41.9c0,0.5,0.1,1,0.2,1.4c0,0.1,0.1,0.2,0.1,0.3l0,0.1
		c0.1,0.3,0.2,0.7,0.3,1c0,0.1,0.1,0.1,0.1,0.2c0.2,0.4,0.4,0.7,0.6,1c0,0.1,0.1,0.1,0.1,0.1c0.3,0.3,0.5,0.6,0.8,0.9
		c0,0,0.1,0.1,0.1,0.1c0.3,0.3,0.6,0.5,1,0.8c0,0,0.1,0,0.1,0.1c0.4,0.2,0.7,0.4,1.1,0.6l0,0l0.1,0c0.4,0.2,0.8,0.3,1.3,0.4l0,0l0,0
		l0.2,0c0.2,0,0.4,0.1,0.6,0.1l0,0h0h0.1c0.3,0,0.6,0.1,0.9,0.1c0.3,0,0.6,0,0.9-0.1h40.1h1l0-1l0.1-12.7l0-1H55.5z M39.7,15.6
		l-8.8,15.1l-1,1.7L28,35.8l-0.8,1.4l-1.9,3.2l-0.5,0.9l-0.1,0.1L24,42.8l-0.6,1l-2.1,3.6l-0.6,1v-3.1l2.6-4.5l-2.6-1.5v-1.6
		l3.4,1.9l2.8-4.9L20.7,31v-1.6l6.8,3.9l2.8-4.9L23,24.2l-2.3,4V25l8.9-15.3L39.7,15.6z M36.3,42.3l-4.1,2.4l-1,0.6l-3.6,2.1l-1,0.6
		l-1.4,0.8l-1,0.6l-3.6,2.1l-0.6,0.4l1.5-2.6l4.7-2.7l-1.5-2.7l0.8-1.4l1.9,3.4l4.9-2.8l-0.4-0.6l-0.6-1l-2.6-4.5l0.9-1.5l4,6.9
		l4.9-2.8L34.1,32l-4.2,2.4l1.7-3l15.2-8.7l5.9,10.1l-14.6,8.4L36.3,42.3z M34.6,44.9h3.6v6.5h-3.6V44.9z M27.6,48.5l3.6-2.1v5h-3.6
		V48.5z M24.1,50.4v0.9h-1.6L24.1,50.4z M20.7,40.3L22,41l-1.3,2.2V40.3z M22.4,47.4l1.5-2.6l0.8,1.3L22.4,47.4z M28,37.7l2,3.5
		l0.6,1l0.2,0.3l-3.2,1.8l-1.2-2.1l-0.5-0.9L28,37.7z M30.6,35.2l3.2-1.8L37,39l-3.2,1.8L30.6,35.2z M20.7,32.2l4.8,2.8l-1.8,3.2
		l-3-1.7V32.2z M21.6,28.7l1.8-3.2l5.6,3.2l-1.8,3.2L21.6,28.7z M8,7h11.7l0,17.7l0,2l0,3.7v1.7l0,3.7v1.2v1.6v1.2l0,4.2v1.2l0,3.3
		c-0.1,2-1.2,3.7-2.7,4.7c-0.9,0.6-2,0.9-3.1,0.9c-3.2,0-5.7-2.5-5.9-5.6v-3.5v-0.3V7z M20.8,52.4h4.3v-2.5l1.4-0.8v3.3h5.6v-6.6
		l1.4-0.8v7.4h5.6v-8.5h-3.8l2.8-1.6H55L54.9,54L18,54L20.8,52.4z"/>
	<path class="st0" d="M47.7,52.4h5.6v-8.5h-5.6V52.4z M48.7,44.9h3.6v6.5h-3.6V44.9z"/>
	<path class="st0" d="M40.7,52.4h5.6v-8.5h-5.6V52.4z M41.7,44.9h3.6v6.5h-3.6V44.9z"/>
	<path class="st0" d="M46.3,25l-4.9,2.8l4.2,7.3l4.9-2.8L46.3,25z M42.7,28.2l3.2-1.8l3.2,5.6L46,33.8L42.7,28.2z"/>
	<path class="st0" d="M35.3,31.3l4.2,7.3l4.9-2.8l-4.2-7.3L35.3,31.3z M39.9,37.3l-3.2-5.6l3.2-1.8l3.2,5.6L39.9,37.3z"/>
	<path class="st0" d="M37.5,16.2L30.1,12l-2.8,4.9l7.3,4.2L37.5,16.2z M28.7,16.5l1.8-3.2l5.6,3.2l-1.8,3.2L28.7,16.5z"/>
	<path class="st0" d="M33.9,22.3l-7.3-4.2L23.8,23l7.3,4.2L33.9,22.3z M25.1,22.6l1.8-3.2l5.6,3.2l-1.8,3.2L25.1,22.6z"/>
	<path class="st0" d="M18.1,8.6H9.6v5.6h8.5V8.6z M17.1,13.3h-6.5V9.6h6.5V13.3z"/>
	<path class="st0" d="M18.1,15.7H9.6v5.6h8.5V15.7z M17.1,20.3h-6.5v-3.6h6.5V20.3z"/>
	<path class="st0" d="M18.1,22.7H9.6v5.6h8.5V22.7z M17.1,27.4h-6.5v-3.6h6.5V27.4z"/>
	<path class="st0" d="M18.1,29.8H9.6v5.6h8.5V29.8z M17.1,34.4h-6.5v-3.6h6.5V34.4z"/>
	<path class="st0" d="M18.1,36.8H9.6v5.6h8.5V36.8z M17.1,41.5h-6.5v-3.6h6.5V41.5z"/>
	<path class="st0" d="M13.9,45.2c-1.8,0-3.3,1.5-3.3,3.3s1.5,3.3,3.3,3.3c1.8,0,3.3-1.5,3.3-3.3S15.7,45.2,13.9,45.2z M13.9,50.8
		c-1.2,0-2.3-1-2.3-2.3s1-2.3,2.3-2.3s2.3,1,2.3,2.3S15.1,50.8,13.9,50.8z"/>
</g>
</svg>
