<?xml version="1.0" encoding="utf-8"?>
<!-- Generator: Adobe Illustrator 23.0.1, SVG Export Plug-In . SVG Version: 6.00 Build 0)  -->
<svg version="1.1" id="刷新" xmlns="http://www.w3.org/2000/svg" xmlns:xlink="http://www.w3.org/1999/xlink" x="0px" y="0px"
	 width="64px" height="64px" viewBox="0 0 64 64" style="enable-background:new 0 0 64 64;" xml:space="preserve">
<style type="text/css">
	.st0{fill:#2669B5;}
</style>
<g>
	<path class="st0" d="M7.9,29.4L7.9,29.4l4.8-4.6l-1.4-1.4l-2.1,2.1c1.4-5.4,4.7-10.1,9.4-13.3C23.8,8.6,30,7.2,36.2,8.4
		c10.3,1.9,18.1,10.4,19.2,20.7l2-0.2C56.3,17.7,47.7,8.5,36.6,6.4c-6.7-1.3-13.5,0.2-19.1,4.1c-5.3,3.7-9,9.1-10.4,15.3l-2.3-2.4
		l-1.4,1.4L7.9,29.4L7.9,29.4z"/>
	<path class="st0" d="M60.7,39.1l-3.3-3.3c0,0,0,0,0,0l-0.1,0L56,34.4l0,0l0,0l-4.7,4.7l1.4,1.4l2.1-2.1c-3,11.4-14,19-25.9,17.4
		c-10.9-1.4-19.3-10-20.4-20.9l-2,0.2c1.3,11.8,10.4,21.1,22.2,22.7c1.1,0.2,2.3,0.2,3.4,0.2c11.8,0,22.2-8.2,24.9-19.9l2.3,2.3
		L60.7,39.1z"/>
</g>
</svg>
