<?xml version="1.0" encoding="utf-8"?>
<!-- Generator: Adobe Illustrator 23.0.1, SVG Export Plug-In . SVG Version: 6.00 Build 0)  -->
<svg version="1.1" id="其他" xmlns="http://www.w3.org/2000/svg" xmlns:xlink="http://www.w3.org/1999/xlink" x="0px" y="0px"
	 width="64px" height="64px" viewBox="0 0 64 64" style="enable-background:new 0 0 64 64;" xml:space="preserve">
<style type="text/css">
	.st0{fill:#2669B5;}
</style>
<g>
	<path class="st0" d="M61,5.4H3c-1.1,0-2,0.9-2,2v40.8c0,1.1,0.9,2,2,2h14l-3.6,1.7c-0.7,0.3-1.2,1-1.2,1.8v1.3c0,0,0,0.1,0,0.1
		c0.1,1.7,1.6,3.1,3.3,3.1c0,0,0.1,0,0.1,0h32.8c0,0,0.1,0,0.1,0c1.7,0,3.2-1.4,3.3-3.1c0,0,0-0.1,0-0.1v-1.3c0-0.8-0.5-1.5-1.2-1.8
		l-3.7-1.7H61c1.1,0,2-0.9,2-2V7.4C63,6.3,62.1,5.4,61,5.4z M50.1,54.9c0,0.4-0.2,0.7-0.4,0.9s-0.6,0.4-0.9,0.4c0,0-0.1,0-0.1,0
		H15.7c0,0-0.1,0-0.1,0c-0.4,0-0.7-0.1-0.9-0.4s-0.4-0.5-0.4-0.9v-1.3l8.4-3.9h2.7v2.2c0,0.6,0.4,1,1,1h11.2c0.6,0,1-0.4,1-1v-2.2
		h2.7l8.8,3.9V54.9z M37.6,48.2v0.6v1v2.2H26.4v-2.2v-1v-0.6H3V7.4h58v40.8H37.6z"/>
	<path class="st0" d="M7.5,42.6h48.9v-31H7.5V42.6z M8.5,12.6h46.9v29H8.5V12.6z"/>
	<path class="st0" d="M32,44.3c-1.7,0-3,1.4-3,3s1.4,3,3,3c1.7,0,3.1-1.4,3.1-3S33.7,44.3,32,44.3z M32,49.4c-1.1,0-2-0.9-2-2
		s0.9-2,2-2c1.1,0,2.1,0.9,2.1,2S33.1,49.4,32,49.4z"/>
</g>
</svg>
