<?xml version="1.0" encoding="utf-8"?>
<!-- Generator: Adobe Illustrator 23.0.1, SVG Export Plug-In . SVG Version: 6.00 Build 0)  -->
<svg version="1.1" id="图层_1" xmlns="http://www.w3.org/2000/svg" xmlns:xlink="http://www.w3.org/1999/xlink" x="0px" y="0px"
	 width="60px" height="60px" viewBox="0 0 60 60" style="enable-background:new 0 0 60 60;" xml:space="preserve">
<style type="text/css">
	.st0{fill:#2669B5;}
	.st1{fill:none;stroke:#2669B5;stroke-miterlimit:10;}
	.st2{fill:none;stroke:#2669B5;stroke-width:2;stroke-miterlimit:10;}
</style>
<g>
	<path class="st0" d="M30,4c14.3,0,26,11.7,26,26S44.3,56,30,56S4,44.3,4,30S15.7,4,30,4 M30,2C14.5,2,2,14.5,2,30
		c0,15.5,12.5,28,28,28c15.5,0,28-12.5,28-28C58,14.5,45.5,2,30,2L30,2z"/>
</g>
<g>
	<path class="st0" d="M30,8c12.1,0,22,9.9,22,22s-9.9,22-22,22S8,42.1,8,30S17.9,8,30,8 M30,7C17.3,7,7,17.3,7,30
		c0,12.7,10.3,23,23,23c12.7,0,23-10.3,23-23C53,17.3,42.7,7,30,7L30,7z"/>
</g>
<line class="st1" x1="34.3" y1="27" x2="44.5" y2="16.8"/>
<line class="st2" x1="30" y1="35" x2="30" y2="49"/>
<g>
	<path class="st0" d="M30,25.6c2.4,0,4.4,2,4.4,4.4c0,2.4-2,4.4-4.4,4.4c-2.4,0-4.4-2-4.4-4.4C25.6,27.6,27.6,25.6,30,25.6 M30,23.6
		c-3.5,0-6.4,2.9-6.4,6.4c0,3.5,2.9,6.4,6.4,6.4s6.4-2.9,6.4-6.4C36.4,26.5,33.5,23.6,30,23.6L30,23.6z"/>
</g>
<line class="st2" x1="25.7" y1="27" x2="17.7" y2="19"/>
</svg>
