<?xml version="1.0" encoding="UTF-8"?>
<svg width="16px" height="16px" viewBox="0 0 16 16" version="1.1" xmlns="http://www.w3.org/2000/svg" xmlns:xlink="http://www.w3.org/1999/xlink">
    <title>删 除</title>
    <g id="Edu-OS-Light" stroke="none" stroke-width="1" fill="none" fill-rule="evenodd">
        <g id="PC-控制面板-账户信息" transform="translate(-1504.000000, -725.000000)" fill-rule="nonzero">
            <g id="控制面板备份" transform="translate(360.000000, 203.000000)">
                <g id="浅色-账户" transform="translate(316.000000, 72.000000)">
                    <g id="其他用户" transform="translate(0.000000, 326.000000)">
                        <g id="用户2" transform="translate(0.000000, 100.000000)">
                            <g id="删除" transform="translate(804.000000, 0.000000)">
                                <g id="删-除" transform="translate(24.000000, 24.000000)">
                                    <rect id="矩形" fill="#000000" opacity="0" x="0" y="0" width="16" height="16"></rect>
                                    <path d="M8.08734375,0.337640625 C9.59645718,0.337640625 10.8340897,1.48973553 10.9654417,2.97226878 L10.9756406,3.14475 L14.4101094,3.14475 C14.8185,3.14475 15.1481719,3.476875 15.1481719,3.8828125 C15.1481719,4.25717057 14.8690946,4.56539616 14.5099065,4.61416738 L14.4101094,4.62089062 L13.6720469,4.62089062 L13.6720469,12.8724687 C13.6720469,14.3698996 12.6985181,15.5920873 11.4709919,15.6838866 L11.3225156,15.6894219 L4.70454687,15.6894219 C3.45549339,15.6894219 2.43619212,14.5179947 2.35963205,13.0499961 L2.35501562,12.8724687 L2.35501562,4.61596875 L1.5406875,4.61596875 C1.13229687,4.61596875 0.802625,4.28382812 0.802625,3.87789062 C0.802625,3.50353255 1.08170226,3.1953201 1.44087834,3.14655106 L1.54067187,3.13982812 L5.19410937,3.13982812 C5.24823437,1.58004687 6.52017187,0.337640625 8.08734375,0.337640625 Z M5.69354687,6.677625 C5.35648437,6.677625 5.07848437,7.0146875 5.07848437,7.43784375 L5.07848437,7.43784375 L5.07848437,11.7752187 L5.0840085,11.87855 C5.12410113,12.2501344 5.3778125,12.5354219 5.69354687,12.5354219 C6.03057812,12.5354219 6.30859375,12.198375 6.30859375,11.7752187 L6.30859375,11.7752187 L6.30859375,7.43784375 L6.30297564,7.33399354 C6.26222515,6.96085113 6.00475521,6.677625 5.69354687,6.677625 Z M7.92004687,6.677625 C7.583,6.677625 7.30498437,7.0146875 7.30498437,7.43784375 L7.30498437,7.43784375 L7.30498437,11.7752187 L7.31064964,11.87855 C7.35173025,12.2501344 7.61108724,12.5354219 7.92004687,12.5354219 C8.25709375,12.5354219 8.53509375,12.198375 8.53509375,11.7752187 L8.53509375,11.7752187 L8.53509375,7.43784375 L8.52947564,7.33399354 C8.48872515,6.96085113 8.23125521,6.677625 7.92004687,6.677625 Z M10.2621719,6.677625 C9.925125,6.677625 9.647125,7.0146875 9.647125,7.43784375 L9.647125,7.43784375 L9.647125,11.7752187 L9.65260197,11.87855 C9.69236447,12.2501344 9.9441888,12.5354219 10.2621719,12.5354219 C10.5992187,12.5354219 10.8772344,12.198375 10.8772344,11.7752187 L10.8772344,11.7752187 L10.8772344,7.43784375 L10.8716163,7.33399354 C10.8308657,6.96085113 10.5733945,6.677625 10.2621719,6.677625 Z M8.08979688,1.72029687 C7.33032629,1.72029687 6.70812905,2.26947335 6.59243294,3.00068279 L6.57676563,3.13982812 L9.59545313,3.13982812 C9.54870313,2.34271875 8.89673438,1.72029687 8.08979688,1.72029687 Z" id="形状结合" fill="#FA7356"></path>
                                </g>
                            </g>
                        </g>
                    </g>
                </g>
            </g>
        </g>
    </g>
</svg>