<?xml version="1.0" encoding="UTF-8"?>
<svg width="16px" height="16px" viewBox="0 0 16 16" version="1.1" xmlns="http://www.w3.org/2000/svg" xmlns:xlink="http://www.w3.org/1999/xlink">
    <title>icon/setting/edit</title>
    <g id="Edu-OS-Light" stroke="none" stroke-width="1" fill="none" fill-rule="evenodd">
        <g id="PC-控制面板01-1账户信息" transform="translate(-940.000000, -327.000000)" fill-rule="nonzero">
            <g id="编组-3" transform="translate(360.000000, 133.000000)">
                <g id="控制面板备份" transform="translate(0.000000, 44.000000)">
                    <g id="浅色-账户" transform="translate(316.000000, 72.000000)">
                        <g id="编组" transform="translate(144.000000, 72.000000)">
                            <g id="编组" transform="translate(120.000000, 6.000000)">
                                <rect id="矩形" fill="#000000" opacity="0" x="0" y="0" width="16" height="16"></rect>
                                <path d="M12.8640625,14.66875 L3.584375,14.66875 C2.465625,14.66875 1.55625,13.759375 1.55625,12.640625 L1.55625,3.3609375 C1.55625,2.2421875 2.465625,1.3328125 3.584375,1.3328125 L8.225,1.3328125 C8.59375,1.3328125 8.8921875,1.63125 8.8921875,2 C8.8921875,2.36875 8.59375,2.6671875 8.225,2.6671875 L3.584375,2.6671875 C3.2015625,2.6671875 2.890625,2.978125 2.890625,3.3609375 L2.890625,12.640625 C2.890625,13.0234375 3.2015625,13.334375 3.584375,13.334375 L12.8640625,13.334375 C13.246875,13.334375 13.5578125,13.0234375 13.5578125,12.640625 L13.5578125,8 C13.5578125,7.63125 13.85625,7.3328125 14.225,7.3328125 C14.59375,7.3328125 14.8921875,7.63125 14.8921875,8 L14.8921875,12.640625 C14.8921875,13.759375 13.9828125,14.66875 12.8640625,14.66875 Z" id="路径" fill="#6F6F6F"></path>
                                <path d="M7.546875,11.8203125 C7.51875,11.8203125 7.4921875,11.81875 7.4640625,11.815625 L5.3625,11.553125 C5.059375,11.515625 4.821875,11.2765625 4.784375,10.975 L4.521875,8.8734375 C4.496875,8.66875 4.5671875,8.4640625 4.7125,8.31875 L10.565625,2.465625 C11.3640625,1.6671875 12.6625,1.6671875 13.4609375,2.465625 L13.871875,2.8765625 C14.259375,3.2625 14.471875,3.7765625 14.471875,4.325 C14.471875,4.871875 14.259375,5.3859375 13.871875,5.7734375 L8.01875,11.625 C7.8921875,11.7515625 7.721875,11.8203125 7.546875,11.8203125 Z M6.0421875,10.29375 L7.3046875,10.4515625 L12.9265625,4.8296875 C13.0609375,4.6953125 13.1359375,4.515625 13.1359375,4.325 C13.1359375,4.134375 13.0609375,3.9546875 12.9265625,3.8203125 L12.515625,3.409375 C12.2359375,3.13125 11.784375,3.13125 11.50625,3.409375 L5.884375,9.03125 L6.0421875,10.29375 Z" id="形状" fill="#6F6F6F"></path>
                            </g>
                        </g>
                    </g>
                </g>
            </g>
        </g>
    </g>
</svg>