<?xml version="1.0" encoding="UTF-8"?>
<svg width="16px" height="16px" viewBox="0 0 16 16" version="1.1" xmlns="http://www.w3.org/2000/svg" xmlns:xlink="http://www.w3.org/1999/xlink">
    <title>短信</title>
    <g id="Edu-OS-Light" stroke="none" stroke-width="1" fill="none" fill-rule="evenodd">
        <g id="PC-控制面板01-3-账户信息-修改密码-弹窗" transform="translate(-529.000000, -1069.000000)" fill-rule="nonzero">
            <g id="弹窗-修改密码备份-4" transform="translate(485.000000, 731.000000)">
                <g id="账号登录备份-3" transform="translate(28.000000, 238.000000)">
                    <g id="编组-5" transform="translate(0.000000, 80.000000)">
                        <g id="短信" transform="translate(16.000000, 20.000000)">
                            <rect id="矩形" fill="#000000" opacity="0" x="0" y="0" width="16" height="16"></rect>
                            <path d="M16,5.529 L16,13 C16,14.1045695 15.1045695,15 14,15 L2,15 C0.8954305,15 1.3527075e-16,14.1045695 0,13 L0,5.52963636 L0,5.52963636 L7.404,9.06336364 C7.74013593,9.22377816 8.13158348,9.24134014 8.482,9.11172727 L8.596,9.06336364 L16,5.529 Z M16,3 L16,4.18181819 L16,4.18181819 L8.58666667,7.65 C8.21657466,7.82309469 7.78342535,7.82309469 7.41333334,7.65 L0,4.18181819 L0,3 C-3.57315355e-16,1.8954305 0.8954305,1 2,1 L14,1 C15.1045695,1 16,1.8954305 16,3 Z" id="形状" fill="#8F979F"></path>
                        </g>
                    </g>
                </g>
            </g>
        </g>
    </g>
</svg>