<?xml version="1.0" encoding="utf-8"?>
<!-- Generator: Adobe Illustrator 23.0.1, SVG Export Plug-In . SVG Version: 6.00 Build 0)  -->
<svg version="1.1" id="隔离模式" xmlns="http://www.w3.org/2000/svg" xmlns:xlink="http://www.w3.org/1999/xlink" x="0px"
	 y="0px" width="16px" height="16px" viewBox="0 0 16 16" style="enable-background:new 0 0 16 16;" xml:space="preserve">
<style type="text/css">
	.st0{opacity:0.8;fill:#FFFFFF;enable-background:new    ;}
</style>
<path class="st0" d="M14,10.4C14,10.4,14,10.3,14,10.4c0.1-0.2,0.1-0.2,0.2-0.3v0c0.2-0.3,0.3-0.7,0.4-1.1H16V6h-1.5
	c-0.2-0.6-0.4-1.2-0.7-1.7l1-1l-2.1-2.1l-1,1c-0.5-0.3-1.1-0.6-1.8-0.7h0V0H7v1.5h0C6.4,1.6,5.8,1.9,5.3,2.2l-1-1L2.2,3.3l1,1
	C2.9,4.8,2.6,5.4,2.5,6H1v3h1.5c0.2,0.6,0.4,1.2,0.7,1.7l0,0l-1,1l2.1,2.1l1-1c0.5,0.3,1.1,0.6,1.7,0.7V15h3v-1.5l0,0l0,0
	c0.6-0.2,1.2-0.4,1.7-0.7l1,1l2.1-2.1l-1-1l0,0c0-0.1,0.1-0.1,0.1-0.2C13.9,10.5,14,10.4,14,10.4z M8.5,12.2c-2.6,0-4.7-2.1-4.7-4.7
	s2.1-4.7,4.7-4.7C9,2.8,9.5,2.8,10,3l0,0c1.9,0.6,3.2,2.4,3.2,4.5c0,0.1,0,0.3,0,0.4l0,0c0,0.4-0.1,0.7-0.2,1.1c0,0,0,0,0,0
	c-0.1,0.2-0.2,0.4-0.3,0.6c0,0,0,0,0,0c-0.1,0.1-0.1,0.2-0.2,0.3c0,0,0,0,0,0c-0.1,0.1-0.1,0.2-0.2,0.3v0c-0.1,0.1-0.1,0.2-0.2,0.3
	c0,0,0,0,0,0c-0.2,0.2-0.3,0.3-0.5,0.5c0,0,0,0,0,0c-0.1,0.1-0.2,0.1-0.3,0.2c0,0,0,0,0,0c-0.1,0.1-0.2,0.1-0.3,0.2c0,0,0,0,0,0
	c-0.1,0.1-0.2,0.1-0.3,0.2c0,0,0,0-0.1,0c-0.1,0-0.2,0.1-0.3,0.1c0,0,0,0,0,0c-0.1,0-0.2,0.1-0.3,0.1C9.6,12.1,9.1,12.2,8.5,12.2z"
	/>
</svg>
