<?xml version="1.0" encoding="utf-8"?>
<!-- Generator: Adobe Illustrator 23.0.1, SVG Export Plug-In . SVG Version: 6.00 Build 0)  -->
<svg version="1.1" id="其他" xmlns="http://www.w3.org/2000/svg" xmlns:xlink="http://www.w3.org/1999/xlink" x="0px" y="0px"
	 width="16px" height="16px" viewBox="0 0 16 16" style="enable-background:new 0 0 16 16;" xml:space="preserve">
<style type="text/css">
	.st0{fill:#263238;}
	.st1{fill:none;stroke:#263238;stroke-miterlimit:10;}
</style>
<g>
	<g>
		<path class="st0" d="M2,2v1H1V2H2 M3,1H0v3h3V1L3,1z"/>
	</g>
</g>
<g>
	<g>
		<path class="st0" d="M2,6v1H1V6H2 M3,5H0v3h3V5L3,5z"/>
	</g>
</g>
<g>
	<g>
		<path class="st0" d="M2,10v1H1v-1H2 M3,9H0v3h3V9L3,9z"/>
	</g>
</g>
<line class="st1" x1="4" y1="2.5" x2="13" y2="2.5"/>
<line class="st1" x1="4" y1="6.5" x2="10" y2="6.5"/>
<line class="st1" x1="4" y1="10.5" x2="9" y2="10.5"/>
<line class="st1" x1="13.5" y1="7.8" x2="13.5" y2="15"/>
<polyline class="st1" points="11.2,10 13.5,7.5 15.8,10 "/>
</svg>
