<?xml version="1.0" encoding="utf-8"?>
<!-- Generator: Adobe Illustrator 23.0.1, SVG Export Plug-In . SVG Version: 6.00 Build 0)  -->
<svg version="1.1" id="其他" xmlns="http://www.w3.org/2000/svg" xmlns:xlink="http://www.w3.org/1999/xlink" x="0px" y="0px"
	 width="16px" height="16px" viewBox="0 0 16 16" style="enable-background:new 0 0 16 16;" xml:space="preserve">
<path d="M12,14.8c1-0.1,1.4-0.2,1.4-0.7c0-0.5-0.5-1.8-1.2-3.4H8.1C7.9,11,7,13.4,7,13.9c0,0.6,0.5,0.7,1.5,0.9V15h-4v-0.2
	c1.2-0.2,1.5-0.4,2.1-2l3.8-8.9l0.2-0.1l1.2,3.2c0.8,2.2,1.6,4.4,2.3,6c0.5,1.3,0.7,1.5,1.9,1.7V15h-4V14.8z M10.3,5.5
	c-0.7,1.5-1.4,3.2-2,4.7H12L10.3,5.5L10.3,5.5z"/>
<path d="M1.9,8.5c0-0.4,0.7-2.2,0.8-2.4h3c0.5,1.2,0.9,2.2,0.9,2.6c0,0.3-0.3,0.4-1,0.5v0.2h1.7l0.3-0.7C7.4,8.5,7.3,8.3,7.2,7.9
	C6.7,6.7,6.1,5,5.5,3.4L4.6,1L4.4,1.1L1.6,7.7C1.1,8.9,0.9,9,0,9.2v0.2h3V9.2C2.3,9.1,1.9,9,1.9,8.5z M4.3,2.2L4.3,2.2l1.3,3.5H2.8
	C3.3,4.6,3.8,3.4,4.3,2.2z"/>
</svg>
