<?xml version="1.0" encoding="utf-8"?>
<!-- Generator: Adobe Illustrator 23.0.1, SVG Export Plug-In . SVG Version: 6.00 Build 0)  -->
<svg version="1.1" id="其他" xmlns="http://www.w3.org/2000/svg" xmlns:xlink="http://www.w3.org/1999/xlink" x="0px" y="0px"
	 width="16px" height="16px" viewBox="0 0 16 16" style="enable-background:new 0 0 16 16;" xml:space="preserve">
<style type="text/css">
	.st0{fill:#263238;}
</style>
<g>
	<path class="st0" d="M15,4v9H1V4H15 M16,3H0v11h16V3L16,3z"/>
</g>
<rect x="2" y="5" class="st0" width="1" height="1"/>
<rect x="4" y="5" class="st0" width="1" height="1"/>
<rect x="6" y="5" class="st0" width="1" height="1"/>
<rect x="10" y="5" class="st0" width="1" height="1"/>
<rect x="2" y="11" class="st0" width="1" height="1"/>
<rect x="4" y="11" class="st0" width="8" height="1"/>
<rect x="13" y="11" class="st0" width="1" height="1"/>
<rect x="5" y="7" class="st0" width="1" height="1"/>
<rect x="3" y="7" class="st0" width="1" height="1"/>
<rect x="7" y="7" class="st0" width="1" height="1"/>
<rect x="8" y="5" class="st0" width="1" height="1"/>
<rect x="9" y="7" class="st0" width="1" height="1"/>
<rect x="12" y="5" class="st0" width="1" height="1"/>
<rect x="11" y="7" class="st0" width="1" height="1"/>
<rect x="2" y="9" class="st0" width="1" height="1"/>
<rect x="4" y="9" class="st0" width="1" height="1"/>
<rect x="6" y="9" class="st0" width="1" height="1"/>
<rect x="10" y="9" class="st0" width="1" height="1"/>
<rect x="8" y="9" class="st0" width="1" height="1"/>
<rect x="12" y="9" class="st0" width="1" height="1"/>
</svg>
