<?xml version="1.0" encoding="utf-8"?>
<!-- Generator: Adobe Illustrator 23.0.1, SVG Export Plug-In . SVG Version: 6.00 Build 0)  -->
<svg version="1.1" id="其他" xmlns="http://www.w3.org/2000/svg" xmlns:xlink="http://www.w3.org/1999/xlink" x="0px" y="0px"
	 width="16px" height="16px" viewBox="0 0 16 16" style="enable-background:new 0 0 16 16;" xml:space="preserve">
<style type="text/css">
	.st0{fill:#263238;}
	.st1{clip-path:url(#SVGID_2_);}
	.st2{fill:none;stroke:#263238;stroke-miterlimit:10;}
</style>
<g>
	<g>
		<path class="st0" d="M8.5,1C11.3,1,14,5.1,14,9.3c0,4.2-2.8,5.7-5.5,5.7S3,13.5,3,9.3C3,5.1,5.7,1,8.5,1 M8.5,0C4.9,0,2,4.8,2,9.3
			S4.9,16,8.5,16S15,13.7,15,9.3C15,4.8,12.1,0,8.5,0L8.5,0z"/>
	</g>
	<g>
		<g>
			<defs>
				<path id="SVGID_1_" d="M11.5,1.1C10.7,0.4,9.6,0,8.5,0C7.4,0,6.4,0.4,5.6,1.1c-1.9,1.5-3.2,5.3-3.5,8H15
					C14.7,6.4,13.3,2.6,11.5,1.1z"/>
			</defs>
			<clipPath id="SVGID_2_">
				<use xlink:href="#SVGID_1_"  style="overflow:visible;"/>
			</clipPath>
			<g class="st1">
				<path class="st2" d="M8.5,14.8c-4.1,0-7.5-1.9-7.5-4.2s3.4-4.2,7.5-4.2S16,8.4,16,10.7S12.6,14.8,8.5,14.8z"/>
				<rect x="8" class="st0" width="1" height="6.5"/>
			</g>
		</g>
	</g>
</g>
</svg>
