<?xml version="1.0" encoding="utf-8"?>
<!-- Generator: Adobe Illustrator 23.0.1, SVG Export Plug-In . SVG Version: 6.00 Build 0)  -->
<svg version="1.1" id="多屏" xmlns="http://www.w3.org/2000/svg" xmlns:xlink="http://www.w3.org/1999/xlink" x="0px" y="0px"
	 width="16px" height="16px" viewBox="0 0 16 16" style="enable-background:new 0 0 16 16;" xml:space="preserve">
<style type="text/css">
	.st0{fill:none;stroke:#263238;stroke-miterlimit:10;}
	.st1{fill:#263238;}
</style>
<g>
	<line class="st0" x1="14.5" y1="5" x2="14.5" y2="0"/>
	<g>
		<path class="st1" d="M10,6v4H1V6H10 M11,5H0v6h11V5L11,5z"/>
	</g>
	<g>
		<rect x="13" y="6" class="st1" width="3" height="4"/>
	</g>
	<line class="st0" x1="14.5" y1="16" x2="14.5" y2="11"/>
	<polygon class="st1" points="0,12 0,16 1,16 1,13 10,13 10,16 11,16 11,12 	"/>
	<polygon class="st1" points="0,4 0,0 1,0 1,3 10,3 10,0 11,0 11,4 	"/>
</g>
</svg>
