<?xml version="1.0" encoding="utf-8"?>
<!-- Generator: Adobe Illustrator 23.0.1, SVG Export Plug-In . SVG Version: 6.00 Build 0)  -->
<svg version="1.1" id="图层_2" xmlns="http://www.w3.org/2000/svg" xmlns:xlink="http://www.w3.org/1999/xlink" x="0px" y="0px"
	 width="16px" height="16px" viewBox="0 0 16 16" style="enable-background:new 0 0 16 16;" xml:space="preserve">
<style type="text/css">
	.st0{fill:#263238;}
</style>
<g>
	<path class="st0" d="M15,6v6H1V6H15 M16,5H0v8h16V5L16,5z"/>
</g>
<g>
	<path class="st0" d="M13,1v4H3V1H13 M14,0H2v6h12V0L14,0z"/>
</g>
<g>
	<rect x="4" y="2" class="st0" width="8" height="1"/>
</g>
<g>
	<rect x="4" y="4" class="st0" width="8" height="1"/>
</g>
<g>
	<rect x="11" y="7" class="st0" width="3" height="1"/>
</g>
<g>
	<rect x="3" y="10" class="st0" width="10" height="3"/>
</g>
<g>
	<path class="st0" d="M11,13v2H5v-2H11 M12,12H4v4h8V12L12,12z"/>
</g>
</svg>
