<?xml version="1.0" encoding="utf-8"?>
<!-- Generator: Adobe Illustrator 23.0.1, SVG Export Plug-In . SVG Version: 6.00 Build 0)  -->
<svg version="1.1" id="其他" xmlns="http://www.w3.org/2000/svg" xmlns:xlink="http://www.w3.org/1999/xlink" x="0px" y="0px"
	 width="16px" height="16px" viewBox="0 0 16 16" style="enable-background:new 0 0 16 16;" xml:space="preserve">
<style type="text/css">
	.st0{fill:#263238;}
	.st1{fill:none;stroke:#263238;stroke-miterlimit:10;}
</style>
<g id="电脑">
	<g>
		<path class="st0" d="M15,2v9H9H8v1v2v-2v-1H7H1V2H15 M16,1H0v11h7v2H3v1h10v-1H9v-2h7V1L16,1z"/>
	</g>
</g>
<path class="st1" d="M6.5,6.5V5.4c0-1,0.4-1.9,1.5-1.9h0c1.1,0,1.5,0.9,1.5,1.9v1.1C8.1,6.5,8.2,6.5,6.5,6.5z"/>
<g>
	<path class="st0" d="M10,7v2H6V7H10 M11,6H5v4h6V6L11,6z"/>
</g>
</svg>
