<?xml version="1.0" encoding="utf-8"?>
<!-- Generator: Adobe Illustrator 23.0.1, SVG Export Plug-In . SVG Version: 6.00 Build 0)  -->
<svg version="1.1" id="其他" xmlns="http://www.w3.org/2000/svg" xmlns:xlink="http://www.w3.org/1999/xlink" x="0px" y="0px"
	 width="16px" height="16px" viewBox="0 0 16 16" style="enable-background:new 0 0 16 16;" xml:space="preserve">
<style type="text/css">
	.st0{fill:#263238;}
</style>
<g id="电脑">
	<g>
		<path class="st0" d="M15,2v9H9H8v1v2v-2v-1H7H1V2H15 M16,1H0v11h7v2H3v1h10v-1H9v-2h7V1L16,1z"/>
	</g>
</g>
<path class="st0" d="M10.3,3.5c0.3,0.5,0.5,1,0.5,1.6c0,1.5-1.2,2.7-2.7,2.7C7.7,7.8,7.3,7.7,7,7.5c0.4,1.2,1.5,2.1,2.9,2.1
	c1.7,0,3.1-1.4,3.1-3.1C13,5,11.8,3.7,10.3,3.5z"/>
<polygon class="st0" points="4.3,3.2 4.5,3.7 5.1,3.8 4.7,4.2 4.8,4.8 4.3,4.6 3.7,4.8 3.8,4.2 3.4,3.8 4,3.7 "/>
<polygon class="st0" points="3.9,6.3 4.1,6.9 4.8,7 4.3,7.4 4.4,8 3.9,7.7 3.3,8 3.4,7.4 3,7 3.6,6.9 "/>
<polygon class="st0" points="7,3.8 7.2,4.3 7.8,4.4 7.4,4.8 7.5,5.4 7,5.1 6.4,5.4 6.5,4.8 6.1,4.4 6.7,4.3 "/>
</svg>
