<?xml version="1.0" encoding="utf-8"?>
<!-- Generator: Adobe Illustrator 23.0.1, SVG Export Plug-In . SVG Version: 6.00 Build 0)  -->
<svg version="1.1" id="其他" xmlns="http://www.w3.org/2000/svg" xmlns:xlink="http://www.w3.org/1999/xlink" x="0px" y="0px"
	 width="16px" height="16px" viewBox="0 0 16 16" style="enable-background:new 0 0 16 16;" xml:space="preserve">
<style type="text/css">
	.st0{fill:none;stroke:#263238;stroke-miterlimit:10;}
	.st1{fill:#263238;}
</style>
<g>
	<path class="st0" d="M0.6,8.6c-0.5-1.7,0.3-5,3.4-7c2.8-1.8,7.1-1.1,9.5,1.4c2.1,2.1,2.4,5.4,1.5,7.7c-0.7,1.8-4.4,5.8-7.7,4.3
		c-1.1-0.5,0-2.4,0.5-4.1c0.6-2.1-1.3-3.7-2.6-3C2.7,9,1.1,10.3,0.6,8.6z"/>
	<g>
		<circle class="st1" cx="4" cy="5.5" r="1"/>
	</g>
	<g>
		<circle class="st1" cx="7" cy="4" r="1"/>
	</g>
	<g>
		<circle class="st1" cx="11" cy="5" r="1"/>
	</g>
	<g>
		<circle class="st1" cx="12" cy="8.5" r="1"/>
	</g>
	<g>
		<circle class="st1" cx="10" cy="11.5" r="1"/>
	</g>
</g>
</svg>
