<?xml version="1.0" encoding="utf-8"?>
<!-- Generator: Adobe Illustrator 23.0.1, SVG Export Plug-In . SVG Version: 6.00 Build 0)  -->
<svg version="1.1" id="图层_1" xmlns="http://www.w3.org/2000/svg" xmlns:xlink="http://www.w3.org/1999/xlink" x="0px" y="0px"
	 width="16px" height="16px" viewBox="0 0 16 16" style="enable-background:new 0 0 16 16;" xml:space="preserve">
<style type="text/css">
	.st0{fill:#263238;}
	.st1{display:none;}
	.st2{fill:none;stroke:#263238;stroke-miterlimit:10;}
</style>
<g>
	<g>
		<polygon class="st0" points="7.7,10.2 6.7,12.3 7.7,15.1 8.7,12.3 		"/>
	</g>
	<path class="st1" d="M14.9,12.6c-1.5-1.7-3.5-2.7-5.2-3.2c0.5-0.5,1-1.1,1.3-1.8L11,7.5c0,0,1.9-2,0.9-4.7C11.1,0.6,9.2,0,8.2,0
		c-1,0-2.7,0-3.7,1.4c-1,1.5-1.9,4.2-0.1,6c0.3,0.8,0.7,1.5,1.3,2c-1.2,0.3-2.3,1-3.4,1.9C0,13.3,0,15.7,0,15.8V16h16l0-0.1
		C16,15.8,16.1,14,14.9,12.6z M4.2,6.7C3.1,5.1,3.8,2.8,4.7,1.6c0.9-1.3,2.5-1.3,3.5-1.3c0.9,0,2.7,0.5,3.5,2.6
		c0.7,1.8,0,3.2-0.5,3.9c0,0.1-0.1,0.1-0.1,0.2l0-2l-0.1,0l0,0c0,0-0.8,0.1-2-0.3C7.7,4.3,6.5,2.5,6.5,2.5L6.5,2.4L6.3,2.5
		c-1.1,0.6-1.6,1.4-1.8,2C4.4,4.9,4.4,5.1,4.4,5.3v0.1V6v1C4.3,6.9,4.3,6.8,4.2,6.7z M4.7,7.5V5.3c0-0.3,0.1-1.5,1.6-2.5
		C6.6,3.2,7.7,4.6,8.8,5c1,0.3,1.6,0.3,2,0.3v1.9C10.5,8.1,10,8.9,9.3,9.3C9.2,9.4,9.1,9.5,8.9,9.6C8.6,9.8,8.1,9.9,7.7,9.9
		c-0.4,0-0.8-0.1-1.2-0.3C6.3,9.5,6.2,9.4,6.1,9.3C5.5,8.9,5,8.3,4.7,7.5z M0.3,15.7c0-0.6,0.3-2.6,2.1-4.1c1.1-1,2.3-1.6,3.6-1.9
		c0.5,0.3,1.1,0.5,1.7,0.5c0.6,0,1.2-0.2,1.7-0.5c1.7,0.4,3.7,1.4,5.3,3.1c0.9,1.1,1,2.5,1,2.9H0.3z"/>
	<path class="st2" d="M4.7,7.5V5.3c0-0.3,0.1-1.5,1.6-2.5C6.6,3.2,7.7,4.6,8.8,5c1,0.3,1.6,0.3,2,0.3v1.9C10.5,8.1,10,8.9,9.3,9.3
		C9.2,9.4,9.1,9.5,8.9,9.6C8.6,9.8,8.1,9.9,7.7,9.9c-0.4,0-0.8-0.1-1.2-0.3C6.3,9.5,6.2,9.4,6.1,9.3C5.5,8.9,5,8.3,4.7,7.5z"/>
	<path class="st2" d="M14.4,12.3c-1.4-1.6-3.3-2.5-4.9-3c0.5-0.4,0.9-1,1.2-1.7l0.1-0.1c0,0,1.8-1.9,0.9-4.4
		c-0.8-2.1-2.6-2.6-3.5-2.6c-1,0-2.6,0-3.5,1.3c-1,1.4-1.7,4-0.1,5.6c0.3,0.8,0.7,1.4,1.3,1.9c-1.1,0.3-2.2,0.9-3.2,1.8
		c-2.1,1.8-2.1,4.1-2.1,4.2v0.1h15l0-0.1C15.5,15.3,15.6,13.6,14.4,12.3z"/>
</g>
</svg>
