<?xml version="1.0" encoding="utf-8"?>
<!-- Generator: Adobe Illustrator 23.0.1, SVG Export Plug-In . SVG Version: 6.00 Build 0)  -->
<svg version="1.1" id="图层_1" xmlns="http://www.w3.org/2000/svg" xmlns:xlink="http://www.w3.org/1999/xlink" x="0px" y="0px"
	 width="16px" height="16px" viewBox="0 0 16 16" style="enable-background:new 0 0 16 16;" xml:space="preserve">
<style type="text/css">
	.st0{fill:#263238;}
</style>
<g id="internet-web-browser-蓝绿色">
	<path class="st0" d="M15.6,8.1L16,8l-0.4-0.1c-0.1-4-3.4-7.2-7.4-7.3L8,0L7.9,0.6c-1.9,0-3.6,0.8-5,1.9L1.4,1.3c-0.1,0-0.1,0-0.2,0
		c0,0-0.1,0.1,0,0.2L2.4,3c-1.2,1.3-1.9,3-2,4.9L0,8l0.4,0.1c0,4.1,3.4,7.5,7.6,7.5L8,16l0.1-0.3c1.9,0,3.7-0.8,5-2l1.4,1.1
		c0,0,0.1,0,0.1,0c0,0,0.1,0,0.1,0c0,0,0.1-0.1,0-0.2l-1.1-1.4C14.9,11.8,15.6,10.1,15.6,8.1C15.6,8.1,15.6,8.1,15.6,8.1z M14.9,7.7
		L12,6.9c-0.2-1.1-1.3-2.4-2.5-2.8C9.3,4.1,9.2,4.1,9,4L8.3,1.3C11.8,1.5,14.6,4.2,14.9,7.7z M8,6.1c-0.1,0-0.2,0-0.3,0L6.1,5
		C6.7,4.6,7.3,4.4,8,4.4c2,0,3.6,1.6,3.6,3.6c0,0.7-0.2,1.3-0.5,1.9L9.9,8.4c0-0.1,0-0.2,0-0.4C10,7,9.1,6.1,8,6.1z M4.4,8
		c0-0.6,0.2-1.2,0.5-1.7L6,7.7C6,7.8,6,8,6,8.1c0,1.1,0.9,2,2,2c0.1,0,0.2,0,0.3,0l1.4,1.1c-0.5,0.3-1.1,0.5-1.7,0.5
		C6,11.6,4.4,10,4.4,8z M8.3,9.7c-0.1,0-0.2,0-0.3,0c-0.1,0-0.1,0-0.2,0C7,9.6,6.4,9,6.4,8.2c0,0,0-0.1,0-0.1c0-0.1,0-0.2,0-0.3
		c0.1-0.6,0.7-1.1,1.3-1.3c0.1,0,0.2,0,0.3,0c0.1,0,0.1,0,0.2,0C8.9,6.6,9.6,7.2,9.6,8c0,0,0,0,0,0.1c0,0.1,0,0.2,0,0.3
		C9.4,9.1,8.9,9.5,8.3,9.7z M7.7,1.3L7,4c-0.2,0-0.4,0.1-0.5,0.2C6.2,4.3,6,4.5,5.7,4.6L3.5,2.9C4.6,2,6.1,1.4,7.7,1.3z M2.1,2.2
		l0.7,0.5l0.6,0.4l2.2,1.7l0.4,0.3l1.4,1.1c-0.6,0.2-1,0.6-1.2,1.2L5,6L4.7,5.6L3,3.4L2.6,2.8L2.1,2.2z M2.8,3.6l1.8,2.3
		C4.5,6,4.5,6.1,4.4,6.2C4.3,6.4,4.2,6.6,4.1,6.9l-3,0.8C1.2,6.2,1.9,4.7,2.8,3.6z M1.1,8.3l2.9,0.7C4.3,10.5,5.6,11.7,7,12l0.8,3
		C4.1,14.8,1.2,11.9,1.1,8.3z M8.3,14.9L9,12c0.4-0.1,0.8-0.3,1.2-0.5l2.4,1.8C11.4,14.2,9.9,14.9,8.3,14.9z M13.8,13.9l-0.5-0.4
		l-0.6-0.4l-2.3-1.8L10,11l-1.4-1c0.6-0.2,1-0.6,1.2-1.2l1,1.3l0.3,0.4l1.8,2.3l0.5,0.6L13.8,13.9z M13.2,12.6l-1.8-2.3
		c0.1-0.1,0.2-0.3,0.3-0.4c0.1-0.2,0.2-0.5,0.2-0.7l3-0.9C14.8,9.9,14.2,11.4,13.2,12.6z"/>
</g>
</svg>
