<?xml version="1.0" encoding="utf-8"?>
<!-- Generator: Adobe Illustrator 23.0.1, SVG Export Plug-In . SVG Version: 6.00 Build 0)  -->
<svg version="1.1" id="日历_x5F_复制_3" xmlns="http://www.w3.org/2000/svg" xmlns:xlink="http://www.w3.org/1999/xlink"
	 x="0px" y="0px" width="16px" height="16px" viewBox="0 0 16 16" style="enable-background:new 0 0 16 16;" xml:space="preserve">
<style type="text/css">
	.st0{fill:#263238;}
</style>
<g>
	<path class="st0" d="M7.1,10.9c1-0.1,1.3-0.2,1.3-0.7c0-0.5-0.5-1.8-1.1-3.4H3.4c-0.2,0.3-1,2.7-1,3.2c0,0.6,0.5,0.7,1.4,0.8v0.2H0
		v-0.2c1.2-0.2,1.4-0.4,2-2l3.6-8.8L5.9,0L7,3.2c0.8,2.2,1.5,4.3,2.2,6c0.5,1.3,0.6,1.5,1.8,1.7v0.2H7.1V10.9z M5.5,1.6
		C4.8,3.2,4.2,4.8,3.6,6.3h3.5L5.5,1.6L5.5,1.6z"/>
</g>
<g>
	<path class="st0" d="M7.7,15.9l0-0.1l0.1-0.1c1.7-0.7,3-1.6,3.7-2.5c-0.7-0.9-1.2-2.2-1.5-3.8H8.3c-0.2,0-0.4,0-0.6,0.1l-0.1,0
		L7.4,9l0.1-0.2c0.2,0,0.4,0,0.7,0h6.7l0.3-0.5l0.2,0L15.9,9C16,9,16,9.1,16,9.2c0,0,0,0.2-0.2,0.2h-2.1c-0.3,1.7-0.8,2.9-1.4,3.8
		c0.9,0.9,2.2,1.6,3.6,1.8l0.1,0.1v0.1l-0.1,0.1l-0.1,0c-0.5,0-0.7,0.2-0.7,0.2l-0.2,0.1c-0.1,0-1.7-0.8-3-2c-0.9,1.1-2.2,1.8-4,2.4
		L7.7,15.9z M10.4,9.3c0.3,1.5,0.8,2.5,1.4,3.3c0.6-0.9,0.9-1.9,1.1-3.3H10.4z M11.9,8.9c-0.2,0-0.3-0.2-0.4-0.5
		c-0.1-0.2-0.2-0.6-0.8-1.2l0-0.1L10.8,7l0.1,0c0.4,0.2,1.5,0.7,1.5,1.3C12.4,8.6,12.1,8.9,11.9,8.9z"/>
	<path class="st0" d="M16,15.3c-0.6,0-0.9,0.1-1,0.3c0,0,0,0-0.1,0c0,0-1.7-0.8-3-2.1c-1,1.1-2.3,1.9-4.1,2.4l0-0.1
		c1.8-0.8,3.1-1.6,3.8-2.6c-0.7-0.9-1.2-2.2-1.5-3.9H8.4c-0.2,0-0.5,0-0.6,0.1L7.5,9c0.2,0,0.5,0,0.7,0h6.7l0.4-0.6l0.6,0.6
		C16,9.1,16,9.2,16,9.2c0,0,0,0.1-0.1,0.1h-2.2c-0.3,1.5-0.7,2.9-1.4,3.9c0.9,0.9,2.3,1.7,3.7,1.9V15.3z M10.4,9.3
		c0.4,1.7,0.8,2.7,1.5,3.6c0.7-1.1,1-2.3,1.2-3.6H10.4z M11,7.1c0.8,0.3,1.4,0.8,1.4,1.3c0,0.3-0.2,0.5-0.3,0.5
		c-0.1,0-0.2-0.1-0.3-0.4C11.7,8.1,11.5,7.7,11,7.1L11,7.1z"/>
</g>
</svg>
