<?xml version="1.0" encoding="utf-8"?>
<!-- Generator: Adobe Illustrator 23.0.1, SVG Export Plug-In . SVG Version: 6.00 Build 0)  -->
<svg version="1.1" id="其他" xmlns="http://www.w3.org/2000/svg" xmlns:xlink="http://www.w3.org/1999/xlink" x="0px" y="0px"
	 width="16px" height="16px" viewBox="0 0 16 16" style="enable-background:new 0 0 16 16;" xml:space="preserve">
<style type="text/css">
	.st0{fill:none;stroke:#263138;stroke-miterlimit:10;}
	.st1{fill:none;}
</style>
<g>
	<path class="st0" d="M3.3,12.1c-0.6-0.6-0.9-1.3-0.9-1.3s-0.7,0.8-1.2,1.7c-0.4,0.9-0.8,1.9-0.7,2c0.1,0.2,1.9-0.4,2.6-0.7
		c0.5-0.2,0.9-0.6,1.4-0.8C3.9,12.8,3.8,12.6,3.3,12.1z"/>
	<g>
		<path class="st1" d="M12.1,5.7c0.2-1-0.4-2-1.4-2.2C9.6,3.3,8.6,4,8.4,5C8.2,6,8.8,7,9.9,7.2S11.9,6.7,12.1,5.7z"/>
		<path class="st0" d="M9.5,12.8c0.4-0.5,0.4-1.2,0.4-1.7c-0.4,0.3-0.9,0.5-1.3,0.6C7.8,12,7.1,12.1,6.5,12c0,0,0,0.1-0.1,0.1
			c-0.4,1-1,2.4-0.2,2.7C7.1,15.1,8.8,13.9,9.5,12.8z"/>
		<path class="st0" d="M4.7,5.4c-0.6,0-1.4,0-2.1,0.4c-1.1,0.7-2.3,2.4-2,3.3C0.8,10,2.3,9.4,3.2,8.9c0.1,0,0.1-0.1,0.2-0.1
			C3.3,7.9,3.8,6.6,4.7,5.4z"/>
		<path class="st0" d="M3.4,8.9c0,0.3,0.1,0.6,0.3,0.8c1,1.5,1.8,2.2,2.8,2.3 M10,11.1c2.2-1.3,4.7-4.1,5.1-6.2
			c0.5-2.6,0.3-4.3,0.3-4.3s-4.2-0.4-6.4,0.8c-1.4,0.8-3.2,2.4-4.4,4 M9.9,7.2C8.8,7,8.2,6,8.4,5c0.2-1,1.2-1.7,2.2-1.4
			c1,0.2,1.7,1.2,1.4,2.2C11.9,6.7,10.9,7.4,9.9,7.2z"/>
	</g>
</g>
</svg>
