<?xml version="1.0" encoding="utf-8"?>
<!-- Generator: Adobe Illustrator 23.0.1, SVG Export Plug-In . SVG Version: 6.00 Build 0)  -->
<svg version="1.1" id="表-2" xmlns="http://www.w3.org/2000/svg" xmlns:xlink="http://www.w3.org/1999/xlink" x="0px" y="0px"
	 width="16px" height="16px" viewBox="0 0 16 16" style="enable-background:new 0 0 16 16;" xml:space="preserve">
<style type="text/css">
	.st0{display:none;}
	.st1{display:inline;fill:#999999;}
	.st2{fill:#263238;}
	.st3{fill:none;stroke:#263238;stroke-miterlimit:10;}
</style>
<g id="_22" class="st0">
	<rect x="7.3" y="3.6" class="st1" width="0.7" height="5.1"/>
	<rect x="7.3" y="8" class="st1" width="5.1" height="0.7"/>
	<rect x="0.5" y="2.1" transform="matrix(0.9554 -0.2954 0.2954 0.9554 -1.0139 0.4136)" class="st1" width="0.7" height="2.9"/>
	<rect x="0.8" y="3.9" transform="matrix(0.9554 -0.2954 0.2954 0.9554 -1.1661 0.8463)" class="st1" width="2.9" height="0.7"/>
	<path class="st1" d="M8,0C4.9,0,2.1,1.8,0.8,4.5h0.8C2.9,2.2,5.3,0.7,8,0.7c4,0,7.3,3.3,7.3,7.3S12,15.3,8,15.3
		c-3.7,0-6.8-2.9-7.2-6.5H0.1C0.4,12.9,3.8,16,8,16c4.4,0,8-3.6,8-8S12.5,0,8,0z"/>
</g>
<g id="_22_1_">
	<rect x="7" y="4" class="st2" width="1" height="5"/>
	<rect x="7" y="8" class="st2" width="5" height="1"/>
	<path class="st3" d="M0.5,8.7c0.4,3.8,3.6,6.8,7.5,6.8c4.2,0,7.5-3.3,7.5-7.5S12.2,0.5,8,0.5c-3,0-5.5,1.7-6.7,4.2"/>
	<polyline class="st3" points="3.7,4.2 1,5 0.5,2.3 	"/>
</g>
</svg>
