<?xml version="1.0" encoding="utf-8"?>
<!-- Generator: Adobe Illustrator 23.0.1, SVG Export Plug-In . SVG Version: 6.00 Build 0)  -->
<svg version="1.1" id="有线网络" xmlns="http://www.w3.org/2000/svg" xmlns:xlink="http://www.w3.org/1999/xlink" x="0px"
	 y="0px" width="42px" height="42px" viewBox="0 0 42 42" style="enable-background:new 0 0 42 42;" xml:space="preserve">
<style type="text/css">
	.st0{fill:#808080;}
</style>
<g id="_48">
	<polygon class="st0" points="2,10 26,10 26,8 0,8 0,34 19,34 19,40 12,40 12,42 28,42 28,40 21,40 21,34 32,34 32,32 2,32 	"/>
	<rect x="29" y="6" class="st0" width="13" height="2"/>
	<rect x="38" y="26" class="st0" width="2" height="8"/>
	<rect x="31" class="st0" width="2" height="6"/>
	<rect x="37" class="st0" width="2" height="6"/>
	<rect x="34" y="11" class="st0" width="2" height="6"/>
	<polygon class="st0" points="40,6 40,20 38,20 32,20 30,20 30,6 28,6 28,22 30,22 34,22 34,42 36,42 36,22 40,22 42,22 42,6 	"/>
</g>
</svg>
