<?xml version="1.0" encoding="utf-8"?>
<!-- Generator: Adobe Illustrator 23.0.1, SVG Export Plug-In . SVG Version: 6.00 Build 0)  -->
<svg version="1.1" id="有线网络" xmlns="http://www.w3.org/2000/svg" xmlns:xlink="http://www.w3.org/1999/xlink" x="0px"
	 y="0px" width="42px" height="42px" viewBox="0 0 42 42" style="enable-background:new 0 0 42 42;" xml:space="preserve">
<style type="text/css">
	.st0{fill:#808080;}
	.st1{fill:#EA572A;}
</style>
<g id="_48">
	<polygon class="st0" points="2,10 26,10 26,8 0,8 0,34 19,34 19,40 12,40 12,42 24,42 24,40 21,40 21,34 21,34 21,32 2,32 	"/>
	<rect x="29" y="6" class="st0" width="13" height="2"/>
	<rect x="31" class="st0" width="2" height="6"/>
	<rect x="37" class="st0" width="2" height="6"/>
	<rect x="34" y="11" class="st0" width="2" height="6"/>
	<polygon class="st0" points="40,6 40,20 38,20 32,20 30,20 30,6 28,6 28,22 30,22 34,22 36,22 40,22 42,22 42,6 	"/>
	<rect x="25.2" y="31.2" transform="matrix(0.7071 -0.7071 0.7071 0.7071 -13.3295 32.2222)" class="st1" width="14" height="2"/>
	<rect x="31.2" y="25.2" transform="matrix(0.7071 -0.7071 0.7071 0.7071 -13.3295 32.2222)" class="st1" width="2" height="14"/>
	<path class="st1" d="M32,22c-5.5,0-10,4.5-10,10s4.5,10,10,10s10-4.5,10-10S37.5,22,32,22z M32,40c-4.4,0-8-3.6-8-8s3.6-8,8-8
		s8,3.6,8,8S36.4,40,32,40z"/>
</g>
</svg>
