<?xml version="1.0" encoding="utf-8"?>
<!-- Generator: Adobe Illustrator 23.0.1, SVG Export Plug-In . SVG Version: 6.00 Build 0)  -->
<svg version="1.1" id="图层_25" xmlns="http://www.w3.org/2000/svg" xmlns:xlink="http://www.w3.org/1999/xlink" x="0px" y="0px"
	 width="42px" height="42px" viewBox="0 0 42 42" style="enable-background:new 0 0 42 42;" xml:space="preserve">
<style type="text/css">
	.st0{fill:#808080;}
</style>
<g id="_48">
	<path class="st0" d="M21,37.8c-2.5,0-4.6-2-4.6-4.5s2-4.6,4.5-4.6s4.6,2,4.6,4.6l0,0C25.5,35.8,23.5,37.8,21,37.8z M21,30.8
		c-1.4,0-2.5,1.1-2.5,2.5s1.1,2.5,2.5,2.5s2.5-1.1,2.5-2.5l0,0C23.5,31.9,22.4,30.8,21,30.8z"/>
	<path class="st0" d="M13.9,26.8c3.5-3.9,9.6-4.2,13.5-0.6c0.2,0.2,0.4,0.4,0.6,0.6l1.4-1.4c-4.3-4.7-11.6-5-16.3-0.7
		c-0.2,0.2-0.5,0.4-0.7,0.7L13.9,26.8z"/>
	<path class="st0" d="M7.7,20.6c7-7.4,18.6-7.7,26-0.7c0.2,0.2,0.5,0.4,0.7,0.7l1.4-1.4C28,11,15.1,10.7,6.9,18.5
		c-0.2,0.2-0.5,0.4-0.7,0.7L7.7,20.6z"/>
	<path class="st0" d="M1.4,14.3C11.9,3.5,29.1,3.2,39.9,13.7c0.2,0.2,0.4,0.4,0.7,0.7L42,13C30.8,1.3,12.3,1,0.7,12.2
		c-0.2,0.2-0.4,0.4-0.7,0.7L1.4,14.3z"/>
</g>
</svg>
