<?xml version="1.0" encoding="utf-8"?>
<!-- Generator: Adobe Illustrator 24.2.1, SVG Export Plug-In . SVG Version: 6.00 Build 0)  -->
<svg version="1.1" id="图层_1" xmlns="http://www.w3.org/2000/svg" xmlns:xlink="http://www.w3.org/1999/xlink" x="0px" y="0px"
	 viewBox="0 0 24 24" style="enable-background:new 0 0 24 24;" xml:space="preserve">
<style type="text/css">
	.st0{fill:none;stroke:#7E7E7E;stroke-width:2;stroke-miterlimit:10;}
	.st1{fill:#7E7E7E;}
</style>
<circle class="st0" cx="12" cy="12" r="10"/>
<path class="st1" d="M12,19.5L12,19.5c-1.1,0-2-0.9-2-2v-5c0-1.1,0.9-2,2-2l0,0c1.1,0,2,0.9,2,2v5C14,18.6,13.1,19.5,12,19.5z"/>
<path class="st1" d="M12,9L12,9c-1.1,0-2-0.9-2-2l0,0c0-1.1,0.9-2,2-2l0,0c1.1,0,2,0.9,2,2l0,0C14,8.1,13.1,9,12,9z"/>
</svg>
