<?xml version="1.0" encoding="UTF-8"?>
<svg width="16px" height="16px" viewBox="0 0 16 16" version="1.1" xmlns="http://www.w3.org/2000/svg" xmlns:xlink="http://www.w3.org/1999/xlink">
    <title>about</title>
    <g id="Icon" stroke="none" stroke-width="1" fill="none" fill-rule="evenodd">
        <g id="Icon-Sets" transform="translate(-1124.000000, -2458.000000)">
            <g id="编组-9" transform="translate(0.000000, 2401.000000)">
                <g id="about" transform="translate(1124.000000, 57.000000)">
                    <rect id="矩形" fill="#000000" fill-rule="nonzero" opacity="0" x="0" y="0" width="16" height="16"></rect>
                    <path d="M12.4361148,2 C13.3276335,2 13.6509198,2.09282561 13.9768457,2.2671327 C14.3027716,2.4414398 14.5585602,2.69722837 14.7328673,3.0231543 C14.9071744,3.34908022 15,3.67236646 15,4.5638852 L15,10.4361148 C15,11.3276335 14.9071744,11.6509198 14.7328673,11.9768457 C14.5585602,12.3027716 14.3027716,12.5585602 13.9768457,12.7328673 C13.6509198,12.9071744 13.3276335,13 12.4361148,13 L10,13 L8.90647031,14.0935297 C8.59127083,14.4087292 8.44415308,14.4902093 8.267294,14.5438147 C8.09043492,14.59742 7.90956508,14.59742 7.732706,14.5438147 C7.55584692,14.4902093 7.40872917,14.4087292 7.09352969,14.0935297 L6,13 L3.5638852,13 C2.67236646,13 2.34908022,12.9071744 2.0231543,12.7328673 C1.69722837,12.5585602 1.4414398,12.3027716 1.2671327,11.9768457 C1.09282561,11.6509198 1,11.3276335 1,10.4361148 L1,4.5638852 C1,3.67236646 1.09282561,3.34908022 1.2671327,3.0231543 C1.4414398,2.69722837 1.69722837,2.4414398 2.0231543,2.2671327 C2.34908022,2.09282561 2.67236646,2 3.5638852,2 L12.4361148,2 Z M7.99354839,9.09663866 C7.70967742,9.09663866 7.47741935,9.18487395 7.29677419,9.36134454 C7.09032258,9.53781513 7,9.76470588 7,10.0420168 C7,10.3193277 7.09032258,10.5462185 7.29677419,10.7226891 C7.47741935,10.8991597 7.70967742,11 7.99354839,11 C8.27741935,11 8.50967742,10.9117647 8.71612903,10.7352941 C8.89677419,10.5588235 9,10.3193277 9,10.0420168 C9,9.76470588 8.89677419,9.53781513 8.71612903,9.36134454 C8.52258065,9.18487395 8.27741935,9.09663866 7.99354839,9.09663866 Z M8,4 C7.4964903,4 7.08831505,4.40817526 7.08831505,4.91168495 C7.08831505,4.93974836 7.08961081,4.9677968 7.09219821,4.99574067 L7.31231965,7.37305217 C7.34521134,7.72828246 7.6432502,8 8,8 C8.3567498,8 8.65478866,7.72828246 8.68768035,7.37305217 L8.90780179,4.99574067 C8.95422448,4.49437559 8.58542081,4.05030586 8.08405572,4.00388316 C8.05611185,4.00129577 8.02806341,4 8,4 Z" id="形状结合" fill="#FFFFFF"></path>
                </g>
            </g>
        </g>
    </g>
</svg>