<?xml version="1.0" encoding="utf-8"?>
<!-- Generator: Adobe Illustrator 24.0.0, SVG Export Plug-In . SVG Version: 6.00 Build 0)  -->
<svg version="1.1" id="图层_1" xmlns="http://www.w3.org/2000/svg" xmlns:xlink="http://www.w3.org/1999/xlink" x="0px" y="0px"
	 viewBox="0 0 16 16" style="enable-background:new 0 0 16 16;" xml:space="preserve">
<style type="text/css">
	.st0{fill:#262626;}
</style>
<path class="st0" d="M6.2,15.1H6c-0.5-0.1-1-0.4-1.2-0.9s-0.2-1,0-1.4L6.1,10h-1l-1.3,1.3c-0.5,0.5-1.3,0.5-1.9,0
	c-0.4-0.4-0.5-1-0.2-1.5l0.6-1.2L1.7,7.2c-0.3-0.6,0-1.4,0.6-1.7c0.5-0.3,1.1-0.2,1.5,0.3L5.1,7h1L4.7,4.2c-0.2-0.5-0.2-1,0-1.4
	C5.1,2,6.1,1.7,6.9,2.1c0.2,0.1,0.4,0.2,0.5,0.4L11.1,7h2.4C14.3,7,15,7.7,15,8.5S14.3,10,13.5,10h-2.4l-3.8,4.5
	C7.1,14.9,6.6,15.1,6.2,15.1z M4.9,9h2c0.2,0,0.3,0.1,0.4,0.2c0.1,0.1,0.1,0.3,0,0.5l-1.7,3.5c-0.1,0.2-0.1,0.4,0,0.5
	C5.7,13.9,5.9,14,6.1,14s0.4-0.1,0.5-0.2l3.9-4.7c0.1,0,0.3-0.1,0.4-0.1h2.6c0.1,0,0.3-0.1,0.4-0.1c0.2-0.2,0.2-0.5,0-0.7l0,0
	C13.8,8.1,13.6,8,13.5,8h-2.6c-0.1,0-0.3-0.1-0.4-0.2L6.6,3.1C6.4,2.9,6,2.8,5.8,3C5.7,3.1,5.6,3.2,5.6,3.2c-0.1,0.2-0.1,0.4,0,0.5
	l1.8,3.5c0.1,0.1,0.1,0.3,0,0.5C7.3,7.9,7.1,8,6.9,8h-2C4.8,8,4.7,7.9,4.6,7.8L3.1,6.4C3,6.3,2.8,6.3,2.7,6.4
	C2.6,6.5,2.6,6.7,2.6,6.8l0.7,1.5c0.1,0.1,0.1,0.3,0,0.4l-0.7,1.5c-0.1,0.1,0,0.3,0.1,0.4c0.1,0.1,0.3,0.1,0.5,0l1.4-1.4
	C4.7,9.1,4.8,9,4.9,9z"/>
</svg>
