<svg id="图层_1" data-name="图层 1" xmlns="http://www.w3.org/2000/svg" viewBox="0 0 24 24"><defs><style>.cls-1{fill:#fff;}.cls-1,.cls-2{stroke:#fff;stroke-miterlimit:10;stroke-width:2px;}.cls-2{fill:none;stroke-linecap:round;}</style></defs><title>audioWhite</title><path class="cls-1" d="M8.87,4.41,4.6,9.13H3.29A1.48,1.48,0,0,0,2,10.74v2.52a1.48,1.48,0,0,0,1.29,1.61H4.6l4.27,4.72c.83.92,2.13.18,2.13-1.21V5.62C11,4.23,9.7,3.49,8.87,4.41Z"/><path class="cls-2" d="M20,5a13.84,13.84,0,0,1,2,7.37A14.14,14.14,0,0,1,20.43,19"/><path class="cls-2" d="M17,7a8.7,8.7,0,0,1,1.49,5A8.66,8.66,0,0,1,17,17"/><path class="cls-2" d="M14,9a5,5,0,0,1,0,6"/></svg>