<?xml version="1.0" encoding="utf-8"?>
<!-- Generator: Adobe Illustrator 24.2.1, SVG Export Plug-In . SVG Version: 6.00 Build 0)  -->
<svg version="1.1" id="图层_1" xmlns="http://www.w3.org/2000/svg" xmlns:xlink="http://www.w3.org/1999/xlink" x="0px" y="0px"
	 viewBox="0 0 24 24" style="enable-background:new 0 0 24 24;" xml:space="preserve">
<style type="text/css">
	.st0{fill:none;stroke:#7E7E7E;stroke-width:2;stroke-miterlimit:10;}
	.st1{fill:none;stroke:#7E7E7E;stroke-width:2;stroke-linecap:round;stroke-miterlimit:10;}
</style>
<path class="st0" d="M8.9,4.4L4.6,9.1H3.3C2.6,9.1,2,9.9,2,10.7v2.5c0,0.9,0.6,1.6,1.3,1.6h1.3l4.3,4.7c0.8,0.9,2.1,0.2,2.1-1.2V5.6
	C11,4.2,9.7,3.5,8.9,4.4z"/>
<path class="st1" d="M20,5c1.2,2,2,4.5,2,7.4c0,2.5-0.6,4.8-1.6,6.6"/>
<path class="st1" d="M17,7c0.9,1.3,1.5,3.1,1.5,5s-0.6,3.7-1.5,5"/>
<path class="st1" d="M14,9c0.6,0.8,1,1.8,1,3s-0.4,2.2-1,3"/>
</svg>
