<?xml version="1.0" encoding="utf-8"?>
<!-- Generator: Adobe Illustrator 24.0.0, SVG Export Plug-In . SVG Version: 6.00 Build 0)  -->
<svg version="1.1" xmlns="http://www.w3.org/2000/svg" xmlns:xlink="http://www.w3.org/1999/xlink" x="0px" y="0px"
	 viewBox="0 0 16 16" style="enable-background:new 0 0 16 16;" xml:space="preserve">
<style type="text/css">
	.st0{display:none;}
	.st1{display:inline;}
	.st2{fill:#262626;}
	.st3{display:inline;fill:#262626;enable-background:new    ;}
	.st4{fill:none;stroke:#262626;stroke-miterlimit:10;}
	.st5{display:none;fill:none;stroke:#262626;stroke-linecap:round;stroke-miterlimit:10;}
	.st6{fill:none;stroke:#262626;stroke-linecap:round;stroke-miterlimit:10;}
	.st7{display:none;fill:none;stroke:#262626;stroke-miterlimit:10;}
</style>
<g id="图层_2_1_" class="st0">
	<g class="st1">
		<path class="st2" d="M5,2.7v10.7l-1.7-2L3,11H2.5H2c-0.6,0-1-0.4-1-1V6c0-0.6,0.4-1,1-1h0.5H3l0.3-0.3L5,2.7 M5.5,0.8
			C5.4,0.8,5.2,0.9,5.1,1L2.5,4H2C0.9,4,0,4.9,0,6v4c0,1.1,0.9,2,2,2h0.5l2.6,3c0.1,0.1,0.2,0.2,0.4,0.2C5.8,15.2,6,15,6,14.7V1.3
			C6,1,5.8,0.8,5.5,0.8L5.5,0.8z"/>
	</g>
	<path class="st3" d="M7,6v1c0.5,0,1,0.4,1,0.9V8c0,0.5-0.4,1-0.9,1H7v1c1.1,0,2-0.9,2-2S8.1,6,7,6z"/>
	<path class="st3" d="M8,12.9c-0.2,0-0.4-0.2-0.5-0.4c-0.1-0.3,0.1-0.5,0.4-0.6C9.7,11.5,11,9.8,11,8c0-1.9-1.3-3.4-3.1-3.9
		C7.6,4,7.4,3.7,7.5,3.5C7.6,3.2,7.9,3,8.1,3.1C10.4,3.7,12,5.7,12,8s-1.6,4.3-3.9,4.9H8z"/>
	<path class="st3" d="M11.1,15.3c-0.2,0-0.4-0.1-0.5-0.3c-0.1-0.3,0-0.5,0.3-0.7c2.4-1,4.1-3.6,4.1-6.3s-1.7-5.3-4.2-6.4
		c-0.3-0.1-0.4-0.4-0.2-0.7c0.1-0.3,0.4-0.4,0.7-0.2C14.1,2,16,4.9,16,8c0,3.2-1.9,6.1-4.7,7.3C11.2,15.3,11.2,15.3,11.1,15.3z"/>
</g>
<g id="图层_3">
	<path class="st4" d="M1.5,4.5H3l2.6-2.6C6,1.5,6.5,1.8,6.5,2.2v11.6c0,0.4-0.5,0.7-0.9,0.4L3,11.5H1.5c-0.6,0-1-0.4-1-1v-5
		C0.5,4.9,0.9,4.5,1.5,4.5z"/>
	<path class="st5" d="M8,6.5c0.8,0,1.5,0.7,1.5,1.5S8.8,9.5,8,9.5"/>
	<path class="st6" d="M10,4c1.5,0.7,2.5,2.3,2.5,4c0,1.8-1,3.3-2.5,4"/>
	<path class="st6" d="M12,1.9c2.1,1.2,3.5,3.5,3.5,6.1c0,2.6-1.4,4.9-3.5,6.1"/>
	<path class="st7" d="M12.5,8c0,1.8-1,3.3-2.5,4c-0.6,0.3-1.3,0.5-2,0.5c-2.5,0-4.5-2-4.5-4.5s2-4.5,4.5-4.5c0.7,0,1.4,0.2,2,0.5
		C11.5,4.7,12.5,6.2,12.5,8z"/>
	<circle class="st7" cx="8.5" cy="8" r="7"/>
	<path class="st6" d="M8.3,5.9C9,6.3,9.5,7.1,9.5,8c0,0.9-0.5,1.7-1.2,2.1"/>
</g>
</svg>
