<svg id="图层_1" data-name="图层 1" xmlns="http://www.w3.org/2000/svg" viewBox="0 0 24 24"><defs><style>.cls-1{fill:#404040;}</style></defs><title>autoboot</title><path class="cls-1" d="M18.31,15.67l-4.92-3.4a1.45,1.45,0,0,0-.85-.27A1.57,1.57,0,0,0,11,13.6v6.8A1.57,1.57,0,0,0,12.54,22a1.45,1.45,0,0,0,.85-.27l4.92-3.4A1.63,1.63,0,0,0,18.31,15.67Z"/><path class="cls-1" d="M20,3H4A3,3,0,0,0,1,6V16a3,3,0,0,0,3,3H9V17H4a1,1,0,0,1-1-1V6A1,1,0,0,1,4,5H20a1,1,0,0,1,1,1V16a.91.91,0,0,1-.08.37A3.4,3.4,0,0,1,21,17a3.65,3.65,0,0,1-.6,2A3,3,0,0,0,23,16V6A3,3,0,0,0,20,3Z"/></svg>