<?xml version="1.0" encoding="utf-8"?>
<!-- Generator: Adobe Illustrator 24.2.1, SVG Export Plug-In . SVG Version: 6.00 Build 0)  -->
<svg version="1.1" id="图层_1" xmlns="http://www.w3.org/2000/svg" xmlns:xlink="http://www.w3.org/1999/xlink" x="0px" y="0px"
	 viewBox="0 0 24 24" style="enable-background:new 0 0 24 24;" xml:space="preserve">
<style type="text/css">
	.st0{fill:#7E7E7E;}
</style>
<path class="st0" d="M18.3,15.7l-4.9-3.4c-0.3-0.2-0.6-0.3-0.8-0.3c-0.8,0-1.5,0.7-1.5,1.6v6.8c0,0.9,0.7,1.6,1.5,1.6
	c0.3,0,0.6-0.1,0.8-0.3l4.9-3.4C19.2,17.7,19.2,16.3,18.3,15.7z"/>
<path class="st0" d="M20,3H4C2.3,3,1,4.3,1,6v10c0,1.7,1.3,3,3,3h5v-2H4c-0.6,0-1-0.4-1-1V6c0-0.6,0.4-1,1-1h16c0.6,0,1,0.4,1,1v10
	c0,0.1,0,0.3-0.1,0.4c0,0.2,0.1,0.4,0.1,0.6c0,0.7-0.2,1.4-0.6,2c1.5-0.2,2.6-1.4,2.6-3V6C23,4.3,21.7,3,20,3z"/>
</svg>
