<?xml version="1.0" encoding="utf-8"?>
<!-- Generator: Adobe Illustrator 24.0.0, SVG Export Plug-In . SVG Version: 6.00 Build 0)  -->
<svg version="1.1" id="图层_2" xmlns="http://www.w3.org/2000/svg" xmlns:xlink="http://www.w3.org/1999/xlink" x="0px" y="0px"
	 viewBox="0 0 16 16" style="enable-background:new 0 0 16 16;" xml:space="preserve">
<style type="text/css">
	.st0{fill:#262626;}
	.st1{fill:none;stroke:#262626;stroke-miterlimit:10;}
</style>
<g>
	<g>
		<path class="st0" d="M6.2,9C6.2,9,6.2,9,6.2,9l3.8,2.4c0,0,0.1,0,0.1,0.1s0,0.1-0.1,0.1L6.2,14c0,0-0.1,0-0.1,0
			C6.1,14,6,14,6,13.9V9.1C6,9,6.1,9,6.2,9 M6.2,8C5.6,8,5,8.5,5,9.1v4.8C5,14.5,5.6,15,6.2,15c0.2,0,0.4-0.1,0.6-0.2l3.7-2.4
			c0.7-0.4,0.7-1.4,0-1.8L6.8,8.2C6.6,8.1,6.4,8,6.2,8L6.2,8z"/>
	</g>
</g>
<path class="st1" d="M4,11.5H3.5c-1.1,0-2-0.9-2-2v-5c0-1.1,0.9-2,2-2h9c1.1,0,2,0.9,2,2v5c0,1.1-0.9,2-2,2H12"/>
</svg>
