<?xml version="1.0" encoding="utf-8"?>
<!-- Generator: Adobe Illustrator 24.0.2, SVG Export Plug-In . SVG Version: 6.00 Build 0)  -->
<!DOCTYPE svg PUBLIC "-//W3C//DTD SVG 1.1//EN" "http://www.w3.org/Graphics/SVG/1.1/DTD/svg11.dtd" [
	<!ENTITY ns_extend "http://ns.adobe.com/Extensibility/1.0/">
	<!ENTITY ns_ai "http://ns.adobe.com/AdobeIllustrator/10.0/">
	<!ENTITY ns_graphs "http://ns.adobe.com/Graphs/1.0/">
	<!ENTITY ns_vars "http://ns.adobe.com/Variables/1.0/">
	<!ENTITY ns_imrep "http://ns.adobe.com/ImageReplacement/1.0/">
	<!ENTITY ns_sfw "http://ns.adobe.com/SaveForWeb/1.0/">
	<!ENTITY ns_custom "http://ns.adobe.com/GenericCustomNamespace/1.0/">
	<!ENTITY ns_adobe_xpath "http://ns.adobe.com/XPath/1.0/">
]>
<svg version="1.1" id="图层_1" xmlns:x="&ns_extend;" xmlns:i="&ns_ai;" xmlns:graph="&ns_graphs;"
	 xmlns="http://www.w3.org/2000/svg" xmlns:xlink="http://www.w3.org/1999/xlink" x="0px" y="0px" viewBox="0 0 24 24"
	 enable-background="new 0 0 24 24" xml:space="preserve">
<metadata>
	<sfw  xmlns="&ns_sfw;">
		<slices></slices>
		<sliceSourceBounds  bottomLeftOrigin="true" height="1298" width="1504" x="-206" y="-620"></sliceSourceBounds>
	</sfw>
</metadata>
<path fill="none" d="M18.3,14.7l-4.9-3.4c-0.3-0.2-0.6-0.3-0.8-0.3c-0.8,0-1.5,0.7-1.5,1.6v6.8c0,0.9,0.7,1.6,1.5,1.6
	c0.3,0,0.6-0.1,0.8-0.3l4.9-3.4C19.2,16.7,19.2,15.3,18.3,14.7z"/>
<path fill="none" d="M12.5,21c0.3,0,0.6-0.1,0.8-0.3l3.9-2.7H11v1.4C11,20.3,11.7,21,12.5,21z"/>
<path fill="#FFFFFF" d="M18.3,14.7l-4.9-3.4c-0.3-0.2-0.6-0.3-0.8-0.3c-0.8,0-1.5,0.7-1.5,1.6V18v1.4c0,0.9,0.7,1.6,1.5,1.6
	c0.3,0,0.6-0.1,0.8-0.3l3.9-2.7l0,0l1-0.7C19.2,16.7,19.2,15.3,18.3,14.7z"/>
<path fill="#FFFFFF" d="M20,2H4C2.3,2,1,3.3,1,5v10c0,1.7,1.3,3,3,3h5v-5.4c0-2,1.6-3.6,3.5-3.6c0.7,0,1.4,0.2,2,0.6l4.9,3.4
	c1,0.7,1.5,1.8,1.5,3c0,0.7-0.2,1.4-0.6,2c1.5-0.2,2.6-1.4,2.6-3V5C23,3.3,21.7,2,20,2z"/>
</svg>
