<svg id="图层_1" data-name="图层 1" xmlns="http://www.w3.org/2000/svg" viewBox="0 0 24 24"><defs><style>.cls-1{fill:none;}.cls-2{fill:#fff;}</style></defs><title>autobootWhite</title><path class="cls-1" d="M18.31,14.67l-4.92-3.4a1.45,1.45,0,0,0-.85-.27A1.57,1.57,0,0,0,11,12.6v6.8A1.57,1.57,0,0,0,12.54,21a1.45,1.45,0,0,0,.85-.27l4.92-3.4A1.63,1.63,0,0,0,18.31,14.67Z"/><path class="cls-1" d="M12.54,21a1.45,1.45,0,0,0,.85-.27L17.34,18H11v1.4A1.57,1.57,0,0,0,12.54,21Z"/><path class="cls-2" d="M18.31,14.67l-4.92-3.4a1.45,1.45,0,0,0-.85-.27A1.57,1.57,0,0,0,11,12.6v6.8A1.57,1.57,0,0,0,12.54,21a1.45,1.45,0,0,0,.85-.27L17.34,18h0l1-.67A1.63,1.63,0,0,0,18.31,14.67Z"/><path class="cls-2" d="M20,2H4A3,3,0,0,0,1,5V15a3,3,0,0,0,3,3H9V12.6A3.57,3.57,0,0,1,12.54,9a3.48,3.48,0,0,1,2,.63L19.45,13A3.61,3.61,0,0,1,21,16a3.65,3.65,0,0,1-.6,2A3,3,0,0,0,23,15V5A3,3,0,0,0,20,2Z"/></svg>