<?xml version="1.0" encoding="utf-8"?>
<!-- Generator: Adobe Illustrator 24.2.1, SVG Export Plug-In . SVG Version: 6.00 Build 0)  -->
<svg version="1.1" id="图层_1" xmlns="http://www.w3.org/2000/svg" xmlns:xlink="http://www.w3.org/1999/xlink" x="0px" y="0px"
	 viewBox="0 0 24 24" style="enable-background:new 0 0 24 24;" xml:space="preserve">
<style type="text/css">
	.st0{fill:none;stroke:#7E7E7E;stroke-width:2;stroke-miterlimit:10;}
	.st1{fill:#7E7E7E;}
	.st2{fill:none;}
	.st3{fill:none;stroke:#7E7E7E;stroke-width:2;stroke-linecap:round;stroke-linejoin:round;stroke-miterlimit:10;}
</style>
<path class="st0" d="M20.2,3H3.8C2.8,3,2,3.9,2,5v13.4V19c0,0.5,0.1,0.9,0.4,1.2C2.7,20.7,3.2,21,3.8,21H9h1h0.9h0.5h8.8
	c0.4,0,0.8-0.2,1.1-0.4c0.3-0.3,0.5-0.6,0.7-1c0-0.2,0-0.4,0-0.6V5C22,3.9,21.2,3,20.2,3z"/>
<circle class="st1" cx="16" cy="8" r="2"/>
<path class="st2" d="M1.4,20.2v0.1C1.6,20.6,2,21,2.7,21h5.8c0.1,0,0.1,0,0.2,0H3C2.4,21,1.8,20.6,1.4,20.2z"/>
<polyline class="st3" points="2.5,15.5 7.9,10 11.3,16.5 16.1,12.5 21.5,20 "/>
</svg>
