<?xml version="1.0" encoding="utf-8"?>
<!-- Generator: Adobe Illustrator 24.0.2, SVG Export Plug-In . SVG Version: 6.00 Build 0)  -->
<!DOCTYPE svg PUBLIC "-//W3C//DTD SVG 1.1//EN" "http://www.w3.org/Graphics/SVG/1.1/DTD/svg11.dtd" [
	<!ENTITY ns_extend "http://ns.adobe.com/Extensibility/1.0/">
	<!ENTITY ns_ai "http://ns.adobe.com/AdobeIllustrator/10.0/">
	<!ENTITY ns_graphs "http://ns.adobe.com/Graphs/1.0/">
	<!ENTITY ns_vars "http://ns.adobe.com/Variables/1.0/">
	<!ENTITY ns_imrep "http://ns.adobe.com/ImageReplacement/1.0/">
	<!ENTITY ns_sfw "http://ns.adobe.com/SaveForWeb/1.0/">
	<!ENTITY ns_custom "http://ns.adobe.com/GenericCustomNamespace/1.0/">
	<!ENTITY ns_adobe_xpath "http://ns.adobe.com/XPath/1.0/">
]>
<svg version="1.1" id="图层_1" xmlns:x="&ns_extend;" xmlns:i="&ns_ai;" xmlns:graph="&ns_graphs;"
	 xmlns="http://www.w3.org/2000/svg" xmlns:xlink="http://www.w3.org/1999/xlink" x="0px" y="0px" viewBox="0 0 24 24"
	 enable-background="new 0 0 24 24" xml:space="preserve">
<metadata>
	<sfw  xmlns="&ns_sfw;">
		<slices></slices>
		<sliceSourceBounds  bottomLeftOrigin="true" height="1298" width="1504" x="-206" y="-620"></sliceSourceBounds>
	</sfw>
</metadata>
<path fill="#FFFFFF" d="M16.6,13.9l-4.9,3.5c-0.2,0.2-0.5,0.2-0.8,0.2c-0.3-0.1-0.5-0.2-0.7-0.5L7,11.5l-5.3,4.7
	c-0.2,0.2-0.4,0.2-0.7,0.2V19c0,0.6,0.2,1.3,0.6,1.8C2.1,21.5,2.9,22,3.8,22h16.4c0.6,0,1.2-0.2,1.7-0.6c0.2-0.2,0.4-0.4,0.5-0.6
	c-0.1,0-0.1-0.1-0.2-0.1L16.6,13.9z"/>
<path fill="#FFFFFF" d="M7.4,9c0.3,0,0.6,0.2,0.7,0.5l3.4,5.6l4.8-3.4c0.4-0.3,1-0.2,1.3,0.2l5.4,6.6V5c0-1.7-1.3-3-2.8-3H3.8
	C2.3,2,1,3.4,1,5v9.1l5.5-4.9C6.8,9.1,7.1,9,7.4,9z M16,6c1.1,0,2,0.9,2,2c0,1.1-0.9,2-2,2s-2-0.9-2-2C14,6.9,14.9,6,16,6z"/>
</svg>
