<svg id="图层_1" data-name="图层 1" xmlns="http://www.w3.org/2000/svg" viewBox="0 0 24 24"><defs><style>.cls-1{fill:#fff;}</style></defs><title>backgroundWhite</title><path class="cls-1" d="M16.62,13.85l-4.89,3.47a1,1,0,0,1-.78.16A1,1,0,0,1,10.3,17L7,11.54,1.66,16.25a1,1,0,0,1-.66.24V19a3.15,3.15,0,0,0,.56,1.81A2.72,2.72,0,0,0,3.82,22H20.18a2.68,2.68,0,0,0,1.7-.62,2.8,2.8,0,0,0,.54-.6.67.67,0,0,1-.19-.14Z"/><path class="cls-1" d="M7.35,9a1,1,0,0,1,.71.47l3.39,5.58,4.77-3.38a1,1,0,0,1,1.35.18L23,18.43V5.05a2.94,2.94,0,0,0-2.82-3H3.82A2.94,2.94,0,0,0,1,5.05v9.11L6.54,9.25A1,1,0,0,1,7.35,9ZM16,6a2,2,0,1,1-2,2A2,2,0,0,1,16,6Z"/></svg>