<?xml version="1.0" encoding="utf-8"?>
<!-- Generator: Adobe Illustrator 24.0.2, SVG Export Plug-In . SVG Version: 6.00 Build 0)  -->
<!DOCTYPE svg PUBLIC "-//W3C//DTD SVG 1.1//EN" "http://www.w3.org/Graphics/SVG/1.1/DTD/svg11.dtd" [
	<!ENTITY ns_extend "http://ns.adobe.com/Extensibility/1.0/">
	<!ENTITY ns_ai "http://ns.adobe.com/AdobeIllustrator/10.0/">
	<!ENTITY ns_graphs "http://ns.adobe.com/Graphs/1.0/">
	<!ENTITY ns_vars "http://ns.adobe.com/Variables/1.0/">
	<!ENTITY ns_imrep "http://ns.adobe.com/ImageReplacement/1.0/">
	<!ENTITY ns_sfw "http://ns.adobe.com/SaveForWeb/1.0/">
	<!ENTITY ns_custom "http://ns.adobe.com/GenericCustomNamespace/1.0/">
	<!ENTITY ns_adobe_xpath "http://ns.adobe.com/XPath/1.0/">
]>
<svg version="1.1" id="图层_1" xmlns:x="&ns_extend;" xmlns:i="&ns_ai;" xmlns:graph="&ns_graphs;"
	 xmlns="http://www.w3.org/2000/svg" xmlns:xlink="http://www.w3.org/1999/xlink" x="0px" y="0px" viewBox="0 0 24 24"
	 enable-background="new 0 0 24 24" xml:space="preserve">
<metadata>
	<sfw  xmlns="&ns_sfw;">
		<slices></slices>
		<sliceSourceBounds  bottomLeftOrigin="true" height="1298" width="1504" x="-206" y="-620"></sliceSourceBounds>
	</sfw>
</metadata>
<path fill="none" stroke="#404040" stroke-width="2" stroke-miterlimit="10" d="M20.2,3H3.8C2.8,3,2,3.9,2,5v13.4V19
	c0,0.5,0.1,0.9,0.4,1.2C2.7,20.7,3.2,21,3.8,21H9H10h0.9h0.5h8.8c0.4,0,0.8-0.2,1.1-0.4c0.3-0.3,0.5-0.6,0.7-1
	C22,19.4,22,19.2,22,19V5C22,3.9,21.2,3,20.2,3z"/>
<circle fill="#404040" cx="16" cy="8" r="2"/>
<path fill="none" d="M1.4,20.2c0,0,0,0.1,0,0.1C1.6,20.6,2,21,2.7,21h5.8c0.1,0,0.1,0,0.2,0H3C2.4,21,1.8,20.6,1.4,20.2z"/>
<polyline fill="none" stroke="#404040" stroke-width="2" stroke-linecap="round" stroke-linejoin="round" stroke-miterlimit="10" points="
	2.5,15.5 7.9,10 11.3,16.5 16.1,12.5 21.5,20 "/>
</svg>
