<svg id="图层_1" data-name="图层 1" xmlns="http://www.w3.org/2000/svg" viewBox="0 0 24 24"><defs><style>.cls-1,.cls-3,.cls-4{fill:none;}.cls-1,.cls-4{stroke:#404040;stroke-width:2px;}.cls-1{stroke-miterlimit:10;}.cls-2{fill:#404040;}.cls-4{stroke-linecap:round;stroke-linejoin:round;}</style></defs><title>background</title><path class="cls-1" d="M20.18,3H3.82A2,2,0,0,0,2,5.05V19a2.22,2.22,0,0,0,.38,1.24A1.76,1.76,0,0,0,3.82,21H20.18a1.67,1.67,0,0,0,1.07-.4,2.09,2.09,0,0,0,.65-1A2.19,2.19,0,0,0,22,19V5.05A2,2,0,0,0,20.18,3Z"/><circle class="cls-2" cx="16" cy="8" r="2"/><path class="cls-3" d="M1.42,20.16a.57.57,0,0,0,0,.14,1.26,1.26,0,0,0,1.22.7H8.47a1.06,1.06,0,0,0,.19,0H3A2,2,0,0,1,1.42,20.16Z"/><polyline class="cls-4" points="2.5 15.5 7.86 10 11.27 16.5 16.14 12.5 21.5 20"/></svg>