<?xml version="1.0" encoding="UTF-8"?>
<svg viewBox="0 0 16 16" version="1.1" xmlns="http://www.w3.org/2000/svg" xmlns:xlink="http://www.w3.org/1999/xlink">
    <title>power</title>
    <g id="Icon" stroke="none" stroke-width="1" fill="none" fill-rule="evenodd">
        <g id="Icon-Sets" transform="translate(-548.000000, -2489.000000)">
            <g id="编组-9" transform="translate(0.000000, 2399.000000)">
                <g id="power" transform="translate(548.000000, 90.000000)">
                    <rect id="矩形" fill="#000000" fill-rule="nonzero" opacity="0" x="0" y="0" width="16" height="16"></rect>
                    <path d="M10.4361148,2 C11.3276335,2 11.6509198,2.09282561 11.9768457,2.2671327 C12.3027716,2.4414398 12.5585602,2.69722837 12.7328673,3.0231543 C12.9071744,3.34908022 13,3.67236646 13,4.5638852 L13,12.4361148 C13,13.3276335 12.9071744,13.6509198 12.7328673,13.9768457 C12.5585602,14.3027716 12.3027716,14.5585602 11.9768457,14.7328673 C11.6509198,14.9071744 11.3276335,15 10.4361148,15 L5.5638852,15 C4.67236646,15 4.34908022,14.9071744 4.0231543,14.7328673 C3.69722837,14.5585602 3.4414398,14.3027716 3.2671327,13.9768457 C3.09282561,13.6509198 3,13.3276335 3,12.4361148 L3,4.5638852 C3,3.67236646 3.09282561,3.34908022 3.2671327,3.0231543 C3.4414398,2.69722837 3.69722837,2.4414398 4.0231543,2.2671327 C4.34908022,2.09282561 4.67236646,2 5.5638852,2 L10.4361148,2 Z M8.74942459,5.39977785 C8.74942459,4.98375218 8.22514807,4.84774379 8.04539612,5.207766 L8.04539612,5.207766 L5.04565568,9.20801284 C4.91084172,9.48002962 5.09059367,9.80004937 5.37520092,9.80004937 L5.37520092,9.80004937 L7.25149168,9.80004937 L7.25149168,12.6002221 C7.25149168,13.0162478 7.7757682,13.1522562 7.95552014,12.792234 L7.95552014,12.792234 L10.9552606,8.79198716 C11.0900745,8.51997038 10.9028329,8.19995063 10.6257153,8.19995063 L10.6257153,8.19995063 L8.74942459,8.19995063 Z" id="形状结合" fill-opacity="0.75" fill="#262626"></path>
                    <path d="M6.5,1 L9.5,1 C10.0522847,1 10.5,1.44771525 10.5,2 L10.5,2 L10.5,2 L5.5,2 C5.5,1.44771525 5.94771525,1 6.5,1 Z" id="矩形备份-2" fill-opacity="0.75" fill="#262626"></path>
                </g>
            </g>
        </g>
    </g>
</svg>