<svg id="图层_1" data-name="图层 1" xmlns="http://www.w3.org/2000/svg" viewBox="0 0 16 16"><path d="M2.35,6.1,2,5.92A.68.68,0,0,0,2.35,6.1Z" fill="#262626"/><path d="M2,11.08l.32-.18A.68.68,0,0,0,2,11.08Z" fill="#262626"/><path d="M12.5,10a1.47,1.47,0,0,0-.89.3l-1.75-1A2.57,2.57,0,0,0,10,8.5a2.57,2.57,0,0,0-.14-.79l1.75-1a1.47,1.47,0,0,0,.89.3,1.52,1.52,0,1,0-1.45-1.13l-1.69,1A2.46,2.46,0,0,0,8,6.05V3.91a1.5,1.5,0,1,0-1,0V6.05a2.46,2.46,0,0,0-1.36.8L4,5.87A1.5,1.5,0,1,0,2.5,7a1.47,1.47,0,0,0,.89-.3l1.75,1A2.57,2.57,0,0,0,5,8.5a2.57,2.57,0,0,0,.14.79l-1.75,1A1.47,1.47,0,0,0,2.5,10,1.52,1.52,0,1,0,4,11.13l1.69-1A2.46,2.46,0,0,0,7,11v2.14a1.5,1.5,0,1,0,1,0V11a2.46,2.46,0,0,0,1.36-.8l1.69,1A1.5,1.5,0,1,0,12.5,10Zm-.61-4.61a.61.61,0,0,1,.61-.52.54.54,0,0,1,.22,0,.63.63,0,0,1,.25,1,.68.68,0,0,1-.32.18.4.4,0,0,1-.15,0,.63.63,0,0,1-.63-.63A.43.43,0,0,1,11.89,5.39ZM2.5,6.13a.4.4,0,0,1-.15,0A.68.68,0,0,1,2,5.92a.63.63,0,0,1,.25-1,.54.54,0,0,1,.22,0,.61.61,0,0,1,.61.52.43.43,0,0,1,0,.11A.63.63,0,0,1,2.5,6.13Zm.61,5.48a.61.61,0,0,1-.61.52.54.54,0,0,1-.22,0,.63.63,0,0,1-.25-1,.68.68,0,0,1,.32-.18l.15,0a.63.63,0,0,1,.63.63A.43.43,0,0,1,3.11,11.61ZM6.87,2.5A.59.59,0,0,1,7,2.13L7.13,2a.59.59,0,0,1,.74,0L8,2.13a.59.59,0,0,1,0,.74.61.61,0,0,1-1,0A.59.59,0,0,1,6.87,2.5Zm1.26,12a.63.63,0,0,1-1.26,0,.61.61,0,0,1,.26-.5.59.59,0,0,1,.74,0A.61.61,0,0,1,8.13,14.5ZM9,8.77a1.51,1.51,0,0,1-.5.87A1.69,1.69,0,0,1,8,9.91a1.43,1.43,0,0,1-1,0,1.69,1.69,0,0,1-.47-.27A1.51,1.51,0,0,1,6,8.77a1.23,1.23,0,0,1,0-.54,1.51,1.51,0,0,1,.5-.87A1.69,1.69,0,0,1,7,7.09a1.43,1.43,0,0,1,1,0,1.69,1.69,0,0,1,.47.27,1.51,1.51,0,0,1,.5.87,1.23,1.23,0,0,1,0,.54Zm3.75,3.32a.54.54,0,0,1-.22,0,.61.61,0,0,1-.61-.52.43.43,0,0,1,0-.11.63.63,0,0,1,.63-.63l.15,0a.68.68,0,0,1,.32.18.63.63,0,0,1-.25,1Z" fill="#262626"/></svg>