<?xml version="1.0" encoding="utf-8"?>
<!-- Generator: Adobe Illustrator 24.0.0, SVG Export Plug-In . SVG Version: 6.00 Build 0)  -->
<svg version="1.1" id="图层_2" xmlns="http://www.w3.org/2000/svg" xmlns:xlink="http://www.w3.org/1999/xlink" x="0px" y="0px"
	 viewBox="0 0 16 16" style="enable-background:new 0 0 16 16;" xml:space="preserve">
<style type="text/css">
	.st0{fill:#262626;}
	.st1{fill:none;stroke:#262626;stroke-miterlimit:10;}
</style>
<g>
	<path class="st0" d="M7.5,7C8.3,7,9,7.7,9,8.5S8.3,10,7.5,10S6,9.3,6,8.5S6.7,7,7.5,7 M7.5,6C6.1,6,5,7.1,5,8.5S6.1,11,7.5,11
		S10,9.9,10,8.5S8.9,6,7.5,6L7.5,6z"/>
</g>
<g>
	<path class="st0" d="M7.5,2C7.8,2,8,2.2,8,2.5S7.8,3,7.5,3S7,2.8,7,2.5S7.2,2,7.5,2 M7.5,1C6.7,1,6,1.7,6,2.5S6.7,4,7.5,4
		S9,3.3,9,2.5S8.3,1,7.5,1L7.5,1z"/>
</g>
<g>
	<path class="st0" d="M2.5,5C2.8,5,3,5.2,3,5.5S2.8,6,2.5,6S2,5.8,2,5.5S2.2,5,2.5,5 M2.5,4C1.7,4,1,4.7,1,5.5S1.7,7,2.5,7
		S4,6.3,4,5.5S3.3,4,2.5,4L2.5,4z"/>
</g>
<g>
	<path class="st0" d="M2.5,11C2.8,11,3,11.2,3,11.5S2.8,12,2.5,12S2,11.8,2,11.5S2.2,11,2.5,11 M2.5,10C1.7,10,1,10.7,1,11.5
		S1.7,13,2.5,13S4,12.3,4,11.5S3.3,10,2.5,10L2.5,10z"/>
</g>
<g>
	<path class="st0" d="M12.5,5C12.8,5,13,5.2,13,5.5S12.8,6,12.5,6S12,5.8,12,5.5S12.2,5,12.5,5 M12.5,4C11.7,4,11,4.7,11,5.5
		S11.7,7,12.5,7S14,6.3,14,5.5S13.3,4,12.5,4L12.5,4z"/>
</g>
<g>
	<path class="st0" d="M12.5,11c0.3,0,0.5,0.2,0.5,0.5S12.8,12,12.5,12S12,11.8,12,11.5S12.2,11,12.5,11 M12.5,10
		c-0.8,0-1.5,0.7-1.5,1.5s0.7,1.5,1.5,1.5s1.5-0.7,1.5-1.5S13.3,10,12.5,10L12.5,10z"/>
</g>
<g>
	<path class="st0" d="M7.5,14C7.8,14,8,14.2,8,14.5S7.8,15,7.5,15S7,14.8,7,14.5S7.2,14,7.5,14 M7.5,13C6.7,13,6,13.7,6,14.5
		S6.7,16,7.5,16S9,15.3,9,14.5S8.3,13,7.5,13L7.5,13z"/>
</g>
<g>
	<line class="st1" x1="7.5" y1="10.5" x2="7.5" y2="13.5"/>
</g>
<g>
	<line class="st1" x1="7.5" y1="3.5" x2="7.5" y2="6.5"/>
</g>
<line class="st1" x1="9.2" y1="9.6" x2="11.8" y2="11.2"/>
<line class="st1" x1="3" y1="6" x2="5.6" y2="7.5"/>
<line class="st1" x1="5.7" y1="9.6" x2="3" y2="11.2"/>
<line class="st1" x1="11.8" y1="6" x2="9.3" y2="7.5"/>
</svg>
