<?xml version="1.0" encoding="utf-8"?>
<!-- Generator: Adobe Illustrator 24.0.0, SVG Export Plug-In . SVG Version: 6.00 Build 0)  -->
<svg version="1.1" id="图层_1" xmlns="http://www.w3.org/2000/svg" xmlns:xlink="http://www.w3.org/1999/xlink" x="0px" y="0px"
	 viewBox="0 0 16 16" style="enable-background:new 0 0 16 16;" xml:space="preserve">
<style type="text/css">
	.st0{fill:#262626;}
</style>
<path class="st0" d="M8,1.9l3.3,2.2L8,6.9V1.9 M8,0.9c-0.6,0-1,0.4-1,1V9l5-4.1c0.4-0.4,0.5-1,0.1-1.4C12,3.4,12,3.4,11.9,3.3L8.6,1
	C8.4,0.9,8.2,0.9,8,0.9L8,0.9z"/>
<path class="st0" d="M8,9.1l3.3,2.8L8,14.1V9.1 M7,7v7.1c0,0.6,0.4,1,1,1c0.2,0,0.4,0,0.6-0.1l3.3-2.2c0.5-0.3,0.6-0.9,0.3-1.4
	c-0.1-0.1-0.1-0.2-0.2-0.2L7,7z"/>
<path class="st0" d="M7,8.5c-0.1,0-0.2,0-0.3-0.1l-5-4.5c-0.2-0.2-0.2-0.6,0-0.7C1.9,3,2.1,3,2.3,3.1l5,4.5c0.2,0.2,0.2,0.5,0,0.7
	l0,0C7.2,8.4,7.1,8.5,7,8.5z"/>
<path class="st0" d="M2,13c-0.1,0-0.3-0.1-0.4-0.2c-0.2-0.2-0.2-0.5,0-0.7l0,0l5-4.5c0.2-0.2,0.5-0.2,0.7-0.1C7.5,7.7,7.5,8,7.4,8.2
	L7.3,8.3l-5,4.5C2.2,12.9,2.1,13,2,13z"/>
</svg>
