<?xml version="1.0" encoding="utf-8"?>
<!-- Generator: Adobe Illustrator 24.2.1, SVG Export Plug-In . SVG Version: 6.00 Build 0)  -->
<svg version="1.1" id="图层_1" xmlns="http://www.w3.org/2000/svg" xmlns:xlink="http://www.w3.org/1999/xlink" x="0px" y="0px"
	 viewBox="0 0 24 24" style="enable-background:new 0 0 24 24;" xml:space="preserve">
<style type="text/css">
	.st0{fill:none;stroke:#7E7E7E;stroke-width:2;stroke-linecap:round;stroke-miterlimit:10;}
</style>
<path class="st0" d="M5,5.3l8,6.6l5.6-4.7c0.4-0.3,0.5-1,0.2-1.4c-0.1-0.1-0.1-0.1-0.2-0.2L14,2.2c-0.4-0.3-1-0.2-1.3,0.2
	c-0.1,0.2-0.2,0.4-0.2,0.7v18c0,0.5,0.4,0.9,0.9,1c0.2,0,0.4,0,0.6-0.2l4.6-3.4c0.4-0.3,0.5-1,0.2-1.4c-0.1-0.1-0.1-0.1-0.2-0.2
	L13,12.1l-8,6.6"/>
</svg>
