<?xml version="1.0" encoding="UTF-8"?>
<svg width="16px" height="16px" viewBox="0 0 16 16" version="1.1" xmlns="http://www.w3.org/2000/svg" xmlns:xlink="http://www.w3.org/1999/xlink">
    <title>bluetooth</title>
    <g id="Icon" stroke="none" stroke-width="1" fill="none" fill-rule="evenodd">
        <g id="Icon-Sets" transform="translate(-116.000000, -2458.000000)">
            <g id="编组-9" transform="translate(0.000000, 2401.000000)">
                <g id="-Round-/-Device-/-bluetooth" transform="translate(116.000000, 57.000000)">
                    <polygon id="Path" points="0 0 16 0 16 16 0 16"></polygon>
                    <path d="M7.63797954,1.672634 C7.71984586,1.05111792 8.50995735,0.764707889 8.98045506,1.23101123 L8.98045506,1.23101123 L12.7704107,4.98718032 L12.845121,5.07255435 C13.1141096,5.4286558 13.0262624,5.94787906 12.6318176,6.19309605 L12.6318176,6.19309605 L9.726,8 L12.6318176,9.80690395 C13.0262624,10.0521209 13.1141096,10.5713442 12.845121,10.9274457 L12.7704107,11.0128197 L8.99564423,14.7550759 C8.94040616,14.8129176 8.87627699,14.8624256 8.8054073,14.9014813 C8.79544739,14.9054535 8.78653997,14.9101173 8.77756356,14.9146014 C8.72123106,14.9444184 8.65963911,14.9665763 8.59504678,14.9809342 C8.588368,14.9807802 8.58237727,14.9820342 8.57637521,14.983219 C8.52652031,14.9947343 8.47414975,15 8.4205307,15 L8.48198359,14.9960935 C8.47965173,14.9962719 8.47731922,14.99644 8.47498613,14.996598 L8.4205307,15 L8.31340546,14.9929006 C8.26031783,14.985806 8.20890688,14.973513 8.15971824,14.956559 C8.1549053,14.9533172 8.14921951,14.9512965 8.14355312,14.9492096 C8.11445994,14.9400158 8.08694893,14.9279875 8.06031687,14.9145116 C8.05538374,14.9105166 8.04974444,14.9075888 8.04413419,14.9045891 C8.01640853,14.8912132 7.9902872,14.8751682 7.9652427,14.8577226 C7.96032848,14.8528226 7.95444107,14.8486117 7.94860026,14.8443108 C7.85801704,14.7789693 7.78309787,14.6944366 7.72868714,14.5972045 C7.72504548,14.5892785 7.7209556,14.5816935 7.71700208,14.5740575 C7.70419709,14.5507105 7.69321636,14.5264488 7.68349629,14.5015706 C7.68006736,14.4912541 7.67603787,14.4802737 7.67226715,14.4692263 C7.66431101,14.4474469 7.65800934,14.4257616 7.65266101,14.4037116 C7.64955147,14.3891909 7.64633147,14.3741133 7.6435692,14.3589701 C7.63524247,14.3146893 7.63106923,14.2689792 7.63106923,14.2223089 L7.63521877,14.3006082 C7.63341291,14.283277 7.63219642,14.2658971 7.63156941,14.2485001 L7.63106923,14.2223089 L7.63055712,9.30211651 L4.21089518,11.4281837 L4.10766945,11.4823857 C3.75563525,11.6355546 3.333475,11.5157613 3.12193422,11.1855574 L3.12193422,11.1855574 L3.06691179,11.0838707 C2.91142469,10.7370852 3.03303106,10.321219 3.36823258,10.1128322 L3.36823258,10.1128322 L6.766,7.999 L3.36823258,5.88716779 C3.03303106,5.67878096 2.91142469,5.26291484 3.06691179,4.91612926 L3.12193422,4.81444256 C3.333475,4.48423867 3.75563525,4.36444538 4.10766945,4.51761427 L4.21089518,4.57181635 L7.63,6.697 L7.63106923,1.77925124 Z M9.209,9.518 L9.209,12.334 L10.9557689,10.6039667 L9.209,9.518 Z M9.20948007,3.66541139 L9.20948007,6.48169011 L10.9557689,5.39603333 L9.20948007,3.66541139 Z" id="形状结合" fill="#FFFFFF"></path>
                </g>
            </g>
        </g>
    </g>
</svg>