<?xml version="1.0" encoding="utf-8"?>
<!-- Generator: Adobe Illustrator 24.0.0, SVG Export Plug-In . SVG Version: 6.00 Build 0)  -->
<svg version="1.1" id="图层_3" xmlns="http://www.w3.org/2000/svg" xmlns:xlink="http://www.w3.org/1999/xlink" x="0px" y="0px"
	 viewBox="0 0 16 16" style="enable-background:new 0 0 16 16;" xml:space="preserve">
<style type="text/css">
	.st0{fill:#262626;}
</style>
<path class="st0" d="M12.7,7.4C12.9,7,13,6.5,13,6c0-2.5-2-4.5-4.5-4.5c-2.3,0-4.1,1.7-4.4,3.9C2.3,6.1,1,7.9,1,10c0,2.8,2.2,5,5,5
	c1,0,1.9-0.3,2.7-0.8C9.3,14.7,10.1,15,11,15c2.2,0,4-1.8,4-4C15,9.4,14.1,8.1,12.7,7.4z M10.8,8.6c-0.3,0.2-0.5,0.4-0.9,0.6
	C9.5,9.4,9,9.5,8.5,9.5c0,0-0.1,0-0.1,0c-0.4,0-0.7-0.1-1-0.2c-0.1,0.3-0.3,0.6-0.3,0.9c0.3,0.1,0.6,0.2,1,0.2c0.1,0,0.3,0,0.4,0
	c0.5,0,1-0.1,1.5-0.3c0.4-0.1,0.7-0.3,1-0.5c0.6-0.4,1-0.9,1.4-1.4c1,0.5,1.7,1.5,1.7,2.7c0,1.7-1.3,3-3,3c-0.6,0-1.1-0.2-1.5-0.4
	c-0.3-0.2-0.6-0.4-0.8-0.7c-0.2,0.2-0.5,0.4-0.8,0.6C7.3,13.8,6.7,14,6,14c-2.2,0-4-1.8-4-4c0-1.5,0.8-2.8,2.1-3.5
	c0.3-0.2,0.6-0.3,1-0.4C5.3,6.1,5.7,6,6,6c1.3,0,2.4,0.6,3.1,1.5c0.3-0.2,0.6-0.3,1-0.4C9.2,5.8,7.7,5,6,5C5.7,5,5.4,5,5.1,5.1
	c0.4-1.5,1.8-2.6,3.4-2.6C10.4,2.5,12,4.1,12,6c0,0.4-0.1,0.7-0.2,1.1c-0.1,0.3-0.3,0.7-0.5,1L10.8,8.6z"/>
</svg>
