<svg id="图层_1" data-name="图层 1" xmlns="http://www.w3.org/2000/svg" viewBox="0 0 24 24"><defs><style>.cls-1{fill:#fff;}</style></defs><title>white_24</title><path class="cls-1" d="M21,10.24c0-.25,0-.49,0-.74A8.5,8.5,0,0,0,4.35,7.09,8.49,8.49,0,1,0,13,21.71,6.94,6.94,0,0,0,17,23a7,7,0,0,0,4-12.76ZM17,21a4.9,4.9,0,0,1-2.37-.63,4.85,4.85,0,0,1-1.53-1.28,7.11,7.11,0,0,1-1.63,1.19A6.49,6.49,0,0,1,4,9.81,6.36,6.36,0,0,1,6.09,8.47a6.45,6.45,0,0,1,7.17,1.62,6.38,6.38,0,0,1,1.13,1.67,4.89,4.89,0,0,1,1.88-.69,8.65,8.65,0,0,0-1.1-1.82A8.46,8.46,0,0,0,8.5,6a9,9,0,0,0-1.56.15A6.49,6.49,0,0,1,19,9.29c0,.07,0,.14,0,.21a6.48,6.48,0,0,1-.27,1.83,6.56,6.56,0,0,1-3.82,4.2A6.47,6.47,0,0,1,12.5,16a4.19,4.19,0,0,1-.5,0,6.58,6.58,0,0,1-2-.46c0,.16,0,.32,0,.49a7.16,7.16,0,0,0,.21,1.68,8.55,8.55,0,0,0,2.21.32h.08a9,9,0,0,0,1.56-.15,8.38,8.38,0,0,0,2.59-.94,8.52,8.52,0,0,0,3.82-4.49A5,5,0,0,1,17,21Z"/></svg>