<?xml version="1.0" encoding="utf-8"?>
<!-- Generator: Adobe Illustrator 24.2.1, SVG Export Plug-In . SVG Version: 6.00 Build 0)  -->
<svg version="1.1" id="图层_1" xmlns="http://www.w3.org/2000/svg" xmlns:xlink="http://www.w3.org/1999/xlink" x="0px" y="0px"
	 viewBox="0 0 24 24" style="enable-background:new 0 0 24 24;" xml:space="preserve">
<style type="text/css">
	.st0{fill:#7E7E7E;}
</style>
<path class="st0" d="M21,10.2c0-0.2,0-0.5,0-0.7C21,4.8,17.2,1,12.5,1C8.7,1,5.4,3.5,4.3,7.1c-4,2.4-5.4,7.6-3,11.6s7.6,5.4,11.6,3
	l0,0c1.2,0.8,2.6,1.3,4,1.3c3.9,0,7-3.1,7-7C24,13.7,22.9,11.6,21,10.2z M17,21c-0.8,0-1.6-0.2-2.4-0.6c-0.6-0.3-1.1-0.8-1.5-1.3
	c-0.5,0.5-1,0.9-1.6,1.2c-3.2,1.7-7.1,0.5-8.8-2.7C1.3,15,1.9,11.8,4,9.8c0.6-0.6,1.3-1,2.1-1.3c2.5-1,5.4-0.4,7.2,1.6
	c0.5,0.5,0.8,1.1,1.1,1.7c0.6-0.4,1.2-0.6,1.9-0.7c-0.3-0.6-0.7-1.3-1.1-1.8C13.6,7.2,11.1,6,8.5,6C8,6,7.5,6.1,6.9,6.2
	c1.8-3.1,5.8-4.1,8.9-2.2C17.7,5,18.9,7.1,19,9.3c0,0.1,0,0.1,0,0.2c0,0.6-0.1,1.2-0.3,1.8c-0.6,1.9-2,3.5-3.8,4.2
	c-0.8,0.3-1.6,0.5-2.4,0.5c-0.2,0-0.3,0-0.5,0c-0.7,0-1.4-0.2-2-0.5c0,0.2,0,0.3,0,0.5c0,0.6,0.1,1.1,0.2,1.7
	c0.7,0.2,1.5,0.3,2.2,0.3h0.1c0.5,0,1-0.1,1.6-0.1c0.9-0.2,1.8-0.5,2.6-0.9c1.8-1,3.1-2.6,3.8-4.5c2,1.9,2,5.1,0,7.1
	C19.6,20.5,18.3,21,17,21z"/>
</svg>
