<?xml version="1.0" encoding="utf-8"?>
<!-- Generator: Adobe Illustrator 24.2.1, SVG Export Plug-In . SVG Version: 6.00 Build 0)  -->
<svg version="1.1" id="图层_1" xmlns="http://www.w3.org/2000/svg" xmlns:xlink="http://www.w3.org/1999/xlink" x="0px" y="0px"
	 viewBox="0 0 24 24" style="enable-background:new 0 0 24 24;" xml:space="preserve">
<style type="text/css">
	.st0{fill:#7E7E7E;}
</style>
<path class="st0" d="M20,2H4C2.3,2,1,3.3,1,5v10c0,1.7,1.3,3,3,3h5.8c-0.4-0.6-0.6-1.3-0.7-2H4c-0.6,0-1-0.4-1-1V5c0-0.6,0.4-1,1-1
	h16c0.6,0,1,0.4,1,1v10c0,1.1-0.3,2.1-0.8,3c1.6-0.1,2.8-1.4,2.8-3V5C23,3.3,21.7,2,20,2z"/>
<path class="st0" d="M13,16L13,16c0-0.6,0.4-1,1-1h4c0.5,0,1,0.4,1,1l0,0c0,0.5-0.4,1-1,1h-4C13.4,17,13,16.6,13,16z"/>
<path class="st0" d="M14,17L14,17c-0.6,0-1-0.4-1-1v-4c0-0.5,0.4-1,1-1l0,0c0.5,0,1,0.4,1,1v4C15,16.6,14.6,17,14,17z"/>
<path class="st0" d="M18,8.5L18,8.5c-0.8,0-1.5-0.7-1.5-1.5l0,0c0-0.8,0.7-1.5,1.5-1.5l0,0c0.8,0,1.5,0.7,1.5,1.5l0,0
	C19.5,7.8,18.8,8.5,18,8.5z"/>
<path class="st0" d="M12,8.5L12,8.5c-0.8,0-1.5-0.7-1.5-1.5l0,0c0-0.8,0.7-1.5,1.5-1.5l0,0c0.8,0,1.5,0.7,1.5,1.5l0,0
	C13.5,7.8,12.8,8.5,12,8.5z"/>
<path class="st0" d="M6,13.5L6,13.5c-0.8,0-1.5-0.7-1.5-1.5l0,0c0-0.8,0.7-1.5,1.5-1.5l0,0c0.8,0,1.5,0.7,1.5,1.5l0,0
	C7.5,12.8,6.8,13.5,6,13.5z"/>
<path class="st0" d="M6,8.5L6,8.5C5.2,8.5,4.5,7.8,4.5,7l0,0c0-0.8,0.7-1.5,1.5-1.5l0,0c0.8,0,1.5,0.7,1.5,1.5l0,0
	C7.5,7.8,6.8,8.5,6,8.5z"/>
<g>
	<path class="st0" d="M15,9c3.3,0,6,2.7,6,6s-2.7,6-6,6s-6-2.7-6-6S11.7,9,15,9 M15,7c-4.4,0-8,3.6-8,8s3.6,8,8,8s8-3.6,8-8
		S19.4,7,15,7L15,7z"/>
</g>
</svg>
