<?xml version="1.0" encoding="utf-8"?>
<!-- Generator: Adobe Illustrator 24.0.2, SVG Export Plug-In . SVG Version: 6.00 Build 0)  -->
<!DOCTYPE svg PUBLIC "-//W3C//DTD SVG 1.1//EN" "http://www.w3.org/Graphics/SVG/1.1/DTD/svg11.dtd" [
	<!ENTITY ns_extend "http://ns.adobe.com/Extensibility/1.0/">
	<!ENTITY ns_ai "http://ns.adobe.com/AdobeIllustrator/10.0/">
	<!ENTITY ns_graphs "http://ns.adobe.com/Graphs/1.0/">
	<!ENTITY ns_vars "http://ns.adobe.com/Variables/1.0/">
	<!ENTITY ns_imrep "http://ns.adobe.com/ImageReplacement/1.0/">
	<!ENTITY ns_sfw "http://ns.adobe.com/SaveForWeb/1.0/">
	<!ENTITY ns_custom "http://ns.adobe.com/GenericCustomNamespace/1.0/">
	<!ENTITY ns_adobe_xpath "http://ns.adobe.com/XPath/1.0/">
]>
<svg version="1.1" id="图层_1" xmlns:x="&ns_extend;" xmlns:i="&ns_ai;" xmlns:graph="&ns_graphs;"
	 xmlns="http://www.w3.org/2000/svg" xmlns:xlink="http://www.w3.org/1999/xlink" x="0px" y="0px" viewBox="0 0 24 24"
	 enable-background="new 0 0 24 24" xml:space="preserve">
<metadata>
	<sfw  xmlns="&ns_sfw;">
		<slices></slices>
		<sliceSourceBounds  bottomLeftOrigin="true" height="1298" width="1504" x="-206" y="-620"></sliceSourceBounds>
	</sfw>
</metadata>
<path fill="#404040" d="M20,2H4C2.3,2,1,3.3,1,5v10c0,1.7,1.3,3,3,3h5.8c-0.4-0.6-0.6-1.3-0.7-2H4c-0.6,0-1-0.4-1-1V5
	c0-0.6,0.4-1,1-1h16c0.6,0,1,0.4,1,1v10c0,1.1-0.3,2.1-0.8,3c1.6-0.1,2.8-1.4,2.8-3V5C23,3.3,21.7,2,20,2z"/>
<path fill="#404040" d="M13,16L13,16c0-0.6,0.4-1,1-1h4c0.5,0,1,0.4,1,1v0c0,0.5-0.4,1-1,1h-4C13.4,17,13,16.6,13,16z"/>
<path fill="#404040" d="M14,17L14,17c-0.6,0-1-0.4-1-1v-4c0-0.5,0.4-1,1-1h0c0.5,0,1,0.4,1,1v4C15,16.6,14.6,17,14,17z"/>
<path fill="#404040" d="M18,8.5L18,8.5c-0.8,0-1.5-0.7-1.5-1.5v0c0-0.8,0.7-1.5,1.5-1.5h0c0.8,0,1.5,0.7,1.5,1.5v0
	C19.5,7.8,18.8,8.5,18,8.5z"/>
<path fill="#404040" d="M12,8.5L12,8.5c-0.8,0-1.5-0.7-1.5-1.5v0c0-0.8,0.7-1.5,1.5-1.5h0c0.8,0,1.5,0.7,1.5,1.5v0
	C13.5,7.8,12.8,8.5,12,8.5z"/>
<path fill="#404040" d="M6,13.5L6,13.5c-0.8,0-1.5-0.7-1.5-1.5v0c0-0.8,0.7-1.5,1.5-1.5h0c0.8,0,1.5,0.7,1.5,1.5v0
	C7.5,12.8,6.8,13.5,6,13.5z"/>
<path fill="#404040" d="M6,8.5L6,8.5C5.2,8.5,4.5,7.8,4.5,7v0c0-0.8,0.7-1.5,1.5-1.5h0c0.8,0,1.5,0.7,1.5,1.5v0
	C7.5,7.8,6.8,8.5,6,8.5z"/>
<g>
	<path fill="#404040" d="M15,9c3.3,0,6,2.7,6,6s-2.7,6-6,6s-6-2.7-6-6S11.7,9,15,9 M15,7c-4.4,0-8,3.6-8,8s3.6,8,8,8s8-3.6,8-8
		S19.4,7,15,7L15,7z"/>
</g>
</svg>
