<?xml version="1.0" encoding="UTF-8"?>
<svg width="16px" height="16px" viewBox="0 0 16 16" version="1.1" xmlns="http://www.w3.org/2000/svg" xmlns:xlink="http://www.w3.org/1999/xlink">
    <title>date</title>
    <g id="Icon" stroke="none" stroke-width="1" fill="none" fill-rule="evenodd">
        <g id="Icon-Sets" transform="translate(-692.000000, -2458.000000)">
            <g id="编组-9" transform="translate(0.000000, 2401.000000)">
                <g id="date-selected" transform="translate(692.000000, 57.000000)">
                    <path d="M1.2819426,-5.17920154e-17 L14.7180574,5.17920154e-17 C15.1638168,-3.00926524e-17 15.3254599,0.0464128056 15.4884229,0.133566352 C15.6513858,0.220719898 15.7792801,0.348614185 15.8664336,0.511577148 C15.9535872,0.674540111 16,0.83618323 16,1.2819426 L16,14.7180574 C16,15.1638168 15.9535872,15.3254599 15.8664336,15.4884229 C15.7792801,15.6513858 15.6513858,15.7792801 15.4884229,15.8664336 C15.3254599,15.9535872 15.1638168,16 14.7180574,16 L1.2819426,16 C0.83618323,16 0.674540111,15.9535872 0.511577148,15.8664336 C0.348614185,15.7792801 0.220719898,15.6513858 0.133566352,15.4884229 C0.0464128056,15.3254599 2.00617683e-17,15.1638168 -3.45280103e-17,14.7180574 L3.45280103e-17,1.2819426 C-2.00617683e-17,0.83618323 0.0464128056,0.674540111 0.133566352,0.511577148 C0.220719898,0.348614185 0.348614185,0.220719898 0.511577148,0.133566352 C0.674540111,0.0464128056 0.83618323,3.00926524e-17 1.2819426,-5.17920154e-17 Z" id="矩形" fill="#D8D8D8" opacity="0"></path>
                    <path d="M12.4361148,2 C13.3276335,2 13.6509198,2.09282561 13.9768457,2.2671327 C14.3027716,2.4414398 14.5585602,2.69722837 14.7328673,3.0231543 C14.9071744,3.34908022 15,3.67236646 15,4.5638852 L15,12.4361148 C15,13.3276335 14.9071744,13.6509198 14.7328673,13.9768457 C14.5585602,14.3027716 14.3027716,14.5585602 13.9768457,14.7328673 C13.6509198,14.9071744 13.3276335,15 12.4361148,15 L3.5638852,15 C2.67236646,15 2.34908022,14.9071744 2.0231543,14.7328673 C1.69722837,14.5585602 1.4414398,14.3027716 1.2671327,13.9768457 C1.09282561,13.6509198 1,13.3276335 1,12.4361148 L1,4.5638852 C1,3.67236646 1.09282561,3.34908022 1.2671327,3.0231543 C1.4414398,2.69722837 1.69722837,2.4414398 2.0231543,2.2671327 C2.34908022,2.09282561 2.67236646,2 3.5638852,2 L12.4361148,2 Z M11.7180574,6 L4.2819426,6 C3.83618323,6 3.67454011,6.04641281 3.51157715,6.13356635 C3.34861419,6.2207199 3.2207199,6.34861419 3.13356635,6.51157715 C3.04641281,6.67454011 3,6.83618323 3,7.2819426 L3,7.2819426 L3,11.7180574 C3,12.1638168 3.04641281,12.3254599 3.13356635,12.4884229 C3.2207199,12.6513858 3.34861419,12.7792801 3.51157715,12.8664336 C3.67454011,12.9535872 3.83618323,13 4.2819426,13 L4.2819426,13 L11.7180574,13 C12.1638168,13 12.3254599,12.9535872 12.4884229,12.8664336 C12.6513858,12.7792801 12.7792801,12.6513858 12.8664336,12.4884229 C12.9535872,12.3254599 13,12.1638168 13,11.7180574 L13,11.7180574 L13,7.2819426 C13,6.83618323 12.9535872,6.67454011 12.8664336,6.51157715 C12.7792801,6.34861419 12.6513858,6.2207199 12.4884229,6.13356635 C12.3254599,6.04641281 12.1638168,6 11.7180574,6 L11.7180574,6 Z" id="形状结合" fill="#FFFFFF" fill-rule="nonzero"></path>
                    <rect id="矩形" fill="#FFFFFF" x="4" y="7" width="2" height="2" rx="0.5"></rect>
                    <rect id="矩形备份-6" fill="#FFFFFF" x="4" y="10" width="2" height="2" rx="0.5"></rect>
                    <rect id="矩形备份-4" fill="#FFFFFF" x="7" y="7" width="2" height="2" rx="0.5"></rect>
                    <rect id="矩形备份-7" fill="#FFFFFF" x="7" y="10" width="2" height="2" rx="0.5"></rect>
                    <rect id="矩形备份-5" fill="#FFFFFF" x="10" y="7" width="2" height="2" rx="0.5"></rect>
                    <path d="M3.6409713,1 L4.3590287,1 C4.58190838,1 4.66272994,1.0232064 4.74421143,1.06678318 C4.82569291,1.11035995 4.88964005,1.17430709 4.93321682,1.25578857 C4.9767936,1.33727006 5,1.41809162 5,1.6409713 L5,3.3590287 C5,3.58190838 4.9767936,3.66272994 4.93321682,3.74421143 C4.88964005,3.82569291 4.82569291,3.88964005 4.74421143,3.93321682 C4.66272994,3.9767936 4.58190838,4 4.3590287,4 L3.6409713,4 C3.41809162,4 3.33727006,3.9767936 3.25578857,3.93321682 C3.17430709,3.88964005 3.11035995,3.82569291 3.06678318,3.74421143 C3.0232064,3.66272994 3,3.58190838 3,3.3590287 L3,1.6409713 C3,1.41809162 3.0232064,1.33727006 3.06678318,1.25578857 C3.11035995,1.17430709 3.17430709,1.11035995 3.25578857,1.06678318 C3.33727006,1.0232064 3.41809162,1 3.6409713,1 Z" id="矩形备份" fill="#FFFFFF" fill-rule="nonzero"></path>
                    <path d="M11.6409713,1 L12.3590287,1 C12.5819084,1 12.6627299,1.0232064 12.7442114,1.06678318 C12.8256929,1.11035995 12.8896401,1.17430709 12.9332168,1.25578857 C12.9767936,1.33727006 13,1.41809162 13,1.6409713 L13,3.3590287 C13,3.58190838 12.9767936,3.66272994 12.9332168,3.74421143 C12.8896401,3.82569291 12.8256929,3.88964005 12.7442114,3.93321682 C12.6627299,3.9767936 12.5819084,4 12.3590287,4 L11.6409713,4 C11.4180916,4 11.3372701,3.9767936 11.2557886,3.93321682 C11.1743071,3.88964005 11.1103599,3.82569291 11.0667832,3.74421143 C11.0232064,3.66272994 11,3.58190838 11,3.3590287 L11,1.6409713 C11,1.41809162 11.0232064,1.33727006 11.0667832,1.25578857 C11.1103599,1.17430709 11.1743071,1.11035995 11.2557886,1.06678318 C11.3372701,1.0232064 11.4180916,1 11.6409713,1 Z" id="矩形备份-3" fill="#FFFFFF" fill-rule="nonzero"></path>
                </g>
            </g>
        </g>
    </g>
</svg>