<?xml version="1.0" encoding="utf-8"?>
<!-- Generator: Adobe Illustrator 24.0.0, SVG Export Plug-In . SVG Version: 6.00 Build 0)  -->
<svg version="1.1" id="图层_2" xmlns="http://www.w3.org/2000/svg" xmlns:xlink="http://www.w3.org/1999/xlink" x="0px" y="0px"
	 viewBox="0 0 16 16" style="enable-background:new 0 0 16 16;" xml:space="preserve">
<style type="text/css">
	.st0{fill:#262626;}
</style>
<g>
	<polygon class="st0" points="8,10 6,10 6,11 8,11 9,11 9,10 9,7 8,7 	"/>
	<path class="st0" d="M12.7,2H12V1h-1v1H5V1H4v1H3.3C2,2,1,3,1,4.3v6.3c0,1.2,0.9,2.1,2,2.3v-1c-0.6-0.2-1-0.7-1-1.3V4.3
		C2,3.6,2.6,3,3.3,3H4v1h1V3h6v1h1V3h0.7C13.4,3,14,3.6,14,4.3v6.3c0,0.6-0.4,1.1-1,1.3v1c1.1-0.2,2-1.1,2-2.3V4.3C15,3,14,2,12.7,2
		z"/>
</g>
<g>
	<path class="st0" d="M8,6c2.2,0,4,1.8,4,4s-1.8,4-4,4s-4-1.8-4-4S5.8,6,8,6 M8,5c-2.8,0-5,2.2-5,5s2.2,5,5,5s5-2.2,5-5S10.8,5,8,5
		L8,5z"/>
</g>
</svg>
