<?xml version="1.0" encoding="UTF-8"?>
<svg viewBox="0 0 16 16" version="1.1" xmlns="http://www.w3.org/2000/svg" xmlns:xlink="http://www.w3.org/1999/xlink">
    <title>date</title>
    <g id="Icon" stroke="none" stroke-width="1" fill="none" fill-rule="evenodd" fill-opacity="0.75">
        <g id="Icon-Sets" transform="translate(-692.000000, -2489.000000)" fill="#262626">
            <g id="编组-9" transform="translate(0.000000, 2399.000000)">
                <g id="date-selected" transform="translate(692.000000, 90.000000)">
                    <path d="M1.2819426,-5.17920154e-17 L14.7180574,5.17920154e-17 C15.1638168,-3.00926524e-17 15.3254599,0.0464128056 15.4884229,0.133566352 C15.6513858,0.220719898 15.7792801,0.348614185 15.8664336,0.511577148 C15.9535872,0.674540111 16,0.83618323 16,1.2819426 L16,14.7180574 C16,15.1638168 15.9535872,15.3254599 15.8664336,15.4884229 C15.7792801,15.6513858 15.6513858,15.7792801 15.4884229,15.8664336 C15.3254599,15.9535872 15.1638168,16 14.7180574,16 L1.2819426,16 C0.83618323,16 0.674540111,15.9535872 0.511577148,15.8664336 C0.348614185,15.7792801 0.220719898,15.6513858 0.133566352,15.4884229 C0.0464128056,15.3254599 2.00617683e-17,15.1638168 -3.45280103e-17,14.7180574 L3.45280103e-17,1.2819426 C-2.00617683e-17,0.83618323 0.0464128056,0.674540111 0.133566352,0.511577148 C0.220719898,0.348614185 0.348614185,0.220719898 0.511577148,0.133566352 C0.674540111,0.0464128056 0.83618323,3.00926524e-17 1.2819426,-5.17920154e-17 Z" id="矩形" opacity="0"></path>
                    <path d="M4.3590287,1 C4.58190838,1 4.66272994,1.0232064 4.74421143,1.06678318 C4.82569291,1.11035995 4.88964005,1.17430709 4.93321682,1.25578857 C4.9767936,1.33727006 5,1.41809162 5,1.6409713 L5,1.999 L11,2 L11,1.6409713 C11,1.41809162 11.0232064,1.33727006 11.0667832,1.25578857 C11.1103599,1.17430709 11.1743071,1.11035995 11.2557886,1.06678318 C11.3372701,1.0232064 11.4180916,1 11.6409713,1 L12.3590287,1 C12.5819084,1 12.6627299,1.0232064 12.7442114,1.06678318 C12.8256929,1.11035995 12.8896401,1.17430709 12.9332168,1.25578857 C12.9767936,1.33727006 13,1.41809162 13,1.6409713 L13.001747,2.01684777 C13.4876372,2.0508755 13.7314935,2.13591691 13.9768457,2.2671327 C14.3027716,2.4414398 14.5585602,2.69722837 14.7328673,3.0231543 C14.9071744,3.34908022 15,3.67236646 15,4.5638852 L15,12.4361148 C15,13.3276335 14.9071744,13.6509198 14.7328673,13.9768457 C14.5585602,14.3027716 14.3027716,14.5585602 13.9768457,14.7328673 C13.6509198,14.9071744 13.3276335,15 12.4361148,15 L3.5638852,15 C2.67236646,15 2.34908022,14.9071744 2.0231543,14.7328673 C1.69722837,14.5585602 1.4414398,14.3027716 1.2671327,13.9768457 C1.09282561,13.6509198 1,13.3276335 1,12.4361148 L1,4.5638852 C1,3.67236646 1.09282561,3.34908022 1.2671327,3.0231543 C1.4414398,2.69722837 1.69722837,2.4414398 2.0231543,2.2671327 C2.2686794,2.13582444 2.51270652,2.05075566 2.99928062,2.01677591 L3,1.6409713 C3,1.41809162 3.0232064,1.33727006 3.06678318,1.25578857 C3.11035995,1.17430709 3.17430709,1.11035995 3.25578857,1.06678318 C3.33727006,1.0232064 3.41809162,1 3.6409713,1 L4.3590287,1 Z M11.7180574,6 L4.2819426,6 C3.83618323,6 3.67454011,6.04641281 3.51157715,6.13356635 C3.34861419,6.2207199 3.2207199,6.34861419 3.13356635,6.51157715 C3.057307,6.65416974 3.01223978,6.79575183 3.00216452,7.12754329 L3,7.2819426 L3,11.7180574 C3,12.1638168 3.04641281,12.3254599 3.13356635,12.4884229 C3.2207199,12.6513858 3.34861419,12.7792801 3.51157715,12.8664336 C3.65416974,12.942693 3.79575183,12.9877602 4.12754329,12.9978355 L4.2819426,13 L11.7180574,13 C12.1638168,13 12.3254599,12.9535872 12.4884229,12.8664336 C12.6513858,12.7792801 12.7792801,12.6513858 12.8664336,12.4884229 C12.942693,12.3458303 12.9877602,12.2042482 12.9978355,11.8724567 L13,11.7180574 L13,7.2819426 C13,6.83618323 12.9535872,6.67454011 12.8664336,6.51157715 C12.7792801,6.34861419 12.6513858,6.2207199 12.4884229,6.13356635 C12.3254599,6.04641281 12.1638168,6 11.7180574,6 Z" id="形状结合"></path>
                    <rect id="矩形" x="4" y="7" width="2" height="2" rx="0.5"></rect>
                    <rect id="矩形备份-6" x="4" y="10" width="2" height="2" rx="0.5"></rect>
                    <rect id="矩形备份-4" x="7" y="7" width="2" height="2" rx="0.5"></rect>
                    <rect id="矩形备份-7" x="7" y="10" width="2" height="2" rx="0.5"></rect>
                    <rect id="矩形备份-5" x="10" y="7" width="2" height="2" rx="0.5"></rect>
                </g>
            </g>
        </g>
    </g>
</svg>