<svg id="图层_1" data-name="图层 1" xmlns="http://www.w3.org/2000/svg" viewBox="0 0 24 24"><defs><style>.cls-1{fill:#404040;}</style></defs><title>datetime</title><path class="cls-1" d="M20,2H4A3,3,0,0,0,1,5V15a3,3,0,0,0,3,3H9.81a6,6,0,0,1-.72-2H4a1,1,0,0,1-1-1V5A1,1,0,0,1,4,4H20a1,1,0,0,1,1,1V15a5.93,5.93,0,0,1-.8,3A3,3,0,0,0,23,15V5A3,3,0,0,0,20,2Z"/><rect class="cls-1" x="15" y="13" width="2" height="6" rx="1" transform="translate(32 0) rotate(90)"/><rect class="cls-1" x="13" y="11" width="2" height="6" rx="1"/><rect class="cls-1" x="16.5" y="5.5" width="3" height="3" rx="1.5"/><rect class="cls-1" x="10.5" y="5.5" width="3" height="3" rx="1.5"/><rect class="cls-1" x="4.5" y="10.5" width="3" height="3" rx="1.5"/><rect class="cls-1" x="4.5" y="5.5" width="3" height="3" rx="1.5"/><path class="cls-1" d="M15,9a6,6,0,1,1-6,6,6,6,0,0,1,6-6m0-2a8,8,0,1,0,8,8,8,8,0,0,0-8-8Z"/></svg>