<svg id="图层_1" data-name="图层 1" xmlns="http://www.w3.org/2000/svg" viewBox="0 0 24 24"><defs><style>.cls-1{fill:#fff;}.cls-2{fill:none;}</style></defs><title>datetimeWhite</title><path class="cls-1" d="M20.2,19a5.84,5.84,0,0,0,.57-1.36c0-.05,0-.09,0-.14a5,5,0,0,0,.11-.56v0a1,1,0,0,1,0-.17A5.84,5.84,0,0,0,21,16,6,6,0,0,0,9,16a6.64,6.64,0,0,0,.09,1,5.77,5.77,0,0,0,.27,1v0a6.31,6.31,0,0,0,.44.95h0a6.9,6.9,0,0,0,.42.63l0,0a6,6,0,0,0,1.06,1.07l.06,0a4.6,4.6,0,0,0,.53.37l.11.06a6.06,6.06,0,0,0,1.33.57l.18,0,.54.11.2,0a5.5,5.5,0,0,0,1.48,0l.2,0,.55-.11.18,0A6.27,6.27,0,0,0,18,21.19l.11-.07a6.18,6.18,0,0,0,.53-.36l.07-.05a6.26,6.26,0,0,0,1.05-1.07l0,0A5.11,5.11,0,0,0,20.2,19ZM18,18H14a1,1,0,0,1-1-1V13a1,1,0,0,1,2,0v3h3a1,1,0,0,1,0,2Z"/><circle class="cls-2" cx="6" cy="8" r="1.5"/><path class="cls-1" d="M20,3H4A3,3,0,0,0,1,6V16a3,3,0,0,0,3,3H7.59a7.85,7.85,0,0,1-.52-2A8.26,8.26,0,0,1,7,16a8,8,0,0,1,4-6.91A1.5,1.5,0,1,1,13.5,8c0,.05,0,.1,0,.15A7.51,7.51,0,0,1,15,8a8.51,8.51,0,0,1,1.52.15.77.77,0,0,1,0-.15A1.5,1.5,0,1,1,19,9.09a8.4,8.4,0,0,1,2,1.63A8,8,0,0,1,23,16V6A3,3,0,0,0,20,3ZM6,14.5A1.5,1.5,0,1,1,7.5,13,1.5,1.5,0,0,1,6,14.5Zm0-5A1.5,1.5,0,1,1,7.5,8,1.5,1.5,0,0,1,6,9.5Z"/></svg>