<?xml version="1.0" encoding="utf-8"?>
<!-- Generator: Adobe Illustrator 24.0.2, SVG Export Plug-In . SVG Version: 6.00 Build 0)  -->
<!DOCTYPE svg PUBLIC "-//W3C//DTD SVG 1.1//EN" "http://www.w3.org/Graphics/SVG/1.1/DTD/svg11.dtd" [
	<!ENTITY ns_extend "http://ns.adobe.com/Extensibility/1.0/">
	<!ENTITY ns_ai "http://ns.adobe.com/AdobeIllustrator/10.0/">
	<!ENTITY ns_graphs "http://ns.adobe.com/Graphs/1.0/">
	<!ENTITY ns_vars "http://ns.adobe.com/Variables/1.0/">
	<!ENTITY ns_imrep "http://ns.adobe.com/ImageReplacement/1.0/">
	<!ENTITY ns_sfw "http://ns.adobe.com/SaveForWeb/1.0/">
	<!ENTITY ns_custom "http://ns.adobe.com/GenericCustomNamespace/1.0/">
	<!ENTITY ns_adobe_xpath "http://ns.adobe.com/XPath/1.0/">
]>
<svg version="1.1" id="图层_1" xmlns:x="&ns_extend;" xmlns:i="&ns_ai;" xmlns:graph="&ns_graphs;"
	 xmlns="http://www.w3.org/2000/svg" xmlns:xlink="http://www.w3.org/1999/xlink" x="0px" y="0px" viewBox="0 0 24 24"
	 enable-background="new 0 0 24 24" xml:space="preserve">
<metadata>
	<sfw  xmlns="&ns_sfw;">
		<slices></slices>
		<sliceSourceBounds  bottomLeftOrigin="true" height="1298" width="1504" x="-206" y="-620"></sliceSourceBounds>
	</sfw>
</metadata>
<path fill="#FFFFFF" d="M20.2,19c0.2-0.4,0.4-0.9,0.6-1.4c0,0,0-0.1,0-0.1c0-0.2,0.1-0.4,0.1-0.6c0,0,0,0,0,0c0-0.1,0-0.1,0-0.2
	c0-0.2,0-0.5,0-0.7c0-3.3-2.7-6-6-6s-6,2.7-6,6c0,0.3,0,0.7,0.1,1c0.1,0.4,0.2,0.7,0.3,1c0,0,0,0,0,0c0.1,0.3,0.3,0.6,0.4,0.9
	c0,0,0,0,0,0c0.1,0.2,0.3,0.4,0.4,0.6c0,0,0,0,0,0c0.3,0.4,0.7,0.8,1.1,1.1c0,0,0,0,0.1,0c0.2,0.1,0.4,0.3,0.5,0.4
	c0,0,0.1,0,0.1,0.1c0.4,0.2,0.9,0.4,1.3,0.6c0.1,0,0.1,0,0.2,0c0.2,0,0.4,0.1,0.5,0.1c0.1,0,0.1,0,0.2,0c0.2,0,0.5,0.1,0.7,0.1
	c0.3,0,0.5,0,0.7-0.1c0.1,0,0.1,0,0.2,0c0.2,0,0.4-0.1,0.5-0.1c0.1,0,0.1,0,0.2,0c0.5-0.1,0.9-0.3,1.3-0.6c0,0,0.1,0,0.1-0.1
	c0.2-0.1,0.4-0.2,0.5-0.4c0,0,0,0,0.1,0c0.4-0.3,0.7-0.7,1.1-1.1c0,0,0,0,0,0C19.9,19.4,20.1,19.2,20.2,19z M18,18h-4
	c-0.5,0-1-0.5-1-1v-4c0-0.5,0.5-1,1-1s1,0.5,1,1v3h3c0.5,0,1,0.5,1,1S18.5,18,18,18z"/>
<g>
	<circle fill="none" cx="6" cy="8" r="1.5"/>
	<path fill="#FFFFFF" d="M20,3H4C2.3,3,1,4.3,1,6v10c0,1.7,1.3,3,3,3h3.6c-0.3-0.6-0.4-1.3-0.5-2C7,16.7,7,16.3,7,16
		c0-3,1.6-5.5,4-6.9c-0.3-0.3-0.5-0.7-0.5-1.1c0-0.8,0.7-1.5,1.5-1.5s1.5,0.7,1.5,1.5c0,0.1,0,0.1,0,0.1C14,8.1,14.5,8,15,8
		c0.5,0,1,0.1,1.5,0.2c0-0.1,0-0.1,0-0.2c0-0.8,0.7-1.5,1.5-1.5s1.5,0.7,1.5,1.5c0,0.4-0.2,0.8-0.5,1.1c0.7,0.4,1.4,1,2,1.6
		c1.2,1.4,2,3.3,2,5.3V6C23,4.3,21.7,3,20,3z M6,14.5c-0.8,0-1.5-0.7-1.5-1.5s0.7-1.5,1.5-1.5s1.5,0.7,1.5,1.5S6.8,14.5,6,14.5z
		 M6,9.5C5.2,9.5,4.5,8.8,4.5,8S5.2,6.5,6,6.5S7.5,7.2,7.5,8S6.8,9.5,6,9.5z"/>
</g>
</svg>
