<?xml version="1.0" encoding="utf-8"?>
<!-- Generator: Adobe Illustrator 24.0.0, SVG Export Plug-In . SVG Version: 6.00 Build 0)  -->
<svg version="1.1" id="图层_2" xmlns="http://www.w3.org/2000/svg" xmlns:xlink="http://www.w3.org/1999/xlink" x="0px" y="0px"
	 viewBox="0 0 16 16" style="enable-background:new 0 0 16 16;" xml:space="preserve">
<style type="text/css">
	.st0{display:none;}
	.st1{display:inline;}
	.st2{fill:#262626;}
	.st3{display:none;fill:none;stroke:#262626;stroke-miterlimit:10;}
</style>
<g class="st0">
	<g class="st1">
		<path class="st2" d="M6.2,9C6.2,9,6.2,9,6.2,9l3.8,2.4c0,0,0.1,0,0.1,0.1s0,0.1-0.1,0.1L6.2,14c0,0-0.1,0-0.1,0
			C6.1,14,6,14,6,13.9V9.1C6,9,6.1,9,6.2,9 M6.2,8C5.6,8,5,8.5,5,9.1v4.8C5,14.5,5.6,15,6.2,15c0.2,0,0.4-0.1,0.6-0.2l3.7-2.4
			c0.7-0.4,0.7-1.4,0-1.8L6.8,8.2C6.6,8.1,6.4,8,6.2,8L6.2,8z"/>
	</g>
</g>
<path class="st3" d="M4,11.5H3.5c-1.1,0-2-0.9-2-2v-5c0-1.1,0.9-2,2-2h9c1.1,0,2,0.9,2,2v5c0,1.1-0.9,2-2,2H12"/>
<g>
	<g>
		<path class="st2" d="M6,3v4H2V3H6 M6,2H2C1.4,2,1,2.4,1,3v4c0,0.6,0.4,1,1,1h4c0.6,0,1-0.4,1-1V3C7,2.4,6.6,2,6,2L6,2z"/>
	</g>
	<g>
		<path class="st2" d="M6,10v4H2v-4H6 M6,9H2c-0.6,0-1,0.4-1,1v4c0,0.6,0.4,1,1,1h4c0.6,0,1-0.4,1-1v-4C7,9.4,6.6,9,6,9L6,9z"/>
	</g>
	<g>
		<path class="st2" d="M13,10v4H9v-4H13 M13,9H9c-0.6,0-1,0.4-1,1v4c0,0.6,0.4,1,1,1h4c0.6,0,1-0.4,1-1v-4C14,9.4,13.6,9,13,9L13,9z
			"/>
	</g>
	<g>
		<path class="st2" d="M11,3c1.1,0,2,0.9,2,2s-0.9,2-2,2S9,6.1,9,5S9.9,3,11,3 M11,2C9.3,2,8,3.3,8,5s1.3,3,3,3s3-1.3,3-3
			S12.7,2,11,2L11,2z"/>
	</g>
</g>
</svg>
