<?xml version="1.0" encoding="utf-8"?>
<!-- Generator: Adobe Illustrator 24.2.1, SVG Export Plug-In . SVG Version: 6.00 Build 0)  -->
<svg version="1.1" id="图层_1" xmlns="http://www.w3.org/2000/svg" xmlns:xlink="http://www.w3.org/1999/xlink" x="0px" y="0px"
	 viewBox="0 0 24 24" style="enable-background:new 0 0 24 24;" xml:space="preserve">
<style type="text/css">
	.st0{fill:#7E7E7E;}
</style>
<g>
	<path class="st0" d="M8.3,11H3.7C2.2,11,1,9.8,1,8.2V3.8C1,2.2,2.2,1,3.7,1h4.5C9.8,1,11,2.2,11,3.8v4.4C11,9.8,9.8,11,8.3,11z
		 M3.7,2.9c-0.5,0-0.9,0.4-0.9,0.9v4.4c0,0.5,0.4,0.9,0.9,0.9h4.5c0.5,0,0.9-0.4,0.9-0.9V3.8c0-0.5-0.4-0.9-0.9-0.9H3.7z"/>
</g>
<g>
	<path class="st0" d="M20.3,11h-4.5C14.2,11,13,9.8,13,8.2V3.8C13,2.2,14.2,1,15.7,1h4.5C21.8,1,23,2.2,23,3.8v4.4
		C23,9.8,21.8,11,20.3,11z M15.7,2.9c-0.5,0-0.9,0.4-0.9,0.9v4.4c0,0.5,0.4,0.9,0.9,0.9h4.5c0.5,0,0.9-0.4,0.9-0.9V3.8
		c0-0.5-0.4-0.9-0.9-0.9H15.7z"/>
</g>
<g>
	<path class="st0" d="M8.3,23H3.7C2.2,23,1,21.8,1,20.2v-4.4C1,14.2,2.2,13,3.7,13h4.5c1.5,0,2.7,1.2,2.7,2.8v4.4
		C11,21.8,9.8,23,8.3,23z M3.7,14.9c-0.5,0-0.9,0.4-0.9,0.9v4.4c0,0.5,0.4,0.9,0.9,0.9h4.5c0.5,0,0.9-0.4,0.9-0.9v-4.4
		c0-0.5-0.4-0.9-0.9-0.9H3.7z"/>
</g>
<g>
	<path class="st0" d="M20.3,23h-4.5c-1.5,0-2.7-1.2-2.7-2.8v-4.4c0-1.5,1.2-2.8,2.7-2.8h4.5c1.5,0,2.7,1.2,2.7,2.8v4.4
		C23,21.8,21.8,23,20.3,23z M15.7,14.9c-0.5,0-0.9,0.4-0.9,0.9v4.4c0,0.5,0.4,0.9,0.9,0.9h4.5c0.5,0,0.9-0.4,0.9-0.9v-4.4
		c0-0.5-0.4-0.9-0.9-0.9H15.7z"/>
</g>
</svg>
