<svg id="图层_1" data-name="图层 1" xmlns="http://www.w3.org/2000/svg" viewBox="0 0 24 24"><defs><style>.cls-1{fill:#404040;}</style></defs><title>defaultapp</title><path class="cls-1" d="M8.27,11H3.73A2.76,2.76,0,0,1,1,8.22V3.78A2.76,2.76,0,0,1,3.73,1H8.27A2.76,2.76,0,0,1,11,3.78V8.22A2.76,2.76,0,0,1,8.27,11ZM3.73,2.85a.92.92,0,0,0-.91.93V8.22a.92.92,0,0,0,.91.93H8.27a.92.92,0,0,0,.91-.93V3.78a.92.92,0,0,0-.91-.93Z"/><path class="cls-1" d="M20.27,11H15.73A2.76,2.76,0,0,1,13,8.22V3.78A2.76,2.76,0,0,1,15.73,1h4.54A2.76,2.76,0,0,1,23,3.78V8.22A2.76,2.76,0,0,1,20.27,11ZM15.73,2.85a.92.92,0,0,0-.91.93V8.22a.92.92,0,0,0,.91.93h4.54a.92.92,0,0,0,.91-.93V3.78a.92.92,0,0,0-.91-.93Z"/><path class="cls-1" d="M8.27,23H3.73A2.76,2.76,0,0,1,1,20.22V15.78A2.76,2.76,0,0,1,3.73,13H8.27A2.76,2.76,0,0,1,11,15.78v4.44A2.76,2.76,0,0,1,8.27,23ZM3.73,14.85a.92.92,0,0,0-.91.93v4.44a.92.92,0,0,0,.91.93H8.27a.92.92,0,0,0,.91-.93V15.78a.92.92,0,0,0-.91-.93Z"/><path class="cls-1" d="M20.27,23H15.73A2.76,2.76,0,0,1,13,20.22V15.78A2.76,2.76,0,0,1,15.73,13h4.54A2.76,2.76,0,0,1,23,15.78v4.44A2.76,2.76,0,0,1,20.27,23Zm-4.54-8.15a.92.92,0,0,0-.91.93v4.44a.92.92,0,0,0,.91.93h4.54a.92.92,0,0,0,.91-.93V15.78a.92.92,0,0,0-.91-.93Z"/></svg>