<svg id="图层_1" data-name="图层 1" xmlns="http://www.w3.org/2000/svg" viewBox="0 0 24 24"><defs><style>.cls-1{fill:none;stroke:#404040;stroke-miterlimit:10;stroke-width:2px;}.cls-2{fill:#404040;}</style></defs><title>desktop</title><path class="cls-1" d="M20.18,3H3.82A2,2,0,0,0,2,5.05V19a2.22,2.22,0,0,0,.38,1.24A1.76,1.76,0,0,0,3.82,21H20.18a1.67,1.67,0,0,0,1.07-.4,2.09,2.09,0,0,0,.65-1A2.19,2.19,0,0,0,22,19V5.05A2,2,0,0,0,20.18,3Z"/><rect class="cls-2" x="5" y="6" width="4" height="4" rx="1"/><rect class="cls-2" x="5" y="13" width="4" height="4" rx="1"/><rect class="cls-2" x="12" y="6" width="4" height="4" rx="1"/></svg>