<svg id="图层_1" data-name="图层 1" xmlns="http://www.w3.org/2000/svg" viewBox="0 0 24 24"><defs><style>.cls-1{fill:#fff;}</style></defs><title>desktopWhite</title><path class="cls-1" d="M20.18,2H3.82A2.94,2.94,0,0,0,1,5.05V19a3.15,3.15,0,0,0,.56,1.81A2.72,2.72,0,0,0,3.82,22H20.18a2.68,2.68,0,0,0,1.7-.62,3,3,0,0,0,1-1.52A3,3,0,0,0,23,19V5.05A2.94,2.94,0,0,0,20.18,2ZM9,16a1,1,0,0,1-1,1H6a1,1,0,0,1-1-1V14a1,1,0,0,1,1-1H8a1,1,0,0,1,1,1ZM9,9a1,1,0,0,1-1,1H6A1,1,0,0,1,5,9V7A1,1,0,0,1,6,6H8A1,1,0,0,1,9,7Zm7,0a1,1,0,0,1-1,1H13a1,1,0,0,1-1-1V7a1,1,0,0,1,1-1h2a1,1,0,0,1,1,1Z"/></svg>