<?xml version="1.0" encoding="utf-8"?>
<!-- Generator: Adobe Illustrator 24.2.1, SVG Export Plug-In . SVG Version: 6.00 Build 0)  -->
<svg version="1.1" id="图层_1" xmlns="http://www.w3.org/2000/svg" xmlns:xlink="http://www.w3.org/1999/xlink" x="0px" y="0px"
	 viewBox="0 0 24 24" style="enable-background:new 0 0 24 24;" xml:space="preserve">
<style type="text/css">
	.st0{fill:none;stroke:#7E7E7E;stroke-width:2;stroke-miterlimit:10;}
	.st1{fill:#7E7E7E;}
</style>
<path class="st0" d="M20.2,3H3.8C2.8,3,2,3.9,2,5v13.4V19c0,0.5,0.1,0.9,0.4,1.2C2.7,20.7,3.2,21,3.8,21H9h1h0.9h0.5h8.8
	c0.4,0,0.8-0.2,1.1-0.4c0.3-0.3,0.5-0.6,0.7-1c0-0.2,0-0.4,0-0.6V5C22,3.9,21.2,3,20.2,3z"/>
<path class="st1" d="M8,10H6c-0.6,0-1-0.4-1-1V7c0-0.6,0.4-1,1-1h2c0.6,0,1,0.4,1,1v2C9,9.6,8.6,10,8,10z"/>
<path class="st1" d="M8,17H6c-0.6,0-1-0.4-1-1v-2c0-0.6,0.4-1,1-1h2c0.6,0,1,0.4,1,1v2C9,16.6,8.6,17,8,17z"/>
<path class="st1" d="M15,10h-2c-0.6,0-1-0.4-1-1V7c0-0.6,0.4-1,1-1h2c0.6,0,1,0.4,1,1v2C16,9.6,15.6,10,15,10z"/>
</svg>
