<?xml version="1.0" encoding="UTF-8"?>
<svg viewBox="0 0 16 16" version="1.1" xmlns="http://www.w3.org/2000/svg" xmlns:xlink="http://www.w3.org/1999/xlink">
    <title>display</title>
    <g id="Icon" stroke="none" stroke-width="1" fill="none" fill-rule="evenodd">
        <g id="Icon-Sets" transform="translate(-836.000000, -2489.000000)">
            <g id="编组-9" transform="translate(0.000000, 2399.000000)">
                <g id="display-selected" transform="translate(836.000000, 90.000000)">
                    <rect id="矩形" fill="#000000" fill-rule="nonzero" opacity="0" x="0" y="0" width="16" height="16"></rect>
                    <path d="M12.4361148,2 C13.3276335,2 13.6509198,2.09282561 13.9768457,2.2671327 C14.3027716,2.4414398 14.5585602,2.69722837 14.7328673,3.0231543 C14.9071744,3.34908022 15,3.67236646 15,4.5638852 L15,11.4361148 C15,12.3276335 14.9071744,12.6509198 14.7328673,12.9768457 C14.5585602,13.3027716 14.3027716,13.5585602 13.9768457,13.7328673 C13.6509198,13.9071744 13.3276335,14 12.4361148,14 L3.5638852,14 C2.67236646,14 2.34908022,13.9071744 2.0231543,13.7328673 C1.69722837,13.5585602 1.4414398,13.3027716 1.2671327,12.9768457 C1.09282561,12.6509198 1,12.3276335 1,11.4361148 L1,4.5638852 C1,3.67236646 1.09282561,3.34908022 1.2671327,3.0231543 C1.4414398,2.69722837 1.69722837,2.4414398 2.0231543,2.2671327 C2.34908022,2.09282561 2.67236646,2 3.5638852,2 L12.4361148,2 Z M7.67867799,3.1342667 L6.48060592,4.32774845 L4.78677989,4.32774845 C4.5343126,4.32774845 4.32774845,4.5343126 4.32774845,4.78677989 L4.32774845,6.48060592 L3.1342667,7.67408768 C2.95524443,7.85310994 2.95524443,8.14229975 3.1342667,8.32132201 L4.32774845,9.51480376 L4.32774845,11.2132201 C4.32774845,11.4656874 4.5343126,11.6722515 4.78677989,11.6722515 L6.48060592,11.6722515 L7.67408768,12.8657333 C7.85310994,13.0447556 8.14229975,13.0447556 8.32132201,12.8657333 L9.51480376,11.6722515 L11.2132201,11.6722515 C11.4656874,11.6722515 11.6722515,11.4656874 11.6722515,11.2132201 L11.6722515,9.51939408 L12.8657333,8.32591232 C13.0447556,8.14689006 13.0447556,7.85310994 12.8657333,7.67408768 L11.6722515,6.48060592 L11.6722515,4.78677989 C11.6722515,4.5343126 11.4656874,4.32774845 11.2132201,4.32774845 L9.51939408,4.32774845 L8.32591232,3.1342667 C8.14689006,2.95524443 7.85770025,2.95524443 7.67867799,3.1342667 Z M8,5 C9.65685425,5 11,6.34314575 11,8 C11,9.65685425 9.65685425,11 8,11 C6.34314575,11 5,9.65685425 5,8 C5,6.34314575 6.34314575,5 8,5 Z M8.65056656,5.83490835 C8.18606995,5.6698393 7.72541215,5.66216167 7.30698132,5.76580968 C7.14575109,5.80803664 7.1227182,6.01917147 7.25707672,6.11130303 C7.85593186,6.52589505 8.24749099,7.21688174 8.24749099,8 C8.24749099,8.78311826 7.85593186,9.47410495 7.25323791,9.88869697 C7.11887938,9.98466735 7.14575109,10.1958022 7.3031425,10.2341903 C7.72157333,10.3378383 8.18223113,10.3301607 8.64672774,10.1650917 C9.42600719,9.88869697 10.0056682,9.19003265 10.136188,8.37620387 C10.155382,8.24952297 10.1630597,8.12284208 10.1668985,8 C10.1668985,7.87715792 10.1592208,7.75047703 10.1400268,7.62379613 C10.0095071,6.80996735 9.42600719,6.11130303 8.65056656,5.83490835 Z" id="形状结合" fill-opacity="0.75" fill="#262626"></path>
                </g>
            </g>
        </g>
    </g>
</svg>