<?xml version="1.0" encoding="utf-8"?>
<!-- Generator: Adobe Illustrator 24.2.1, SVG Export Plug-In . SVG Version: 6.00 Build 0)  -->
<svg version="1.1" id="图层_1" xmlns="http://www.w3.org/2000/svg" xmlns:xlink="http://www.w3.org/1999/xlink" x="0px" y="0px"
	 viewBox="0 0 24 24" style="enable-background:new 0 0 24 24;" xml:space="preserve">
<style type="text/css">
	.st0{fill:#7E7E7E;}
</style>
<g>
	<path class="st0" d="M11,20.5v-3c0-0.5,0.4-1,1-1l0,0c0.5,0,1,0.4,1,1v3c0,0.5-0.4,1-1,1l0,0C11.5,21.5,11,21.1,11,20.5z"/>
</g>
<g>
	<path class="st0" d="M15,22H9c-0.5,0-1-0.4-1-1l0,0c0-0.5,0.4-1,1-1h6c0.5,0,1,0.4,1,1l0,0C16,21.6,15.6,22,15,22z"/>
</g>
<g>
	<path class="st0" d="M21,4v12H3V4H21 M21,2H3C1.9,2,1,2.9,1,4v12c0,1.1,0.9,2,2,2h18c1.1,0,2-0.9,2-2V4C23,2.9,22.1,2,21,2L21,2z"
		/>
</g>
</svg>
