<svg id="图层_1" data-name="图层 1" xmlns="http://www.w3.org/2000/svg" viewBox="0 0 24 24"><defs><style>.cls-1{fill:#fff;}</style></defs><title>experienceplanWhite</title><path class="cls-1" d="M13.83,16.55A1,1,0,0,1,13,17h0a1,1,0,0,1-.8-.4L9.89,13.52,8.71,14.71A1,1,0,0,1,8,15H3.66a47.27,47.27,0,0,0,7.72,7.78l.62.5.62-.5A44.2,44.2,0,0,0,21,14H15.54Z"/><path class="cls-1" d="M9.29,11.29a1,1,0,0,1,.78-.29,1,1,0,0,1,.73.4L13,14.27l1.22-1.82A1,1,0,0,1,15,12h7l.15,0A7.88,7.88,0,0,0,23,8.74,5.88,5.88,0,0,0,17,3a6.08,6.08,0,0,0-5,2.57A6.08,6.08,0,0,0,7,3,5.89,5.89,0,0,0,1,8.83,8.69,8.69,0,0,0,2.35,13H7.59Z"/></svg>