<?xml version="1.0" encoding="UTF-8"?>
<svg width="16px" height="16px" viewBox="0 0 16 16" version="1.1" xmlns="http://www.w3.org/2000/svg" xmlns:xlink="http://www.w3.org/1999/xlink">
    <title>fonts</title>
    <g id="Icon" stroke="none" stroke-width="1" fill="none" fill-rule="evenodd">
        <g id="Icon-Sets" transform="translate(-404.000000, -2458.000000)">
            <g id="编组-9" transform="translate(0.000000, 2401.000000)">
                <g id="fonts-selected" transform="translate(404.000000, 57.000000)">
                    <rect id="矩形" fill-opacity="0.75" fill="#262626" opacity="0" x="0" y="0" width="16" height="16"></rect>
                    <path d="M8.5,12 L7.5,12 C7.22385763,12 7,11.7761424 7,11.5 L7,7 L7,7 L5.5,7 C5.22385763,7 5,6.77614237 5,6.5 L5,5.5 C5,5.22385763 5.22385763,5 5.5,5 L10.5,5 C10.7761424,5 11,5.22385763 11,5.5 L11,6.5 C11,6.77614237 10.7761424,7 10.5,7 L9,7 L9,7 L9,11.5 C9,11.7761424 8.77614237,12 8.5,12 Z" id="路径" fill="#FFFFFF" fill-rule="nonzero"></path>
                    <path d="M14.3333333,1 L11.6666667,1 C11.2984768,1 11,1.29847683 11,1.66666667 L11,4.33333333 C11,4.70152317 11.2984768,5 11.6666667,5 L14.3333333,5 C14.7015232,5 15,4.70152317 15,4.33333333 L15,1.66666667 C15,1.29847683 14.7015232,1 14.3333333,1 Z" id="路径" fill="#FFFFFF" fill-rule="nonzero"></path>
                    <path d="M14.3333333,11 L11.6666667,11 C11.2984768,11 11,11.2984768 11,11.6666667 L11,14.3333333 C11,14.7015232 11.2984768,15 11.6666667,15 L14.3333333,15 C14.7015232,15 15,14.7015232 15,14.3333333 L15,11.6666667 C15,11.2984768 14.7015232,11 14.3333333,11 Z" id="路径备份-2" fill="#FFFFFF" fill-rule="nonzero"></path>
                    <path d="M4.33333333,1 L1.66666667,1 C1.29847683,1 1,1.29847683 1,1.66666667 L1,4.33333333 C1,4.70152317 1.29847683,5 1.66666667,5 L4.33333333,5 C4.70152317,5 5,4.70152317 5,4.33333333 L5,1.66666667 C5,1.29847683 4.70152317,1 4.33333333,1 Z" id="路径" fill="#FFFFFF" fill-rule="nonzero"></path>
                    <path d="M4.33333333,11 L1.66666667,11 C1.29847683,11 1,11.2984768 1,11.6666667 L1,14.3333333 C1,14.7015232 1.29847683,15 1.66666667,15 L4.33333333,15 C4.70152317,15 5,14.7015232 5,14.3333333 L5,11.6666667 C5,11.2984768 4.70152317,11 4.33333333,11 Z" id="路径备份" fill="#FFFFFF" fill-rule="nonzero"></path>
                    <rect id="矩形备份-8" fill="#FFFFFF" fill-rule="nonzero" x="5" y="2" width="5" height="1"></rect>
                    <rect id="矩形备份-15" fill="#FFFFFF" fill-rule="nonzero" x="6" y="13" width="5" height="1"></rect>
                    <rect id="矩形备份-12" fill="#FFFFFF" fill-rule="nonzero" x="2" y="6" width="1" height="5"></rect>
                    <rect id="矩形备份-14" fill="#FFFFFF" fill-rule="nonzero" x="13" y="5" width="1" height="5"></rect>
                </g>
            </g>
        </g>
    </g>
</svg>