<svg id="图层_1" data-name="图层 1" xmlns="http://www.w3.org/2000/svg" viewBox="0 0 24 24"><defs><style>.cls-1{fill:#404040;}</style></defs><title>fonts</title><path class="cls-1" d="M23.16,20.58l-7-15a1,1,0,0,0-1.82,0L12.7,9.1l-3-6.52a1,1,0,0,0-1.82,0l-7,15a1,1,0,0,0,1.82.84L5,13.5l.94-2L8.75,5.36l2.85,6.1,0,0-.93,2L7.34,20.58a1,1,0,0,0,1.82.84l2.29-4.92.94-2,.31-.67,1.1-2.37,1.45-3.1,2.86,6.14.94,2,2.29,4.92a1,1,0,0,0,.91.58,1,1,0,0,0,.42-.09A1,1,0,0,0,23.16,20.58Z"/><rect class="cls-1" x="5" y="11" width="8" height="2"/><rect class="cls-1" x="11" y="15" width="9" height="2"/></svg>