<?xml version="1.0" encoding="utf-8"?>
<!-- Generator: Adobe Illustrator 24.0.2, SVG Export Plug-In . SVG Version: 6.00 Build 0)  -->
<!DOCTYPE svg PUBLIC "-//W3C//DTD SVG 1.1//EN" "http://www.w3.org/Graphics/SVG/1.1/DTD/svg11.dtd" [
	<!ENTITY ns_extend "http://ns.adobe.com/Extensibility/1.0/">
	<!ENTITY ns_ai "http://ns.adobe.com/AdobeIllustrator/10.0/">
	<!ENTITY ns_graphs "http://ns.adobe.com/Graphs/1.0/">
	<!ENTITY ns_vars "http://ns.adobe.com/Variables/1.0/">
	<!ENTITY ns_imrep "http://ns.adobe.com/ImageReplacement/1.0/">
	<!ENTITY ns_sfw "http://ns.adobe.com/SaveForWeb/1.0/">
	<!ENTITY ns_custom "http://ns.adobe.com/GenericCustomNamespace/1.0/">
	<!ENTITY ns_adobe_xpath "http://ns.adobe.com/XPath/1.0/">
]>
<svg version="1.1" id="图层_1" xmlns:x="&ns_extend;" xmlns:i="&ns_ai;" xmlns:graph="&ns_graphs;"
	 xmlns="http://www.w3.org/2000/svg" xmlns:xlink="http://www.w3.org/1999/xlink" x="0px" y="0px" viewBox="0 0 24 24"
	 enable-background="new 0 0 24 24" xml:space="preserve">
<metadata>
	<sfw  xmlns="&ns_sfw;">
		<slices></slices>
		<sliceSourceBounds  bottomLeftOrigin="true" height="1298" width="1504" x="-206" y="-620"></sliceSourceBounds>
	</sfw>
</metadata>
<g>
	<polygon fill="#FFFFFF" points="11.6,11.5 11.6,11.5 11.6,11.5 	"/>
	<path fill="#FFFFFF" d="M23.2,20.6l-7-15C16,5.2,15.6,5,15.3,5s-0.7,0.2-0.9,0.6l-1.6,3.5l1.1,2.4l1.4-3.1l2.9,6.1h1.1v2H19
		l2.3,4.9c0.2,0.4,0.5,0.6,0.9,0.6c0.1,0,0.3,0,0.4-0.1C23.2,21.7,23.4,21.1,23.2,20.6z"/>
	<path fill="#FFFFFF" d="M10.3,14.5h2.1l0.3-0.7l-0.2-0.3h-1.9l-3.3,7.1c-0.2,0.5,0,1.1,0.5,1.3c0.5,0.2,1.1,0,1.3-0.5l2.3-4.9h-1.2
		V14.5z"/>
	<polygon fill="#FFFFFF" points="19.3,14.5 18.1,14.5 19,16.5 19.3,16.5 	"/>
	<polygon fill="#FFFFFF" points="10.3,14.5 10.3,16.5 11.5,16.5 12.4,14.5 	"/>
	<polygon fill="#FFFFFF" points="11.6,11.5 11.6,11.5 10.6,13.5 12.5,13.5 	"/>
	<path fill="#FFFFFF" d="M3.8,11.5h2.1l2.9-6.1l2.8,6.1l1.1-2.4l-3-6.5C9.5,2.2,9.1,2,8.8,2S8,2.2,7.8,2.6l-7,15
		c-0.2,0.5,0,1.1,0.5,1.3c0.5,0.2,1.1,0,1.3-0.5L5,13.5H3.8V11.5z"/>
	<polygon fill="#FFFFFF" points="11.6,11.5 12.8,11.5 12.8,13.5 12.5,13.5 12.7,13.8 13.8,11.5 12.7,9.1 11.6,11.5 	"/>
	<polygon fill="#FFFFFF" points="3.8,11.5 3.8,13.5 5,13.5 5.9,11.5 	"/>
	<polygon fill="#FFFFFF" points="12.8,11.5 11.6,11.5 12.5,13.5 12.8,13.5 	"/>
	<rect x="10.5" y="15" fill="#FFFFFF" width="9" height="2"/>
	<rect x="5" y="11" fill="#FFFFFF" width="7.5" height="2"/>
</g>
</svg>
