<?xml version="1.0" encoding="utf-8"?>
<!-- Generator: Adobe Illustrator 24.2.1, SVG Export Plug-In . SVG Version: 6.00 Build 0)  -->
<svg version="1.1" id="图层_1" xmlns="http://www.w3.org/2000/svg" xmlns:xlink="http://www.w3.org/1999/xlink" x="0px" y="0px"
	 viewBox="0 0 24 24" style="enable-background:new 0 0 24 24;" xml:space="preserve">
<style type="text/css">
	.st0{fill:#7E7E7E;}
</style>
<g>
	<path class="st0" d="M23.2,20.6l-7-15C16,5.2,15.6,5,15.3,5s-0.7,0.2-0.9,0.6l-1.6,3.5l-3-6.5C9.5,2.2,9.1,2,8.8,2S8,2.2,7.8,2.6
		l-7,15c-0.2,0.5,0,1.1,0.5,1.3c0.5,0.2,1.1,0,1.3-0.5L5,13.5l0.9-2l2.9-6.1l2.8,6.1l0,0l-0.9,2l-3.3,7.1c-0.2,0.5,0,1.1,0.5,1.3
		c0.5,0.2,1.1,0,1.3-0.5l2.3-4.9l0.9-2l0.3-0.7l1.1-2.4l1.4-3.1l2.9,6.1l0.9,2l2.3,4.9c0.2,0.4,0.5,0.6,0.9,0.6c0.1,0,0.3,0,0.4-0.1
		C23.2,21.7,23.4,21.1,23.2,20.6z"/>
	<rect x="5" y="11" class="st0" width="8" height="2"/>
	<rect x="11" y="15" class="st0" width="9" height="2"/>
</g>
</svg>
