<svg id="图层_1" data-name="图层 1" xmlns="http://www.w3.org/2000/svg" viewBox="0 0 24 24"><defs><style>.cls-1{fill:#fff;}</style></defs><title>fontsWhite</title><polygon class="cls-1" points="11.58 11.5 11.61 11.5 11.6 11.46 11.58 11.5"/><path class="cls-1" d="M23.16,20.58l-7-15a1,1,0,0,0-1.82,0L12.7,9.1l1.1,2.36,1.45-3.1,2.86,6.14h1.14v2h-.2l2.29,4.92a1,1,0,0,0,.91.58,1,1,0,0,0,.42-.09A1,1,0,0,0,23.16,20.58Z"/><path class="cls-1" d="M10.25,14.5h2.14l.31-.67-.15-.33h-1.9L7.34,20.58a1,1,0,0,0,1.82.84l2.29-4.92h-1.2Z"/><polygon class="cls-1" points="19.25 14.5 18.11 14.5 19.05 16.5 19.25 16.5 19.25 14.5"/><polygon class="cls-1" points="10.25 14.5 10.25 16.5 11.45 16.5 12.39 14.5 10.25 14.5"/><polygon class="cls-1" points="11.61 11.5 11.58 11.5 10.65 13.5 12.55 13.5 11.61 11.5"/><path class="cls-1" d="M3.75,11.5H5.89L8.75,5.36l2.85,6.1L12.7,9.1l-3-6.52a1,1,0,0,0-1.82,0l-7,15a1,1,0,0,0,1.82.84L5,13.5H3.75Z"/><polygon class="cls-1" points="11.61 11.5 12.75 11.5 12.75 13.5 12.55 13.5 12.7 13.83 13.8 11.46 12.7 9.1 11.6 11.46 11.61 11.5"/><polygon class="cls-1" points="3.75 11.5 3.75 13.5 4.95 13.5 5.89 11.5 3.75 11.5"/><polygon class="cls-1" points="12.75 11.5 11.61 11.5 12.55 13.5 12.75 13.5 12.75 11.5"/><rect class="cls-1" x="10.5" y="15" width="9" height="2"/><rect class="cls-1" x="5" y="11" width="7.5" height="2"/></svg>