<svg width="11" height="14" viewBox="0 0 11 14" fill="none" xmlns="http://www.w3.org/2000/svg">
<path d="M1.00288 0.997124V7L0.794793 7.12133L0.686044 7.18686C0.369694 7.39512 0 7.81694 0 9C0 10.2133 0.642164 11.3152 1.13186 12.041L1.39097 12.4174L1.6963 12.883C2.06357 13.4158 2.5608 13.9246 3.77767 13.9927L4.06679 14.0002L7 14C8.47467 14 10.5 12.9531 10.5 11V6C10.5 5.5 10.1549 5 9.5 5C8.84513 5 8.5 5.5 8.5 5.75C8.5 5.88807 8.38807 6 8.25 6C8.11193 6 8 5.88807 8 5.75V5.5C8 4.94772 7.55228 4.5 7 4.5C6.44772 4.5 6 4.94772 6 5.5V5.75C6 5.88807 5.88807 6 5.75 6C5.61193 6 5.5 5.88807 5.5 5.75V5C5.5 4.44772 5.05228 4 4.5 4C3.94772 4 3.5 4.44772 3.5 5V5.75C3.5 5.88807 3.38807 6 3.25 6C3.11193 6 3 5.88807 3 5.75V1C3 0.447715 2.55228 0 2 0C1.4493 0 1.00288 0.446428 1.00288 0.997124Z" fill="white"/>
</svg>
