<?xml version="1.0" encoding="UTF-8"?>
<svg viewBox="0 0 16 16" version="1.1" xmlns="http://www.w3.org/2000/svg" xmlns:xlink="http://www.w3.org/1999/xlink">
    <title>keyboard</title>
    <g id="Icon" stroke="none" stroke-width="1" fill="none" fill-rule="evenodd">
        <g id="Icon-Sets" transform="translate(-1028.000000, -2489.000000)">
            <g id="编组-9" transform="translate(0.000000, 2399.000000)">
                <g id="keyboard-selected" transform="translate(1028.000000, 90.000000)">
                    <rect id="矩形" fill="#000000" fill-rule="nonzero" opacity="0" x="0" y="0" width="16" height="16"></rect>
                    <path d="M12.4361148,2 C13.3276335,2 13.6509198,2.09282561 13.9768457,2.2671327 C14.3027716,2.4414398 14.5585602,2.69722837 14.7328673,3.0231543 C14.9071744,3.34908022 15,3.67236646 15,4.5638852 L15,11.4361148 C15,12.3276335 14.9071744,12.6509198 14.7328673,12.9768457 C14.5585602,13.3027716 14.3027716,13.5585602 13.9768457,13.7328673 C13.6509198,13.9071744 13.3276335,14 12.4361148,14 L3.5638852,14 C2.67236646,14 2.34908022,13.9071744 2.0231543,13.7328673 C1.69722837,13.5585602 1.4414398,13.3027716 1.2671327,12.9768457 C1.09282561,12.6509198 1,12.3276335 1,11.4361148 L1,4.5638852 C1,3.67236646 1.09282561,3.34908022 1.2671327,3.0231543 C1.4414398,2.69722837 1.69722837,2.4414398 2.0231543,2.2671327 C2.34908022,2.09282561 2.67236646,2 3.5638852,2 L12.4361148,2 Z M11,10 L5,10 C4.44771525,10 4,10.4477153 4,11 C4,11.5522847 4.44771525,12 5,12 L5,12 L11,12 C11.5522847,12 12,11.5522847 12,11 C12,10.4477153 11.5522847,10 11,10 L11,10 Z M3.8590287,7 L3.1409713,7 C2.91809162,7 2.83727006,7.0232064 2.75578857,7.06678318 C2.67430709,7.11035995 2.61035995,7.17430709 2.56678318,7.25578857 C2.5232064,7.33727006 2.5,7.41809162 2.5,7.6409713 L2.5,7.6409713 L2.5,8.3590287 C2.5,8.58190838 2.5232064,8.66272994 2.56678318,8.74421143 C2.61035995,8.82569291 2.67430709,8.88964005 2.75578857,8.93321682 C2.83727006,8.9767936 2.91809162,9 3.1409713,9 L3.1409713,9 L3.8590287,9 C4.08190838,9 4.16272994,8.9767936 4.24421143,8.93321682 C4.32569291,8.88964005 4.38964005,8.82569291 4.43321682,8.74421143 C4.4767936,8.66272994 4.5,8.58190838 4.5,8.3590287 L4.5,8.3590287 L4.5,7.6409713 C4.5,7.41809162 4.4767936,7.33727006 4.43321682,7.25578857 C4.38964005,7.17430709 4.32569291,7.11035995 4.24421143,7.06678318 C4.16272994,7.0232064 4.08190838,7 3.8590287,7 L3.8590287,7 Z M6.8590287,7 L6.1409713,7 C5.91809162,7 5.83727006,7.0232064 5.75578857,7.06678318 C5.67430709,7.11035995 5.61035995,7.17430709 5.56678318,7.25578857 C5.5232064,7.33727006 5.5,7.41809162 5.5,7.6409713 L5.5,7.6409713 L5.5,8.3590287 C5.5,8.58190838 5.5232064,8.66272994 5.56678318,8.74421143 C5.61035995,8.82569291 5.67430709,8.88964005 5.75578857,8.93321682 C5.83727006,8.9767936 5.91809162,9 6.1409713,9 L6.1409713,9 L6.8590287,9 C7.08190838,9 7.16272994,8.9767936 7.24421143,8.93321682 C7.32569291,8.88964005 7.38964005,8.82569291 7.43321682,8.74421143 C7.4767936,8.66272994 7.5,8.58190838 7.5,8.3590287 L7.5,8.3590287 L7.5,7.6409713 C7.5,7.41809162 7.4767936,7.33727006 7.43321682,7.25578857 C7.38964005,7.17430709 7.32569291,7.11035995 7.24421143,7.06678318 C7.16272994,7.0232064 7.08190838,7 6.8590287,7 L6.8590287,7 Z M9.8590287,7 L9.1409713,7 C8.91809162,7 8.83727006,7.0232064 8.75578857,7.06678318 C8.67430709,7.11035995 8.61035995,7.17430709 8.56678318,7.25578857 C8.5232064,7.33727006 8.5,7.41809162 8.5,7.6409713 L8.5,7.6409713 L8.5,8.3590287 C8.5,8.58190838 8.5232064,8.66272994 8.56678318,8.74421143 C8.61035995,8.82569291 8.67430709,8.88964005 8.75578857,8.93321682 C8.83727006,8.9767936 8.91809162,9 9.1409713,9 L9.1409713,9 L9.8590287,9 C10.0819084,9 10.1627299,8.9767936 10.2442114,8.93321682 C10.3256929,8.88964005 10.3896401,8.82569291 10.4332168,8.74421143 C10.4767936,8.66272994 10.5,8.58190838 10.5,8.3590287 L10.5,8.3590287 L10.5,7.6409713 C10.5,7.41809162 10.4767936,7.33727006 10.4332168,7.25578857 C10.3896401,7.17430709 10.3256929,7.11035995 10.2442114,7.06678318 C10.1627299,7.0232064 10.0819084,7 9.8590287,7 L9.8590287,7 Z M12.8590287,7 L12.1409713,7 C11.9180916,7 11.8372701,7.0232064 11.7557886,7.06678318 C11.6743071,7.11035995 11.6103599,7.17430709 11.5667832,7.25578857 C11.5232064,7.33727006 11.5,7.41809162 11.5,7.6409713 L11.5,7.6409713 L11.5,8.3590287 C11.5,8.58190838 11.5232064,8.66272994 11.5667832,8.74421143 C11.6103599,8.82569291 11.6743071,8.88964005 11.7557886,8.93321682 C11.8372701,8.9767936 11.9180916,9 12.1409713,9 L12.1409713,9 L12.8590287,9 C13.0819084,9 13.1627299,8.9767936 13.2442114,8.93321682 C13.3256929,8.88964005 13.3896401,8.82569291 13.4332168,8.74421143 C13.4767936,8.66272994 13.5,8.58190838 13.5,8.3590287 L13.5,8.3590287 L13.5,7.6409713 C13.5,7.41809162 13.4767936,7.33727006 13.4332168,7.25578857 C13.3896401,7.17430709 13.3256929,7.11035995 13.2442114,7.06678318 C13.1627299,7.0232064 13.0819084,7 12.8590287,7 L12.8590287,7 Z M3.8590287,4 L3.1409713,4 C2.91809162,4 2.83727006,4.0232064 2.75578857,4.06678318 C2.67430709,4.11035995 2.61035995,4.17430709 2.56678318,4.25578857 C2.5232064,4.33727006 2.5,4.41809162 2.5,4.6409713 L2.5,4.6409713 L2.5,5.3590287 C2.5,5.58190838 2.5232064,5.66272994 2.56678318,5.74421143 C2.61035995,5.82569291 2.67430709,5.88964005 2.75578857,5.93321682 C2.83727006,5.9767936 2.91809162,6 3.1409713,6 L3.1409713,6 L3.8590287,6 C4.08190838,6 4.16272994,5.9767936 4.24421143,5.93321682 C4.32569291,5.88964005 4.38964005,5.82569291 4.43321682,5.74421143 C4.4767936,5.66272994 4.5,5.58190838 4.5,5.3590287 L4.5,5.3590287 L4.5,4.6409713 C4.5,4.41809162 4.4767936,4.33727006 4.43321682,4.25578857 C4.38964005,4.17430709 4.32569291,4.11035995 4.24421143,4.06678318 C4.16272994,4.0232064 4.08190838,4 3.8590287,4 L3.8590287,4 Z M6.8590287,4 L6.1409713,4 C5.91809162,4 5.83727006,4.0232064 5.75578857,4.06678318 C5.67430709,4.11035995 5.61035995,4.17430709 5.56678318,4.25578857 C5.5232064,4.33727006 5.5,4.41809162 5.5,4.6409713 L5.5,4.6409713 L5.5,5.3590287 C5.5,5.58190838 5.5232064,5.66272994 5.56678318,5.74421143 C5.61035995,5.82569291 5.67430709,5.88964005 5.75578857,5.93321682 C5.83727006,5.9767936 5.91809162,6 6.1409713,6 L6.1409713,6 L6.8590287,6 C7.08190838,6 7.16272994,5.9767936 7.24421143,5.93321682 C7.32569291,5.88964005 7.38964005,5.82569291 7.43321682,5.74421143 C7.4767936,5.66272994 7.5,5.58190838 7.5,5.3590287 L7.5,5.3590287 L7.5,4.6409713 C7.5,4.41809162 7.4767936,4.33727006 7.43321682,4.25578857 C7.38964005,4.17430709 7.32569291,4.11035995 7.24421143,4.06678318 C7.16272994,4.0232064 7.08190838,4 6.8590287,4 L6.8590287,4 Z M9.8590287,4 L9.1409713,4 C8.91809162,4 8.83727006,4.0232064 8.75578857,4.06678318 C8.67430709,4.11035995 8.61035995,4.17430709 8.56678318,4.25578857 C8.5232064,4.33727006 8.5,4.41809162 8.5,4.6409713 L8.5,4.6409713 L8.5,5.3590287 C8.5,5.58190838 8.5232064,5.66272994 8.56678318,5.74421143 C8.61035995,5.82569291 8.67430709,5.88964005 8.75578857,5.93321682 C8.83727006,5.9767936 8.91809162,6 9.1409713,6 L9.1409713,6 L9.8590287,6 C10.0819084,6 10.1627299,5.9767936 10.2442114,5.93321682 C10.3256929,5.88964005 10.3896401,5.82569291 10.4332168,5.74421143 C10.4767936,5.66272994 10.5,5.58190838 10.5,5.3590287 L10.5,5.3590287 L10.5,4.6409713 C10.5,4.41809162 10.4767936,4.33727006 10.4332168,4.25578857 C10.3896401,4.17430709 10.3256929,4.11035995 10.2442114,4.06678318 C10.1627299,4.0232064 10.0819084,4 9.8590287,4 L9.8590287,4 Z M12.8590287,4 L12.1409713,4 C11.9180916,4 11.8372701,4.0232064 11.7557886,4.06678318 C11.6743071,4.11035995 11.6103599,4.17430709 11.5667832,4.25578857 C11.5232064,4.33727006 11.5,4.41809162 11.5,4.6409713 L11.5,4.6409713 L11.5,5.3590287 C11.5,5.58190838 11.5232064,5.66272994 11.5667832,5.74421143 C11.6103599,5.82569291 11.6743071,5.88964005 11.7557886,5.93321682 C11.8372701,5.9767936 11.9180916,6 12.1409713,6 L12.1409713,6 L12.8590287,6 C13.0819084,6 13.1627299,5.9767936 13.2442114,5.93321682 C13.3256929,5.88964005 13.3896401,5.82569291 13.4332168,5.74421143 C13.4767936,5.66272994 13.5,5.58190838 13.5,5.3590287 L13.5,5.3590287 L13.5,4.6409713 C13.5,4.41809162 13.4767936,4.33727006 13.4332168,4.25578857 C13.3896401,4.17430709 13.3256929,4.11035995 13.2442114,4.06678318 C13.1627299,4.0232064 13.0819084,4 12.8590287,4 L12.8590287,4 Z" id="形状结合" fill-opacity="0.75" fill="#262626"></path>
                </g>
            </g>
        </g>
    </g>
</svg>