<?xml version="1.0" encoding="UTF-8"?>
<svg viewBox="0 0 16 16" version="1.1" xmlns="http://www.w3.org/2000/svg" xmlns:xlink="http://www.w3.org/1999/xlink">
    <title>language</title>
    <g id="Icon" stroke="none" stroke-width="1" fill="none" fill-rule="evenodd">
        <g id="Icon-Sets" transform="translate(-740.000000, -2489.000000)">
            <g id="编组-9" transform="translate(0.000000, 2399.000000)">
                <g id="language" transform="translate(740.000000, 90.000000)">
                    <path d="M1.2819426,-5.17920154e-17 L14.7180574,5.17920154e-17 C15.1638168,-3.00926524e-17 15.3254599,0.0464128056 15.4884229,0.133566352 C15.6513858,0.220719898 15.7792801,0.348614185 15.8664336,0.511577148 C15.9535872,0.674540111 16,0.83618323 16,1.2819426 L16,14.7180574 C16,15.1638168 15.9535872,15.3254599 15.8664336,15.4884229 C15.7792801,15.6513858 15.6513858,15.7792801 15.4884229,15.8664336 C15.3254599,15.9535872 15.1638168,16 14.7180574,16 L1.2819426,16 C0.83618323,16 0.674540111,15.9535872 0.511577148,15.8664336 C0.348614185,15.7792801 0.220719898,15.6513858 0.133566352,15.4884229 C0.0464128056,15.3254599 2.00617683e-17,15.1638168 -3.45280103e-17,14.7180574 L3.45280103e-17,1.2819426 C-2.00617683e-17,0.83618323 0.0464128056,0.674540111 0.133566352,0.511577148 C0.220719898,0.348614185 0.348614185,0.220719898 0.511577148,0.133566352 C0.674540111,0.0464128056 0.83618323,3.00926524e-17 1.2819426,-5.17920154e-17 Z" id="矩形" fill="#D8D8D8" opacity="0"></path>
                    <path d="M2.70302196,9.8896652 L2.70302196,9.8896652 L2.70302196,9.8896652 L5.26699291,14.3296161 L5.28128066,14.3543578 C5.40030123,14.5604621 5.3297059,14.8240279 5.12360157,14.9430485 C5.05809648,14.9808762 4.9837884,15.0007954 4.90814548,15.0008041 C4.90814548,15.0008041 4.90814548,15.0008041 4.90814548,15.0008041 C4.15445515,15.000891 3.02391966,15.0010215 1.51653902,15.0011954 C0.964254265,15.0011954 0.516539015,14.5534801 0.516539015,14.0011954 C0.516539015,13.8657686 0.544046764,13.7317529 0.597393985,13.6072761 C1.29234188,11.9851351 1.81355281,10.7685293 2.16102676,9.95745883 C2.16623259,9.94530742 2.17143843,9.933156 2.17664426,9.92100459 C2.24077292,9.77131607 2.41410598,9.7019561 2.5637945,9.76608475 C2.62233108,9.79116264 2.67117557,9.83451777 2.70302196,9.8896652 Z M11.7996539,8.00024901 L12.099263,8.00119538 C12.3466095,8.00119538 12.481076,8.01314677 12.5864184,8.037934 L12.70421,8.0738965 C12.8378316,8.12317289 12.9517662,8.19830097 13.0496945,8.30170766 C13.133633,8.39034197 13.1976307,8.4806632 13.3001042,8.70509717 L14.1401485,10.6624261 C14.356002,11.1653713 14.1274394,11.7484 13.6272893,11.970653 L7.63069493,14.6353745 C7.16325787,14.8430907 6.61442638,14.664575 6.35863102,14.2216166 L3.1081861,8.59285204 C3.008522,8.42029387 3.06763049,8.19961845 3.24019596,8.099967 C3.25795285,8.08971292 3.27655153,8.08099118 3.29579,8.0738965 C3.29579,8.0738965 3.29579,8.0738965 3.29579,8.0738965 L3.41358164,8.037934 C3.49785554,8.01810421 3.60076889,8.00648937 3.76520466,8.00263662 L4.19273916,7.99975181 L4.32576619,8.15805025 L4.61680248,8.49472146 L5.91604034,9.95951585 C5.98891171,10.0423992 6.0634227,10.1274387 6.13960235,10.2147544 L6.39406295,10.559791 C7.05874036,11.44961 8.31200018,11.6311015 9.19692785,10.9700548 C9.35081736,10.8550983 9.47999926,10.711075 9.60230015,10.5646825 L10.0539288,10.0303125 L11.2011955,8.7081933 L11.6621453,8.16763879 C11.7093128,8.11090238 11.7551444,8.05514793 11.7996539,8.00024901 Z M15.3299422,13.4376156 L15.402606,13.6072761 L15.402606,13.6072761 C15.6201616,14.1149059 15.3850101,14.7027848 14.8773803,14.9203404 C14.7529034,14.9736876 14.6188878,15.0011954 14.483461,15.0011954 C12.7006058,15.0010233 11.3634643,15.0008942 10.4720367,15.0008082 C10.4650447,15.0008075 10.4580526,15.0008068 10.4510606,15.0008062 C10.3391659,15.0007954 10.2484661,14.910078 10.2484769,14.7981834 C10.2484845,14.7194577 10.2940959,14.6478641 10.3654432,14.6145881 L10.3654432,14.6145881 L10.3654432,14.6145881 L13.9880206,12.9250385 C14.488544,12.6915972 15.0835399,12.90811 15.3169811,13.4086334 C15.3214546,13.4182249 15.3257755,13.4278869 15.3299422,13.4376156 Z" id="形状" fill-opacity="0.75" fill="#262626"></path>
                    <path d="M8,1 C10.209139,1 12,2.790861 12,5 C12,6.20646737 10.9083274,7.95877105 8.72498211,10.256911 C8.71322184,10.2692896 8.70114647,10.281365 8.68876787,10.2931253 C8.28836731,10.6735252 7.65540348,10.6573114 7.2750036,10.2569108 L7.2750036,10.2569108 L7.02793178,9.99415656 C5.00931059,7.82478241 4,6.16006356 4,5 C4,2.790861 5.790861,1 8,1 Z M8,3 C6.8954305,3 6,3.8954305 6,5 C6,6.1045695 6.8954305,7 8,7 C9.1045695,7 10,6.1045695 10,5 C10,3.8954305 9.1045695,3 8,3 Z" id="形状结合" fill-opacity="0.75" fill="#262626"></path>
                </g>
            </g>
        </g>
    </g>
</svg>