<?xml version="1.0" encoding="UTF-8"?>
<svg  viewBox="0 0 16 16" version="1.1" xmlns="http://www.w3.org/2000/svg" xmlns:xlink="http://www.w3.org/1999/xlink">
    <title>lockscreen</title>
    <g id="Icon" stroke="none" stroke-width="1" fill="none" fill-rule="evenodd">
        <g id="Icon-Sets" transform="translate(-356.000000, -2489.000000)">
            <g id="编组-9" transform="translate(0.000000, 2399.000000)">
                <g id="lockscreen-selected" transform="translate(356.000000, 90.000000)">
                    <rect id="矩形" fill="#000000" fill-rule="nonzero" opacity="0" x="0" y="0" width="16" height="16"></rect>
                    <path d="M8,1 C10.1421954,1 11.8910789,2.68396847 11.9951047,4.80035966 L12,5 L12.0009007,5.17102423 C13.1073865,5.56251032 13.9157364,6.58476477 13.9938052,7.80564227 L14,8 L14,12 C14,13.5976809 12.75108,14.9036609 11.1762728,14.9949073 L11,15 L5,15 C3.40231912,15 2.09633912,13.75108 2.00509269,12.1762728 L2,12 L2,8 C2,6.69374794 2.8348501,5.58248558 4.00008893,5.17067428 L4,5 C4,2.790861 5.790861,1 8,1 Z M11,7 L5,7 C4.48716416,7 4.06449284,7.38604019 4.00672773,7.88337887 L4,8 L4,12 C4,12 4,12 4,12 C4,12.2986949 4.24214009,12.540835 4.54083503,12.540835 C4.68540934,12.540835 4.82396525,12.4829509 4.92561175,12.3801417 L6.82610669,10.4564743 L6.82610669,10.4564743 C7.18438972,10.0938028 7.75144148,10.0626211 8.1455821,10.3652524 L8.25308522,10.4607338 L8.89146845,11.1146996 C9.24757999,11.4795036 9.81443549,11.51407 10.2103758,11.213797 L10.3171976,11.1202215 L11.7216442,9.65616936 C11.9002652,9.46996755 12,9.22192963 12,8.96390523 L12,8 L12,8 C12,7.48716416 11.6139598,7.06449284 11.1166211,7.00672773 L11,7 Z M6,8 C6.55228475,8 7,8.44771525 7,9 C7,9.55228475 6.55228475,10 6,10 C5.44771525,10 5,9.55228475 5,9 C5,8.44771525 5.44771525,8 6,8 Z M8,3 C6.9456382,3 6.08183488,3.81587779 6.00548574,4.85073766 L6,5 L10,5 C10,3.8954305 9.1045695,3 8,3 Z" id="形状" fill-opacity="0.75" fill="#262626"></path>
                </g>
            </g>
        </g>
    </g>
</svg>