<?xml version="1.0" encoding="utf-8"?>
<!-- Generator: Adobe Illustrator 24.2.1, SVG Export Plug-In . SVG Version: 6.00 Build 0)  -->
<svg version="1.1" id="图层_1" xmlns="http://www.w3.org/2000/svg" xmlns:xlink="http://www.w3.org/1999/xlink" x="0px" y="0px"
	 viewBox="0 0 24 24" style="enable-background:new 0 0 24 24;" xml:space="preserve">
<style type="text/css">
	.st0{fill:none;stroke:#7E7E7E;stroke-width:2;stroke-miterlimit:10;}
	.st1{fill:#7E7E7E;}
</style>
<path class="st0" d="M12,22L12,22c-3.9,0-7-3.1-7-7V4.6C5,3.2,6.2,2,7.6,2h8.8C17.8,2,19,3.2,19,4.6V15C19,18.9,15.9,22,12,22z"/>
<path class="st1" d="M12,9.5L12,9.5c-1.1,0-2-0.9-2-2v-1c0-1.1,0.9-2,2-2l0,0c1.1,0,2,0.9,2,2v1C14,8.6,13.1,9.5,12,9.5z"/>
</svg>
