<?xml version="1.0" encoding="UTF-8"?>
<svg width="16px" height="16px" viewBox="0 0 16 16" version="1.1" xmlns="http://www.w3.org/2000/svg" xmlns:xlink="http://www.w3.org/1999/xlink">
    <title>mouse</title>
    <g id="Icon" stroke="none" stroke-width="1" fill="none" fill-rule="evenodd">
        <g id="Icon-Sets" transform="translate(-932.000000, -2458.000000)">
            <g id="编组-9" transform="translate(0.000000, 2401.000000)">
                <g id="mouse-selected" transform="translate(932.000000, 57.000000)">
                    <rect id="矩形" fill="#000000" fill-rule="nonzero" opacity="0" x="0" y="0" width="16" height="16"></rect>
                    <path d="M13,8 L13,10 C13,12.7614237 10.7614237,15 8,15 C5.23857625,15 3,12.7614237 3,10 L3,8 L13,8 Z M8,1 C10.7614237,1 13,3.23857625 13,6 L13,7 L3,7 L3,6 C3,3.23857625 5.23857625,1 8,1 Z M8,2 C7.44771525,2 7,2.44771525 7,3 L7,3 L7,5 C7,5.55228475 7.44771525,6 8,6 C8.55228475,6 9,5.55228475 9,5 L9,5 L9,3 C9,2.44771525 8.55228475,2 8,2 Z" id="形状结合" fill="#FFFFFF"></path>
                </g>
            </g>
        </g>
    </g>
</svg>