<svg id="图层_1" data-name="图层 1" xmlns="http://www.w3.org/2000/svg" viewBox="0 0 24 24"><path d="M3,7.73V8a2.48,2.48,0,0,1,0-.27Z" fill="#fff"/><path d="M20,5H6a3,3,0,0,0-1.94.73L4,5.78v.13H3.86A3,3,0,0,0,3,7.73h2A1,1,0,0,1,6,7H20a1,1,0,0,1,1,1v8a1,1,0,0,1-1,1H6a1,1,0,0,1-1-1V13.73H3V16a3,3,0,0,0,3,3H20a3,3,0,0,0,3-3V8A3,3,0,0,0,20,5Z" fill="#fff"/><rect x="3" y="12.82" width="2" height="0.91" fill="#fff"/><rect x="10" y="19" width="6" height="2" rx="1" transform="translate(33 7) rotate(90)" fill="#fff"/><rect x="9" y="21" width="8" height="2" rx="1" fill="#fff"/><rect x="4" y="12.09" width="2" height="10.91" fill="#fff"/><path d="M1,5.87v7.94H9V5.87Zm6,6H3v-4H7Z" fill="#fff"/><path d="M2,1V7H8V1ZM6,5H4V3H6Z" fill="#fff"/></svg>