<svg id="图层_1" data-name="图层 1" xmlns="http://www.w3.org/2000/svg" viewBox="0 0 24 24"><defs><style>.cls-1{fill:#404040;}.cls-2{fill:none;}</style></defs><title>netconnect</title><rect class="cls-1" x="3.5" y="4" width="2" height="4" transform="translate(-1.5 10.5) rotate(-90)"/><rect class="cls-1" x="3.5" y="3" width="2" height="6" transform="translate(-1.5 10.5) rotate(-90)"/><rect class="cls-1" x="11.25" y="3.75" width="2" height="18.5" transform="translate(25.25 0.75) rotate(90)"/><rect class="cls-2" x="4" y="3" width="2" height="2"/><path class="cls-2" d="M7.69,11H6v6.65a8,8,0,0,0,4.14,3A13.87,13.87,0,0,1,7.5,13,10.85,10.85,0,0,1,7.69,11Z"/><path class="cls-2" d="M9,7.27a17.21,17.21,0,0,1,1.14-1.91A7.55,7.55,0,0,0,9,5.82V7.27Z"/><ellipse class="cls-2" cx="12.5" cy="13" rx="3" ry="7.47"/><path class="cls-2" d="M14.86,20.64a8,8,0,0,0,0-15.28A13.87,13.87,0,0,1,17.5,13,13.87,13.87,0,0,1,14.86,20.64Z"/><path class="cls-1" d="M4,18.24V23H6V20.58A10,10,0,0,1,4,18.24Z"/><path class="cls-1" d="M7,9H5.58A8,8,0,0,0,6,17.65V11H7.69A13.8,13.8,0,0,1,9,7.27V5.82A8,8,0,0,0,7,7.21Z"/><path class="cls-1" d="M3,9V7H4.52A10.13,10.13,0,0,1,8,4.08V1H2V5H1V9H1v2H2.7a9.72,9.72,0,0,1,.64-2ZM4,3H6V5H4Z"/><path class="cls-1" d="M9,11H7.69a10.85,10.85,0,0,0-.19,2,13.87,13.87,0,0,0,2.64,7.64,7.92,7.92,0,0,0,4.72,0A13.87,13.87,0,0,0,17.5,13a13.87,13.87,0,0,0-2.64-7.64,7.92,7.92,0,0,0-4.72,0A17.21,17.21,0,0,0,9,7.27Zm6.5,2c0,3.24-1.92,6.12-3,7.47-1.08-1.35-3-4.23-3-7.47s1.92-6.12,3-7.47C13.58,6.88,15.5,9.76,15.5,13Z"/><path class="cls-1" d="M9,11V7.27A13.8,13.8,0,0,0,7.69,11Z"/><path class="cls-1" d="M3,11H2.7a10.2,10.2,0,0,0-.2,2A10,10,0,0,0,4,18.24V11Z"/><path class="cls-1" d="M12.5,3A10,10,0,0,0,8,4.08V5H9v.82a7.55,7.55,0,0,1,1.14-.46A15.82,15.82,0,0,1,11.79,3.3a1,1,0,0,1,1.42,0,15.82,15.82,0,0,1,1.65,2.06,8,8,0,0,1,0,15.28,15.82,15.82,0,0,1-1.65,2.06,1,1,0,0,1-.71.3,10,10,0,0,0,0-20Z"/><path class="cls-1" d="M10.14,20.64a8,8,0,0,1-4.14-3v2.93A9.91,9.91,0,0,0,12.5,23a1,1,0,0,1-.71-.3A15.82,15.82,0,0,1,10.14,20.64Z"/><path class="cls-1" d="M4.5,13A8,8,0,0,1,5.58,9H3.34a9.72,9.72,0,0,0-.64,2H4v7.24a10,10,0,0,0,2,2.34V17.65A8,8,0,0,1,4.5,13Z"/><path class="cls-1" d="M4.52,7H7v.21A8,8,0,0,1,9,5.82V5H8V4.08A10.13,10.13,0,0,0,4.52,7Z"/><path class="cls-1" d="M14.86,5.36A15.82,15.82,0,0,0,13.21,3.3a1,1,0,0,0-1.42,0,15.82,15.82,0,0,0-1.65,2.06,7.92,7.92,0,0,1,4.72,0Z"/><path class="cls-1" d="M14.86,20.64a7.92,7.92,0,0,1-4.72,0,15.82,15.82,0,0,0,1.65,2.06,1,1,0,0,0,1.42,0A15.82,15.82,0,0,0,14.86,20.64Z"/></svg>