<svg id="图层_1" data-name="图层 1" xmlns="http://www.w3.org/2000/svg" viewBox="0 0 24 24"><defs><style>.cls-1{fill:#fff;}</style></defs><title>netconnectWhite</title><rect class="cls-1" x="3.75" y="4" width="2" height="4" transform="translate(-1.25 10.75) rotate(-90)"/><rect class="cls-1" x="3.75" y="3" width="2" height="6" transform="translate(-1.25 10.75) rotate(-90)"/><rect class="cls-1" x="11.5" y="3.75" width="2" height="18.5" transform="translate(25.5 0.5) rotate(90)"/><path class="cls-1" d="M4.25,18.24V23h2V20.58A10,10,0,0,1,4.25,18.24Z"/><path class="cls-1" d="M7.25,9H5.83a8,8,0,0,0,.42,8.65V11H7.94A13.8,13.8,0,0,1,9.25,7.27V5.82a8,8,0,0,0-2,1.39Z"/><path class="cls-1" d="M3.25,9V7H4.77A10.13,10.13,0,0,1,8.25,4.08V1h-6V5h-1V9h0v2H3a9.72,9.72,0,0,1,.64-2Zm1-6h2V5h-2Z"/><path class="cls-1" d="M9.25,11H7.94a10.85,10.85,0,0,0-.19,2,13.87,13.87,0,0,0,2.64,7.64,7.92,7.92,0,0,0,4.72,0A13.87,13.87,0,0,0,17.75,13a13.87,13.87,0,0,0-2.64-7.64,7.92,7.92,0,0,0-4.72,0A17.21,17.21,0,0,0,9.25,7.27Zm6.5,2c0,3.24-1.92,6.12-3,7.47-1.08-1.35-3-4.23-3-7.47s1.92-6.12,3-7.47C13.83,6.88,15.75,9.76,15.75,13Z"/><path class="cls-1" d="M9.25,11V7.27A13.8,13.8,0,0,0,7.94,11Z"/><path class="cls-1" d="M3.25,11H3a10.2,10.2,0,0,0-.2,2,10,10,0,0,0,1.5,5.24V11Z"/><path class="cls-1" d="M12.75,3a10,10,0,0,0-4.5,1.08V5h1v.82a7.55,7.55,0,0,1,1.14-.46A15.82,15.82,0,0,1,12,3.3a1,1,0,0,1,1.42,0,15.82,15.82,0,0,1,1.65,2.06,8,8,0,0,1,0,15.28,15.82,15.82,0,0,1-1.65,2.06,1,1,0,0,1-.71.3,10,10,0,0,0,0-20Z"/><path class="cls-1" d="M10.39,20.64a8,8,0,0,1-4.14-3v2.93A9.91,9.91,0,0,0,12.75,23a1,1,0,0,1-.71-.3A15.82,15.82,0,0,1,10.39,20.64Z"/><path class="cls-1" d="M4.75,13A8,8,0,0,1,5.83,9H3.59A9.72,9.72,0,0,0,3,11h1.3v7.24a10,10,0,0,0,2,2.34V17.65A8,8,0,0,1,4.75,13Z"/><path class="cls-1" d="M4.77,7H7.25v.21a8,8,0,0,1,2-1.39V5h-1V4.08A10.13,10.13,0,0,0,4.77,7Z"/><path class="cls-1" d="M15.11,5.36A15.82,15.82,0,0,0,13.46,3.3,1,1,0,0,0,12,3.3a15.82,15.82,0,0,0-1.65,2.06,7.92,7.92,0,0,1,4.72,0Z"/><path class="cls-1" d="M15.11,20.64a7.92,7.92,0,0,1-4.72,0A15.82,15.82,0,0,0,12,22.7a1,1,0,0,0,1.42,0A15.82,15.82,0,0,0,15.11,20.64Z"/></svg>