<svg id="图层_1" data-name="图层 1" xmlns="http://www.w3.org/2000/svg" viewBox="0 0 24 24"><defs><style>.cls-1{fill:#fff;}</style></defs><title>color_white</title><path class="cls-1" d="M22.44,12.28a10.06,10.06,0,0,1-4.87,5.6,9.24,9.24,0,0,1-1.25.54,9,9,0,0,1-1.28.37A9.8,9.8,0,0,1,13,19a9.92,9.92,0,0,1-1.55-.13,8.56,8.56,0,0,1-1.14-.25,10.71,10.71,0,0,1-1.13-.38A9.13,9.13,0,0,1,9,17.07c0-.19,0-.38,0-.57s0-.38,0-.57a7.28,7.28,0,0,0,1,.48,9.16,9.16,0,0,0,1,.33A8.16,8.16,0,0,0,13,17a8,8,0,0,0,2.86-.54A7.21,7.21,0,0,0,17,16a8.08,8.08,0,0,0,3.82-5.06,7.29,7.29,0,0,0,.18-1A7.92,7.92,0,0,0,21,9c0-.08,0-.16,0-.24A8,8,0,0,0,6,5.21,9.8,9.8,0,0,1,8,5a10,10,0,0,1,7.38,3.28,8.21,8.21,0,0,1,.7.86,8.07,8.07,0,0,1,.6.92,5.88,5.88,0,0,0-1,.21,7.2,7.2,0,0,0-1,.37,8.17,8.17,0,0,0-.61-.81,6.47,6.47,0,0,0-.73-.75A7.91,7.91,0,0,0,5.14,7.54a7.21,7.21,0,0,0-1.09.51,8,8,0,0,0,7.24,14.23,7.77,7.77,0,0,0,.9-.48,6.31,6.31,0,0,0,.84-.59,6.39,6.39,0,0,0,1.7,1.16A6.43,6.43,0,0,0,17.5,23a6.5,6.5,0,0,0,4.94-10.72Z"/></svg>