<?xml version="1.0" encoding="UTF-8"?>
<svg viewBox="0 0 16 16" version="1.1" xmlns="http://www.w3.org/2000/svg" xmlns:xlink="http://www.w3.org/1999/xlink">
    <title>network</title>
    <g id="Icon" stroke="none" stroke-width="1" fill="none" fill-rule="evenodd">
        <g id="Icon-Sets" transform="translate(-68.000000, -2489.000000)">
            <g id="编组-9" transform="translate(0.000000, 2399.000000)">
                <g id="network" transform="translate(68.000000, 90.000000)">
                    <polygon id="Path" points="0 0 16 0 16 16 0 16"></polygon>
                    <path d="M8,1.33333333 C4.32,1.33333333 1.33333333,4.32 1.33333333,8 C1.33333333,11.68 4.32,14.6666667 8,14.6666667 C11.68,14.6666667 14.6666667,11.68 14.6666667,8 C14.6666667,4.32 11.68,1.33333333 8,1.33333333 Z M7.33333333,13.2866667 C4.7,12.96 2.66666667,10.72 2.66666667,8 C2.66666667,7.58666667 2.72,7.19333333 2.80666667,6.80666667 L6,10 L6,10.6666667 C6,11.4 6.6,12 7.33333333,12 L7.33333333,13.2866667 Z M11.9333333,11.5933333 C11.76,11.0533333 11.2666667,10.6666667 10.6666667,10.6666667 L10,10.6666667 L10,8.66666667 C10,8.3 9.7,8 9.33333333,8 L5.33333333,8 L5.33333333,6.66666667 L6.66666667,6.66666667 C7.03333333,6.66666667 7.33333333,6.36666667 7.33333333,6 L7.33333333,4.66666667 L8.66666667,4.66666667 C9.4,4.66666667 10,4.06666667 10,3.33333333 L10,3.06 C11.9533333,3.85333333 13.3333333,5.76666667 13.3333333,8 C13.3333333,9.38666667 12.8,10.6466667 11.9333333,11.5933333 Z" id="🔹-Icon-Color" fill-opacity="0.75" fill="#262626"></path>
                </g>
            </g>
        </g>
    </g>
</svg>