<svg id="图层_1" data-name="图层 1" xmlns="http://www.w3.org/2000/svg" viewBox="0 0 24 24"><defs><style>.cls-1{fill:#404040;}</style></defs><title>user_cloud_24</title><path class="cls-1" d="M13.26,10.09a7.26,7.26,0,0,1,1.91-.84A8.46,8.46,0,0,0,8.5,6a9,9,0,0,0-1.56.15,6.41,6.41,0,0,0-.85,2.32,6.45,6.45,0,0,1,7.17,1.62Z"/><path class="cls-1" d="M11.47,20.28A6.49,6.49,0,0,1,4,9.81C4,9.7,4,9.6,4,9.5a8.67,8.67,0,0,1,.35-2.41A8.49,8.49,0,1,0,13,21.71,7,7,0,0,1,11.47,20.28Z"/><path class="cls-1" d="M12.5,16a4.19,4.19,0,0,1-.5,0v0a5,5,0,0,0,.42,2h.08a9,9,0,0,0,1.56-.15,6.41,6.41,0,0,0,.85-2.32A6.47,6.47,0,0,1,12.5,16Z"/><path class="cls-1" d="M17,14.19c0,.11,0,.21,0,.31a8.67,8.67,0,0,1-.35,2.41,8.52,8.52,0,0,0,3.82-4.49,4.84,4.84,0,0,0-1.74-1.09A6.37,6.37,0,0,1,17,14.19Z"/><path class="cls-1" d="M12.5,3A6.5,6.5,0,0,1,19,9.29a6.65,6.65,0,0,1,2,1c0-.25,0-.49,0-.74A8.5,8.5,0,0,0,4.35,7.09a8.38,8.38,0,0,1,2.59-.94A6.5,6.5,0,0,1,12.5,3Z"/><path class="cls-1" d="M4,9.81A6.36,6.36,0,0,1,6.09,8.47a6.41,6.41,0,0,1,.85-2.32,8.38,8.38,0,0,0-2.59.94A8.67,8.67,0,0,0,4,9.5C4,9.6,4,9.7,4,9.81Z"/><path class="cls-1" d="M14.06,17.85a8.38,8.38,0,0,0,2.59-.94A8.67,8.67,0,0,0,17,14.5c0-.1,0-.2,0-.31a6.36,6.36,0,0,1-2.07,1.34A6.41,6.41,0,0,1,14.06,17.85Z"/><path class="cls-1" d="M21,10.24a8,8,0,0,1-.49,2.18A5,5,0,0,1,17,21a4.9,4.9,0,0,1-2.37-.63A7.93,7.93,0,0,1,13,21.71,6.94,6.94,0,0,0,17,23a7,7,0,0,0,4-12.76Z"/><path class="cls-1" d="M16.27,11.07a8.65,8.65,0,0,0-1.1-1.82,7.26,7.26,0,0,0-1.91.84,6.38,6.38,0,0,1,1.13,1.67A4.89,4.89,0,0,1,16.27,11.07Z"/><path class="cls-1" d="M14.63,20.37a4.85,4.85,0,0,1-1.53-1.28,7.11,7.11,0,0,1-1.63,1.19A7,7,0,0,0,13,21.71,7.93,7.93,0,0,0,14.63,20.37Z"/><path class="cls-1" d="M19,9.5a6.48,6.48,0,0,1-.27,1.83,4.84,4.84,0,0,1,1.74,1.09A8,8,0,0,0,21,10.24a6.65,6.65,0,0,0-2-1C19,9.36,19,9.43,19,9.5Z"/><path class="cls-1" d="M12,16a6.58,6.58,0,0,1-2-.46c0,.16,0,.32,0,.49a7.16,7.16,0,0,0,.21,1.68,8.55,8.55,0,0,0,2.21.32A5,5,0,0,1,12,16Z"/></svg>