<?xml version="1.0" encoding="UTF-8"?>
<svg width="16px" height="16px" viewBox="0 0 16 16" version="1.1" xmlns="http://www.w3.org/2000/svg" xmlns:xlink="http://www.w3.org/1999/xlink">
    <title>switch mode</title>
    <g id="Icon" stroke="none" stroke-width="1" fill="none" fill-rule="evenodd">
        <g id="Icon-Sets" transform="translate(-596.000000, -2458.000000)">
            <g id="编组-9" transform="translate(0.000000, 2401.000000)">
                <g id="icons8-touchpad" transform="translate(596.000000, 57.000000)">
                    <rect id="矩形" fill="#000000" fill-rule="nonzero" opacity="0" x="0" y="0" width="16" height="16"></rect>
                    <path d="M3.66666667,11.6666667 C2.74619208,11.6666667 2,10.9204746 2,10 L2,5 C2,3.8954305 2.8954305,3 4,3 L12,3 C13.1045695,3 14,3.8954305 14,5 L14,9.66666667 C14,10.7712362 13.1045695,11.6666667 12,11.6666667 L10.8820797,11.6666667 L10.8820797,11.6666667" id="路径" stroke="#FFFFFF" stroke-width="2" stroke-linecap="round"></path>
                    <path d="M5.85112206,7.91576187 C5.85112206,6.81116187 6.74652206,5.91576187 7.85112206,5.91576187 C8.95572206,5.91576187 9.85112206,6.81116187 9.85112206,7.91576187" id="路径" stroke="#FFFFFF"></path>
                    <path d="M10.066891,14.326087 L8.6928364,14.326087 C7.99085497,14.326087 7.18850833,13.5648305 7.15428637,13.5323946 L5.54384149,11.9526254 C5.40781641,11.8194972 5.33333333,11.642369 5.33333333,11.4539588 C5.33333333,11.2658305 5.40810399,11.0887023 5.54384149,10.9552921 C5.81474132,10.6887536 6.28838467,10.6887536 6.56043482,10.9552921 L7.11086188,11.4951382 L7.11086188,7.69788183 C7.11086188,7.30921516 7.43323843,6.99275362 7.82981049,6.99275362 C8.22638254,6.99275362 8.54875909,7.30921516 8.54875909,7.69788183 L8.54875909,9.39047157 C8.57636246,9.37013463 8.6115175,9.35121429 8.65422421,9.33371056 C8.91205915,9.32498203 9.16318084,9.32609958 9.3861705,9.41982056 L11.387462,10.2609493 C11.7585931,10.416933 12,10.7802567 12,11.1828349 L12,12.4927536 L12,12.4927536 C12,12.5150357 11.9974118,12.5361895 11.9942484,12.5576254 C11.922066,13.5527023 11.0757197,14.326087 10.066891,14.326087 Z" id="路径" fill="#FFFFFF" fill-rule="nonzero"></path>
                </g>
            </g>
        </g>
    </g>
</svg>