<?xml version="1.0" encoding="UTF-8"?>
<svg viewBox="0 0 16 16" version="1.1" xmlns="http://www.w3.org/2000/svg" xmlns:xlink="http://www.w3.org/1999/xlink">
    <title>switch mode</title>
    <g id="Icon" stroke="none" stroke-width="1" fill="none" fill-rule="evenodd">
        <g id="Icon-Sets" transform="translate(-596.000000, -2489.000000)">
            <g id="编组-9" transform="translate(0.000000, 2399.000000)">
                <g id="icons8-touchpad" transform="translate(596.000000, 90.000000)">
                    <rect id="矩形" fill="#000000" fill-rule="nonzero" opacity="0" x="0" y="0" width="16" height="16"></rect>
                    <path d="M12,2 C13.5976809,2 14.9036609,3.24891996 14.9949073,4.82372721 L15,5 L15,9.66666667 C15,11.2643476 13.75108,12.5703275 12.1762728,12.661574 L11.982,12.662 L11.9776913,12.7051553 C11.8370251,13.6281073 11.0252782,14.326087 10.066891,14.326087 L8.6928364,14.326087 C7.99085497,14.326087 7.18850833,13.5648305 7.15428637,13.5323946 L5.54384149,11.9526254 C5.40781641,11.8194972 5.33333333,11.642369 5.33333333,11.4539588 C5.33333333,11.2658305 5.40810399,11.0887023 5.54384149,10.9552921 C5.81474132,10.6887536 6.28838467,10.6887536 6.56043482,10.9552921 L7.11086188,11.4951382 L7.11086188,7.69788183 C7.11086188,7.30921516 7.43323843,6.99275362 7.82981049,6.99275362 C8.22638254,6.99275362 8.54875909,7.30921516 8.54875909,7.69788183 L8.54875909,9.39047157 C8.57636246,9.37013463 8.6115175,9.35121429 8.65422421,9.33371056 C8.91205915,9.32498203 9.16318084,9.32609958 9.3861705,9.41982056 L11.387462,10.2609493 C11.5860172,10.3444006 11.747442,10.4871978 11.8546345,10.6636018 L12,10.6666667 C12.5128358,10.6666667 12.9355072,10.2806265 12.9932723,9.78328779 L13,9.66666667 L13,5 C13,4.48716416 12.6139598,4.06449284 12.1166211,4.00672773 L12,4 L4,4 C3.48716416,4 3.06449284,4.38604019 3.00672773,4.88337887 L3,5 L3,9.66666667 C3,10.1795025 3.38604019,10.6021738 3.88337887,10.6599389 L4.00001815,10.6606417 C4.55326479,10.6639751 5,11.11341 5,11.6666667 C5,12.1795025 4.61395981,12.6021738 4.11662113,12.6599389 L4,12.6666667 C2.40231912,12.6666667 1.09633912,11.4177467 1.00509269,9.84293945 L1,9.66666667 L1,5 C1,3.40231912 2.24891996,2.09633912 3.82372721,2.00509269 L4,2 L12,2 Z" id="形状结合" fill-opacity="0.75" fill="#262626"></path>
                    <path d="M7.85112206,5.41576187 C9.17663474,5.41576187 10.2611631,6.44726969 10.3458045,7.75138281 L10.3511221,7.91576187 L9.35112206,7.91576187 C9.35112206,7.08730424 8.67957969,6.41576187 7.85112206,6.41576187 C7.07139724,6.41576187 6.43067001,7.01062293 6.35798834,7.77129709 L6.35112206,7.91576187 L5.35112206,7.91576187 C5.35112206,6.53501949 6.47037969,5.41576187 7.85112206,5.41576187 Z" id="路径" fill-opacity="0.75" fill="#262626"></path>
                </g>
            </g>
        </g>
    </g>
</svg>