<?xml version="1.0" encoding="UTF-8"?>
<svg width="16px" height="16px" viewBox="0 0 16 16" version="1.1" xmlns="http://www.w3.org/2000/svg" xmlns:xlink="http://www.w3.org/1999/xlink">
    <title>finger</title>
    <g id="Icon" stroke="none" stroke-width="1" fill="none" fill-rule="evenodd">
        <g id="Icon-Sets" transform="translate(-1076.000000, -2458.000000)">
            <g id="编组-9" transform="translate(0.000000, 2401.000000)">
                <g id="-Round-/-Content-/-create" transform="translate(1076.000000, 57.000000)">
                    <polygon id="Path" points="0 0 16 0 16 16 0 16"></polygon>
                    <path d="M1,14.6356065 C1,14.8396668 1.16033316,15 1.36439355,15 L3.0591848,14.9250092 C3.55823369,14.9029274 4.03095341,14.6948898 4.38434132,14.3418255 L11.0859062,7.64639758 C11.476933,7.25637621 11.4772231,6.6232113 11.0868777,6.23250815 C11.0867698,6.23240013 11.0866618,6.23229213 11.08623,6.232508 L9.767492,4.91376998 C9.37696771,4.52324569 8.74380273,4.52324569 8.35327843,4.91376998 L1.65890461,11.6081438 C1.30539157,11.9616568 1.09709658,12.4347507 1.0750617,12.9342078 L1,14.6356065 L1,14.6356065 Z M14.2928932,3.02584481 L12.9741552,1.70710678 C12.5836309,1.31658249 11.9504659,1.31658249 11.5599416,1.70710678 L10.5472942,2.71975423 C10.1567699,3.11027852 10.1567699,3.7434435 10.5472942,4.13396779 L11.8660322,5.45270582 C12.2565565,5.84323011 12.8897215,5.84323011 13.2802458,5.45270582 L14.2928932,4.44005837 C14.6834175,4.04953408 14.6834175,3.4163691 14.2928932,3.02584481 Z" id="🔹Icon-Color" fill="#FFFFFF" fill-rule="nonzero"></path>
                </g>
            </g>
        </g>
    </g>
</svg>