<?xml version="1.0" encoding="utf-8"?>
<!-- Generator: Adobe Illustrator 24.2.1, SVG Export Plug-In . SVG Version: 6.00 Build 0)  -->
<svg version="1.1" id="图层_1" xmlns="http://www.w3.org/2000/svg" xmlns:xlink="http://www.w3.org/1999/xlink" x="0px" y="0px"
	 viewBox="0 0 24 24" style="enable-background:new 0 0 24 24;" xml:space="preserve">
<style type="text/css">
	.st0{fill:#7E7E7E;}
</style>
<path class="st0" d="M15,3.5v2.1c2.9,1.2,5,4.1,5,7.4c0,4.4-3.6,8-8,8s-8-3.6-8-8c0-3.3,2.1-6.2,5-7.4V3.5c-4.1,1.2-7,5-7,9.5
	c0,5.5,4.5,10,10,10s10-4.5,10-10C22,8.5,19.1,4.7,15,3.5z"/>
<path class="st0" d="M12,13L12,13c-0.6,0-1-0.4-1-1V2c0-0.6,0.4-1,1-1l0,0c0.6,0,1,0.4,1,1v10C13,12.6,12.6,13,12,13z"/>
</svg>
