<svg id="图层_1" data-name="图层 1" xmlns="http://www.w3.org/2000/svg" viewBox="0 0 24 24"><defs><style>.cls-1{fill:#404040;}.cls-2{fill:none;stroke:#404040;stroke-miterlimit:10;stroke-width:2px;}</style></defs><title>printer</title><path class="cls-1" d="M20,9H4a3,3,0,0,0-3,3v4a3,3,0,0,0,3,3H6V17H4a1,1,0,0,1-1-1V12a1,1,0,0,1,1-1H20a1,1,0,0,1,1,1v4a1,1,0,0,1-1,1H18v2h2a3,3,0,0,0,3-3V12A3,3,0,0,0,20,9Z"/><path class="cls-1" d="M18,15H6a2,2,0,0,0-2,2v3a3,3,0,0,0,3,3H17a3,3,0,0,0,3-3V17A2,2,0,0,0,18,15ZM6,20V17H18v3a1,1,0,0,1-1,1H7A1,1,0,0,1,6,20Z"/><rect class="cls-2" x="6" y="2" width="12" height="8"/><rect class="cls-1" x="17" y="12" width="2" height="2"/></svg>