<?xml version="1.0" encoding="UTF-8"?>
<svg  viewBox="0 0 16 16" version="1.1" xmlns="http://www.w3.org/2000/svg" xmlns:xlink="http://www.w3.org/1999/xlink">
    <title>printer</title>
    <g id="Icon" stroke="none" stroke-width="1" fill="none" fill-rule="evenodd">
        <g id="Icon-Sets" transform="translate(-884.000000, -2489.000000)">
            <g id="编组-9" transform="translate(0.000000, 2399.000000)">
                <g id="printer-selected" transform="translate(884.000000, 90.000000)">
                    <rect id="矩形" fill="#000000" fill-rule="nonzero" opacity="0" x="0" y="0" width="16" height="16"></rect>
                    <path d="M12.4361148,5 C13.3276335,5 13.6509198,5.09282561 13.9768457,5.2671327 C14.3027716,5.4414398 14.5585602,5.69722837 14.7328673,6.0231543 C14.9071744,6.34908022 15,6.67236646 15,7.5638852 L15,9.4361148 C15,10.3276335 14.9071744,10.6509198 14.7328673,10.9768457 C14.5585602,11.3027716 14.3027716,11.5585602 13.9768457,11.7328673 C13.7314935,11.8640831 13.4876372,11.9491245 13.001747,11.9831522 L13,9.2819426 C13,8.83618323 12.9535872,8.67454011 12.8664336,8.51157715 C12.7792801,8.34861419 12.6513858,8.2207199 12.4884229,8.13356635 C12.3458303,8.057307 12.2042482,8.01223978 11.8724567,8.00216452 L11.7180574,8 L4.2819426,8 C3.83618323,8 3.67454011,8.04641281 3.51157715,8.13356635 C3.34861419,8.2207199 3.2207199,8.34861419 3.13356635,8.51157715 C3.057307,8.65416974 3.01223978,8.79575183 3.00216452,9.12754329 L3,9.2819426 L2.99928062,11.9832241 C2.51270652,11.9492443 2.2686794,11.8641756 2.0231543,11.7328673 C1.69722837,11.5585602 1.4414398,11.3027716 1.2671327,10.9768457 C1.09282561,10.6509198 1,10.3276335 1,9.4361148 L1,7.5638852 C1,6.67236646 1.09282561,6.34908022 1.2671327,6.0231543 C1.4414398,5.69722837 1.69722837,5.4414398 2.0231543,5.2671327 C2.34908022,5.09282561 2.67236646,5 3.5638852,5 L12.4361148,5 Z M12.5,6 L11.5,6 C11.2238576,6 11,6.22385763 11,6.5 C11,6.77614237 11.2238576,7 11.5,7 L11.5,7 L12.5,7 C12.7761424,7 13,6.77614237 13,6.5 C13,6.22385763 12.7761424,6 12.5,6 L12.5,6 Z" id="形状结合" fill-opacity="0.75" fill="#262626"></path>
                    <path d="M5.2819426,2 L10.7180574,2 C11.1638168,2 11.3254599,2.04641281 11.4884229,2.13356635 C11.6513858,2.2207199 11.7792801,2.34861419 11.8664336,2.51157715 C11.9535872,2.67454011 12,2.83618323 12,3.2819426 L12,4 L12,4 L4,4 L4,3.2819426 C4,2.83618323 4.04641281,2.67454011 4.13356635,2.51157715 C4.2207199,2.34861419 4.34861419,2.2207199 4.51157715,2.13356635 C4.67454011,2.04641281 4.83618323,2 5.2819426,2 Z" id="矩形备份" fill-opacity="0.75" fill="#262626"></path>
                    <path d="M5.2819426,9 L10.7180574,9 C11.1638168,9 11.3254599,9.04641281 11.4884229,9.13356635 C11.6513858,9.2207199 11.7792801,9.34861419 11.8664336,9.51157715 C11.9535872,9.67454011 12,9.83618323 12,10.2819426 L12,12.7180574 C12,13.1638168 11.9535872,13.3254599 11.8664336,13.4884229 C11.7792801,13.6513858 11.6513858,13.7792801 11.4884229,13.8664336 C11.3254599,13.9535872 11.1638168,14 10.7180574,14 L5.2819426,14 C4.83618323,14 4.67454011,13.9535872 4.51157715,13.8664336 C4.34861419,13.7792801 4.2207199,13.6513858 4.13356635,13.4884229 C4.04641281,13.3254599 4,13.1638168 4,12.7180574 L4,10.2819426 C4,9.83618323 4.04641281,9.67454011 4.13356635,9.51157715 C4.2207199,9.34861419 4.34861419,9.2207199 4.51157715,9.13356635 C4.67454011,9.04641281 4.83618323,9 5.2819426,9 Z" id="矩形备份-2" fill-opacity="0.75" fill="#262626"></path>
                </g>
            </g>
        </g>
    </g>
</svg>