<?xml version="1.0" encoding="utf-8"?>
<!-- Generator: Adobe Illustrator 24.2.1, SVG Export Plug-In . SVG Version: 6.00 Build 0)  -->
<svg version="1.1" id="图层_1" xmlns="http://www.w3.org/2000/svg" xmlns:xlink="http://www.w3.org/1999/xlink" x="0px" y="0px"
	 viewBox="0 0 24 24" style="enable-background:new 0 0 24 24;" xml:space="preserve">
<style type="text/css">
	.st0{fill:#7E7E7E;}
	.st1{fill:none;stroke:#7E7E7E;stroke-width:2;stroke-miterlimit:10;}
</style>
<path class="st0" d="M20,9H4c-1.7,0-3,1.3-3,3v4c0,1.7,1.3,3,3,3h2v-2H4c-0.6,0-1-0.4-1-1v-4c0-0.6,0.4-1,1-1h16c0.6,0,1,0.4,1,1v4
	c0,0.6-0.4,1-1,1h-2v2h2c1.7,0,3-1.3,3-3v-4C23,10.3,21.7,9,20,9z"/>
<path class="st0" d="M18,15H6c-1.1,0-2,0.9-2,2v3c0,1.7,1.3,3,3,3h10c1.7,0,3-1.3,3-3v-3C20,15.9,19.1,15,18,15z M6,20v-3h12v3
	c0,0.6-0.4,1-1,1H7C6.4,21,6,20.6,6,20z"/>
<rect x="6" y="2" class="st1" width="12" height="8"/>
<rect x="17" y="12" class="st0" width="2" height="2"/>
</svg>
