<svg id="图层_1" data-name="图层 1" xmlns="http://www.w3.org/2000/svg" viewBox="0 0 24 24"><defs><style>.cls-1{fill:#fff;}.cls-2{fill:none;}</style></defs><title>printerWhite</title><polygon class="cls-1" points="7 2 7 4 7 10 17 10 17 4 17 2 7 2"/><path class="cls-2" d="M7,22H17a1,1,0,0,0,1-1V20H6v1A1,1,0,0,0,7,22Z"/><path class="cls-1" d="M21,10H19v2H5V10H3a2,2,0,0,0-2,2v6a2,2,0,0,0,2,2H4V18a2,2,0,0,1,2-2H18a2,2,0,0,1,2,2v2h1a2,2,0,0,0,2-2V12A2,2,0,0,0,21,10Zm-2,5H17V13h2Z"/><path class="cls-1" d="M7,22H17a1,1,0,0,0,1-1V18H6v3A1,1,0,0,0,7,22Z"/></svg>