<?xml version="1.0" encoding="utf-8"?>
<!-- Generator: Adobe Illustrator 24.0.0, SVG Export Plug-In . SVG Version: 6.00 Build 0)  -->
<svg version="1.1" id="图层_1" xmlns="http://www.w3.org/2000/svg" xmlns:xlink="http://www.w3.org/1999/xlink" x="0px" y="0px"
	 viewBox="0 0 16 16" style="enable-background:new 0 0 16 16;" xml:space="preserve">
<style type="text/css">
	.st0{fill:#262626;}
</style>
<g>
	<path class="st0" d="M13,6c0.6,0,1,0.4,1,1v6c0,0.6-0.4,1-1,1h-2c-0.6,0-1-0.4-1-1V7c0-0.6,0.4-1,1-1H13 M13,5h-2C9.9,5,9,5.9,9,7
		v6c0,1.1,0.9,2,2,2h2c1.1,0,2-0.9,2-2V7C15,5.9,14.1,5,13,5L13,5z"/>
</g>
<path class="st0" d="M8,10H2.9C2.4,10,2,9.6,2,9.1V3.9C2,3.4,2.4,3,2.9,3h8.3C11.6,3,12,3.4,12,3.9V4h1V3.9c0-1-0.8-1.9-1.9-1.9H2.9
	C1.8,2,1,2.8,1,3.9v5.3c0,1,0.8,1.9,1.9,1.9H6v2H3v1h5V10z"/>
</svg>
