<?xml version="1.0" standalone="no"?><!DOCTYPE svg PUBLIC "-//W3C//DTD SVG 1.1//EN" "http://www.w3.org/Graphics/SVG/1.1/DTD/svg11.dtd"><svg class="icon" style="width: 5em; height: 5em;vertical-align: middle;fill: currentColor;overflow: hidden;" viewBox="0 0 1024 1024" version="1.1" xmlns="http://www.w3.org/2000/svg"><path d="M853.015273 814.545455h-161.419637a34.909091 34.909091 0 0 1 0-69.818182h161.419637A54.690909 54.690909 0 0 0 907.636364 690.106182V264.075636A54.690909 54.690909 0 0 0 853.015273 209.454545H170.961455A54.667636 54.667636 0 0 0 116.363636 264.075636v426.030546A54.667636 54.667636 0 0 0 170.961455 744.727273h141.358545a34.909091 34.909091 0 0 1 0 69.818182H170.961455A124.555636 124.555636 0 0 1 46.545455 690.106182V264.075636A124.555636 124.555636 0 0 1 170.961455 139.636364h682.053818A124.578909 124.578909 0 0 1 977.454545 264.075636v426.030546A124.578909 124.578909 0 0 1 853.015273 814.545455zM674.909091 907.636364H349.090909l162.909091-209.454546 162.909091 209.454546z" fill="#FFFFFF" /></svg>
