<?xml version="1.0" encoding="UTF-8"?>
<svg viewBox="0 0 16 16" version="1.1" xmlns="http://www.w3.org/2000/svg" xmlns:xlink="http://www.w3.org/1999/xlink">
    <title>display-selected</title>
    <g id="Icon" stroke="none" stroke-width="1" fill="none" fill-rule="evenodd">
        <g id="Icon-Sets" transform="translate(-836.000000, -1697.000000)">
            <g id="编组-9" transform="translate(0.000000, 1640.000000)">
                <g id="display-selected" transform="translate(836.000000, 57.000000)">
                    <rect id="矩形" fill="#000000" fill-rule="nonzero" opacity="0" x="0" y="0" width="16" height="16"></rect>
                    <path d="M13,2 C14.1045695,2 15,2.8954305 15,4 L15,12 L1,12 L1,4 C1,2.8954305 1.8954305,2 3,2 L13,2 Z M8,4 C6.34314575,4 5,5.34314575 5,7 C5,8.65685425 6.34314575,10 8,10 C9.65685425,10 11,8.65685425 11,7 C11,5.34314575 9.65685425,4 8,4 Z" id="形状结合" fill="#FFFFFF" fill-rule="nonzero"></path>
                    <path d="M16,12 L16,13 C16,13.5522847 15.5522847,14 15,14 L1,14 C0.44771525,14 6.76353751e-17,13.5522847 0,13 L0,12 L6,12 L6,12.3590287 C6,12.5447618 6.01611556,12.6318434 6.04670545,12.7028649 L6.06678318,12.7442114 C6.11035995,12.8256929 6.17430709,12.8896401 6.25578857,12.9332168 C6.33727006,12.9767936 6.41809162,13 6.6409713,13 L6.6409713,13 L9.3590287,13 C9.58190838,13 9.66272994,12.9767936 9.74421143,12.9332168 C9.82569291,12.8896401 9.88964005,12.8256929 9.93321682,12.7442114 C9.9767936,12.6627299 10,12.5819084 10,12.3590287 L10,12.3590287 L10,12 L16,12 Z" id="形状结合" fill="#FFFFFF" fill-rule="nonzero"></path>
                    <path d="M8,5 C9.1045695,5 10,5.8954305 10,7 C10,8.1045695 9.1045695,9 8,9 L8,5 L8,5 Z" id="形状结合" fill="#FFFFFF"></path>
                </g>
            </g>
        </g>
    </g>
</svg>