<svg id="图层_1" data-name="图层 1" xmlns="http://www.w3.org/2000/svg" viewBox="0 0 24 24"><defs><style>.cls-1{fill:#404040;}</style></defs><title>screenlock</title><path class="cls-1" d="M20,2H4A3,3,0,0,0,1,5V16a3,3,0,0,0,3,3H7V17H4a1,1,0,0,1-1-1V5A1,1,0,0,1,4,4H20a1,1,0,0,1,1,1V18.82A3,3,0,0,0,23,16V5A3,3,0,0,0,20,2Z"/><path class="cls-1" d="M19,13H18V9a1,1,0,0,0-1-1H11a1,1,0,0,0-1,1v4H9a2,2,0,0,0-2,2v5a2,2,0,0,0,2,2H19a2,2,0,0,0,2-2V15A2,2,0,0,0,19,13Zm-7-3h4v3H12Zm7,6v4H9V15H19Z"/><rect class="cls-1" x="9" y="2" width="2" height="2"/></svg>