<?xml version="1.0" encoding="utf-8"?>
<!-- Generator: Adobe Illustrator 24.2.1, SVG Export Plug-In . SVG Version: 6.00 Build 0)  -->
<svg version="1.1" id="图层_1" xmlns="http://www.w3.org/2000/svg" xmlns:xlink="http://www.w3.org/1999/xlink" x="0px" y="0px"
	 viewBox="0 0 24 24" style="enable-background:new 0 0 24 24;" xml:space="preserve">
<style type="text/css">
	.st0{fill:none;stroke:#7E7E7E;stroke-width:2;stroke-miterlimit:10;}
	.st1{fill:none;stroke:#7E7E7E;stroke-width:2;stroke-linecap:round;stroke-linejoin:round;stroke-miterlimit:10;}
	.st2{fill:#7E7E7E;}
</style>
<path class="st0" d="M21,20H3c-0.5,0-1-0.5-1-1V5c0-0.6,0.5-1,1-1h18c0.5,0,1,0.4,1,1v14C22,19.5,21.5,20,21,20z"/>
<path class="st1" d="M14.2,8c0.4,0.6,0.6,1.2,0.6,2c0,2.2-1.9,4-4.3,4c-0.2,0-0.3,0-0.5,0c0.7,1.2,2.1,2.1,3.7,2.1
	c2.4,0,4.3-1.8,4.3-4S16.3,8.2,14.2,8z"/>
<path class="st2" d="M7,11L7,11c-1.1,0-2-0.9-2-2l0,0c0-1.1,0.9-2,2-2l0,0c1.1,0,2,0.9,2,2l0,0C9,10.1,8.1,11,7,11z"/>
</svg>
