<?xml version="1.0" encoding="utf-8"?>
<!-- Generator: Adobe Illustrator 24.0.0, SVG Export Plug-In . SVG Version: 6.00 Build 0)  -->
<svg version="1.1" id="图层_3" xmlns="http://www.w3.org/2000/svg" xmlns:xlink="http://www.w3.org/1999/xlink" x="0px" y="0px"
	 viewBox="0 0 16 16" style="enable-background:new 0 0 16 16;" xml:space="preserve">
<style type="text/css">
	.st0{fill:#262626;}
	.st1{fill:none;stroke:#262626;stroke-linecap:round;stroke-miterlimit:10;}
</style>
<g>
	<path class="st0" d="M14,10C14,10,13.9,10,14,10l-4.9,0C8.5,10,8,10.5,8,11.1v2.8c0,0,0,0.1,0,0.1c0,0.6,0.5,1,1.1,1h3.8h1
		c0.6,0,1.1-0.5,1.1-1.1v0v-2.8C15,10.5,14.6,10.1,14,10z M14,13.9L14,13.9C14,14,14,14,14,13.9L12.9,14H9.1C9,14,9,14,9,13.9v-2.8
		C9,11,9,11,9.1,11h4.8c0,0,0.1,0,0.1,0.1V13.9z"/>
	<g>
		<path class="st0" d="M12.5,9C12.8,9,13,9.2,13,9.5S12.8,10,12.5,10h-2C10.2,10,10,9.8,10,9.5S10.2,9,10.5,9H12.5 M12.5,8h-2
			C9.7,8,9,8.7,9,9.5S9.7,11,10.5,11h2c0.8,0,1.5-0.7,1.5-1.5S13.3,8,12.5,8L12.5,8z"/>
	</g>
	<path class="st1" d="M6.5,13.5h-3c-1.1,0-2-0.9-2-2v-7c0-1.1,0.9-2,2-2h9c1.1,0,2,0.9,2,2v3"/>
</g>
</svg>
