<?xml version="1.0" encoding="utf-8"?>
<!-- Generator: Adobe Illustrator 24.0.2, SVG Export Plug-In . SVG Version: 6.00 Build 0)  -->
<!DOCTYPE svg PUBLIC "-//W3C//DTD SVG 1.1//EN" "http://www.w3.org/Graphics/SVG/1.1/DTD/svg11.dtd" [
	<!ENTITY ns_extend "http://ns.adobe.com/Extensibility/1.0/">
	<!ENTITY ns_ai "http://ns.adobe.com/AdobeIllustrator/10.0/">
	<!ENTITY ns_graphs "http://ns.adobe.com/Graphs/1.0/">
	<!ENTITY ns_vars "http://ns.adobe.com/Variables/1.0/">
	<!ENTITY ns_imrep "http://ns.adobe.com/ImageReplacement/1.0/">
	<!ENTITY ns_sfw "http://ns.adobe.com/SaveForWeb/1.0/">
	<!ENTITY ns_custom "http://ns.adobe.com/GenericCustomNamespace/1.0/">
	<!ENTITY ns_adobe_xpath "http://ns.adobe.com/XPath/1.0/">
]>
<svg version="1.1" id="图层_1" xmlns:x="&ns_extend;" xmlns:i="&ns_ai;" xmlns:graph="&ns_graphs;"
	 xmlns="http://www.w3.org/2000/svg" xmlns:xlink="http://www.w3.org/1999/xlink" x="0px" y="0px" viewBox="0 0 24 24"
	 enable-background="new 0 0 24 24" xml:space="preserve">
<metadata>
	<sfw  xmlns="&ns_sfw;">
		<slices></slices>
		<sliceSourceBounds  bottomLeftOrigin="true" height="1298" width="1504" x="-206" y="-620"></sliceSourceBounds>
	</sfw>
</metadata>
<path fill="#404040" d="M20,2H4C2.3,2,1,3.3,1,5v11c0,1.7,1.3,3,3,3h3v-2H4c-0.6,0-1-0.4-1-1V5c0-0.6,0.4-1,1-1h16c0.6,0,1,0.4,1,1
	v11v2.8c1.2-0.4,2-1.5,2-2.8V5C23,3.3,21.7,2,20,2z"/>
<path fill="#404040" d="M19,13h-1V9c0-0.6-0.4-1-1-1h-6c-0.6,0-1,0.4-1,1v4H9c-1.1,0-2,0.9-2,2v1v2v2c0,1.1,0.9,2,2,2h10
	c1.1,0,2-0.9,2-2v-2.2V15C21,13.9,20.1,13,19,13z M12,10h4v3h-4V10z M19,16l0,2l0,2H9v-2v-2v-1h2h6h2L19,16z"/>
<rect x="9" y="2" fill="#404040" width="2" height="2"/>
</svg>
