<svg id="图层_1" data-name="图层 1" xmlns="http://www.w3.org/2000/svg" viewBox="0 0 24 24"><defs><style>.cls-1{fill:#fff;}</style></defs><title>screensaverWhite</title><path class="cls-1" d="M15.78,9.64c0,.11,0,.22,0,.32a5.05,5.05,0,0,1-3.5,4.73,3.47,3.47,0,0,0,1.43.31A3.16,3.16,0,0,0,17,12,2.9,2.9,0,0,0,15.78,9.64Z"/><path class="cls-1" d="M21,3H3A2,2,0,0,0,1,5V19a2,2,0,0,0,2,2H21a2,2,0,0,0,2-2V5A2,2,0,0,0,21,3ZM7,11A2,2,0,1,1,9,9,2,2,0,0,1,7,11Zm6.72,6a5.36,5.36,0,0,1-4.58-2.54,1,1,0,0,1,0-1.06,1,1,0,0,1,.95-.45h.15l.24,0a3.17,3.17,0,0,0,3.29-3,2.77,2.77,0,0,0-.43-1.44,1,1,0,0,1,0-1.06A1,1,0,0,1,14.33,7,5.11,5.11,0,0,1,19,12,5.16,5.16,0,0,1,13.72,17Z"/></svg>