<?xml version="1.0" encoding="utf-8"?>
<!-- Generator: Adobe Illustrator 24.2.1, SVG Export Plug-In . SVG Version: 6.00 Build 0)  -->
<svg version="1.1" id="图层_1" xmlns="http://www.w3.org/2000/svg" xmlns:xlink="http://www.w3.org/1999/xlink" x="0px" y="0px"
	 viewBox="0 0 24 24" style="enable-background:new 0 0 24 24;" xml:space="preserve">
<style type="text/css">
	.st0{fill:#7E7E7E;}
</style>
<path class="st0" d="M20,2H4C2.3,2,1,3.3,1,5v11c0,1.7,1.3,3,3,3h3v-2H4c-0.6,0-1-0.4-1-1V5c0-0.6,0.4-1,1-1h16c0.6,0,1,0.4,1,1v11
	v2.8c1.2-0.4,2-1.5,2-2.8V5C23,3.3,21.7,2,20,2z"/>
<path class="st0" d="M19,13h-1V9c0-0.6-0.4-1-1-1h-6c-0.6,0-1,0.4-1,1v4H9c-1.1,0-2,0.9-2,2v1v2v2c0,1.1,0.9,2,2,2h10
	c1.1,0,2-0.9,2-2v-2.2V15C21,13.9,20.1,13,19,13z M12,10h4v3h-4V10z M19,16v2v2H9v-2v-2v-1h2h6h2V16z"/>
<rect x="9" y="2" class="st0" width="2" height="2"/>
</svg>
