<?xml version="1.0" encoding="utf-8"?>
<!-- Generator: Adobe Illustrator 24.0.0, SVG Export Plug-In . SVG Version: 6.00 Build 0)  -->
<svg version="1.1" id="放大镜" xmlns="http://www.w3.org/2000/svg" xmlns:xlink="http://www.w3.org/1999/xlink" x="0px" y="0px"
	 viewBox="0 0 16 16" style="enable-background:new 0 0 16 16;" xml:space="preserve">
<style type="text/css">
	.st0{fill:#FFFFFF;enable-background:new    ;}
	.st1{fill:#262626;enable-background:new    ;}
</style>
<path class="st0" d="M12.4,11.7c2.3-2.7,2-6.8-0.7-9.2s-6.8-2-9.2,0.7s-2,6.8,0.7,9.2c2.4,2.1,6,2.1,8.4,0l2.6,2.6l0.7-0.7
	L12.4,11.7z M7.5,13C4.5,13,2,10.6,2,7.5S4.4,2,7.4,2c3,0,5.5,2.4,5.5,5.5c0,1.3-0.4,2.5-1.3,3.5c-0.2,0.3-0.4,0.5-0.7,0.7
	C10,12.5,8.8,13,7.5,13z"/>
</svg>
