<?xml version="1.0" encoding="utf-8"?>
<!-- Generator: Adobe Illustrator 24.0.0, SVG Export Plug-In . SVG Version: 6.00 Build 0)  -->
<svg version="1.1" id="图层_2" xmlns="http://www.w3.org/2000/svg" xmlns:xlink="http://www.w3.org/1999/xlink" x="0px" y="0px"
	 viewBox="0 0 16 16" style="enable-background:new 0 0 16 16;" xml:space="preserve">
<style type="text/css">
	.st0{fill:#262626;}
</style>
<g>
	<g>
		<path class="st0" d="M8,2.1c1.1,1,2.9,2.1,5,2.2l-0.3,3.9C12.5,11.6,8.8,13.9,8,14c-0.9-0.1-4.4-2.5-4.7-5.9L3,4.3
			C5.1,4.2,6.9,3.1,8,2.1 M8,1C8,1,8,1,8,1C8,1,8,1,8,1C8,1,8,1,8,1L8,1z M8,1C8,1,8,1,8,1C8,1,8,1,8,1C8,1,8,1,8,1L8,1z M8,1
			C8,1,8,1,8,1C8,1,8,1,8,1L8,1z M8,1C8,1,8,1,8,1C8,1,8,1,8,1L8,1z M8,1C7.8,1,7.6,1.1,7.5,1.2c-0.9,0.9-2.6,2-4.7,2c0,0,0,0,0,0
			c0,0,0,0,0,0C2.4,3.3,2,3.6,2,4l0.3,4.2C2.6,12.3,6.8,15,8,15c1.2,0,5.4-2.8,5.7-6.8L14,4c0-0.4-0.4-0.8-0.8-0.8c0,0,0,0,0,0
			c0,0,0,0,0,0c-2,0-3.8-1.2-4.7-2C8.4,1.1,8.2,1,8,1L8,1z M8,15C8,15,8,15,8,15C8,15,8,15,8,15L8,15z M8,15C8,15,8,15,8,15
			C8,15,8,15,8,15L8,15z"/>
	</g>
</g>
</svg>
