<svg id="图层_1" data-name="图层 1" xmlns="http://www.w3.org/2000/svg" viewBox="0 0 24 24"><title>safe_center</title><g opacity="0.85"><path d="M12,3.3a13.3,13.3,0,0,0,7.4,3.2L19,12.2c-.3,4.9-5.5,8.5-7,8.8s-6.6-3.6-7-8.9L4.6,6.5A13.3,13.3,0,0,0,12,3.3M12,1Zm0,0Zm0,0Zm0,0Zm0,0a1.1,1.1,0,0,0-.8.3A11.1,11.1,0,0,1,3.8,4.5H3.7A1.3,1.3,0,0,0,2.5,5.7L3,12.3c.5,6.4,7,10.6,9,10.7s8.6-4.4,9-10.7l.5-6.6a1.3,1.3,0,0,0-1.2-1.2h-.1a11.1,11.1,0,0,1-7.4-3.2A1.1,1.1,0,0,0,12,1Zm0,22Zm0,0Z"/></g><path d="M15.5,9.2,17,7.7H15.1l-.5.6-.9.8-.2.2L12,10.9,10.5,9.3l-.2-.2-.9-.9-.5-.5H7L8.4,9.2h0a4.5,4.5,0,0,0-.9,2.8A4.6,4.6,0,0,0,12,16.7a4.5,4.5,0,0,0,4.4-4.6,5.1,5.1,0,0,0-.8-2.8A.1.1,0,0,1,15.5,9.2ZM12,15.5a3.4,3.4,0,0,1-3.3-3.4,3.2,3.2,0,0,1,.6-2L11,11.9l1,1,1-1,1.7-1.8a3.4,3.4,0,0,1,.6,2A3.4,3.4,0,0,1,12,15.5Z" stroke="#000" stroke-width="0.6" opacity="0.85"/></svg>