<svg id="图层_1" data-name="图层 1" xmlns="http://www.w3.org/2000/svg" viewBox="0 0 24 24"><title>safe_center_white</title><path d="M12,13.4,9.3,10.6A3.3,3.3,0,0,0,9,12.1a3,3,0,0,0,3,3.1,3.1,3.1,0,0,0,3-3.1,3.7,3.7,0,0,0-.4-1.5Z" fill="#fff"/><path d="M20.2,4.5h0a11.1,11.1,0,0,1-7.4-3.2,1.2,1.2,0,0,0-1.6,0A11.1,11.1,0,0,1,3.8,4.5h0A1.3,1.3,0,0,0,2.5,5.7L3,12.3c.5,6.4,7,10.6,9,10.7s8.6-4.4,9-10.7l.5-6.6A1.3,1.3,0,0,0,20.2,4.5ZM15.9,9.3a5.4,5.4,0,0,1,.8,2.8A4.8,4.8,0,0,1,12,17a4.9,4.9,0,0,1-4.8-4.9,4.5,4.5,0,0,1,.9-2.8L6.3,7.4H9l3,3.1,3-3.1h2.7Z" fill="#fff"/></svg>