<svg id="图层_1" data-name="图层 1" xmlns="http://www.w3.org/2000/svg" viewBox="0 0 24 24"><defs><style>.cls-1{fill:#fff;}</style></defs><title>shortcutWhite</title><rect class="cls-1" x="14" y="14" width="2" height="2"/><path class="cls-1" d="M20,1H4A3,3,0,0,0,1,4V20a3,3,0,0,0,3,3H20a3,3,0,0,0,3-3V4A3,3,0,0,0,20,1ZM11,11H7a1,1,0,0,1-1-1V6A1,1,0,0,1,7,5h4a1,1,0,0,1,1,1v4A1,1,0,0,1,11,11Zm7,6a1,1,0,0,1-1,1H13a1,1,0,0,1-1-1V13a1,1,0,0,1,1-1h4a1,1,0,0,1,1,1Z"/><rect class="cls-1" x="8" y="7" width="2" height="2"/></svg>