<?xml version="1.0" encoding="utf-8"?>
<!-- Generator: Adobe Illustrator 24.0.0, SVG Export Plug-In . SVG Version: 6.00 Build 0)  -->
<svg version="1.1" id="图层_1" xmlns="http://www.w3.org/2000/svg" xmlns:xlink="http://www.w3.org/1999/xlink" x="0px" y="0px"
	 viewBox="0 0 16 16" style="enable-background:new 0 0 16 16;" xml:space="preserve">
<style type="text/css">
	.st0{fill:#262626;}
</style>
<g>
	<g>
		<g>
			<path class="st0" d="M12,2c1.1,0,2,0.9,2,2v8c0,1.1-0.9,2-2,2H4c-1.1,0-2-0.9-2-2V4c0-1.1,0.9-2,2-2H12 M12,1H4C2.3,1,1,2.3,1,4
				v8c0,1.7,1.3,3,3,3h8c1.7,0,3-1.3,3-3V4C15,2.3,13.7,1,12,1L12,1z"/>
		</g>
	</g>
	<g>
		<path class="st0" d="M6.7,5C6.9,5,7,5.1,7,5.3v1.3C7,6.9,6.9,7,6.7,7H5.3C5.1,7,5,6.9,5,6.7V5.3C5,5.1,5.1,5,5.3,5H6.7 M6.7,4H5.3
			C4.6,4,4,4.6,4,5.3v1.3C4,7.4,4.6,8,5.3,8h1.3C7.4,8,8,7.4,8,6.7V5.3C8,4.6,7.4,4,6.7,4L6.7,4z"/>
	</g>
	<g>
		<path class="st0" d="M10.7,9C10.9,9,11,9.1,11,9.3v1.3c0,0.2-0.1,0.3-0.3,0.3H9.3C9.1,11,9,10.9,9,10.7V9.3C9,9.1,9.1,9,9.3,9
			H10.7 M10.7,8H9.3C8.6,8,8,8.6,8,9.3v1.3C8,11.4,8.6,12,9.3,12h1.3c0.7,0,1.3-0.6,1.3-1.3V9.3C12,8.6,11.4,8,10.7,8L10.7,8z"/>
	</g>
</g>
</svg>
