<?xml version="1.0" encoding="utf-8"?>
<!-- Generator: Adobe Illustrator 24.0.2, SVG Export Plug-In . SVG Version: 6.00 Build 0)  -->
<!DOCTYPE svg PUBLIC "-//W3C//DTD SVG 1.1//EN" "http://www.w3.org/Graphics/SVG/1.1/DTD/svg11.dtd" [
	<!ENTITY ns_extend "http://ns.adobe.com/Extensibility/1.0/">
	<!ENTITY ns_ai "http://ns.adobe.com/AdobeIllustrator/10.0/">
	<!ENTITY ns_graphs "http://ns.adobe.com/Graphs/1.0/">
	<!ENTITY ns_vars "http://ns.adobe.com/Variables/1.0/">
	<!ENTITY ns_imrep "http://ns.adobe.com/ImageReplacement/1.0/">
	<!ENTITY ns_sfw "http://ns.adobe.com/SaveForWeb/1.0/">
	<!ENTITY ns_custom "http://ns.adobe.com/GenericCustomNamespace/1.0/">
	<!ENTITY ns_adobe_xpath "http://ns.adobe.com/XPath/1.0/">
]>
<svg version="1.1" id="图层_1" xmlns:x="&ns_extend;" xmlns:i="&ns_ai;" xmlns:graph="&ns_graphs;"
	 xmlns="http://www.w3.org/2000/svg" xmlns:xlink="http://www.w3.org/1999/xlink" x="0px" y="0px" viewBox="0 0 24 24"
	 enable-background="new 0 0 24 24" xml:space="preserve">
<metadata>
	<sfw  xmlns="&ns_sfw;">
		<slices></slices>
		<sliceSourceBounds  bottomLeftOrigin="true" height="1298" width="1504" x="-206" y="-620"></sliceSourceBounds>
	</sfw>
</metadata>
<g>
	<rect x="14" y="14" fill="#FFFFFF" width="2" height="2"/>
	<path fill="#FFFFFF" d="M20,1H4C2.3,1,1,2.3,1,4v16c0,1.7,1.3,3,3,3h16c1.7,0,3-1.3,3-3V4C23,2.3,21.7,1,20,1z M11,11H7
		c-0.6,0-1-0.4-1-1V6c0-0.6,0.4-1,1-1h4c0.6,0,1,0.4,1,1v4C12,10.6,11.6,11,11,11z M18,17c0,0.6-0.4,1-1,1h-4c-0.6,0-1-0.4-1-1v-4
		c0-0.6,0.4-1,1-1h4c0.6,0,1,0.4,1,1V17z"/>
	<rect x="8" y="7" fill="#FFFFFF" width="2" height="2"/>
</g>
</svg>
