<?xml version="1.0" encoding="UTF-8"?>
<svg width="16px" height="16px" viewBox="0 0 16 16" version="1.1" xmlns="http://www.w3.org/2000/svg" xmlns:xlink="http://www.w3.org/1999/xlink">
    <title>volume</title>
    <g id="Icon" stroke="none" stroke-width="1" fill="none" fill-rule="evenodd">
        <g id="Icon-Sets" transform="translate(-644.000000, -2458.000000)">
            <g id="编组-9" transform="translate(0.000000, 2401.000000)">
                <g id="-Round-/-AV-/-volume_up" transform="translate(644.000000, 57.000000)">
                    <rect id="Rectangle-Copy-86" x="0" y="0" width="16" height="16"></rect>
                    <path d="M1,5.48611589 L1,10.5214725 C1,10.938834 1.33333333,11.2803116 1.74074074,11.2803116 L3.96296296,11.2803116 L6.4,13.7768925 C6.86666667,14.2549611 7.66666667,13.9134835 7.66666667,13.2381167 L7.66666667,2.76188334 C7.66666667,2.0865165 6.86666667,1.74503888 6.4,2.22310754 L3.96296296,4.72727674 L1.74074074,4.72727674 C1.33333333,4.72727674 1,5.06875436 1,5.48611589 Z M11,8.0037942 C11,6.6606489 10.2444444,5.50721339 9.14814815,4.94567242 L9.14814815,11.0543276 C10.2444444,10.500375 11,9.34693949 11,8.0037942 Z M9.65368662,1.78391567 C9.91213469,1.29583469 10.5173161,1.10968044 11.005397,1.36812851 C13.4423543,2.65854325 15,5.19175925 15,8 C15,10.7255585 13.5329861,13.1958261 11.2082521,14.5204065 C10.7283937,14.7938189 10.117747,14.6264613 9.84433463,14.1466028 C9.57092225,13.6667444 9.73827985,13.0560978 10.2181383,12.7826854 C11.924669,11.8103431 13,9.99962052 13,8 C13,5.93985723 11.8580675,4.08272013 10.0694738,3.13562608 C9.58139281,2.87717801 9.39523855,2.27199665 9.65368662,1.78391567 Z" id="🔹Icon-Color" fill="#FFFFFF"></path>
                </g>
            </g>
        </g>
    </g>
</svg>