<?xml version="1.0" encoding="UTF-8"?>
<svg width="16px" height="16px" viewBox="0 0 16 16" version="1.1" xmlns="http://www.w3.org/2000/svg" xmlns:xlink="http://www.w3.org/1999/xlink">
    <title>launcher</title>
    <g id="Icon" stroke="none" stroke-width="1" fill="none" fill-rule="evenodd">
        <g id="Icon-Sets" transform="translate(-500.000000, -2458.000000)" fill-rule="nonzero">
            <g id="编组-9" transform="translate(0.000000, 2401.000000)">
                <g id="launcher-selected" transform="translate(500.000000, 57.000000)">
                    <rect id="矩形" fill="#000000" opacity="0" x="0" y="0" width="16" height="16"></rect>
                    <path d="M7.67237927,0.89062098 C7.85785231,0.731744732 8.13113003,0.730775975 8.3176599,0.88824312 C9.92438843,2.24467991 10.8171426,3.94555406 10.9712631,5.9438368 C11.0214624,6.59466578 10.9870275,7.2753501 10.8742993,7.96140662 C11.6072085,8.32742086 12.1345649,8.98124418 12.3690042,9.82335875 C12.5934037,10.6295412 12.5422357,11.5585798 12.2249235,12.4391804 C12.1994716,12.5097236 12.1592242,12.5718121 12.1085846,12.6224518 C12.0143509,12.7166854 11.8839209,12.7715524 11.7445078,12.7682938 C11.5303243,12.7633619 11.3433541,12.6218353 11.2801207,12.4171632 C11.0146811,11.5565542 10.3245734,10.9786462 9.56304184,10.9790866 C9.55714123,10.9789985 9.55176903,10.9775013 9.54595648,10.9773252 L9.54595648,10.9773252 L6.44196904,10.9789985 C5.679821,10.9795269 4.98874455,11.5585798 4.72216007,12.4199814 C4.65892662,12.6246535 4.4716922,12.7659159 4.2575087,12.7706717 C4.04323713,12.7755155 3.84992595,12.6427957 3.77753334,12.4411179 C3.46101381,11.5607815 3.41081455,10.631831 3.63609473,9.8254724 C3.86991759,8.98820162 4.39322283,8.33702037 5.11943876,7.96924475 C4.74963756,5.62000755 5.2752326,2.94165697 7.67237927,0.89062098 Z M8.00334209,4.30490412 C7.72053815,4.30490412 7.44357725,4.42059664 7.24374471,4.62042919 C7.04391217,4.82026173 6.92821965,5.09722262 6.92938826,5.37885795 C6.92938826,5.6616619 7.04391217,5.9397914 7.24374471,6.13962394 C7.44357725,6.33945649 7.72053815,6.45281179 8.00334209,6.45281179 C8.28614604,6.45281179 8.56310693,6.33945649 8.76293947,6.13962394 C8.96277201,5.9397914 9.07729593,5.6616619 9.07729593,5.37885795 C9.07729593,5.09605401 8.96277201,4.82026173 8.76293947,4.62042919 C8.56310693,4.42059664 8.28614604,4.30490412 8.00334209,4.30490412 Z" id="形状结合" fill="#FFFFFF"></path>
                    <path d="M7.13256862,12.4540674 C6.53296257,13.0530212 6.50948441,14.2527551 6.51078875,14.4855801 C6.51248439,14.7712311 6.74361381,15.0126648 7.02939516,15.0126648 L7.04635161,15.0126648 C7.31491564,15.0126648 8.46769317,14.9687085 9.05399494,14.3833197 C9.42403679,14.0135387 9.50177558,13.636323 9.50177558,13.388498 C9.50177558,13.0411517 9.35268928,12.6988924 9.08177743,12.4282414 C8.42151946,11.768766 7.60852304,11.9785042 7.13256862,12.4540674" id="Path" fill="#FFFFFF" transform="translate(8.006260, 13.511839) rotate(-45.000000) translate(-8.006260, -13.511839) "></path>
                </g>
            </g>
        </g>
    </g>
</svg>