<?xml version="1.0" encoding="UTF-8"?>
<svg width="16px" height="16px" viewBox="0 0 16 16" version="1.1" xmlns="http://www.w3.org/2000/svg" xmlns:xlink="http://www.w3.org/1999/xlink">
    <title>reset</title>
    <g id="Icon" stroke="none" stroke-width="1" fill="none" fill-rule="evenodd">
        <g id="Icon-Sets" transform="translate(-788.000000, -2458.000000)">
            <g id="编组-9" transform="translate(0.000000, 2401.000000)">
                <g id="-Round-/-Notification-/-sync_problem" transform="translate(788.000000, 57.000000)">
                    <polygon id="Path" points="0 0 16 0 16 16 0 16"></polygon>
                    <path d="M6.17048899,1.5816082 C6.40166267,1.32140097 6.79382619,1.26123873 7.09730654,1.42241165 L7.20646701,1.49326816 L9.73531275,3.46996842 L9.82949257,3.55830846 C10.0606662,3.81851569 10.0530361,4.19118109 9.82929958,4.44211305 L9.73531275,4.53004888 L7.20646701,6.50674914 C7.07427442,6.61007894 6.90764409,6.66666667 6.73556791,6.66666667 C6.37446307,6.66666667 6.07413293,6.42259389 6.01185098,6.10072969 L6,5.97670891 L6,2.02330839 C6,1.90225366 6.03393478,1.78407228 6.09737613,1.6802368 L6.17048899,1.5816082 Z" id="路径" fill="#FFFFFF" fill-rule="nonzero"></path>
                    <path d="M12.4442918,4.83345879 C13.3906145,5.5650108 14,6.7113406 14,8 C14,10.209139 12.209139,12 10,12 C9.48472404,12 9.09826707,12 8.8406291,12 M4.37194306,11.6547774 C2.97422172,11.031208 2,9.62937485 2,8 C2,5.790861 3.790861,4 6,4 C6.94364904,4 7.65138582,4 8.12321035,4" id="形状" stroke="#FFFFFF" stroke-width="2" stroke-linecap="round"></path>
                    <path d="M7.17048899,9.5816082 C7.40166267,9.32140097 7.79382619,9.26123873 8.09730654,9.42241165 L8.20646701,9.49326816 L10.7353127,11.4699684 L10.8294926,11.5583085 C11.0606662,11.8185157 11.0530361,12.1911811 10.8292996,12.4421131 L10.7353127,12.5300489 L8.20646701,14.5067491 C8.07427442,14.6100789 7.90764409,14.6666667 7.73556791,14.6666667 C7.37446307,14.6666667 7.07413293,14.4225939 7.01185098,14.1007297 L7,13.9767089 L7,10.0233084 C7,9.90225366 7.03393478,9.78407228 7.09737613,9.6802368 L7.17048899,9.5816082 Z" id="路径备份" fill="#FFFFFF" fill-rule="nonzero" transform="translate(9.000000, 12.000000) scale(-1, 1) translate(-9.000000, -12.000000) "></path>
                </g>
            </g>
        </g>
    </g>
</svg>