<?xml version="1.0" encoding="utf-8"?>
<!-- Generator: Adobe Illustrator 24.0.0, SVG Export Plug-In . SVG Version: 6.00 Build 0)  -->
<svg version="1.1" id="图层_2" xmlns="http://www.w3.org/2000/svg" xmlns:xlink="http://www.w3.org/1999/xlink" x="0px" y="0px"
	 viewBox="0 0 16 16" style="enable-background:new 0 0 16 16;" xml:space="preserve">
<style type="text/css">
	.st0{fill:#262626;}
</style>
<g id="f">
	<g id="_16-10">
		<path class="st0" d="M13.5,15H3.1C1.9,15,1,14,1,12.8c0,0,0,0,0,0V4.1C1.1,3,1.9,2.2,3,2h3.1C7.5,2,8,3,8.5,3.9c0,0,0,0.1,0.1,0.1
			h4c1.3,0,2.4,1,2.5,2.3v2.2C15,8.8,14.8,9,14.5,9S14,8.8,14,8.5V6.4C13.9,5.6,13.3,5,12.5,5H8.9C8.4,5,7.8,5,7.5,4.3S6.9,3,6.1,3
			h-3C2.5,3.1,2.1,3.6,2,4.2v8.6C2,13.4,2.5,14,3.1,14h10.4c0.3,0,0.5,0.2,0.5,0.5S13.8,15,13.5,15z"/>
	</g>
</g>
<polygon class="st0" points="7.5,10 11,13 11,7 "/>
<path class="st0" d="M11,9c3.3,0,4.1,2,4.8,3.3C14.6,11.5,13.4,11,11,11c-0.7,0,1,0,0,0"/>
<polygon class="st0" points="4.5,9.9 8,12.9 8,6.9 "/>
</svg>
