<?xml version="1.0" encoding="UTF-8"?>
<svg viewBox="0 0 16 16" version="1.1" xmlns="http://www.w3.org/2000/svg" xmlns:xlink="http://www.w3.org/1999/xlink">
    <title>reset</title>
    <g id="Icon" stroke="none" stroke-width="1" fill="none" fill-rule="evenodd">
        <g id="Icon-Sets" transform="translate(-788.000000, -2489.000000)">
            <g id="编组-9" transform="translate(0.000000, 2399.000000)">
                <g id="-Round-/-Notification-/-sync_problem" transform="translate(788.000000, 90.000000)">
                    <polygon id="Path" points="0 0 16 0 16 16 0 16"></polygon>
                    <path d="M13.0558977,4.04229622 C14.2723505,4.98267149 15,6.43215075 15,8 C15,10.4185405 13.2828331,12.4360152 11.0011814,12.8997419 L11,13.9767089 L10.988149,14.1007297 C10.9258671,14.4225939 10.6255369,14.6666667 10.2644321,14.6666667 C10.0923559,14.6666667 9.92572558,14.6100789 9.79353299,14.5067491 L9.79353299,14.5067491 L7.26468725,12.5300489 L7.17070042,12.4421131 C6.94696393,12.1911811 6.93933375,11.8185157 7.17050743,11.5583085 L7.17050743,11.5583085 L7.26468725,11.4699684 L9.79353299,9.49326816 L9.90269346,9.42241165 C10.2061738,9.26123873 10.5983373,9.32140097 10.829511,9.5816082 L10.829511,9.5816082 L10.9026239,9.6802368 C10.9660652,9.78407228 11,9.90225366 11,10.0233084 L11,10.0233084 L11.0009007,10.8289758 C12.1656226,10.4168852 13,9.30588222 13,8 C13,7.05809774 12.5643091,6.1902005 11.8326859,5.62462136 C11.3957389,5.28684074 11.3153486,4.6587999 11.6531292,4.22185288 C11.9909099,3.78490586 12.6189507,3.7045156 13.0558977,4.04229622 Z M7.09730654,1.42241165 L7.20646701,1.49326816 L9.73531275,3.46996842 L9.82949257,3.55830846 C10.0606662,3.81851569 10.0530361,4.19118109 9.82929958,4.44211305 L9.73531275,4.53004888 L7.20646701,6.50674914 C7.07427442,6.61007894 6.90764409,6.66666667 6.73556791,6.66666667 C6.37446307,6.66666667 6.07413293,6.42259389 6.01185098,6.10072969 L6,5.97670891 L6,5 C4.34314575,5 3,6.34314575 3,8 C3,9.19593154 3.70586783,10.262615 4.77936869,10.741539 C5.28373633,10.966554 5.51019641,11.5578354 5.28518145,12.062203 C5.06016648,12.5665707 4.46888506,12.7930308 3.96451743,12.5680158 C2.17649542,11.7703205 1,9.99244054 1,8 C1,5.3112453 3.12230671,3.11818189 5.78311038,3.00461951 L6,3 L6,2.02330839 C6,1.90225366 6.03393478,1.78407228 6.09737613,1.6802368 L6.17048899,1.5816082 C6.40166267,1.32140097 6.79382619,1.26123873 7.09730654,1.42241165 Z" id="形状结合" fill-opacity="0.75" fill="#262626"></path>
                </g>
            </g>
        </g>
    </g>
</svg>