<?xml version="1.0" encoding="UTF-8"?>
<svg viewBox="0 0 16 16" version="1.1" xmlns="http://www.w3.org/2000/svg" xmlns:xlink="http://www.w3.org/1999/xlink">
    <title>theme</title>
    <g id="Icon" stroke="none" stroke-width="1" fill="none" fill-rule="evenodd">
        <g id="Icon-Sets" transform="translate(-260.000000, -2489.000000)">
            <g id="编组-9" transform="translate(0.000000, 2399.000000)">
                <g id="theme" transform="translate(260.000000, 90.000000)">
                    <rect id="矩形" fill="#FFFFFF" fill-rule="nonzero" opacity="0" x="0" y="0" width="16" height="16"></rect>
                    <path d="M9.10636314,13.304759 C9.36001069,13.5584066 9.36001069,13.9696505 9.10636314,14.2232981 C8.83195342,14.4977078 8.41296623,14.5662463 8.06542266,14.3935765 L4.99609095,12.8686429 L3.1683384,14.6963955 C2.76353239,15.1012015 2.10721217,15.1012015 1.70240616,14.6963955 L1.30360451,14.2975938 C0.898798497,13.8927878 0.898798497,13.2364676 1.30360451,12.8316616 L3.13135705,11.0039091 L1.60642353,7.93457734 C1.43375375,7.58703377 1.50229222,7.16804658 1.77670194,6.89363686 C2.03034949,6.63998931 2.44159342,6.63998931 2.69524097,6.89363686 L9.10636314,13.304759 Z M9.08872012,1.55965809 C9.44951552,1.92045349 9.49408902,2.49015567 9.19379774,2.9026745 L7.32971691,5.46341632 C7.16125617,5.69483571 7.21229425,6.0190026 7.44371364,6.18746334 C7.62552839,6.31981459 7.87194917,6.31981459 8.05376392,6.18746334 L10.6145057,4.3233825 C11.0270246,4.02309122 11.5967268,4.06766473 11.9575221,4.42846012 L14.6963955,7.16733347 C15.1012015,7.57213948 15.1012015,8.2284597 14.6963955,8.63326571 L11.0315649,12.2980963 C10.6267589,12.7029023 9.97043866,12.7029023 9.56563265,12.2980963 L3.70190369,6.43436735 C3.29709768,6.02956134 3.29709768,5.37324112 3.70190369,4.96843511 L7.36673429,1.30360451 C7.7715403,0.898798497 8.42786052,0.898798497 8.83266653,1.30360451 L9.08872012,1.55965809 Z" id="形状" fill-opacity="0.75" fill="#262626"></path>
                </g>
            </g>
        </g>
    </g>
</svg>