<?xml version="1.0" encoding="utf-8"?>
<!-- Generator: Adobe Illustrator 24.0.0, SVG Export Plug-In . SVG Version: 6.00 Build 0)  -->
<svg version="1.1" id="图层_1" xmlns="http://www.w3.org/2000/svg" xmlns:xlink="http://www.w3.org/1999/xlink" x="0px" y="0px"
	 viewBox="0 0 16 16" style="enable-background:new 0 0 16 16;" xml:space="preserve">
<style type="text/css">
	.st0{fill:#262626;}
	.st1{fill:none;stroke:#262626;stroke-miterlimit:10;}
</style>
<polygon class="st0" points="12,10 11,10 11,9 10,9 10,10 9,10 9,11 10,11 10,12 11,12 11,11 12,11 "/>
<path class="st1" d="M5,12.5H3.5c-1.1,0-2-0.9-2-2v-6c0-1.1,0.9-2,2-2h9c1.1,0,2,0.9,2,2V6"/>
<g>
	<path class="st0" d="M11,6.1v1c1.5,0.2,2.7,1.4,2.9,2.9h1C14.7,7.9,13.1,6.3,11,6.1z"/>
	<path class="st0" d="M11,13.9v1c2.1-0.2,3.7-1.9,3.9-3.9h-1C13.7,12.5,12.5,13.7,11,13.9z"/>
	<path class="st0" d="M10,7V6c-2.1,0.2-3.7,1.9-4,4h1C7.3,8.5,8.5,7.3,10,7z"/>
	<path class="st0" d="M10,15v-1c-1.5-0.2-2.7-1.4-3-3H6C6.3,13.1,7.9,14.7,10,15z"/>
</g>
</svg>
