<svg id="图层_1" data-name="图层 1" xmlns="http://www.w3.org/2000/svg" viewBox="0 0 24 24"><path d="M9.67,11a2.49,2.49,0,0,1-.94-4.61A1.4,1.4,0,0,1,9.43,6l.36,0,.13,0H10a2.48,2.48,0,0,1,2.46,2.14c.28.48.54,1,.78,1.49l0,.07a3.41,3.41,0,0,0,.23-1.2A3.5,3.5,0,1,0,10,12l.24,0-.31-.55Z" fill="#404040"/><path d="M10.76,10.87l.51.88a3.46,3.46,0,0,0,1.4-1c-.16-.32-.33-.66-.5-1A2.55,2.55,0,0,1,10.76,10.87Z" fill="#404040"/><path d="M9.79,6,9.43,6a1.4,1.4,0,0,0-.7.34A2.43,2.43,0,0,1,9.92,6Z" fill="#404040"/><path d="M19.13,18.24c0-.77,0-1.55,0-2.25h0c0-.18,0-.34,0-.51s0-.08,0-.12,0-.25-.05-.37a.5.5,0,0,0,0-.12c0-.14,0-.29-.08-.42s0,0,0,0a2.81,2.81,0,0,0-.1-.31,1,1,0,0,1,0-.1,1.83,1.83,0,0,0-.13-.24l0-.05a1,1,0,0,0-.19-.22l-.06,0a.49.49,0,0,0-.18-.11l-.08,0a.88.88,0,0,0-.29-.05c-1.36,0-1.36-1.25-2.72-1.25H13.69c-1,0-2.09-5-3.9-5a.55.55,0,0,0-.18,0c-1.73.32,3.08,6.06,2.72,7.49-.11.43-.31.6-.58.6-.89,0-2.45-1.85-3.5-1.85a.48.48,0,0,0-.26.06l0,0a.22.22,0,0,0-.09.17h0a.61.61,0,0,0,0,.26l0,.08a2.45,2.45,0,0,0,.16.33h0a3.69,3.69,0,0,0,.26.38l.08.1a7.61,7.61,0,0,0,.73.83l.09.1A10.28,10.28,0,0,0,11,17a13.55,13.55,0,0,1,2,1.51A11.41,11.41,0,0,1,14.39,20c.19.24.35.47.5.68s.26.35.37.51l0,0a3,3,0,0,0,.35.41h0a1.06,1.06,0,0,0,.77.36s5.45,0,5.45-1.25S19.13,19.49,19.13,18.24Z" fill="#404040"/><path d="M19.13,18.24c0-.77,0-1.55,0-2.25h0c0-.18,0-.34,0-.51s0-.08,0-.12,0-.25-.05-.37a.5.5,0,0,0,0-.12c0-.14,0-.29-.08-.42s0,0,0,0a2.81,2.81,0,0,0-.1-.31,1,1,0,0,1,0-.1,1.83,1.83,0,0,0-.13-.24l0-.05a1,1,0,0,0-.19-.22l-.06,0a.49.49,0,0,0-.18-.11l-.08,0a.88.88,0,0,0-.29-.05c-1.36,0-1.36-1.25-2.72-1.25H13.69c-1,0-2.09-5-3.9-5a.55.55,0,0,0-.18,0c-1.73.32,3.08,6.06,2.72,7.49-.11.43-.31.6-.58.6-.89,0-2.45-1.85-3.5-1.85a.48.48,0,0,0-.26.06l0,0a.22.22,0,0,0-.09.17h0a.61.61,0,0,0,0,.26l0,.08a2.45,2.45,0,0,0,.16.33h0a3.69,3.69,0,0,0,.26.38l.08.1a7.61,7.61,0,0,0,.73.83l.09.1A10.28,10.28,0,0,0,11,17a13.55,13.55,0,0,1,2,1.51A11.41,11.41,0,0,1,14.39,20c.19.24.35.47.5.68s.26.35.37.51l0,0a3,3,0,0,0,.35.41h0a1.06,1.06,0,0,0,.77.36s5.45,0,5.45-1.25S19.13,19.49,19.13,18.24Z" fill="none"/><path d="M7.72,16.89c-.29-.3-.55-.6-.78-.89H5a2,2,0,0,1-2-2V6A2,2,0,0,1,5,4H19a2,2,0,0,1,2,2v8a2,2,0,0,1-.06.49v0l0,.15c0,.15,0,.3.06.49v.12c0,.19,0,.38.05.58,0,.48,0,1,0,1.49A4,4,0,0,0,23,14V6a4,4,0,0,0-4-4H5A4,4,0,0,0,1,6v8a4,4,0,0,0,4,4H9a14.46,14.46,0,0,1-1.11-1Z" fill="#404040"/><path d="M19.13,18.24c0-.77,0-1.55,0-2.25h0c0-.18,0-.34,0-.51s0-.08,0-.12,0-.25-.05-.37a.5.5,0,0,0,0-.12c0-.14,0-.29-.08-.42s0,0,0,0a2.81,2.81,0,0,0-.1-.31,1,1,0,0,1,0-.1,1.83,1.83,0,0,0-.13-.24l0-.05a1,1,0,0,0-.19-.22l-.06,0a.49.49,0,0,0-.18-.11l-.08,0a.88.88,0,0,0-.29-.05c-1.36,0-1.36-1.25-2.72-1.25H13.69c-1,0-2.09-5-3.9-5a.55.55,0,0,0-.18,0c-1.73.32,3.08,6.06,2.72,7.49-.11.43-.31.6-.58.6-.89,0-2.45-1.85-3.5-1.85a.48.48,0,0,0-.26.06l0,0a.22.22,0,0,0-.09.17h0a.61.61,0,0,0,0,.26l0,.08a2.45,2.45,0,0,0,.16.33h0a3.69,3.69,0,0,0,.26.38l.08.1a7.61,7.61,0,0,0,.73.83l.09.1A10.28,10.28,0,0,0,11,17a13.55,13.55,0,0,1,2,1.51A11.41,11.41,0,0,1,14.39,20c.19.24.35.47.5.68s.26.35.37.51l0,0a3,3,0,0,0,.35.41h0a1.06,1.06,0,0,0,.77.36s5.45,0,5.45-1.25S19.13,19.49,19.13,18.24Z" fill="none"/><path d="M12.81,21.23A10.45,10.45,0,0,0,11.66,20c-.21-.18-.43-.36-.66-.53V20H8v2h5.38l-.12-.16C13.13,21.65,13,21.45,12.81,21.23Z" fill="#404040"/></svg>