<?xml version="1.0" encoding="utf-8"?>
<!-- Generator: Adobe Illustrator 24.0.2, SVG Export Plug-In . SVG Version: 6.00 Build 0)  -->
<!DOCTYPE svg PUBLIC "-//W3C//DTD SVG 1.1//EN" "http://www.w3.org/Graphics/SVG/1.1/DTD/svg11.dtd" [
	<!ENTITY ns_extend "http://ns.adobe.com/Extensibility/1.0/">
	<!ENTITY ns_ai "http://ns.adobe.com/AdobeIllustrator/10.0/">
	<!ENTITY ns_graphs "http://ns.adobe.com/Graphs/1.0/">
	<!ENTITY ns_vars "http://ns.adobe.com/Variables/1.0/">
	<!ENTITY ns_imrep "http://ns.adobe.com/ImageReplacement/1.0/">
	<!ENTITY ns_sfw "http://ns.adobe.com/SaveForWeb/1.0/">
	<!ENTITY ns_custom "http://ns.adobe.com/GenericCustomNamespace/1.0/">
	<!ENTITY ns_adobe_xpath "http://ns.adobe.com/XPath/1.0/">
]>
<svg version="1.1" id="图层_1" xmlns:x="&ns_extend;" xmlns:i="&ns_ai;" xmlns:graph="&ns_graphs;"
	 xmlns="http://www.w3.org/2000/svg" xmlns:xlink="http://www.w3.org/1999/xlink" x="0px" y="0px" viewBox="0 0 24 24"
	 enable-background="new 0 0 24 24" xml:space="preserve">
<metadata>
	<sfw  xmlns="&ns_sfw;">
		<slices></slices>
		<sliceSourceBounds  bottomLeftOrigin="true" height="1298" width="1504" x="-206" y="-620"></sliceSourceBounds>
	</sfw>
</metadata>
<g>
	<path fill="#404040" d="M11,20.5v-3c0-0.5,0.4-1,1-1h0c0.5,0,1,0.4,1,1v3c0,0.5-0.4,1-1,1h0C11.5,21.5,11,21.1,11,20.5z"/>
</g>
<g>
	<path fill="#404040" d="M15,22H9c-0.5,0-1-0.4-1-1v0c0-0.5,0.4-1,1-1h6c0.5,0,1,0.4,1,1v0C16,21.6,15.6,22,15,22z"/>
</g>
<g>
	<path fill="#404040" d="M21,4v12H3V4H21 M21,2H3C1.9,2,1,2.9,1,4v12c0,1.1,0.9,2,2,2h18c1.1,0,2-0.9,2-2V4C23,2.9,22.1,2,21,2L21,2
		z"/>
</g>
</svg>
