<svg id="图层_1" data-name="图层 1" xmlns="http://www.w3.org/2000/svg" viewBox="0 0 24 24"><path d="M9.61,7a.55.55,0,0,1,.18,0c1,0,1.73,1.41,2.38,2.73A2.49,2.49,0,1,0,10,11a2.38,2.38,0,0,0,.76-.13C9.7,9,8.65,7.18,9.61,7Z" fill="#fff"/><path d="M13,20h.08L13,19.91Z" fill="none"/><path d="M9.79,7a.55.55,0,0,0-.18,0c-1.11.2.47,2.64,1.66,4.74h0l.35.64c.05.09.09.17.13.26l.12.22.14.3.07.16c.06.14.11.28.15.4l0,.1c0,.1.05.19.07.28s0,.06,0,.09a.91.91,0,0,1,0,.29c-.11.43-.31.6-.58.6a3.85,3.85,0,0,1-1.69-.93,3.84,3.84,0,0,0-1.81-.92c-.26,0-.38.1-.39.26a.87.87,0,0,0,.09.41l.14.26a6.23,6.23,0,0,0,.67.88,7,7,0,0,0,.6.63A9,9,0,0,0,11,17l.65.43.26.18.3.22.32.25.15.13a12.51,12.51,0,0,1,2.24,2.48l.37.51,0,0a3,3,0,0,0,.35.41h0a1.27,1.27,0,0,0,.36.26h0a1,1,0,0,0,.41.1s5.45,0,5.45-1.25-2.73-1.25-2.73-2.5V18h0v-.94c0-.26,0-.52,0-.77v-.09c0-.25,0-.49-.05-.72a.28.28,0,0,0,0-.09,6,6,0,0,0-.09-.63s0-.05,0-.07c-.05-.2-.09-.38-.15-.55l0,0a2.45,2.45,0,0,0-.22-.43l0,0a.91.91,0,0,0-.31-.28h0a1,1,0,0,0-.43-.1h0a1.62,1.62,0,0,1-1.1-.4l-.26-.23a2.86,2.86,0,0,0-.55-.42,1.59,1.59,0,0,0-.81-.2H13.69a.45.45,0,0,1-.22-.09l-.06-.05a1.11,1.11,0,0,1-.18-.19l-.06-.07C12.32,10.41,11.29,7,9.79,7Z" fill="none"/><path d="M12.65,18.2l-.15-.13Z" fill="#fff"/><path d="M12,13.18l-.14-.3Z" fill="#fff"/><path d="M11.62,17.42,11,17Z" fill="#fff"/><path d="M8,13.92a.87.87,0,0,1-.09-.41A.87.87,0,0,0,8,13.92Z" fill="#fff"/><path d="M12.33,14.12c0-.09,0-.18-.07-.28C12.29,13.94,12.31,14,12.33,14.12Z" fill="#fff"/><path d="M12.23,13.74c0-.12-.09-.26-.15-.4C12.14,13.48,12.19,13.62,12.23,13.74Z" fill="#fff"/><path d="M8.76,15.06a6.23,6.23,0,0,1-.67-.88A6.23,6.23,0,0,0,8.76,15.06Z" fill="#fff"/><path d="M9.36,15.69a7,7,0,0,1-.6-.63A7,7,0,0,0,9.36,15.69Z" fill="#fff"/><path d="M12.18,17.82l-.3-.22Z" fill="#fff"/><path d="M17.77,13.25a1,1,0,0,1,.43.1A1,1,0,0,0,17.77,13.25Z" fill="#fff"/><path d="M18.21,13.36a.91.91,0,0,1,.31.28A.91.91,0,0,0,18.21,13.36Z" fill="#fff"/><path d="M18.55,13.66a2.45,2.45,0,0,1,.22.43A2.45,2.45,0,0,0,18.55,13.66Z" fill="#fff"/><path d="M13.17,11.6l.06.07Z" fill="#fff"/><path d="M15.26,21.19l-.37-.51C15,20.87,15.15,21,15.26,21.19Z" fill="#fff"/><path d="M15.63,21.62a3,3,0,0,1-.35-.41A3,3,0,0,0,15.63,21.62Z" fill="#fff"/><path d="M19.11,16.28c0,.25,0,.51,0,.77C19.12,16.79,19.12,16.53,19.11,16.28Z" fill="#fff"/><path d="M19.05,15.47c0,.23,0,.47.05.72C19.09,15.94,19.07,15.7,19.05,15.47Z" fill="#fff"/><path d="M18.79,14.13c.06.17.1.35.15.55C18.89,14.48,18.85,14.3,18.79,14.13Z" fill="#fff"/><path d="M19,14.75a6,6,0,0,1,.09.63A6,6,0,0,0,19,14.75Z" fill="#fff"/><path d="M13.47,11.91l-.06-.05Z" fill="#fff"/><path d="M13.08,20H13v-.09a11,11,0,0,0-2-1.7V20H8v2h6.63c-.17-.2-.32-.42-.48-.64A13.83,13.83,0,0,0,13.08,20Z" fill="#fff"/><polygon points="11.27 11.75 11.27 11.76 11.27 11.75 11.27 11.75" fill="#fff"/><path d="M15.64,21.63a1.27,1.27,0,0,0,.36.26h0A1.27,1.27,0,0,1,15.64,21.63Z" fill="#fff"/><path d="M19.13,18v0Z" fill="#fff"/><path d="M12.34,14.21a.91.91,0,0,1,0,.29A.91.91,0,0,0,12.34,14.21Z" fill="#fff"/><path d="M23,14V6a4,4,0,0,0-4-4H5A4,4,0,0,0,1,6v8a4,4,0,0,0,4,4h5.68l-.23-.15c-.88-.54-4-3.07-3.54-4.67a1.3,1.3,0,0,1,1.34-.93,4.65,4.65,0,0,1,2.48,1.17c.12.1.28.21.44.32A19.19,19.19,0,0,0,10.24,12L10,12a3.5,3.5,0,1,1,3.5-3.5,3.46,3.46,0,0,1-.22,1.21A11.34,11.34,0,0,0,14,11h1.08a2.79,2.79,0,0,1,2,.89c.31.28.4.36.68.36,2.25,0,2.36,2.75,2.36,5.56A4,4,0,0,0,23,14Z" fill="#fff"/><path d="M11.75,12.66c0-.09-.08-.17-.13-.26C11.67,12.49,11.71,12.57,11.75,12.66Z" fill="#fff"/><path d="M19.1,16.19v0Z" fill="#fff"/><path d="M19,15.38a.28.28,0,0,1,0,.09A.28.28,0,0,0,19,15.38Z" fill="#fff"/><path d="M10.68,18l.32.21V18Z" fill="#fff"/><path d="M18.94,14.68s0,0,0,.07S18.94,14.7,18.94,14.68Z" fill="#fff"/><path d="M11.87,12.88l-.12-.22Z" fill="#fff"/><path d="M15.86,12.2a2.86,2.86,0,0,1,.55.42A2.86,2.86,0,0,0,15.86,12.2Z" fill="#fff"/><path d="M18.2,13.35h0Z" fill="#fff"/><path d="M13.47,11.91a.45.45,0,0,0,.22.09A.45.45,0,0,1,13.47,11.91Z" fill="#fff"/><path d="M19.13,18.24c0,1.25,2.73,1.25,2.73,2.5S16.41,22,16.41,22a1,1,0,0,1-.41-.1V22H14.63a2.21,2.21,0,0,0,1.78,1c6.45,0,6.45-1.69,6.45-2.25,0-1.27-1.17-1.8-1.95-2.16a4.66,4.66,0,0,1-.78-.41v-.36a4.65,4.65,0,0,1-1,.18Z" fill="#fff"/><path d="M18.52,13.64l0,0Z" fill="#fff"/><path d="M18.77,14.09l0,0Z" fill="#fff"/><path d="M12.33,14.12s0,.06,0,.09S12.33,14.15,12.33,14.12Z" fill="#fff"/><path d="M8.25,13.25a3.84,3.84,0,0,1,1.81.92,3.84,3.84,0,0,0-1.81-.92c-.26,0-.38.1-.39.26C7.87,13.35,8,13.25,8.25,13.25Z" fill="#fff"/><path d="M11.88,17.6l-.26-.18Z" fill="#fff"/><path d="M12.65,18.2l.35.3v1.41l.08.09h1.31c.19.24.35.47.5.68A12.51,12.51,0,0,0,12.65,18.2Z" fill="#fff"/><path d="M12.26,13.84l0-.1Z" fill="#fff"/><path d="M12.08,13.34,12,13.18Z" fill="#fff"/><path d="M11.62,12.4l-.35-.64Z" fill="#fff"/><path d="M13.41,11.86a1.11,1.11,0,0,1-.18-.19A1.11,1.11,0,0,0,13.41,11.86Z" fill="#fff"/><path d="M15.64,21.63h0Z" fill="#fff"/><path d="M19.13,17.05v0Z" fill="#fff"/><path d="M15.28,21.21l0,0Z" fill="#fff"/><path d="M17.77,13.25h0a1.62,1.62,0,0,1-1.1-.4,1.62,1.62,0,0,0,1.1.4Z" fill="#fff"/><path d="M12.5,18.07l-.32-.25Z" fill="#fff"/><path d="M13,19.91V18.5l-.35-.3-.15-.13-.32-.25-.3-.22-.26-.18L11,17a9,9,0,0,1-1.61-1.3,7,7,0,0,1-.6-.63,6.23,6.23,0,0,1-.67-.88L8,13.92a.87.87,0,0,1-.09-.41c0-.16.13-.26.39-.26a3.84,3.84,0,0,1,1.81.92,3.85,3.85,0,0,0,1.69.93c.27,0,.47-.17.58-.6a.91.91,0,0,0,0-.29s0-.06,0-.09,0-.18-.07-.28l0-.1c0-.12-.09-.26-.15-.4L12,13.18l-.14-.3-.12-.22c0-.09-.08-.17-.13-.26l-.35-.64h0a3.51,3.51,0,0,1-1,.23,19.19,19.19,0,0,1,.93,1.76c-.16-.11-.32-.22-.44-.32a4.65,4.65,0,0,0-2.48-1.17,1.3,1.3,0,0,0-1.34.93c-.45,1.6,2.66,4.13,3.54,4.67l.23.15H11v.21A11,11,0,0,1,13,19.91Z" fill="#fff"/><path d="M16,21.89a1.27,1.27,0,0,1-.36-.26h0a3,3,0,0,1-.35-.41l0,0c-.11-.16-.24-.32-.37-.51s-.31-.44-.5-.68H13.08a13.83,13.83,0,0,1,1.07,1.36c.16.22.31.44.48.64H16Z" fill="#fff"/><path d="M17.77,12.25c-.28,0-.37-.08-.68-.36a2.79,2.79,0,0,0-2-.89H14a11.34,11.34,0,0,1-.69-1.29,3.84,3.84,0,0,1-.61,1,8.63,8.63,0,0,0,.5.86l.06.07a1.11,1.11,0,0,0,.18.19l.06.05a.45.45,0,0,0,.22.09h1.36a1.59,1.59,0,0,1,.81.2,2.86,2.86,0,0,1,.55.42l.26.23a1.62,1.62,0,0,0,1.1.4h0a1,1,0,0,1,.43.1h0a.91.91,0,0,1,.31.28l0,0a2.45,2.45,0,0,1,.22.43l0,0c.06.17.1.35.15.55,0,0,0,0,0,.07a6,6,0,0,1,.09.63.28.28,0,0,1,0,.09c0,.23,0,.47.05.72v.09c0,.25,0,.51,0,.77V18a4.65,4.65,0,0,0,1-.18C20.13,15,20,12.25,17.77,12.25Z" fill="#fff"/></svg>