<?xml version="1.0" encoding="utf-8"?>
<!-- Generator: Adobe Illustrator 24.2.1, SVG Export Plug-In . SVG Version: 6.00 Build 0)  -->
<svg version="1.1" id="图层_1" xmlns="http://www.w3.org/2000/svg" xmlns:xlink="http://www.w3.org/1999/xlink" x="0px" y="0px"
	 viewBox="0 0 24 24" style="enable-background:new 0 0 24 24;" xml:space="preserve">
<style type="text/css">
	.st0{fill:#7E7E7E;}
	.st1{fill:#404040;}
	.st2{fill:none;}
</style>
<path class="st0" d="M9.7,11c-1.4-0.2-2.3-1.4-2.1-2.8c0.1-0.8,0.5-1.4,1.2-1.8C8.9,6.2,9.2,6.1,9.4,6h0.4h0.1H10
	c1.2,0,2.3,0.9,2.5,2.1c0.3,0.5,0.5,1,0.8,1.5v0.1c0.1-0.4,0.2-0.8,0.2-1.2C13.5,6.6,11.9,5,10,5S6.5,6.6,6.5,8.5S8,12,10,12
	c0,0,0,0,0,0h0.2l-0.3-0.6L9.7,11z"/>
<path class="st1" d="M10.8,10.9l0.5,0.9c0.5-0.2,1-0.6,1.4-1c-0.2-0.3-0.3-0.7-0.5-1C11.9,10.3,11.4,10.7,10.8,10.9z"/>
<path class="st1" d="M9.8,6H9.4C9.2,6,8.9,6.2,8.7,6.3C9.1,6.1,9.5,6,9.9,6H9.8z"/>
<path class="st0" d="M19.1,18.2c0-0.8,0-1.5,0-2.2l0,0c0-0.2,0-0.3,0-0.5s0-0.1,0-0.1s0-0.2,0-0.4c0,0,0-0.1,0-0.1
	c0-0.1,0-0.3-0.1-0.4s0,0,0,0c0-0.1-0.1-0.2-0.1-0.3c0,0,0-0.1,0-0.1c0-0.1-0.1-0.2-0.1-0.2v-0.1c-0.1-0.1-0.1-0.2-0.2-0.2h-0.1
	c-0.1,0-0.1-0.1-0.2-0.1h-0.1c-0.1,0-0.2,0-0.3-0.1c-1.4,0-1.4-1.2-2.7-1.2h-1.6c-1,0-2.1-5-3.9-5c-0.1,0-0.1,0-0.2,0
	c-1.7,0.3,3.1,6.1,2.7,7.5c-0.1,0.4-0.3,0.6-0.6,0.6c-0.9,0-2.4-1.9-3.5-1.9c-0.1,0-0.2,0-0.3,0.1l0,0c-0.1,0-0.1,0.1-0.1,0.2l0,0
	c0,0.1,0,0.2,0,0.3v0.1c0,0.1,0.1,0.2,0.2,0.3l0,0c0.1,0.1,0.2,0.3,0.3,0.4l0.1,0.1c0.2,0.3,0.5,0.6,0.7,0.8l0.1,0.1
	c0.5,0.5,1.1,1,1.8,1.3c0.7,0.4,1.4,0.9,2,1.5c0.5,0.5,1,1,1.4,1.5c0.2,0.2,0.4,0.5,0.5,0.7s0.3,0.4,0.4,0.5l0,0
	c0.1,0.1,0.2,0.3,0.4,0.4l0,0c0.2,0.2,0.5,0.4,0.8,0.4c0,0,5.5,0,5.5-1.2S19.1,19.5,19.1,18.2z"/>
<path class="st2" d="M19.1,18.2c0-0.8,0-1.5,0-2.2l0,0c0-0.2,0-0.3,0-0.5s0-0.1,0-0.1s0-0.2,0-0.4c0,0,0-0.1,0-0.1
	c0-0.1,0-0.3-0.1-0.4s0,0,0,0c0-0.1-0.1-0.2-0.1-0.3c0,0,0-0.1,0-0.1c0-0.1-0.1-0.2-0.1-0.2v-0.1c-0.1-0.1-0.1-0.2-0.2-0.2h-0.1
	c-0.1,0-0.1-0.1-0.2-0.1h-0.1c-0.1,0-0.2,0-0.3-0.1c-1.4,0-1.4-1.2-2.7-1.2h-1.6c-1,0-2.1-5-3.9-5c-0.1,0-0.1,0-0.2,0
	c-1.7,0.3,3.1,6.1,2.7,7.5c-0.1,0.4-0.3,0.6-0.6,0.6c-0.9,0-2.4-1.9-3.5-1.9c-0.1,0-0.2,0-0.3,0.1l0,0c-0.1,0-0.1,0.1-0.1,0.2l0,0
	c0,0.1,0,0.2,0,0.3v0.1c0,0.1,0.1,0.2,0.2,0.3l0,0c0.1,0.1,0.2,0.3,0.3,0.4l0.1,0.1c0.2,0.3,0.5,0.6,0.7,0.8l0.1,0.1
	c0.5,0.5,1.1,1,1.8,1.3c0.7,0.4,1.4,0.9,2,1.5c0.5,0.5,1,1,1.4,1.5c0.2,0.2,0.4,0.5,0.5,0.7s0.3,0.4,0.4,0.5l0,0
	c0.1,0.1,0.2,0.3,0.4,0.4l0,0c0.2,0.2,0.5,0.4,0.8,0.4c0,0,5.5,0,5.5-1.2S19.1,19.5,19.1,18.2z"/>
<path class="st0" d="M7.7,16.9c-0.3-0.3-0.6-0.6-0.8-0.9H5c-1.1,0-2-0.9-2-2V6c0-1.1,0.9-2,2-2h14c1.1,0,2,0.9,2,2v8
	c0,0.2,0,0.3-0.1,0.5l0,0v0.1c0,0.1,0,0.3,0.1,0.5v0.1c0,0.2,0,0.4,0,0.6c0,0.5,0,1,0,1.5c1.2-0.7,1.9-2,2-3.3V6c0-2.2-1.8-4-4-4H5
	C2.8,2,1,3.8,1,6v8c0,2.2,1.8,4,4,4h4c-0.4-0.3-0.8-0.6-1.1-1L7.7,16.9z"/>
<path class="st2" d="M19.1,18.2c0-0.8,0-1.5,0-2.2l0,0c0-0.2,0-0.3,0-0.5s0-0.1,0-0.1s0-0.2,0-0.4c0,0,0-0.1,0-0.1
	c0-0.1,0-0.3-0.1-0.4s0,0,0,0c0-0.1-0.1-0.2-0.1-0.3c0,0,0-0.1,0-0.1c0-0.1-0.1-0.2-0.1-0.2v-0.1c-0.1-0.1-0.1-0.2-0.2-0.2h-0.1
	c-0.1,0-0.1-0.1-0.2-0.1h-0.1c-0.1,0-0.2,0-0.3-0.1c-1.4,0-1.4-1.2-2.7-1.2h-1.6c-1,0-2.1-5-3.9-5c-0.1,0-0.1,0-0.2,0
	c-1.7,0.3,3.1,6.1,2.7,7.5c-0.1,0.4-0.3,0.6-0.6,0.6c-0.9,0-2.4-1.9-3.5-1.9c-0.1,0-0.2,0-0.3,0.1l0,0c-0.1,0-0.1,0.1-0.1,0.2l0,0
	c0,0.1,0,0.2,0,0.3v0.1c0,0.1,0.1,0.2,0.2,0.3l0,0c0.1,0.1,0.2,0.3,0.3,0.4l0.1,0.1c0.2,0.3,0.5,0.6,0.7,0.8l0.1,0.1
	c0.5,0.5,1.1,1,1.8,1.3c0.7,0.4,1.4,0.9,2,1.5c0.5,0.5,1,1,1.4,1.5c0.2,0.2,0.4,0.5,0.5,0.7s0.3,0.4,0.4,0.5l0,0
	c0.1,0.1,0.2,0.3,0.4,0.4l0,0c0.2,0.2,0.5,0.4,0.8,0.4c0,0,5.5,0,5.5-1.2S19.1,19.5,19.1,18.2z"/>
<path class="st0" d="M12.8,21.2c-0.3-0.4-0.7-0.9-1.2-1.2c-0.2-0.2-0.4-0.4-0.7-0.5V20H8v2h5.4l-0.1-0.2
	C13.1,21.6,13,21.5,12.8,21.2z"/>
</svg>
