<?xml version="1.0" encoding="UTF-8"?>
<svg viewBox="0 0 16 16" version="1.1" xmlns="http://www.w3.org/2000/svg" xmlns:xlink="http://www.w3.org/1999/xlink">
    <title>touchpad</title>
    <g id="Icon" stroke="none" stroke-width="1" fill="none" fill-rule="evenodd">
        <g id="Icon-Sets" transform="translate(-980.000000, -2489.000000)">
            <g id="编组-9" transform="translate(0.000000, 2399.000000)">
                <g id="touchpad-selected" transform="translate(980.000000, 90.000000)">
                    <rect id="矩形" fill="#000000" fill-rule="nonzero" opacity="0" x="0" y="0" width="16" height="16"></rect>
                    <path d="M14,11 L14,11.4361148 C14,12.3276335 13.9071744,12.6509198 13.7328673,12.9768457 C13.5585602,13.3027716 13.3027716,13.5585602 12.9768457,13.7328673 C12.6509198,13.9071744 12.3276335,14 11.4361148,14 L8.5,14 L8.5,11 L14,11 Z M7.5,11 L7.5,14 L4.5638852,14 C3.67236646,14 3.34908022,13.9071744 3.0231543,13.7328673 C2.69722837,13.5585602 2.4414398,13.3027716 2.2671327,12.9768457 C2.09282561,12.6509198 2,12.3276335 2,11.4361148 L2,11 L7.5,11 Z M2,4.5638852 C2,3.67236646 2.09282561,3.34908022 2.2671327,3.0231543 C2.4414398,2.69722837 2.69722837,2.4414398 3.0231543,2.2671327 C3.34908022,2.09282561 3.67236646,2 4.5638852,2 L11.4361148,2 C12.3276335,2 12.6509198,2.09282561 12.9768457,2.2671327 C13.3027716,2.4414398 13.5585602,2.69722837 13.7328673,3.0231543 C13.9071744,3.34908022 14,3.67236646 14,4.5638852 L14,10 L2,10 L2,4.5638852 Z" id="形状结合" fill-opacity="0.75" fill="#262626"></path>
                </g>
            </g>
        </g>
    </g>
</svg>