<?xml version="1.0" encoding="UTF-8"?>
<svg width="16px" height="16px" viewBox="0 0 16 16" version="1.1" xmlns="http://www.w3.org/2000/svg" xmlns:xlink="http://www.w3.org/1999/xlink">
    <title>acount</title>
    <g id="Icon" stroke="none" stroke-width="1" fill="none" fill-rule="evenodd">
        <g id="Icon-Sets" transform="translate(-20.000000, -2458.000000)">
            <g id="编组-9" transform="translate(0.000000, 2401.000000)">
                <g id="User-selected" transform="translate(20.000000, 57.000000)">
                    <polygon id="Path" points="0 0 16 0 16 16 0 16"></polygon>
                    <path d="M5.9,7.825 C5.417,7.825 5.025,8.217 5.025,8.7 C5.025,9.183 5.417,9.575 5.9,9.575 C6.383,9.575 6.775,9.183 6.775,8.7 C6.775,8.217 6.383,7.825 5.9,7.825 Z M10.1,7.825 C9.617,7.825 9.225,8.217 9.225,8.7 C9.225,9.183 9.617,9.575 10.1,9.575 C10.583,9.575 10.975,9.183 10.975,8.7 C10.975,8.217 10.583,7.825 10.1,7.825 Z M8,1 C4.136,1 1,4.136 1,8 C1,11.864 4.136,15 8,15 C11.864,15 15,11.864 15,8 C15,4.136 11.864,1 8,1 Z M8,13.6 C4.913,13.6 2.4,11.087 2.4,8 C2.4,7.797 2.414,7.594 2.435,7.398 C4.087,6.663 5.396,6.312 6.082,4.639 C7.349,6.431 9.435,6.6 11.794,6.6 C12.34,6.6 12.865,6.537 13.369,6.418 C13.516,6.915 13.6,7.447 13.6,8 C13.6,11.087 11.087,13.6 8,13.6 Z" id="🔹Icon-Color" fill="#FFFFFF"></path>
                </g>
            </g>
        </g>
    </g>
</svg>