<?xml version="1.0" encoding="utf-8"?>
<!-- Generator: Adobe Illustrator 24.2.1, SVG Export Plug-In . SVG Version: 6.00 Build 0)  -->
<svg version="1.1" id="图层_1" xmlns="http://www.w3.org/2000/svg" xmlns:xlink="http://www.w3.org/1999/xlink" x="0px" y="0px"
	 viewBox="0 0 24 24" style="enable-background:new 0 0 24 24;" xml:space="preserve">
<style type="text/css">
	.st0{fill:#7E7E7E;}
</style>
<path class="st0" d="M12,12c-3,0-5.5-2.5-5.5-5.5S9,1,12,1s5.5,2.5,5.5,5.5C17.5,9.5,15,12,12,12z M12,3c-1.9,0-3.5,1.6-3.5,3.5
	S10.1,10,12,10s3.5-1.6,3.5-3.5S13.9,3,12,3z"/>
<path class="st0" d="M20,23H4c-1.7,0-3-1.3-3-3v-1c0-2.8,2.2-5,5-5h12c2.8,0,5,2.2,5,5v1C23,21.7,21.7,23,20,23z M6,16
	c-1.7,0-3,1.3-3,3v1c0,0.6,0.4,1,1,1h16c0.6,0,1-0.4,1-1v-1c0-1.7-1.3-3-3-3H6z"/>
</svg>
