<?xml version="1.0" encoding="utf-8"?>
<!-- Generator: Adobe Illustrator 24.0.0, SVG Export Plug-In . SVG Version: 6.00 Build 0)  -->
<svg version="1.1" id="图层_2" xmlns="http://www.w3.org/2000/svg" xmlns:xlink="http://www.w3.org/1999/xlink" x="0px" y="0px"
	 viewBox="0 0 16 16" style="enable-background:new 0 0 16 16;" xml:space="preserve">
<style type="text/css">
	.st0{fill:#262626;}
</style>
<g>
	<path class="st0" d="M3,12c0.6,0,1,0.4,1,1s-0.4,1-1,1s-1-0.4-1-1S2.4,12,3,12 M3,11c-1.1,0-2,0.9-2,2s0.9,2,2,2s2-0.9,2-2
		S4.1,11,3,11L3,11z"/>
</g>
<g>
	<path class="st0" d="M13,12c0.6,0,1,0.4,1,1s-0.4,1-1,1s-1-0.4-1-1S12.4,12,13,12 M13,11c-1.1,0-2,0.9-2,2s0.9,2,2,2s2-0.9,2-2
		S14.1,11,13,11L13,11z"/>
</g>
<g>
	<path class="st0" d="M8,2L8,2c0.3,0,0.6,0.1,0.8,0.4C9,2.6,9,2.9,9,3.2c0,0.3-0.2,0.5-0.4,0.7C8.4,3.9,8.2,4,8,4
		C7.7,4,7.4,3.9,7.2,3.6C7,3.4,7,3.1,7,2.8c0-0.3,0.2-0.5,0.4-0.7C7.6,2.1,7.8,2,8,2 M8,1C7.6,1,7.2,1.1,6.8,1.4
		C5.9,2,5.7,3.3,6.4,4.2C6.8,4.7,7.4,5,8,5c0.4,0,0.8-0.1,1.2-0.4c0.9-0.7,1.1-1.9,0.4-2.8C9.2,1.3,8.6,1,8,1L8,1z"/>
</g>
<rect x="7.5" y="8.5" transform="matrix(-1.836970e-16 1 -1 -1.836970e-16 20.5 4.5)" class="st0" width="1" height="8"/>
<rect x="10" y="3.8" transform="matrix(-0.866 0.5 -0.5 -0.866 23.5475 9.7664)" class="st0" width="1" height="8.5"/>
<rect x="5" y="3.8" transform="matrix(0.866 0.5 -0.5 0.866 4.7512 -1.6558)" class="st0" width="1" height="8.5"/>
</svg>
