<?xml version="1.0" encoding="utf-8"?>
<!-- Generator: Adobe Illustrator 24.0.2, SVG Export Plug-In . SVG Version: 6.00 Build 0)  -->
<!DOCTYPE svg PUBLIC "-//W3C//DTD SVG 1.1//EN" "http://www.w3.org/Graphics/SVG/1.1/DTD/svg11.dtd" [
	<!ENTITY ns_extend "http://ns.adobe.com/Extensibility/1.0/">
	<!ENTITY ns_ai "http://ns.adobe.com/AdobeIllustrator/10.0/">
	<!ENTITY ns_graphs "http://ns.adobe.com/Graphs/1.0/">
	<!ENTITY ns_vars "http://ns.adobe.com/Variables/1.0/">
	<!ENTITY ns_imrep "http://ns.adobe.com/ImageReplacement/1.0/">
	<!ENTITY ns_sfw "http://ns.adobe.com/SaveForWeb/1.0/">
	<!ENTITY ns_custom "http://ns.adobe.com/GenericCustomNamespace/1.0/">
	<!ENTITY ns_adobe_xpath "http://ns.adobe.com/XPath/1.0/">
]>
<svg version="1.1" id="图层_1" xmlns:x="&ns_extend;" xmlns:i="&ns_ai;" xmlns:graph="&ns_graphs;"
	 xmlns="http://www.w3.org/2000/svg" xmlns:xlink="http://www.w3.org/1999/xlink" x="0px" y="0px" viewBox="0 0 24 24"
	 enable-background="new 0 0 24 24" xml:space="preserve">
<metadata>
	<sfw  xmlns="&ns_sfw;">
		<slices></slices>
		<sliceSourceBounds  bottomLeftOrigin="true" height="1298" width="1504" x="-206" y="-620"></sliceSourceBounds>
	</sfw>
</metadata>
<g>
	<path fill="#404040" d="M12,9C9.8,9,8,7.2,8,5s1.8-4,4-4s4,1.8,4,4S14.2,9,12,9z M12,3c-1.1,0-2,0.9-2,2s0.9,2,2,2s2-0.9,2-2
		S13.1,3,12,3z"/>
	<path fill="none" d="M5.7,18h10.5c0.2-0.6,0.7-1.2,1.2-1.5L12,7L5.7,18z"/>
	<path fill="#404040" d="M14.3,6.9c-0.4,0.5-1,0.9-1.7,1l4.9,8.5c0.5-0.3,1-0.5,1.6-0.5c0.2,0,0.3,0,0.5,0L14.3,6.9z"/>
	<path fill="#404040" d="M19,23c-2.2,0-4-1.8-4-4s1.8-4,4-4s4,1.8,4,4S21.2,23,19,23z M19,17c-1.1,0-2,0.9-2,2s0.9,2,2,2s2-0.9,2-2
		S20.1,17,19,17z"/>
	<path fill="#404040" d="M16,19c0-0.4,0.1-0.7,0.2-1H7.8C7.9,18.3,8,18.6,8,19s-0.1,0.7-0.2,1h8.4C16.1,19.7,16,19.4,16,19z"/>
	<path fill="#404040" d="M6.6,16.5l4.9-8.5c-0.7-0.1-1.3-0.5-1.7-1L4.5,16c0.2,0,0.3,0,0.5,0C5.6,16,6.1,16.2,6.6,16.5z"/>
	<path fill="#404040" d="M5,23c-2.2,0-4-1.8-4-4s1.8-4,4-4s4,1.8,4,4S7.2,23,5,23z M5,17c-1.1,0-2,0.9-2,2s0.9,2,2,2s2-0.9,2-2
		S6.1,17,5,17z"/>
</g>
</svg>
