<svg id="图层_1" data-name="图层 1" xmlns="http://www.w3.org/2000/svg" viewBox="0 0 24 24"><defs><style>.cls-1{fill:#404040;}.cls-2{fill:none;}</style></defs><title>vpn</title><path class="cls-1" d="M12,9a4,4,0,1,1,4-4A4,4,0,0,1,12,9Zm0-6a2,2,0,1,0,2,2A2,2,0,0,0,12,3Z"/><path class="cls-2" d="M5.72,18H16.18a3,3,0,0,1,1.22-1.53L12,7Z"/><path class="cls-1" d="M14.26,7a3,3,0,0,1-1.73,1l4.87,8.52A3,3,0,0,1,19,16a2.31,2.31,0,0,1,.46.05Z"/><path class="cls-1" d="M19,23a4,4,0,1,1,4-4A4,4,0,0,1,19,23Zm0-6a2,2,0,1,0,2,2A2,2,0,0,0,19,17Z"/><path class="cls-1" d="M16,19a3,3,0,0,1,.18-1H7.82a2.87,2.87,0,0,1,0,2h8.36A3,3,0,0,1,16,19Z"/><path class="cls-1" d="M6.6,16.47,11.47,8A3,3,0,0,1,9.74,7l-5.2,9.1A2.31,2.31,0,0,1,5,16,3,3,0,0,1,6.6,16.47Z"/><path class="cls-1" d="M5,23a4,4,0,1,1,4-4A4,4,0,0,1,5,23Zm0-6a2,2,0,1,0,2,2A2,2,0,0,0,5,17Z"/></svg>