<?xml version="1.0" encoding="utf-8"?>
<!-- Generator: Adobe Illustrator 24.0.2, SVG Export Plug-In . SVG Version: 6.00 Build 0)  -->
<!DOCTYPE svg PUBLIC "-//W3C//DTD SVG 1.1//EN" "http://www.w3.org/Graphics/SVG/1.1/DTD/svg11.dtd" [
	<!ENTITY ns_extend "http://ns.adobe.com/Extensibility/1.0/">
	<!ENTITY ns_ai "http://ns.adobe.com/AdobeIllustrator/10.0/">
	<!ENTITY ns_graphs "http://ns.adobe.com/Graphs/1.0/">
	<!ENTITY ns_vars "http://ns.adobe.com/Variables/1.0/">
	<!ENTITY ns_imrep "http://ns.adobe.com/ImageReplacement/1.0/">
	<!ENTITY ns_sfw "http://ns.adobe.com/SaveForWeb/1.0/">
	<!ENTITY ns_custom "http://ns.adobe.com/GenericCustomNamespace/1.0/">
	<!ENTITY ns_adobe_xpath "http://ns.adobe.com/XPath/1.0/">
]>
<svg version="1.1" id="图层_1" xmlns:x="&ns_extend;" xmlns:i="&ns_ai;" xmlns:graph="&ns_graphs;"
	 xmlns="http://www.w3.org/2000/svg" xmlns:xlink="http://www.w3.org/1999/xlink" x="0px" y="0px" viewBox="0 0 24 24"
	 enable-background="new 0 0 24 24" xml:space="preserve">
<metadata>
	<sfw  xmlns="&ns_sfw;">
		<slices></slices>
		<sliceSourceBounds  bottomLeftOrigin="true" height="1298" width="1504" x="-206" y="-620"></sliceSourceBounds>
	</sfw>
</metadata>
<path fill="#FFFFFF" d="M19,15c0,0-0.1,0-0.1,0l-4.1-7.2C15.5,7.1,16,6.1,16,5c0-2.2-1.8-4-4-4S8,2.8,8,5c0,1.1,0.5,2.1,1.2,2.9
	L5.1,15c0,0-0.1,0-0.1,0c-2.2,0-4,1.8-4,4s1.8,4,4,4c1.9,0,3.4-1.3,3.9-3h6.3c0.4,1.7,2,3,3.9,3c2.2,0,4-1.8,4-4S21.2,15,19,15z
	 M12,3c1.1,0,2,0.9,2,2s-0.9,2-2,2s-2-0.9-2-2S10.9,3,12,3z M11,8.8C11.3,8.9,11.6,9,12,9s0.7-0.1,1-0.2l3.9,6.8
	C16,16.1,15.4,17,15.1,18H8.9c-0.3-1-0.9-1.9-1.8-2.4L11,8.8z M5,21c-1.1,0-2-0.9-2-2s0.9-2,2-2s2,0.9,2,2S6.1,21,5,21z M19,21
	c-1.1,0-2-0.9-2-2s0.9-2,2-2s2,0.9,2,2S20.1,21,19,21z"/>
</svg>
