<?xml version="1.0" encoding="UTF-8"?>
<svg width="16px" height="16px" viewBox="0 0 16 16" version="1.1" xmlns="http://www.w3.org/2000/svg" xmlns:xlink="http://www.w3.org/1999/xlink">
    <title>VPN</title>
    <g id="Icon" stroke="none" stroke-width="1" fill="none" fill-rule="evenodd">
        <g id="Icon-Sets" transform="translate(-164.000000, -2458.000000)">
            <g id="编组-9" transform="translate(0.000000, 2401.000000)">
                <g id="VPN" transform="translate(164.000000, 57.000000)">
                    <rect id="矩形" fill="#000000" fill-rule="nonzero" opacity="0" x="0" y="0" width="16" height="16"></rect>
                    <path d="M8.54233686,0.821406655 L8.6970779,0.885417588 L8.88146491,0.987443562 C9.97166822,1.68369425 10.963327,2.13785468 11.8447732,2.3520053 L12.1058889,2.40905227 L12.3484465,2.45051928 C12.9657696,2.54136813 13.4338873,3.04176817 13.4935593,3.65165878 L13.5,3.78391615 L13.5,8 L12.5,8 L12.5,3.7839461 C12.5,3.6360678 12.4070752,3.5073527 12.2659948,3.45665807 L12.191649,3.43808494 L11.9270209,3.3928633 C10.9336901,3.200903 9.85739876,2.75166835 8.71495871,2.06081476 L8.37025904,1.84632577 L8.263,1.787 L8.16455142,1.74996933 C8.02227683,1.70973975 7.87013388,1.71760237 7.73244218,1.77269642 L7.63226301,1.82285939 L7.26570484,2.04063829 C6.04442508,2.74879613 4.9617351,3.20035813 4.03123055,3.388312 L3.78123999,3.43303115 L3.71045452,3.4477876 C3.60708491,3.47827731 3.52984901,3.5631001 3.50697509,3.66617606 L3.5,3.72992338 L3.5,8 L2.5,8 L2.5,3.72989858 C2.5,3.19884765 2.82336372,2.72829563 3.32934646,2.52537245 L3.45956525,2.48033713 L3.59469962,2.45113515 C4.47370739,2.31394182 5.53523722,1.88873071 6.77122564,1.17140221 L7.08385263,0.985981928 L7.25918784,0.888954722 C7.66127475,0.696093362 8.12368277,0.672334207 8.54233686,0.821406655 Z M8.31095433,3.21972092 L8.40822924,3.27255913 C9.21985555,3.79089857 9.96041287,4.11927597 10.6299012,4.25769133 L10.8504318,4.29679415 C11.1278089,4.33761457 11.3333368,4.57560289 11.3333333,4.85596757 L11.3333333,7.66666667 C11.3333333,7.77818596 11.3226281,7.88947721 11.3023803,8.00008654 L4.70176289,8.00027207 C4.67883511,7.88860059 4.66666667,7.77717407 4.66666667,7.66666667 L4.66666667,4.81997172 C4.66666083,4.58803687 4.81683972,4.38682895 5.03127792,4.31671929 L5.11453658,4.29676944 C5.79835048,4.19004148 6.61421865,3.8496638 7.56214109,3.27563642 L7.57151957,3.26994625 L7.5812086,3.26403374 C7.80404907,3.12810304 8.07761434,3.11364462 8.31095433,3.21972092 Z" id="形状结合" fill="#FFFFFF" fill-rule="nonzero"></path>
                    <path d="M3.50920383,9 L12.4907962,9 C13.3166973,9 13.6509198,9.09282561 13.9768457,9.2671327 C14.3027716,9.4414398 14.5585602,9.69722837 14.7328673,10.0231543 C14.9071744,10.3490802 15,10.6833027 15,11.5092038 L15,12.4907962 C15,13.3166973 14.9071744,13.6509198 14.7328673,13.9768457 C14.5585602,14.3027716 14.3027716,14.5585602 13.9768457,14.7328673 C13.6509198,14.9071744 13.3166973,15 12.4907962,15 L3.50920383,15 C2.68330273,15 2.34908022,14.9071744 2.0231543,14.7328673 C1.69722837,14.5585602 1.4414398,14.3027716 1.2671327,13.9768457 C1.09282561,13.6509198 1,13.3166973 1,12.4907962 L1,11.5092038 C1,10.6833027 1.09282561,10.3490802 1.2671327,10.0231543 C1.4414398,9.69722837 1.69722837,9.4414398 2.0231543,9.2671327 C2.34908022,9.09282561 2.68330273,9 3.50920383,9 Z M4.69963096,13.9951456 C4.8475463,13.9951456 4.98569365,13.9401294 5.114073,13.8300971 C5.24245235,13.7200647 5.34152771,13.566343 5.4112991,13.368932 L5.4112991,13.368932 L6.32390883,10.6699029 C6.34344482,10.6084142 6.35321281,10.5420712 6.35321281,10.4708738 C6.35321281,10.2734628 6.25274202,10.1294498 6.05180042,10.038835 C5.99598331,10.012945 5.9499342,10 5.91365308,10 C5.69875721,10 5.55781901,10.1148867 5.49083848,10.3446602 L5.49083848,10.3446602 L4.80010176,12.8058252 C4.77498406,12.8964401 4.74009837,12.9417476 4.69544468,12.9417476 C4.65079099,12.9417476 4.6159053,12.8980583 4.5907876,12.8106796 L4.5907876,12.8106796 L3.83307035,10.3106796 C3.76888067,10.1035599 3.64329218,10 3.45630486,10 C3.34467065,10 3.241409,10.0436893 3.14651991,10.131068 C3.04883997,10.2216828 3,10.3300971 3,10.4563107 C3,10.5372168 3.01395428,10.6165049 3.04186283,10.6941748 L3.04186283,10.6941748 L3.96284513,13.3786408 C4.02982566,13.579288 4.13308731,13.7346278 4.27263008,13.8446602 C4.40380029,13.9449838 4.54613391,13.9951456 4.69963096,13.9951456 Z M6.94714979,13.9223301 C7.06715657,13.9223301 7.16762736,13.8867314 7.24856217,13.815534 C7.34345126,13.7346278 7.3908958,13.6245955 7.3908958,13.4854369 L7.3908958,13.4854369 L7.3908958,12.6504854 L8.64259447,12.6504854 C8.96075199,12.6504854 9.22030154,12.5080906 9.42124313,12.223301 C9.59985788,11.9773463 9.68916526,11.6877023 9.68916526,11.3543689 C9.68916526,11.0177994 9.60404416,10.7281553 9.43380198,10.4854369 C9.24681467,10.2200647 8.99703311,10.0873786 8.6844573,10.0873786 L8.6844573,10.0873786 L7.12297368,10.0873786 C6.96110406,10.0873786 6.82574757,10.1391586 6.71690421,10.2427184 C6.59968828,10.3559871 6.54108032,10.5048544 6.54108032,10.6893204 L6.54108032,10.6893204 L6.54108032,13.4854369 C6.54108032,13.618123 6.58154772,13.723301 6.66248253,13.8009709 C6.74062648,13.881877 6.83551557,13.9223301 6.94714979,13.9223301 Z M8.52956482,11.8203883 L7.3908958,11.8203883 L7.3908958,11.1067961 C7.3908958,11.0194175 7.41182722,10.9644013 7.45369005,10.9417476 C7.47601689,10.9288026 7.52346143,10.9223301 7.59602368,10.9223301 L7.59602368,10.9223301 L8.50444712,10.9223301 C8.60770877,10.9223301 8.69143444,10.9708738 8.75562411,11.0679612 C8.81423207,11.1488673 8.84353606,11.2443366 8.84353606,11.3543689 C8.84353606,11.4708738 8.81702293,11.5744337 8.76399668,11.6650485 C8.70817957,11.7686084 8.63003562,11.8203883 8.52956482,11.8203883 L8.52956482,11.8203883 Z M10.3040336,14 C10.4240404,14 10.5245112,13.961165 10.605446,13.8834951 C10.6975443,13.7993528 10.7435934,13.6812298 10.7435934,13.5291262 L10.7435934,13.5291262 L10.7435934,11.7281553 L12.1083217,13.7621359 C12.2143742,13.9174757 12.3553124,13.9951456 12.5311363,13.9951456 C12.6595156,13.9951456 12.7697544,13.9498382 12.8618527,13.8592233 C12.9539509,13.7686084 13,13.6407767 13,13.4757282 L13,13.4757282 L13,10.4126214 C13,10.2831715 12.9567417,10.1796117 12.8702252,10.1019417 C12.7920813,10.0372168 12.6944013,10.0048544 12.5771854,10.0048544 C12.4599695,10.0048544 12.3608941,10.038835 12.2799593,10.1067961 C12.1934428,10.184466 12.1501845,10.2880259 12.1501845,10.4174757 L12.1501845,10.4174757 L12.1501845,12.3737864 L10.7645248,10.2330097 C10.664054,10.0776699 10.5217204,10 10.3375239,10 C10.2119354,10 10.1100692,10.0436893 10.0319252,10.131068 C9.94261787,10.2281553 9.89796418,10.3592233 9.89796418,10.5242718 L9.89796418,10.5242718 L9.89796418,13.5291262 C9.89796418,13.671521 9.93843158,13.7847896 10.0193664,13.868932 C10.0975103,13.9563107 10.1923994,14 10.3040336,14 Z" id="形状结合" fill="#FFFFFF"></path>
                </g>
            </g>
        </g>
    </g>
</svg>