<?xml version="1.0" encoding="UTF-8"?>
<svg viewBox="0 0 16 16" version="1.1" xmlns="http://www.w3.org/2000/svg" xmlns:xlink="http://www.w3.org/1999/xlink">
    <title>wallpaper</title>
    <g id="Icon" stroke="none" stroke-width="1" fill="none" fill-rule="evenodd">
        <g id="Icon-Sets" transform="translate(-308.000000, -2489.000000)">
            <g id="编组-9" transform="translate(0.000000, 2399.000000)">
                <g id="wallpaper" transform="translate(308.000000, 90.000000)">
                    <rect id="矩形" fill="#000000" fill-rule="nonzero" opacity="0" x="0" y="0" width="16" height="16"></rect>
                    <path d="M2.00178418,14 C1.81343269,14 1.6289105,13.9468059 1.46946297,13.8465425 C1.00193048,13.5525496 0.861248839,12.9352113 1.15524173,12.4676788 L1.15524173,12.4676788 L3.71941374,8.38991445 C3.79926193,8.26293307 3.90665359,8.15554141 4.03363498,8.07569322 C4.50116746,7.78170033 5.11850576,7.92238197 5.41249864,8.38991445 L5.41249864,8.38991445 L6.426,10.001 L9.04984279,5.53187518 C9.32938852,5.05556369 9.94213186,4.89605353 10.4184433,5.17559926 C10.5656641,5.26200266 10.6883159,5.38465444 10.7747193,5.53187518 L14.8606734,12.4938377 C15.1402191,12.9701492 14.980709,13.5828925 14.5043975,13.8624382 C14.3509221,13.9525125 14.1761904,14 13.9982352,14 Z" id="形状结合" fill-opacity="0.75" fill="#262626"></path>
                    <circle id="椭圆形" fill-opacity="0.75" fill="#262626" cx="3" cy="4" r="2"></circle>
                </g>
            </g>
        </g>
    </g>
</svg>