<?xml version="1.0" encoding="UTF-8"?>
<svg width="183px" height="127px" viewBox="0 0 183 127" version="1.1" xmlns="http://www.w3.org/2000/svg" xmlns:xlink="http://www.w3.org/1999/xlink">
    <title>Warning-bro</title>
    <defs>
        <linearGradient x1="85.0986121%" y1="-1.6062038%" x2="14.9013879%" y2="100%" id="linearGradient-1">
            <stop stop-color="#5E7693" offset="0%"></stop>
            <stop stop-color="#4E637C" stop-opacity="0" offset="100%"></stop>
        </linearGradient>
    </defs>
    <g id="Edu-OS-Light" stroke="none" stroke-width="1" fill="none" fill-rule="evenodd">
        <g id="TM-控制面板23-还原" transform="translate(-1019.000000, -395.000000)">
            <g id="编组" transform="translate(928.000000, 395.000000)">
                <g id="Warning-bro" transform="translate(91.000000, 0.000000)">
                    <path d="M157,89 L157,6 C157,3.790861 155.209139,2 153,2 L29,2 C26.790861,2 25,3.790861 25,6 L25,89 C25,91.209139 26.790861,93 29,93 L153,93 C155.209139,93 157,91.209139 157,89 Z" id="路径" fill="#7499C4"></path>
                    <rect id="矩形" fill="#A2C3EA" x="37" y="87" width="21" height="6" rx="1"></rect>
                    <rect id="矩形备份" fill="#A2C3EA" x="125" y="87" width="21" height="6" rx="1"></rect>
                    <rect id="矩形" fill="#4E637C" x="28" y="7" width="126" height="74" rx="1"></rect>
                    <path d="M88.4871682,18.3611967 C89.6708175,16.5462678 92.3291825,16.5462678 93.5128318,18.3611967 L93.5128318,18.3611967 L124.81718,66.3611967 C126.118598,68.3567049 124.68673,71 122.304348,71 L122.304348,71 L59.6956522,71 C57.3132704,71 55.881402,68.3567049 57.1828204,66.3611967 L57.1828204,66.3611967 Z M91,58 C88.790861,58 87,59.790861 87,62 C87,64.209139 88.790861,66 91,66 C93.209139,66 95,64.209139 95,62 C95,59.790861 93.209139,58 91,58 Z M93.9311136,33 L88.0356085,33.0005539 L88.0023674,33.0022148 C87.4513059,33.0389523 87.0343638,33.5154575 87.0711013,34.066519 L87.0711013,34.066519 L88.2711013,52.066519 C88.3061211,52.5918168 88.7424226,53 89.2688864,53 L89.2688864,53 L92.7311136,53 C93.2575774,53 93.6938789,52.5918168 93.7288987,52.066519 L93.7288987,52.066519 L94.9288987,34.066519 L94.9288987,34.066519 L94.9311136,34 C94.9311136,33.4477153 94.4833983,33 93.9311136,33 L93.9311136,33 Z" id="形状结合" fill="#FFE627" fill-rule="nonzero"></path>
                    <circle id="椭圆形" fill="#5C6774" cx="91" cy="5" r="1"></circle>
                    <path d="M0,122.107705 L182.749587,122.107705 L157.494434,92.6970491 C157.114481,92.2545777 156.560315,92 155.977095,92 L26.1966002,92 C25.6054231,92 25.0445342,92.2615426 24.6645273,92.7144058 L0,122.107705 L0,122.107705 Z" id="路径" fill="#A2C3EA"></path>
                    <path d="M21.0307996,108.427459 L161.041389,108.427459 C161.593674,108.427459 162.041389,107.979744 162.041389,107.427459 C162.041389,107.21569 161.974161,107.009389 161.849391,106.838279 L153.398783,95.2490997 C153.022301,94.7327912 152.421773,94.427459 151.782779,94.427459 L30.6943996,94.427459 C30.0711897,94.427459 29.4835981,94.7179707 29.1052188,95.2131674 L20.2362092,106.820313 C19.9008918,107.259153 19.9848136,107.886732 20.4236538,108.222049 C20.5980167,108.35528 20.8113621,108.427459 21.0307996,108.427459 Z" id="路径备份" fill="#7499C4"></path>
                    <path d="M65.464307,119.463615 L116.699409,119.463615 C117.251694,119.463615 117.699409,119.0159 117.699409,118.463615 C117.699409,118.323623 117.670016,118.185191 117.613132,118.057277 L114.294013,110.593662 C114.133465,110.232641 113.7754,110 113.380291,110 L68.3803043,110 C67.9684632,110 67.5987409,110.25249 67.448869,110.636093 L64.5328717,118.099708 C64.3318914,118.614126 64.5859824,119.19407 65.1003999,119.39505 C65.2163758,119.440362 65.3397938,119.463615 65.464307,119.463615 Z" id="路径备份-2" fill="#7499C4"></path>
                    <path d="M2,121 L181,121 C182.104569,121 183,121.895431 183,123 C183,124.104569 182.104569,125 181,125 L2,125 C0.8954305,125 1.3527075e-16,124.104569 0,123 C-1.3527075e-16,121.895431 0.8954305,121 2,121 Z" id="矩形" fill="#7499C4"></path>
                    <path d="M29,7 L90,7 L90,7 L41.5,81 L29,81 C28.4477153,81 28,80.5522847 28,80 L28,8 C28,7.44771525 28.4477153,7 29,7 Z" id="矩形备份-2" fill="url(#linearGradient-1)"></path>
                </g>
            </g>
        </g>
    </g>
</svg>