<?xml version="1.0" encoding="UTF-8"?>
<svg width="16px" height="16px" viewBox="0 0 16 16" version="1.1" xmlns="http://www.w3.org/2000/svg" xmlns:xlink="http://www.w3.org/1999/xlink">
    <title>window-close-symbolic</title>
    <g id="Edu-OS-Light" stroke="none" stroke-width="1" fill="none" fill-rule="evenodd">
        <g id="PC-控制面板17-系统还原" transform="translate(-1870.000000, -776.000000)">
            <g id="弹窗-高级设置-添加" transform="translate(1392.000000, 760.000000)">
                <g id="window-close-symbolic" transform="translate(478.000000, 16.000000)">
                    <rect id="矩形备份-7" fill="#D8D8D8" opacity="0" x="0" y="0" width="16" height="16" rx="2"></rect>
                    <path d="M14.5,9 L1.5,9 C1.22385763,9 1,8.77614237 1,8.5 L1,7.5 C1,7.22385763 1.22385763,7 1.5,7 L14.5,7 C14.7761424,7 15,7.22385763 15,7.5 L15,8.5 C15,8.77614237 14.7761424,9 14.5,9 Z" id="最小化" fill="#595959" transform="translate(8.000000, 8.000000) rotate(45.000000) translate(-8.000000, -8.000000) "></path>
                    <path d="M14.5,9 L1.5,9 C1.22385763,9 1,8.77614237 1,8.5 L1,7.5 C1,7.22385763 1.22385763,7 1.5,7 L14.5,7 C14.7761424,7 15,7.22385763 15,7.5 L15,8.5 C15,8.77614237 14.7761424,9 14.5,9 Z" id="最小化备份" fill="#595959" transform="translate(8.000000, 8.000000) scale(-1, 1) rotate(45.000000) translate(-8.000000, -8.000000) "></path>
                </g>
            </g>
        </g>
    </g>
</svg>