<?xml version="1.0" encoding="UTF-8"?>
<svg width="24px" height="24px" viewBox="0 0 24 24" version="1.1" xmlns="http://www.w3.org/2000/svg" xmlns:xlink="http://www.w3.org/1999/xlink">
    <title>音量</title>
    <g id="Edu-OS-Light" stroke="none" stroke-width="1" fill="none" fill-rule="evenodd">
        <g id="PC-控制面板20-声音" transform="translate(-1504.000000, -371.000000)">
            <g id="控制面板备份" transform="translate(360.000000, 186.000000)">
                <g id="04显示器" transform="translate(316.000000, 72.000000)">
                    <g id="设置" transform="translate(0.000000, 28.000000)">
                        <g id="分辨率备份-6" transform="translate(16.000000, 73.000000)">
                            <g id="icon-音量-1-35%" transform="translate(812.000000, 12.000000)">
                                <path d="M4.97190331,6.96027719 L10.0558981,2.27816849 C10.4621491,1.90403136 11.0947787,1.93006478 11.4689158,2.33631575 C11.6389475,2.52094205 11.7333333,2.7627576 11.7333333,3.01375095 L11.7333333,20.4529157 C11.7333333,21.0052005 11.2856181,21.4529157 10.7333333,21.4529157 C10.48234,21.4529157 10.2405244,21.3585299 10.0558981,21.1884982 L4.97190331,16.5063895 C4.78727701,16.3363578 4.54546146,16.2419719 4.29446812,16.2419719 L1.73333333,16.2419719 C1.18104858,16.2419719 0.733333333,15.7942567 0.733333333,15.2419719 L0.733333333,8.22469473 C0.733333333,7.67240998 1.18104858,7.22469473 1.73333333,7.22469473 L4.29446812,7.22469473 C4.54546146,7.22469473 4.78727701,7.13030891 4.97190331,6.96027719 Z" id="矩形" fill="#6F6F6F"></path>
                                <path d="M14.1777778,16.6222222 C16.8778366,16.6222222 19.0666667,14.4333921 19.0666667,11.7333333 C19.0666667,9.03327456 16.8778366,6.84444444 14.1777778,6.84444444" id="路径" stroke="#6F6F6F" stroke-width="2"></path>
                                <path d="M14.1777778,9.51111111 C15.4050772,9.51111111 16.4,10.5060339 16.4,11.7333333 C16.4,12.9072719 15.4897115,13.8686013 14.3364798,13.9499759 L14.1777778,13.9555556 L14.1777778,9.51111111 Z" id="路径备份-3" fill="#6F6F6F"></path>
                                <path d="M14.1777778,20.2888889 C18.9028806,20.2888889 22.7333333,16.4584362 22.7333333,11.7333333 C22.7333333,7.00823047 18.9028806,3.17777778 14.1777778,3.17777778" id="路径备份-2" stroke="#6F6F6F" stroke-width="2"></path>
                            </g>
                        </g>
                    </g>
                </g>
            </g>
        </g>
    </g>
</svg>