<?xml version="1.0" encoding="UTF-8"?>
<svg width="24px" height="24px" viewBox="0 0 24 24" version="1.1" xmlns="http://www.w3.org/2000/svg" xmlns:xlink="http://www.w3.org/1999/xlink">
    <title>音量</title>
    <g id="Edu-OS-Light" stroke="none" stroke-width="1" fill="none" fill-rule="evenodd">
        <g id="PC-控制面板20-声音" transform="translate(-850.000000, -633.000000)">
            <g id="控制面板备份" transform="translate(360.000000, 186.000000)">
                <g id="04显示器" transform="translate(316.000000, 72.000000)">
                    <g id="屏幕亮度" transform="translate(0.000000, 290.000000)">
                        <g id="分辨率备份-6" transform="translate(16.000000, 73.000000)">
                            <g id="屏幕亮度" transform="translate(0.000000, 12.000000)">
                                <g id="icon/microphone" transform="translate(158.000000, 0.000000)">
                                    <rect id="矩形" fill="#D8D8D8" opacity="0" x="0" y="0" width="24" height="24"></rect>
                                    <path d="M7,12 L7,14 C7,15.5976809 8.24891996,16.9036609 9.82372721,16.9949073 L10,17 L14,17 L14.166,16.994 L15.8259532,18.6561027 C15.3240969,18.8530652 14.7826668,18.9712333 14.2168896,18.9953805 L14,19 L13,19 L13,22 L11,22 L11,19 L10,19 C7.3112453,19 5.11818189,16.8776933 5.00461951,14.2168896 L5,14 L5,12 L7,12 Z M8,10.828 L13.171,16 L10,16 C8.8954305,16 8,15.1045695 8,14 L8,10.828 Z M19,12 L19,14 C19,14.6445125 18.8780537,15.260543 18.6559756,15.826277 L16.994,14.165 L17,14 L17,12 L19,12 Z M14,2 C15.1045695,2 16,2.8954305 16,4 L16,13.171 L8,5.171 L8,4 C8,2.8954305 8.8954305,2 10,2 L14,2 Z" id="形状结合" fill="#6F6F6F"></path>
                                    <path d="M11.6409713,1 L12.3590287,1 C12.5819084,1 12.6627299,1.0232064 12.7442114,1.06678318 C12.8256929,1.11035995 12.8896401,1.17430709 12.9332168,1.25578857 C12.9767936,1.33727006 13,1.41809162 13,1.6409713 L13,22.3590287 C13,22.5819084 12.9767936,22.6627299 12.9332168,22.7442114 C12.8896401,22.8256929 12.8256929,22.8896401 12.7442114,22.9332168 C12.6627299,22.9767936 12.5819084,23 12.3590287,23 L11.6409713,23 C11.4180916,23 11.3372701,22.9767936 11.2557886,22.9332168 C11.1743071,22.8896401 11.1103599,22.8256929 11.0667832,22.7442114 C11.0232064,22.6627299 11,22.5819084 11,22.3590287 L11,1.6409713 C11,1.41809162 11.0232064,1.33727006 11.0667832,1.25578857 C11.1103599,1.17430709 11.1743071,1.11035995 11.2557886,1.06678318 C11.3372701,1.0232064 11.4180916,1 11.6409713,1 Z" id="矩形备份-7" fill="#6F6F6F" fill-rule="nonzero" transform="translate(12.000000, 12.000000) scale(-1, 1) rotate(45.000000) translate(-12.000000, -12.000000) "></path>
                                </g>
                            </g>
                        </g>
                    </g>
                </g>
            </g>
        </g>
    </g>
</svg>