<?xml version="1.0" encoding="UTF-8"?>
<svg width="16px" height="16px" viewBox="0 0 16 16" version="1.1" xmlns="http://www.w3.org/2000/svg" xmlns:xlink="http://www.w3.org/1999/xlink">
    <title>日期</title>
    <g id="Edu-OS-Light" stroke="none" stroke-width="1" fill="none" fill-rule="evenodd">
        <g id="PC-控制面板20-时间与日期-弹窗" transform="translate(-1199.000000, -208.000000)" fill-rule="nonzero">
            <g id="弹窗-手动更改时间备份-2" transform="translate(896.000000, 32.000000)">
                <g id="time-selector备份" transform="translate(24.000000, 160.000000)">
                    <g id="time-selector备份-3" transform="translate(80.000000, 0.000000)">
                        <g id="日期" transform="translate(199.000000, 16.000000)">
                            <rect id="矩形" fill="#000000" opacity="0" x="0" y="0" width="16" height="16"></rect>
                            <path d="M12.5,15 L3.5,15 C2.6734375,15 2,14.3265625 2,13.5 L2,3.75 C2,2.9234375 2.6734375,2.25 3.5,2.25 L12.5,2.25 C13.3265625,2.25 14,2.9234375 14,3.75 L14,13.5 C14,14.3265625 13.3265625,15 12.5,15 Z M3.5,3.25 C3.225,3.25 3,3.475 3,3.75 L3,13.5 C3,13.775 3.225,14 3.5,14 L12.5,14 C12.775,14 13,13.775 13,13.5 L13,3.75 C13,3.475 12.775,3.25 12.5,3.25 L3.5,3.25 Z" id="形状" fill="#A8A8A8"></path>
                            <path d="M5.5,11 C5.7765625,11 6,11.2234375 6,11.5 C6,11.7765625 5.7765625,12 5.5,12 L4.75,12 C4.4734375,12 4.25,11.7765625 4.25,11.5 C4.25,11.2234375 4.4734375,11 4.75,11 L5.5,11 Z M8.375,11 C8.6515625,11 8.875,11.2234375 8.875,11.5 C8.875,11.7765625 8.6515625,12 8.375,12 L7.625,12 C7.3484375,12 7.125,11.7765625 7.125,11.5 C7.125,11.2234375 7.3484375,11 7.625,11 L8.375,11 Z M11.25,11 C11.5265625,11 11.75,11.2234375 11.75,11.5 C11.75,11.7765625 11.5265625,12 11.25,12 L10.5,12 C10.2234375,12 10,11.7765625 10,11.5 C10,11.2234375 10.2234375,11 10.5,11 L11.25,11 Z M5.5,8 C5.7765625,8 6,8.2234375 6,8.5 C6,8.7765625 5.7765625,9 5.5,9 L4.75,9 C4.4734375,9 4.25,8.7765625 4.25,8.5 C4.25,8.2234375 4.4734375,8 4.75,8 L5.5,8 Z M8.375,8 C8.6515625,8 8.875,8.2234375 8.875,8.5 C8.875,8.7765625 8.6515625,9 8.375,9 L7.625,9 C7.3484375,9 7.125,8.7765625 7.125,8.5 C7.125,8.2234375 7.3484375,8 7.625,8 L8.375,8 Z M11.25,8 C11.5265625,8 11.75,8.2234375 11.75,8.5 C11.75,8.7765625 11.5265625,9 11.25,9 L10.5,9 C10.2234375,9 10,8.7765625 10,8.5 C10,8.2234375 10.2234375,8 10.5,8 L11.25,8 Z M13.375,5 C13.6515625,5 13.875,5.2234375 13.875,5.5 C13.875,5.7765625 13.6515625,6 13.375,6 L2.5,6 C2.2234375,6 2,5.7765625 2,5.5 C2,5.2234375 2.2234375,5 2.5,5 L13.375,5 Z M5.5,1 C5.7765625,1 6,1.2234375 6,1.5 L6,4 C6,4.2765625 5.7765625,4.5 5.5,4.5 C5.2234375,4.5 5,4.2765625 5,4 L5,1.5 C5,1.2234375 5.2234375,1 5.5,1 Z M10.515625,1 C10.7921875,1 11.015625,1.2234375 11.015625,1.5 L11.015625,4 C11.015625,4.2765625 10.7921875,4.5 10.515625,4.5 C10.2390625,4.5 10.015625,4.2765625 10.015625,4 L10.015625,1.5 C10.015625,1.2234375 10.2390625,1 10.515625,1 Z" id="形状" fill="#A8A8A8"></path>
                        </g>
                    </g>
                </g>
            </g>
        </g>
    </g>
</svg>