<?xml version="1.0" encoding="UTF-8"?>
<svg width="24px" height="24px" viewBox="0 0 24 24" version="1.1" xmlns="http://www.w3.org/2000/svg" xmlns:xlink="http://www.w3.org/1999/xlink">
    <title>亮度</title>
    <g id="Edu-OS-Light" stroke="none" stroke-width="1" fill="none" fill-rule="evenodd">
        <g id="PC-控制面板25-显示器" transform="translate(-1863.000000, -831.000000)" fill-rule="nonzero">
            <g id="04显示器" transform="translate(316.000000, 72.000000)">
                <g id="设置" transform="translate(0.000000, 284.000000)">
                    <g id="分辨率备份-6" transform="translate(16.000000, 463.000000)">
                        <g id="屏幕亮度" transform="translate(0.000000, 12.000000)">
                            <g id="icon/bright" transform="translate(1531.000000, 0.000000)">
                                <rect id="矩形" fill="#000000" opacity="0" x="0" y="0" width="24" height="24"></rect>
                                <path d="M12,6 C8.68617187,6 6,8.68640625 6,12 C6,15.3135937 8.68617187,18 12,18 C15.3138281,18 18,15.3135937 18,12 C18,8.68640625 15.3138281,6 12,6 Z" id="路径" fill="#595959"></path>
                                <path d="M12,19.5 C12.8284271,19.5 13.5,20.1715729 13.5,21 C13.5,21.8284271 12.8284271,22.5 12,22.5 C11.1715729,22.5 10.5,21.8284271 10.5,21 C10.5,20.1715729 11.1715729,19.5 12,19.5 Z M6.69669914,17.3033009 C7.28248558,17.8890873 7.28248558,18.8388348 6.69669914,19.4246212 C6.1109127,20.0104076 5.16116524,20.0104076 4.5753788,19.4246212 C3.98959236,18.8388348 3.98959236,17.8890873 4.5753788,17.3033009 C5.16116524,16.7175144 6.1109127,16.7175144 6.69669914,17.3033009 Z M19.4246212,17.3033009 C20.0104076,17.8890873 20.0104076,18.8388348 19.4246212,19.4246212 C18.8388348,20.0104076 17.8890873,20.0104076 17.3033009,19.4246212 C16.7175144,18.8388348 16.7175144,17.8890873 17.3033009,17.3033009 C17.8890873,16.7175144 18.8388348,16.7175144 19.4246212,17.3033009 Z M3,10.5 C3.82842712,10.5 4.5,11.1715729 4.5,12 C4.5,12.8284271 3.82842712,13.5 3,13.5 C2.17157288,13.5 1.5,12.8284271 1.5,12 C1.5,11.1715729 2.17157288,10.5 3,10.5 Z M21,10.5 C21.8284271,10.5 22.5,11.1715729 22.5,12 C22.5,12.8284271 21.8284271,13.5 21,13.5 C20.1715729,13.5 19.5,12.8284271 19.5,12 C19.5,11.1715729 20.1715729,10.5 21,10.5 Z M6.69669914,4.5753788 C7.28248558,5.16116524 7.28248558,6.1109127 6.69669914,6.69669914 C6.1109127,7.28248558 5.16116524,7.28248558 4.5753788,6.69669914 C3.98959236,6.1109127 3.98959236,5.16116524 4.5753788,4.5753788 C5.16116524,3.98959236 6.1109127,3.98959236 6.69669914,4.5753788 Z M19.4246212,4.5753788 C20.0104076,5.16116524 20.0104076,6.1109127 19.4246212,6.69669914 C18.8388348,7.28248558 17.8890873,7.28248558 17.3033009,6.69669914 C16.7175144,6.1109127 16.7175144,5.16116524 17.3033009,4.5753788 C17.8890873,3.98959236 18.8388348,3.98959236 19.4246212,4.5753788 Z M12,1.5 C12.8284271,1.5 13.5,2.17157288 13.5,3 C13.5,3.82842712 12.8284271,4.5 12,4.5 C11.1715729,4.5 10.5,3.82842712 10.5,3 C10.5,2.17157288 11.1715729,1.5 12,1.5 Z" id="形状" fill="#595959"></path>
                            </g>
                        </g>
                    </g>
                </g>
            </g>
        </g>
    </g>
</svg>