<svg id="图层_1" data-name="图层 1" xmlns="http://www.w3.org/2000/svg" xmlns:xlink="http://www.w3.org/1999/xlink" viewBox="0 0 96 96"><defs><style>.cls-1{fill:url(#未命名的渐变_16);}</style><linearGradient id="未命名的渐变_16" x1="16.43" y1="22.93" x2="81.83" y2="88.33" gradientUnits="userSpaceOnUse"><stop offset="0" stop-color="#63fcf0"/><stop offset="1" stop-color="#477bfc"/></linearGradient></defs><title>96_color</title><path class="cls-1" d="M85.81,44.68A38.16,38.16,0,0,1,68.06,70.06a38.42,38.42,0,0,1-3.41,1.83A37.8,37.8,0,0,1,48.5,75.5a38.91,38.91,0,0,1-5.85-.45,25.79,25.79,0,0,1-1-2.71A27.49,27.49,0,0,1,41,69.63a33.26,33.26,0,0,0,7.51.87,32.82,32.82,0,0,0,18.37-5.6,33.73,33.73,0,0,0,2.87-2.17,36.71,36.71,0,0,0,2.72-2.57,32.91,32.91,0,0,0,8.82-18.87c.1-.91.17-1.84.19-2.77,0-.34,0-.68,0-1,0-.6,0-1.2,0-1.79a33,33,0,0,0-63.1-11.6,37.93,37.93,0,0,1,44.19,8.78c.67.73,1.3,1.49,1.91,2.27s1.18,1.56,1.72,2.37c-1,0-1.9.15-2.82.29a24.11,24.11,0,0,0-2.71.57c-.56-.73-1.15-1.43-1.76-2.11s-1.29-1.34-2-2A32.92,32.92,0,0,0,16.13,31.1a33.73,33.73,0,0,0-2.87,2.17,36.71,36.71,0,0,0-2.72,2.57A33,33,0,0,0,47,89c.86-.35,1.7-.75,2.52-1.17s1.62-.87,2.39-1.35c.76.53,1.54,1,2.34,1.49s1.66.88,2.52,1.26A27,27,0,0,0,85.81,44.68Z"/></svg>