<svg id="图层_1" data-name="图层 1" xmlns="http://www.w3.org/2000/svg" xmlns:xlink="http://www.w3.org/1999/xlink" viewBox="0 0 16 16"><defs><linearGradient id="未命名的渐变_7" x1="8" y1="17" x2="8" y2="3" gradientTransform="matrix(1, 0, 0, -1, 0, 18)" gradientUnits="userSpaceOnUse"><stop offset="0" stop-color="#f55"/><stop offset="1" stop-color="#f43b3b"/></linearGradient></defs><title>_</title><circle cx="8" cy="8" r="7" fill="url(#未命名的渐变_7)"/><path d="M8,3H8A.9.9,0,0,1,9,4V7A.9.9,0,0,1,8,8H8A.9.9,0,0,1,7,7V4A.9.9,0,0,1,8,3Z" fill="#fff"/><path d="M8,10H8a.9.9,0,0,1,1,1H9a.9.9,0,0,1-1,1H8a.9.9,0,0,1-1-1H7A.9.9,0,0,1,8,10Z" fill="#fff"/></svg>