<svg id="图层_1" data-name="图层 1" xmlns="http://www.w3.org/2000/svg" viewBox="0 0 16 16"><defs><style>.cls-1{fill:#404040;}</style></defs><title>code_set_1</title><path class="cls-1" d="M12,7a1,1,0,0,1,1,1v5a1,1,0,0,1-1,1H4a1,1,0,0,1-1-1V8A1,1,0,0,1,4,7h8m0-1H4A2,2,0,0,0,2,8v5a2,2,0,0,0,2,2h8a2,2,0,0,0,2-2V8a2,2,0,0,0-2-2Z"/><path class="cls-1" d="M8,2a3,3,0,0,1,3,3V6H5V5A3,3,0,0,1,8,2M8,1A4,4,0,0,0,4,5V7h8V5A4,4,0,0,0,8,1Z"/><path class="cls-1" d="M8,9a1,1,0,1,1-1,1A1,1,0,0,1,8,9M8,8a2,2,0,1,0,2,2A2,2,0,0,0,8,8Z"/></svg>