<svg id="图层_1" data-name="图层 1" xmlns="http://www.w3.org/2000/svg" viewBox="0 0 16 16"><title>edit</title><path d="M12,7a.9.9,0,0,1,1,1v5a.9.9,0,0,1-1,1H4a.9.9,0,0,1-1-1V8A.9.9,0,0,1,4,7h8m0-1H4A2,2,0,0,0,2,8v5a2,2,0,0,0,2,2h8a2,2,0,0,0,2-2V8A2,2,0,0,0,12,6Z" fill="#404040"/><path d="M8,2a2.9,2.9,0,0,1,3,3V6H5V5A2.9,2.9,0,0,1,8,2M8,1A4,4,0,0,0,4,5V7h8V5A4,4,0,0,0,8,1Z" fill="#404040"/><path d="M8,9a.9.9,0,0,1,1,1,.9.9,0,0,1-1,1,.9.9,0,0,1-1-1A.9.9,0,0,1,8,9M8,8a2,2,0,1,0,2,2A2,2,0,0,0,8,8Z" fill="#404040"/></svg>