<svg id="图层_1" data-name="图层 1" xmlns="http://www.w3.org/2000/svg" viewBox="0 0 20 20"><defs><style>.cls-1,.cls-2,.cls-3,.cls-4,.cls-5,.cls-6,.cls-7,.cls-8{fill:#fff;}.cls-1{opacity:0.7;}.cls-2{opacity:0.05;}.cls-3{opacity:0.95;}.cls-4{opacity:0.25;}.cls-5{opacity:0.9;}.cls-6{opacity:0.4;}.cls-8{opacity:0.55;}</style></defs><title>loading14</title><path class="cls-1" d="M5.88,9.93A1,1,0,0,0,6.4,8L2.53,7A1,1,0,0,0,2,8.9Z"/><path class="cls-2" d="M17.47,13A1,1,0,0,0,18,11.1l-3.87-1A1,1,0,0,0,13.6,12Z"/><path class="cls-3" d="M3.57,14.87l3.47-2a1,1,0,0,0-1-1.74l-3.47,2a1,1,0,0,0,1,1.74Z"/><path class="cls-4" d="M12.6,8.5A1,1,0,0,0,14,8.87l3.47-2a1,1,0,0,0-1-1.74L13,7.13A1,1,0,0,0,12.6,8.5Z"/><path class="cls-5" d="M8,13.6,7,17.47A1,1,0,0,0,8.9,18l1-3.87A1,1,0,0,0,8,13.6Z"/><path class="cls-6" d="M12,6.4l1-3.87A1,1,0,0,0,11.1,2l-1,3.87A1,1,0,0,0,12,6.4Z"/><path class="cls-7" d="M14.5,17.79a1,1,0,0,0,.37-1.36l-2-3.47a1,1,0,0,0-1.74,1l2,3.47A1,1,0,0,0,14.5,17.79Z"/><path class="cls-8" d="M8.5,7.4A1,1,0,0,0,8.87,6l-2-3.47a1,1,0,0,0-1.74,1L7.13,7A1,1,0,0,0,8.5,7.4Z"/></svg>