<svg id="图层_1" data-name="图层 1" xmlns="http://www.w3.org/2000/svg" viewBox="0 0 20 20"><defs><style>.cls-1,.cls-2,.cls-3,.cls-4,.cls-5,.cls-6,.cls-7,.cls-8{fill:#fff;}.cls-1{opacity:0.7;}.cls-2{opacity:0.05;}.cls-3{opacity:0.95;}.cls-4{opacity:0.25;}.cls-5{opacity:0.9;}.cls-6{opacity:0.4;}.cls-8{opacity:0.55;}</style></defs><title>loading12</title><path class="cls-1" d="M11,14a1,1,0,0,0-2,0v4a1,1,0,0,0,2,0Z"/><path class="cls-2" d="M11,2A1,1,0,0,0,9,2V6a1,1,0,0,0,2,0Z"/><path class="cls-3" d="M16.36,15l-2.82-2.83a1,1,0,1,0-1.42,1.42L15,16.36A1,1,0,0,0,16.36,15Z"/><path class="cls-4" d="M7.88,7.88a1,1,0,0,0,0-1.42L5.05,3.64A1,1,0,0,0,3.64,5.05L6.46,7.88A1,1,0,0,0,7.88,7.88Z"/><path class="cls-5" d="M14,11h4a1,1,0,0,0,0-2H14a1,1,0,0,0,0,2Z"/><path class="cls-6" d="M6,9H2a1,1,0,0,0,0,2H6A1,1,0,0,0,6,9Z"/><path class="cls-7" d="M16.36,3.64a1,1,0,0,0-1.41,0L12.12,6.46a1,1,0,1,0,1.42,1.42l2.82-2.83A1,1,0,0,0,16.36,3.64Z"/><path class="cls-8" d="M7.88,12.12a1,1,0,0,0-1.42,0L3.64,15a1,1,0,0,0,1.41,1.41l2.83-2.82A1,1,0,0,0,7.88,12.12Z"/></svg>