<svg id="图层_1" data-name="图层 1" xmlns="http://www.w3.org/2000/svg" viewBox="0 0 20 20"><defs><style>.cls-1,.cls-2,.cls-3,.cls-4,.cls-5,.cls-6,.cls-7,.cls-8{fill:#fff;}.cls-1{opacity:0.7;}.cls-2{opacity:0.05;}.cls-3{opacity:0.95;}.cls-4{opacity:0.25;}.cls-5{opacity:0.9;}.cls-6{opacity:0.4;}.cls-8{opacity:0.55;}</style></defs><title>loading18</title><path class="cls-1" d="M14,9.09a1,1,0,0,0,0,2l4,.09a1,1,0,0,0,0-2Z"/><path class="cls-2" d="M2,8.82a1,1,0,0,0,0,2l4,.09a1,1,0,1,0,0-2Z"/><path class="cls-3" d="M15.09,3.75,12.2,6.51A1,1,0,0,0,13.58,8l2.89-2.77a1,1,0,0,0-1.38-1.44Z"/><path class="cls-4" d="M7.83,12.07a1,1,0,0,0-1.41,0L3.53,14.81a1,1,0,0,0,1.38,1.44L7.8,13.49A1,1,0,0,0,7.83,12.07Z"/><path class="cls-5" d="M11.09,6l.09-4a1,1,0,0,0-2,0L9.09,6a1,1,0,1,0,2,0Z"/><path class="cls-6" d="M8.91,14l-.09,4a1,1,0,1,0,2,0l.09-4a1,1,0,0,0-2,0Z"/><path class="cls-7" d="M3.78,3.5a1,1,0,0,0,0,1.41L6.51,7.8A1,1,0,0,0,8,6.42L5.19,3.53A1,1,0,0,0,3.78,3.5Z"/><path class="cls-8" d="M12.07,12.17a1,1,0,0,0,0,1.41l2.77,2.89a1,1,0,1,0,1.44-1.38L13.49,12.2A1,1,0,0,0,12.07,12.17Z"/></svg>