<svg id="图层_1" data-name="图层 1" xmlns="http://www.w3.org/2000/svg" viewBox="0 0 20 20"><title>loading14</title><path d="M5.9,9.9a.9.9,0,0,0,1.2-.7A1,1,0,0,0,6.4,8L2.5,7a.9.9,0,0,0-1.2.7A1,1,0,0,0,2,8.9Z" fill="#fff" opacity="0.7"/><path d="M17.5,13a.9.9,0,0,0,1.2-.7,1,1,0,0,0-.7-1.2l-3.9-1a.9.9,0,0,0-1.2.7,1,1,0,0,0,.7,1.2Z" fill="#fff" opacity="0.05"/><path d="M3.6,14.9l3.4-2a1,1,0,0,0,.4-1.4A1.1,1.1,0,0,0,6,11.1l-3.4,2a1,1,0,0,0-.4,1.4A1.1,1.1,0,0,0,3.6,14.9Z" fill="#fff" opacity="0.95"/><path d="M12.6,8.5a1.1,1.1,0,0,0,1.4.4l3.4-2a1,1,0,0,0,.4-1.4,1.1,1.1,0,0,0-1.4-.4L13,7.1A1,1,0,0,0,12.6,8.5Z" fill="#fff" opacity="0.25"/><path d="M8,13.6,7,17.5a.9.9,0,0,0,.7,1.2A1,1,0,0,0,8.9,18l1-3.9a.9.9,0,0,0-.7-1.2A1,1,0,0,0,8,13.6Z" fill="#fff" opacity="0.9"/><path d="M12,6.4l1-3.9a.9.9,0,0,0-.7-1.2,1,1,0,0,0-1.2.7l-1,3.9a.9.9,0,0,0,.7,1.2A1,1,0,0,0,12,6.4Z" fill="#fff" opacity="0.4"/><path d="M14.5,17.8a1.1,1.1,0,0,0,.4-1.4l-2-3.4a1,1,0,0,0-1.4-.4,1.1,1.1,0,0,0-.4,1.4l2,3.4A1,1,0,0,0,14.5,17.8Z" fill="#fff"/><path d="M8.5,7.4A1.1,1.1,0,0,0,8.9,6l-2-3.4a1,1,0,0,0-1.4-.4,1.1,1.1,0,0,0-.4,1.4L7.1,7A1,1,0,0,0,8.5,7.4Z" fill="#fff" opacity="0.55"/></svg>