<svg id="图层_1" data-name="图层 1" xmlns="http://www.w3.org/2000/svg" viewBox="0 0 20 20"><title>loading18</title><path d="M14,9.1a1,1,0,0,0,0,2h4a1.1,1.1,0,0,0,1-1,.9.9,0,0,0-1-1Z" fill="#404040" opacity="0.7"/><path d="M2,8.8a1.1,1.1,0,0,0-1,1,.9.9,0,0,0,1,1H6a1,1,0,0,0,0-2Z" fill="#404040" opacity="0.05"/><path d="M15.1,3.7,12.2,6.5a1,1,0,0,0,0,1.4,1.1,1.1,0,0,0,1.4.1l2.9-2.8a1,1,0,0,0,0-1.4A1.1,1.1,0,0,0,15.1,3.7Z" fill="#404040" opacity="0.95"/><path d="M7.8,12.1A1.1,1.1,0,0,0,6.4,12L3.5,14.8a1,1,0,0,0,0,1.4,1.1,1.1,0,0,0,1.4.1l2.9-2.8A1,1,0,0,0,7.8,12.1Z" fill="#404040" opacity="0.25"/><path d="M11.1,6V2a1.1,1.1,0,0,0-1-1,.9.9,0,0,0-1,1V6a1,1,0,1,0,2,0Z" fill="#404040" opacity="0.9"/><path d="M8.9,14v4a1.1,1.1,0,0,0,1,1,.9.9,0,0,0,1-1V14a1,1,0,0,0-2,0Z" fill="#404040" opacity="0.4"/><path d="M3.8,3.5a1.1,1.1,0,0,0-.1,1.4L6.5,7.8a1,1,0,0,0,1.4,0A1.1,1.1,0,0,0,8,6.4L5.2,3.5A1,1,0,0,0,3.8,3.5Z" fill="#404040"/><path d="M12.1,12.2a1.1,1.1,0,0,0-.1,1.4l2.8,2.9a1,1,0,0,0,1.4,0,1.1,1.1,0,0,0,.1-1.4l-2.8-2.9A1,1,0,0,0,12.1,12.2Z" fill="#404040" opacity="0.55"/></svg>