<svg id="图层_1" data-name="图层 1" xmlns="http://www.w3.org/2000/svg" viewBox="0 0 20 20"><title>loading13</title><path d="M7.9,13.5a1,1,0,0,0-1.4-1.4L3.6,14.9a1,1,0,0,0,0,1.4,1.1,1.1,0,0,0,1.4.1Z" fill="#fff" opacity="0.7"/><path d="M16.4,5.1a1,1,0,0,0,0-1.4A1.1,1.1,0,0,0,15,3.6L12.1,6.5a1,1,0,0,0,1.4,1.4Z" fill="#fff" opacity="0.05"/><path d="M11,18V14a1.1,1.1,0,0,0-1-1,.9.9,0,0,0-1,1v4a1,1,0,0,0,2,0Z" fill="#fff" opacity="0.95"/><path d="M10,7a.9.9,0,0,0,1-1V2A1,1,0,0,0,9,2V6A1.1,1.1,0,0,0,10,7Z" fill="#fff" opacity="0.25"/><path d="M12.1,13.5l2.8,2.9a1,1,0,0,0,1.4,0,1.1,1.1,0,0,0,.1-1.4l-2.9-2.9a1,1,0,0,0-1.4,1.4Z" fill="#fff" opacity="0.9"/><path d="M7.9,6.5,5.1,3.6a1,1,0,0,0-1.4,0A1.1,1.1,0,0,0,3.6,5L6.5,7.9A1,1,0,0,0,7.9,6.5Z" fill="#fff" opacity="0.4"/><path d="M19,10a1,1,0,0,0-1-1H14a1.1,1.1,0,0,0-1,1,.9.9,0,0,0,1,1h4A1,1,0,0,0,19,10Z" fill="#fff"/><path d="M7,10A.9.9,0,0,0,6,9H2a1,1,0,0,0,0,2H6A1.1,1.1,0,0,0,7,10Z" fill="#fff" opacity="0.55"/></svg>