<svg id="图层_1" data-name="图层 1" xmlns="http://www.w3.org/2000/svg" viewBox="0 0 20 20"><defs><style>.cls-1,.cls-2,.cls-3,.cls-4,.cls-5,.cls-6,.cls-7,.cls-8{fill:#fff;}.cls-1{opacity:0.7;}.cls-2{opacity:0.05;}.cls-3{opacity:0.95;}.cls-4{opacity:0.25;}.cls-5{opacity:0.9;}.cls-6{opacity:0.4;}.cls-8{opacity:0.55;}</style></defs><title>loading15</title><path class="cls-1" d="M6.46,7.88A1,1,0,0,0,7.88,6.46L5.05,3.64A1,1,0,0,0,3.64,5.05Z"/><path class="cls-2" d="M15,16.36A1,1,0,0,0,16.36,15l-2.82-2.83a1,1,0,1,0-1.42,1.42Z"/><path class="cls-3" d="M2,11H6A1,1,0,0,0,6,9H2a1,1,0,0,0,0,2Z"/><path class="cls-4" d="M13,10a1,1,0,0,0,1,1h4a1,1,0,0,0,0-2H14A1,1,0,0,0,13,10Z"/><path class="cls-5" d="M6.46,12.12,3.64,15a1,1,0,0,0,1.41,1.41l2.83-2.82a1,1,0,1,0-1.42-1.42Z"/><path class="cls-6" d="M13.54,7.88l2.82-2.83A1,1,0,1,0,15,3.64L12.12,6.46a1,1,0,1,0,1.42,1.42Z"/><path class="cls-7" d="M10,19a1,1,0,0,0,1-1V14a1,1,0,0,0-2,0v4A1,1,0,0,0,10,19Z"/><path class="cls-8" d="M10,7a1,1,0,0,0,1-1V2A1,1,0,0,0,9,2V6A1,1,0,0,0,10,7Z"/></svg>