<svg id="图层_1" data-name="图层 1" xmlns="http://www.w3.org/2000/svg" viewBox="0 0 20 20"><title>loading16</title><path d="M8.9,6A1,1,0,0,0,10,7a1,1,0,0,0,.9-1V2a1,1,0,0,0-2,0Z" fill="#fff" opacity="0.7"/><path d="M9.1,18a1,1,0,0,0,2,0V14A1,1,0,0,0,10,13a1,1,0,0,0-.9,1Z" fill="#fff" opacity="0.05"/><path d="M3.6,5.1,6.4,7.9A1,1,0,0,0,7.8,6.5L5,3.7a1.1,1.1,0,0,0-1.5,0A1.1,1.1,0,0,0,3.6,5.1Z" fill="#fff" opacity="0.95"/><path d="M12.2,12.1a1,1,0,0,0,0,1.4L15,16.3a1.1,1.1,0,0,0,1.5,0,1.1,1.1,0,0,0-.1-1.4l-2.8-2.8A1,1,0,0,0,12.2,12.1Z" fill="#fff" opacity="0.25"/><path d="M6,9.1H2a1,1,0,0,0,0,2H6A1,1,0,0,0,7,10,1,1,0,0,0,6,9.1Z" fill="#fff" opacity="0.9"/><path d="M14,10.9h4a1,1,0,0,0,0-2H14A1,1,0,0,0,13,10,1,1,0,0,0,14,10.9Z" fill="#fff" opacity="0.4"/><path d="M3.7,16.5a1.1,1.1,0,0,0,1.4-.1l2.8-2.8a1,1,0,1,0-1.4-1.4L3.7,15A1.1,1.1,0,0,0,3.7,16.5Z" fill="#fff"/><path d="M12.1,7.8a1,1,0,0,0,1.4,0L16.3,5a1.1,1.1,0,0,0,0-1.5,1.1,1.1,0,0,0-1.4.1L12.1,6.4A1,1,0,0,0,12.1,7.8Z" fill="#fff" opacity="0.55"/></svg>