<svg id="图层_1" data-name="图层 1" xmlns="http://www.w3.org/2000/svg" viewBox="0 0 20 20"><defs><style>.cls-1,.cls-2,.cls-3,.cls-4,.cls-5,.cls-6,.cls-7,.cls-8{fill:#fff;}.cls-1{opacity:0.7;}.cls-2{opacity:0.05;}.cls-3{opacity:0.95;}.cls-4{opacity:0.25;}.cls-5{opacity:0.9;}.cls-6{opacity:0.4;}.cls-8{opacity:0.55;}</style></defs><title>loading13</title><path class="cls-1" d="M7.87,13.53a1,1,0,0,0-1.41-1.42L3.62,14.93a1,1,0,0,0,0,1.42,1,1,0,0,0,1.41,0Z"/><path class="cls-2" d="M16.38,5.07a1,1,0,0,0,0-1.42,1,1,0,0,0-1.41,0L12.13,6.47a1,1,0,0,0,1.41,1.42Z"/><path class="cls-3" d="M11,18V14a1,1,0,0,0-2,0v4a1,1,0,0,0,2,0Z"/><path class="cls-4" d="M10,7a1,1,0,0,0,1-1V2A1,1,0,0,0,9,2V6A1,1,0,0,0,10,7Z"/><path class="cls-5" d="M12.11,13.54l2.82,2.84a1,1,0,0,0,1.42,0,1,1,0,0,0,0-1.41l-2.82-2.84a1,1,0,0,0-1.42,1.41Z"/><path class="cls-6" d="M7.89,6.46,5.07,3.62a1,1,0,0,0-1.42,0A1,1,0,0,0,3.65,5L6.47,7.87A1,1,0,0,0,7.89,6.46Z"/><path class="cls-7" d="M19,10a1,1,0,0,0-1-1H14a1,1,0,0,0,0,2h4A1,1,0,0,0,19,10Z"/><path class="cls-8" d="M7,10A1,1,0,0,0,6,9H2a1,1,0,0,0,0,2H6A1,1,0,0,0,7,10Z"/></svg>