<svg id="图层_1" data-name="图层 1" xmlns="http://www.w3.org/2000/svg" viewBox="0 0 20 20"><title>loading12</title><path d="M11,14a.9.9,0,0,0-1-1,1,1,0,0,0-1,1v4a.9.9,0,0,0,1,1,1,1,0,0,0,1-1Z" fill="#fff" opacity="0.7"/><path d="M11,2a.9.9,0,0,0-1-1A1,1,0,0,0,9,2V6a.9.9,0,0,0,1,1,1,1,0,0,0,1-1Z" fill="#fff" opacity="0.05"/><path d="M16.4,14.9l-2.9-2.8a1,1,0,0,0-1.4,1.4l2.8,2.9a1.1,1.1,0,0,0,1.5-1.5Z" fill="#fff" opacity="0.95"/><path d="M7.9,7.9a1,1,0,0,0,0-1.4L5.1,3.6A1.1,1.1,0,0,0,3.6,5.1L6.5,7.9A1,1,0,0,0,7.9,7.9Z" fill="#fff" opacity="0.25"/><path d="M14,11h4a1,1,0,0,0,1-1,.9.9,0,0,0-1-1H14a1,1,0,0,0-1,1A.9.9,0,0,0,14,11Z" fill="#fff" opacity="0.9"/><path d="M6,9H2a1,1,0,0,0-1,1,.9.9,0,0,0,1,1H6a1,1,0,0,0,1-1A.9.9,0,0,0,6,9Z" fill="#fff" opacity="0.4"/><path d="M16.4,3.6a1.1,1.1,0,0,0-1.5,0L12.1,6.5a1,1,0,0,0,1.4,1.4l2.9-2.8A1.1,1.1,0,0,0,16.4,3.6Z" fill="#fff"/><path d="M7.9,12.1a1,1,0,0,0-1.4,0L3.6,14.9a1.1,1.1,0,0,0,1.5,1.5l2.8-2.9A1,1,0,0,0,7.9,12.1Z" fill="#fff" opacity="0.55"/></svg>