<svg id="图层_1" data-name="图层 1" xmlns="http://www.w3.org/2000/svg" viewBox="0 0 20 20"><defs><style>.cls-1,.cls-2,.cls-3,.cls-4,.cls-5,.cls-6,.cls-7,.cls-8{fill:#fff;}.cls-1{opacity:0.7;}.cls-2{opacity:0.05;}.cls-3{opacity:0.95;}.cls-4{opacity:0.25;}.cls-5{opacity:0.9;}.cls-6{opacity:0.4;}.cls-8{opacity:0.55;}</style></defs><title>loading16</title><path class="cls-1" d="M8.94,6a1,1,0,0,0,2,0l-.06-4a1,1,0,0,0-1-1,1,1,0,0,0-1,1Z"/><path class="cls-2" d="M9.12,18a1,1,0,0,0,1,1,1,1,0,0,0,1-1l-.06-4a1,1,0,0,0-2,0Z"/><path class="cls-3" d="M3.56,5.14,6.43,7.93a1,1,0,0,0,1.42,0,1,1,0,0,0,0-1.41L5,3.71a1,1,0,0,0-1.42,0A1,1,0,0,0,3.56,5.14Z"/><path class="cls-4" d="M12.15,12.09a1,1,0,0,0,0,1.41L15,16.29a1,1,0,0,0,1.42,0,1,1,0,0,0,0-1.41l-2.87-2.79A1,1,0,0,0,12.15,12.09Z"/><path class="cls-5" d="M6,9.06,2,9.12a1,1,0,0,0-1,1,1,1,0,0,0,1,1l4-.06a1,1,0,0,0,1-1A1,1,0,0,0,6,9.06Z"/><path class="cls-6" d="M14,10.94l4-.06a1,1,0,0,0,1-1,1,1,0,0,0-1-1l-4,.06a1,1,0,0,0,0,2Z"/><path class="cls-7" d="M3.73,16.46a1,1,0,0,0,1.41,0l2.79-2.87a1,1,0,0,0,0-1.42,1,1,0,0,0-1.41,0L3.71,15A1,1,0,0,0,3.73,16.46Z"/><path class="cls-8" d="M12.09,7.85a1,1,0,0,0,1.41,0L16.29,5a1,1,0,0,0,0-1.42,1,1,0,0,0-1.41,0L12.07,6.43A1,1,0,0,0,12.09,7.85Z"/></svg>