<svg id="图层_1" data-name="图层 1" xmlns="http://www.w3.org/2000/svg" xmlns:xlink="http://www.w3.org/1999/xlink" viewBox="0 0 148 148"><defs><linearGradient id="未命名的渐变" x1="74.63" x2="74.63" y2="148" gradientTransform="matrix(1, 0, 0, -1, 0, 148)" gradientUnits="userSpaceOnUse"><stop offset="0" stop-color="#b6d2ff"/><stop offset="1" stop-color="#3369ff"/></linearGradient><linearGradient id="未命名的渐变_2" x1="73.98" y1="97.12" x2="73.98" y2="-23.13" gradientTransform="matrix(1, 0, 0, -1, 0, 148)" gradientUnits="userSpaceOnUse"><stop offset="0.4" stop-color="#fff"/><stop offset="1" stop-color="#7da8f4"/></linearGradient></defs><title>success</title><circle cx="74" cy="74" r="74" fill="none"/><circle cx="74" cy="74" r="74" fill="none"/><path d="M31.2,83.3a39,39,0,0,1-.5,5.8,25.4,25.4,0,0,1,23.5,17.3h1.3a34.1,34.1,0,0,1,9.5,1.4,32.2,32.2,0,0,1,32.5-6.5,25.1,25.1,0,0,1,15.2-7.5A32.4,32.4,0,0,1,138.6,56a39.2,39.2,0,0,1,5.9-.5h1.2A74,74,0,0,0,3.6,51.2,32.4,32.4,0,0,1,31.2,83.3Z" fill="url(#未命名的渐变)"/><path d="M74,148a74.1,74.1,0,0,0,74-74.2,75.8,75.8,0,0,0-2.3-18.3h-1.2a32.3,32.3,0,0,0-32.3,32.4,30.4,30.4,0,0,0,.5,6,25.2,25.2,0,0,0-15.2,7.4A32.4,32.4,0,0,0,65,107.8a34.1,34.1,0,0,0-9.5-1.4H54.2A25.5,25.5,0,0,0,30.7,89a36.8,36.8,0,0,0,.5-5.8,32.5,32.5,0,0,0-27.6-32A74,74,0,0,0,74,148Z" fill="url(#未命名的渐变_2)"/><circle cx="74" cy="74" r="74" fill="none"/><polygon points="65 47.1 58.8 50.6 94.5 64.8 65 47.1" fill="#fff"/><polygon points="58.8 50.6 57.4 51.4 56.4 58.9 94.5 64.8 58.8 50.6" fill="#ccc"/><polygon points="94.5 64.8 55.8 50.6 46.5 55.5 94.5 64.8" fill="#fff"/></svg>