<svg id="图层_1" data-name="图层 1" xmlns="http://www.w3.org/2000/svg" xmlns:xlink="http://www.w3.org/1999/xlink" viewBox="0 0 148 148"><defs><style>.cls-1{fill:none;}.cls-2{fill:url(#未命名的渐变_43);}.cls-3{fill:url(#未命名的渐变_50);}.cls-4{fill:#fff;}.cls-5{fill:#ccc;}</style><linearGradient id="未命名的渐变_43" x1="74.63" y1="148" x2="74.63" gradientUnits="userSpaceOnUse"><stop offset="0" stop-color="#b6d2ff"/><stop offset="1" stop-color="#3369ff"/></linearGradient><linearGradient id="未命名的渐变_50" x1="74" y1="50.88" x2="74" y2="171.13" gradientUnits="userSpaceOnUse"><stop offset="0.4" stop-color="#fff"/><stop offset="1" stop-color="#7da8f4"/></linearGradient></defs><title>success</title><circle class="cls-1" cx="74" cy="74" r="74"/><circle class="cls-1" cx="74" cy="74" r="74"/><path class="cls-2" d="M31.22,83.25a32.58,32.58,0,0,1-.53,5.8,25.43,25.43,0,0,1,23.5,17.36c.43,0,.87,0,1.31,0A32.14,32.14,0,0,1,65,107.8a32.37,32.37,0,0,1,32.47-6.52,25.34,25.34,0,0,1,15.23-7.45A32.39,32.39,0,0,1,144.53,55.5c.39,0,.76,0,1.15,0A74,74,0,0,0,3.59,51.22,32.39,32.39,0,0,1,31.22,83.25Z"/><path class="cls-3" d="M74,148a74.08,74.08,0,0,0,71.68-92.47c-.39,0-.76,0-1.15,0a32.39,32.39,0,0,0-31.82,38.33,25.34,25.34,0,0,0-15.23,7.45A32.37,32.37,0,0,0,65,107.8a32.14,32.14,0,0,0-9.51-1.42c-.44,0-.88,0-1.31,0a25.43,25.43,0,0,0-23.5-17.36,32.58,32.58,0,0,0,.53-5.8,32.39,32.39,0,0,0-27.63-32A74,74,0,0,0,74,148Z"/><circle class="cls-1" cx="74" cy="74" r="74"/><polygon class="cls-4" points="64.98 47.15 58.81 50.59 94.5 64.75 64.98 47.15"/><polygon class="cls-5" points="58.81 50.59 57.44 51.35 56.38 58.87 94.5 64.75 58.81 50.59"/><polygon class="cls-4" points="94.5 64.75 55.83 50.58 46.51 55.49 94.5 64.75"/></svg>