<?xml version="1.0" encoding="utf-8"?>
<!-- Generator: Adobe Illustrator 24.0.0, SVG Export Plug-In . SVG Version: 6.00 Build 0)  -->
<svg version="1.1" id="图层_1" xmlns="http://www.w3.org/2000/svg" xmlns:xlink="http://www.w3.org/1999/xlink" x="0px" y="0px"
	 viewBox="0 0 16 16" style="enable-background:new 0 0 16 16;" xml:space="preserve">
<style type="text/css">
	.st0{opacity:0.75;}
	.st1{fill:#1F2022;}
	.st2{fill:none;stroke:#1F2022;stroke-linecap:round;stroke-miterlimit:10;}
</style>
<g id="图层_4" class="st0">
	<g>
		<path class="st1" d="M8,5c3,0,5.7,2.7,6.7,4c-1,1.2-3.7,4-6.7,4s-5.8-2.8-6.8-4C2.2,7.8,5,5,8,5 M8,4C3.6,4,0,8.9,0,9s3.6,5,8,5
			s8-5,8-5S12.4,4,8,4L8,4z"/>
	</g>
	<g>
		<path class="st1" d="M8,6C6.3,6,5,7.3,5,9s1.3,3,3,3s3-1.3,3-3S9.7,6,8,6z M8,10c-0.6,0-1-0.4-1-1s0.4-1,1-1s1,0.4,1,1
			S8.6,10,8,10z"/>
	</g>
	<g>
		<line class="st2" x1="2.6" y1="6.6" x2="1" y2="4.5"/>
		<line class="st2" x1="5" y1="5.2" x2="4" y2="3"/>
		<line class="st2" x1="7.5" y1="4.5" x2="7.5" y2="2.5"/>
		<line class="st2" x1="10.4" y1="4.8" x2="11" y2="3"/>
		<line class="st2" x1="13.2" y1="6.5" x2="15" y2="4.5"/>
	</g>
</g>
</svg>
