<svg id="图层_1" data-name="图层 1" xmlns="http://www.w3.org/2000/svg" viewBox="0 0 16 16"><title>visible</title><g id="图层_4" data-name="图层 4" opacity="0.75"><path d="M8,5c3,0,5.7,2.7,6.7,4-1,1.2-3.7,4-6.7,4S2.2,10.2,1.2,9C2.2,7.8,5,5,8,5M8,4C3.6,4,0,8.9,0,9s3.6,5,8,5,8-5,8-5S12.4,4,8,4Z" fill="#1f2022"/><path d="M8,6A2.9,2.9,0,0,0,5,9a2.9,2.9,0,0,0,3,3,2.9,2.9,0,0,0,3-3A2.9,2.9,0,0,0,8,6Zm0,4A.9.9,0,0,1,7,9,.9.9,0,0,1,8,8,.9.9,0,0,1,9,9,.9.9,0,0,1,8,10Z" fill="#1f2022"/><line x1="2.6" y1="6.6" x2="1" y2="4.5" fill="none" stroke="#1f2022" stroke-linecap="round" stroke-miterlimit="10"/><line x1="5" y1="5.2" x2="4" y2="3" fill="none" stroke="#1f2022" stroke-linecap="round" stroke-miterlimit="10"/><line x1="7.5" y1="4.5" x2="7.5" y2="2.5" fill="none" stroke="#1f2022" stroke-linecap="round" stroke-miterlimit="10"/><line x1="10.4" y1="4.8" x2="11" y2="3" fill="none" stroke="#1f2022" stroke-linecap="round" stroke-miterlimit="10"/><line x1="13.2" y1="6.5" x2="15" y2="4.5" fill="none" stroke="#1f2022" stroke-linecap="round" stroke-miterlimit="10"/></g></svg>