<svg width="16" height="16" viewBox="0 0 16 16" fill="none" xmlns="http://www.w3.org/2000/svg">
<path fill-rule="evenodd" clip-rule="evenodd" d="M8 15C11.866 15 15 11.866 15 8C15 4.13401 11.866 1 8 1C4.13401 1 1 4.13401 1 8C1 11.866 4.13401 15 8 15ZM8 9C8.55228 9 9 8.55228 9 8C9 7.44772 8.55228 7 8 7C7.44772 7 7 7.44772 7 8C7 8.55228 7.44772 9 8 9ZM9.46967 5.46967C9.73594 5.2034 10.1526 5.1792 10.4462 5.39705L10.5303 5.46967L12.5303 7.46967C12.7966 7.73594 12.8208 8.1526 12.6029 8.44621L12.5303 8.53033L10.5303 10.5303C10.2374 10.8232 9.76256 10.8232 9.46967 10.5303C9.2034 10.2641 9.1792 9.8474 9.39705 9.55379L9.46967 9.46967L10.939 8L9.46967 6.53033C9.2034 6.26406 9.1792 5.8474 9.39705 5.55379L9.46967 5.46967ZM5.55379 5.39705C5.8474 5.1792 6.26406 5.2034 6.53033 5.46967L6.60295 5.55379C6.8208 5.8474 6.7966 6.26406 6.53033 6.53033L5.061 8L6.53033 9.46967L6.60295 9.55379C6.8208 9.8474 6.7966 10.2641 6.53033 10.5303C6.23744 10.8232 5.76256 10.8232 5.46967 10.5303L3.46967 8.53033L3.39705 8.44621C3.1792 8.1526 3.2034 7.73594 3.46967 7.46967L5.46967 5.46967L5.55379 5.39705Z" fill="#F8A34C"/>
</svg>
