<svg width="16" height="16" viewBox="0 0 16 16" fill="none" xmlns="http://www.w3.org/2000/svg">
<path fill-rule="evenodd" clip-rule="evenodd" d="M8 15C11.866 15 15 11.866 15 8C15 4.13401 11.866 1 8 1C4.13401 1 1 4.13401 1 8C1 11.866 4.13401 15 8 15ZM11.6839 5.77046C11.281 5.39273 10.6482 5.41315 10.2705 5.81606L7.25 9.038L5.72954 7.41606L5.63806 7.32988C5.25581 7.01236 4.68798 7.02179 4.31606 7.37046C3.91315 7.74819 3.89273 8.38103 4.27046 8.78394L6.52046 11.1839L6.60911 11.2678C7.0097 11.6032 7.61268 11.5753 7.97954 11.1839L11.7295 7.18394L11.8096 7.0871C12.1019 6.68518 12.0559 6.11914 11.6839 5.77046Z" fill="#2FB3E8"/>
</svg>
