<svg width="16" height="16" viewBox="0 0 16 16" fill="none" xmlns="http://www.w3.org/2000/svg">
<rect opacity="0.01" width="16" height="16" fill="black"/>
<path d="M12.8645 14.668H3.58477C2.46602 14.668 1.55664 13.7586 1.55664 12.6398V3.36016C1.55664 2.24141 2.46602 1.33203 3.58477 1.33203H8.22539C8.59414 1.33203 8.89258 1.63047 8.89258 1.99922C8.89258 2.36797 8.59414 2.66641 8.22539 2.66641H3.58477C3.20195 2.66641 2.89102 2.97734 2.89102 3.36016V12.6398C2.89102 13.0227 3.20195 13.3336 3.58477 13.3336H12.8645C13.2473 13.3336 13.5582 13.0227 13.5582 12.6398V7.99922C13.5582 7.63047 13.8566 7.33203 14.2254 7.33203C14.5941 7.33203 14.8926 7.63047 14.8926 7.99922V12.6398C14.8926 13.7586 13.9832 14.668 12.8645 14.668Z" fill="#6F6F6F"/>
<path fill-rule="evenodd" clip-rule="evenodd" d="M7.46375 11.816C7.49188 11.8191 7.51844 11.8207 7.54657 11.8207C7.72157 11.8207 7.89188 11.752 8.01844 11.6254L13.8716 5.77383C14.2591 5.38633 14.4716 4.87227 14.4716 4.32539C14.4716 3.77695 14.2591 3.26289 13.8716 2.87695L13.4606 2.46602C12.6622 1.66758 11.3638 1.66758 10.5653 2.46602L4.71219 8.31914C4.56688 8.46445 4.49657 8.66914 4.52157 8.87383L4.78407 10.9754C4.82157 11.277 5.05907 11.516 5.36219 11.5535L7.46375 11.816ZM7.30438 10.452L6.04188 10.2941L5.88407 9.03164L11.5059 3.40977C11.7841 3.13164 12.2356 3.13164 12.5153 3.40977L12.9263 3.8207C13.0606 3.95508 13.1356 4.13477 13.1356 4.32539C13.1356 4.51602 13.0606 4.6957 12.9263 4.83008L7.30438 10.452Z" fill="#6F6F6F"/>
</svg>
