<svg width="16" height="16" viewBox="0 0 16 16" fill="none" xmlns="http://www.w3.org/2000/svg">
<rect width="16" height="16" rx="8" fill="#262626" fill-opacity="0.01"/>
<path fill-rule="evenodd" clip-rule="evenodd" d="M5.5 8C5.5 8.82843 4.82843 9.5 4 9.5C3.17157 9.5 2.5 8.82843 2.5 8C2.5 7.17157 3.17157 6.5 4 6.5C4.82843 6.5 5.5 7.17157 5.5 8ZM13.5 8C13.5 8.82843 12.8284 9.5 12 9.5C11.1716 9.5 10.5 8.82843 10.5 8C10.5 7.17157 11.1716 6.5 12 6.5C12.8284 6.5 13.5 7.17157 13.5 8ZM8 9.5C8.82843 9.5 9.5 8.82843 9.5 8C9.5 7.17157 8.82843 6.5 8 6.5C7.17157 6.5 6.5 7.17157 6.5 8C6.5 8.82843 7.17157 9.5 8 9.5Z" fill="#262628" fill-opacity="0.75"/>
</svg>
