<?xml version="1.0" encoding="utf-8"?>
<!-- Generator: Adobe Illustrator 23.0.1, SVG Export Plug-In . SVG Version: 6.00 Build 0)  -->
<svg version="1.1" id="图层_1" xmlns="http://www.w3.org/2000/svg" xmlns:xlink="http://www.w3.org/1999/xlink" x="0px" y="0px"
	 width="64px" height="68.5px" viewBox="0 0 64 68.5" style="enable-background:new 0 0 64 68.5;" xml:space="preserve">
<style type="text/css">
	.st0{fill-rule:evenodd;clip-rule:evenodd;fill:#DD4814;}
</style>
<g>
	<g>
		<path class="st0" d="M32,2C14.3,2,0,16.3,0,34s14.3,32,32,32s32-14.3,32-32S49.7,2,32,2z M43.9,9.6c2.6,0,4.6,2.1,4.6,4.6
			c0,2.6-2.1,4.6-4.6,4.6s-4.6-2.1-4.6-4.6C39.2,11.6,41.3,9.6,43.9,9.6z M32.2,13.8c1.9,0,3.7,0.3,5.5,0.8c0.2,3.2,2.9,5.8,6.2,5.8
			c1,0,1.9-0.2,2.7-0.6c3.4,3.4,5.6,7.9,5.9,12.9l-7.2,0.1C44.6,26.1,39,21,32.2,21c-1.9,0-3.7,0.4-5.4,1.1l-3.7-6.2
			C25.9,14.6,28.9,13.8,32.2,13.8z M37.7,37.2l1,2l-2,1.8l0.1,1.5l-2.7,0l2.1-3.1l-0.7-0.9l-2.1,1.6l0,1.1l-2.7,0l1.7-1.6l1.7-2
			l-1.4-0.9l-1.4,0.7l-2,0.8l-1.7-0.3l-1.1,1.6l-0.3,2.3h-2.6l1.9-2.2l-0.6-1.3l-0.4-2.6l-1.4-3.3l2.5-4.6l2.3-1.4l2.4-2.4l-0.7,1.7
			l0.4,0.1l2.6-2.6l-1.1,3.2l0.6,2.4l-1.7,2.3l2.5,1.8l3.5,1.4l2.5-1.3l1.5-2.1l2.4-0.7l-0.4,3.1l-1.5,0.5l-1.1-0.2l-2,1.2
			L37.7,37.2z M8.9,38.7c-2.6,0-4.6-2.1-4.6-4.6c0-2.6,2.1-4.6,4.6-4.6c2.6,0,4.6,2.1,4.6,4.6C13.6,36.6,11.5,38.7,8.9,38.7z
			 M12.4,39.1c1.6-1.1,2.7-3,2.7-5.1c0-2.1-1-3.9-2.6-5c1.3-4.9,4.3-9,8.4-11.8l3.7,6.2c-3.4,2.4-5.6,6.3-5.6,10.8
			c0,4.4,2.1,8.2,5.4,10.6l-3.5,6.3C16.7,48.4,13.7,44.1,12.4,39.1z M43.9,58.5c-2.6,0-4.6-2.1-4.6-4.6c0-2.6,2.1-4.6,4.6-4.6
			c2.6,0,4.6,2.1,4.6,4.6C48.6,56.4,46.5,58.5,43.9,58.5z M46.9,48.4c-0.9-0.5-1.9-0.7-2.9-0.7c-3.4,0-6.2,2.8-6.2,6.2
			c-1.8,0.5-3.6,0.8-5.6,0.8c-3.3,0-6.4-0.8-9.1-2.2l3.5-6.3c1.7,0.8,3.6,1.2,5.6,1.2c6.9,0,12.6-5.3,13.2-12l7.2-0.1
			C52.3,40.4,50.2,45,46.9,48.4z"/>
	</g>
</g>
</svg>
