<?xml version="1.0" encoding="UTF-8"?>
<svg viewBox="0 0 40 32" version="1.1" xmlns="http://www.w3.org/2000/svg" xmlns:xlink="http://www.w3.org/1999/xlink">
    <title>滑块</title>
    <defs>
        <path d="M14.0368153,4 L25.9631847,4 C29.2667891,4 30.6036791,4.37130244 31.9073828,5.06853082 C33.2110865,5.76575919 34.2342408,6.78891348 34.9314692,8.09261719 C35.6286976,9.39632089 36,10.7332109 36,14.0368153 L36,17.9631847 C36,21.2667891 35.6286976,22.6036791 34.9314692,23.9073828 C34.2342408,25.2110865 33.2110865,26.2342408 31.9073828,26.9314692 C30.6036791,27.6286976 29.2667891,28 25.9631847,28 L14.0368153,28 C10.7332109,28 9.39632089,27.6286976 8.09261719,26.9314692 C6.78891348,26.2342408 5.76575919,25.2110865 5.06853082,23.9073828 C4.37130244,22.6036791 4,21.2667891 4,17.9631847 L4,14.0368153 C4,10.7332109 4.37130244,9.39632089 5.06853082,8.09261719 C5.76575919,6.78891348 6.78891348,5.76575919 8.09261719,5.06853082 C9.39632089,4.37130244 10.7332109,4 14.0368153,4 Z" id="path-1"/>
        <filter x="-18.7%" y="-25.0%" width="137.5%" height="150.0%" filterUnits="objectBoundingBox" id="filter-2">
            <feOffset dx="0" dy="0" in="SourceAlpha" result="shadowOffsetOuter1"/>
            <feGaussianBlur stdDeviation="2" in="shadowOffsetOuter1" result="shadowBlurOuter1"/>
            <feColorMatrix values="0 0 0 0 0.149019608   0 0 0 0 0.149019608   0 0 0 0 0.149019608  0 0 0 0.25 0" type="matrix" in="shadowBlurOuter1"/>
        </filter>
    </defs>
    <g id="Edu-OS-Light" stroke="none" stroke-width="1" fill="none" fill-rule="evenodd">
        <g id="PC-控制面板12-字体" transform="translate(-1169.000000, -302.000000)" fill-rule="nonzero">
            <g id="控制面板备份" transform="translate(360.000000, 186.000000)">
                <g id="字体" transform="translate(316.000000, 72.000000)">
                    <g id="字体大小" transform="translate(0.000000, 28.000000)">
                        <g id="编组-4" transform="translate(188.000000, 16.000000)">
                            <g id="滑块" transform="translate(305.000000, 0.000000)">
                                <g id="矩形">
                                    <use fill="black" fill-opacity="1" filter="url(#filter-2)" xlink:href="#path-1"/>
                                    <use fill="#FFFFFF" xlink:href="#path-1"/>
                                </g>
                                <path d="M19.2819426,12 L20.7180574,12 C21.1638168,12 21.3254599,12.0464128 21.4884229,12.1335664 C21.6513858,12.2207199 21.7792801,12.3486142 21.8664336,12.5115771 C21.9535872,12.6745401 22,12.8361832 22,13.2819426 L22,18.7180574 C22,19.1638168 21.9535872,19.3254599 21.8664336,19.4884229 C21.7792801,19.6513858 21.6513858,19.7792801 21.4884229,19.8664336 C21.3254599,19.9535872 21.1638168,20 20.7180574,20 L19.2819426,20 C18.8361832,20 18.6745401,19.9535872 18.5115771,19.8664336 C18.3486142,19.7792801 18.2207199,19.6513858 18.1335664,19.4884229 C18.0464128,19.3254599 18,19.1638168 18,18.7180574 L18,13.2819426 C18,12.8361832 18.0464128,12.6745401 18.1335664,12.5115771 C18.2207199,12.3486142 18.3486142,12.2207199 18.5115771,12.1335664 C18.6745401,12.0464128 18.8361832,12 19.2819426,12 Z" id="矩形备份-14" fill="#2FB3E8"/>
                            </g>
                        </g>
                    </g>
                </g>
            </g>
        </g>
    </g>
</svg>