<svg id="图层_1" data-name="图层 1" xmlns="http://www.w3.org/2000/svg" xmlns:xlink="http://www.w3.org/1999/xlink" viewBox="0 0 150 50"><defs><linearGradient id="linear-gradient" x1="41.3" y1="25" x2="2.52" y2="25" gradientUnits="userSpaceOnUse"><stop offset="0.21" stop-color="#0090da"/><stop offset="0.57" stop-color="#0064b4"/><stop offset="0.85" stop-color="#013e74"/></linearGradient><linearGradient id="linear-gradient-2" x1="10.1" y1="39.95" x2="10.1" y2="10.03" gradientUnits="userSpaceOnUse"><stop offset="0.17" stop-color="#0090da"/><stop offset="1" stop-color="#0064b4"/></linearGradient><linearGradient id="linear-gradient-3" x1="67.05" y1="42.46" x2="46.35" y2="25.09" gradientUnits="userSpaceOnUse"><stop offset="0" stop-color="#0090da"/><stop offset="0.74" stop-color="#0064b4"/><stop offset="0.97" stop-color="#013e74"/></linearGradient><linearGradient id="linear-gradient-4" x1="42.65" y1="27.06" x2="70.3" y2="11.1" gradientUnits="userSpaceOnUse"><stop offset="0" stop-color="#0090da"/><stop offset="1" stop-color="#0064b4"/></linearGradient></defs><title>ukui</title><path d="M31.9,28.4c0,1.6-2.1,4.3-10.8,4.3s-9.7-1.1-9.7-3.8c0-18.8-.5-18.3-.5-18.3H2.5s.1,12.5.1,19.2a11.3,11.3,0,0,0,7.5,8.4c3.3,1.2,4.5,1.8,11,1.8s11.2-.9,14.3-2.8A11.3,11.3,0,0,0,41.3,28V10H31.9" fill="url(#linear-gradient)"/><path d="M2,10h9.4V28.8c0,7.1,7.3,11.2,6.8,11.2C12.8,40,2,36.8,2,28.6V10H2" fill="url(#linear-gradient-2)"/><path d="M46.4,26.3c.9.8-.3,3.8,2.3,6.3L56.8,40H69.2L51.3,23.7l-2-2.2" fill="url(#linear-gradient-3)"/><path d="M69.7,10H56.5L43,21.7a3.7,3.7,0,0,0,0,5.6c1.8,1.7,3.9,3.5,5.7,5.3.2.2-.7-2.2-.5-4.3a7.8,7.8,0,0,1,2.2-4.1C53.1,21.6,69.7,10,69.7,10" fill="url(#linear-gradient-4)"/><path d="M74,26.9V12.3h3.2V27c0,6.1,2.6,8,5.8,8s6-1.9,6-8V12.3h3V26.9c0,8.1-3.9,10.8-9,10.8S74,35,74,26.9Z" fill="#767676"/><path d="M98.7,12.3h3.2V24.8h.1l10.4-12.5H116l-7.8,9.5,9,15.5h-3.5l-7.5-13.1-4.3,5.2v7.9H98.7Z" fill="#767676"/><path d="M120.1,26.9V12.3h3.2V27c0,6.1,2.6,8,5.8,8s6-1.9,6-8V12.3h3V26.9c0,8.1-3.9,10.8-9,10.8S120.1,35,120.1,26.9Z" fill="#767676"/><path d="M144.8,12.3H148v25h-3.2Z" fill="#767676"/></svg>