<?xml version="1.0" encoding="UTF-8"?>
<svg width="24px" height="24px" viewBox="0 0 24 24" version="1.1" xmlns="http://www.w3.org/2000/svg" xmlns:xlink="http://www.w3.org/1999/xlink">
    <title>控制面板/icon/添加用户</title>
    <g id="Edu-OS-Light" stroke="none" stroke-width="1" fill="none" fill-rule="evenodd">
        <g id="PC-控制面板-网络连接" transform="translate(-1488.000000, -797.000000)">
            <g id="控制面板备份" transform="translate(360.000000, 203.000000)">
                <g id="编组" transform="translate(316.000000, 72.000000)">
                    <g id="浅色-账户备份" transform="translate(0.000000, 132.000000)">
                        <g id="加入网络" transform="translate(16.000000, 374.000000)">
                            <g id="控制面板/icon/添加用户" transform="translate(796.000000, 16.000000)">
                                <rect id="圆角矩形_3" fill="#6F6F6F" fill-rule="nonzero" opacity="0" x="0" y="0" width="24" height="24" rx="12"></rect>
                                <path d="M12,6 C12.5522847,6 13,6.44771525 13,7 L13,11 L17,11 C17.5522847,11 18,11.4477153 18,12 C18,12.5522847 17.5522847,13 17,13 L13,13 L13,17 C13,17.5522847 12.5522847,18 12,18 C11.4477153,18 11,17.5522847 11,17 L11,13 L7,13 C6.44771525,13 6,12.5522847 6,12 C6,11.4477153 6.44771525,11 7,11 L11,11 L11,7 C11,6.44771525 11.4477153,6 12,6 Z" id="形状结合" fill="#A8A8A8"></path>
                            </g>
                        </g>
                    </g>
                </g>
            </g>
        </g>
    </g>
</svg>