<?xml version="1.0" encoding="UTF-8"?>
<svg width="24px" height="24px" viewBox="0 0 24 24" version="1.1" xmlns="http://www.w3.org/2000/svg" xmlns:xlink="http://www.w3.org/1999/xlink">
    <title>属性</title>
    <g id="Edu-OS-Light" stroke="none" stroke-width="1" fill="none" fill-rule="evenodd">
        <g id="PC-控制面板03-网络连接" transform="translate(-1488.000000, -520.000000)">
            <g id="控制面板备份" transform="translate(360.000000, 203.000000)">
                <g id="浅色-账户备份" transform="translate(316.000000, 204.000000)">
                    <g id="编组-3备份" transform="translate(16.000000, 97.000000)">
                        <g id="属性" transform="translate(796.000000, 16.000000)">
                            <rect id="矩形" fill="#000000" opacity="0" x="0" y="0" width="24" height="24" rx="1"></rect>
                            <path d="M11.9999035,1 C5.92490426,1 1,5.92474989 1,11.9999035 C1,18.0750571 5.92474989,23 11.9999035,23 C18.0750571,23 23,18.0750571 23,11.9999035 C23,5.92474989 18.0750571,1 11.9999035,1 L11.9999035,1 Z M11.9999035,21.262122 C6.8846096,21.262122 2.73770434,17.1154068 2.73770434,11.9999029 C2.73770434,6.884598 6.8846096,2.73772364 11.9999035,2.73772364 C17.1153964,2.73772364 21.2621027,6.884598 21.2621027,11.9999029 C21.2621027,17.1154068 17.1153964,21.262122 11.9999035,21.262122 L11.9999035,21.262122 Z" id="形状" fill="#2FB3E8" fill-rule="nonzero"></path>
                            <path d="M11.4782586,6.54407727 C11.4782586,6.90362727 11.6263629,7.26076364 11.8807354,7.51501364 C12.1349852,7.76926364 12.4925559,7.91723182 12.8521734,7.91723182 C13.2119546,7.91723182 13.5694844,7.76926364 13.8237341,7.51501364 C14.0781477,7.26076364 14.226211,6.90362727 14.226211,6.54407727 C14.226211,6.18469091 14.0781477,5.82735 13.8237341,5.57314091 C13.5694844,5.31905455 13.2119546,5.17104545 12.8521734,5.17104545 C12.4925559,5.17104545 12.1349852,5.31905455 11.8807354,5.57314091 C11.6263629,5.82735 11.4782586,6.18469091 11.4782586,6.54407727 L11.4782586,6.54407727 Z" id="路径" fill="#2FB3E8" fill-rule="nonzero"></path>
                            <path d="M12.4569012,19.1876864 C11.4432588,19.4411591 10.0401162,19.4184545 9.33876996,19.1370409 C8.63758751,18.8557909 8.38223249,17.8327364 8.77140533,16.8635591 L10.5201246,12.5097682 C10.9095022,11.5407545 10.4040319,10.5192955 9.39726665,10.2401318 L9.06307005,10.1475955 C8.05618204,9.86826818 8.07615852,9.50245909 9.10752589,9.33469091 L10.1083964,9.17183182 C11.1397638,9.0039 12.5573157,9.09672273 13.2586619,9.37813636 C13.9599672,9.65938636 14.2136029,10.6817864 13.8223014,11.6500227 L12.1917626,15.6846818 C11.8005021,16.6530818 12.2900894,17.6897182 13.2799074,17.9885591 C14.2697253,18.2874 14.2501991,18.7392818 13.2365977,18.9927545 L12.4569012,19.1876864 L12.4569012,19.1876864 Z" id="路径" fill="#2FB3E8" fill-rule="nonzero"></path>
                        </g>
                    </g>
                </g>
            </g>
        </g>
    </g>
</svg>