<?xml version="1.0" encoding="utf-8"?>
<!-- Generator: Adobe Illustrator 23.0.1, SVG Export Plug-In . SVG Version: 6.00 Build 0)  -->
<svg version="1.1" id="图层_2_1_" xmlns="http://www.w3.org/2000/svg" xmlns:xlink="http://www.w3.org/1999/xlink" x="0px"
	 y="0px" viewBox="0 0 16 16" style="enable-background:new 0 0 16 16;" xml:space="preserve">
<style type="text/css">
	.st0{fill:#262626;}
	.st1{opacity:0.3;fill:#262626;enable-background:new    ;}
</style>
<g>
	<path class="st0" d="M8.1,14l1.4-1.4C9.1,12.2,8.6,12,8,12s-1.1,0.2-1.4,0.6L8.1,14z"/>
	<path class="st0" d="M8,9c-1.4,0-2.7,0.6-3.6,1.6l0.7,0.7C5.9,10.5,6.9,10,8,10s2.2,0.5,2.9,1.2l0.7-0.7C10.7,9.6,9.5,9,8,9z"/>
	<path class="st0" d="M8,6C5.8,6,3.7,7,2.2,8.5L3,9.2C4.2,7.8,6,7,8,7s3.8,0.8,5,2.1l0.7-0.7C12.3,6.9,10.3,6,8,6z"/>
</g>
<g>
	<g>
		<path class="st0" d="M3,3v1H1V3H3 M3,2H1C0.4,2,0,2.4,0,3v1c0,0.6,0.4,1,1,1h2c0.6,0,1-0.4,1-1V3C4,2.4,3.6,2,3,2L3,2z"/>
	</g>
	<g>
		<path class="st0" d="M0.5,3.3C0.2,3.3,0,3.1,0,2.8V1.5C0,0.6,0.6,0,1.5,0h2C3.8,0,4,0.2,4,0.5S3.8,1,3.5,1h-2C1.2,1,1,1.2,1,1.5
			v1.3C1,3.1,0.8,3.3,0.5,3.3z"/>
	</g>
</g>
<g>
	<path class="st0" d="M6.5,4h-2C4.2,4,4,3.8,4,3.5l0,0C4,3.2,4.2,3,4.5,3h2C6.8,3,7,3.2,7,3.5l0,0C7,3.8,6.8,4,6.5,4z"/>
	<path class="st0" d="M5,4.5v-2C5,2.2,5.2,2,5.5,2l0,0C5.8,2,6,2.2,6,2.5v2C6,4.8,5.8,5,5.5,5l0,0C5.2,5,5,4.8,5,4.5z"/>
</g>
<path class="st1" d="M8,3v1c2.8,0,5.4,1.2,7.2,3.1l0.7-0.7C13.9,4.3,11.1,3,8,3z"/>
</svg>
