<?xml version="1.0" encoding="UTF-8"?>
<svg width="24px" height="24px" viewBox="0 0 24 24" version="1.1" xmlns="http://www.w3.org/2000/svg" xmlns:xlink="http://www.w3.org/1999/xlink">
    <title>icon/wifi-lock-regular备份</title>
    <g id="Icon" stroke="none" stroke-width="1" fill="none" fill-rule="evenodd">
        <g id="Icon-Sets" transform="translate(-195.000000, -1592.000000)" fill="#6F6F6F" fill-rule="nonzero">
            <g id="network-cellular-signal-good-secure-symbolic" transform="translate(195.000000, 1592.000000)">
                <g id="icon/Wifi" transform="translate(0.000000, 3.000000)">
                    <path d="M12.008854,13.5290205 L12,13.8665254 L12,17.249 L11.9262197,17.2413142 C11.8705622,17.2297332 11.8137689,17.2065712 11.7558396,17.1718282 C11.6906693,17.1327422 11.6096855,17.0702048 11.5128883,16.9842157 L11.41082,16.8904095 L9.63971929,15.1471775 C9.57838247,15.0898515 9.54004696,15.0247083 9.52471275,14.9517479 C9.50937855,14.8787875 9.52215705,14.8110386 9.56304827,14.7485011 C9.80839555,14.414968 10.1470259,14.1283379 10.5789394,13.8886109 C11.0108528,13.6488839 11.4874911,13.5290205 12.008854,13.5290205 Z" id="路径"></path>
                    <path d="M12.008854,9.19830056 C12.6392603,9.19830056 13.2457068,9.27068189 13.8281936,9.41544456 L13.8712489,9.4272859 C13.5707269,9.98180177 13.3842768,10.6041648 13.3423599,11.2646752 L13.3333333,11.55 L13.3339372,11.6549134 C12.9045687,11.5304681 12.4628743,11.469864 12.008854,11.4731011 C11.2881464,11.4678896 10.5942736,11.6242333 9.92723565,11.9421321 C9.26019771,12.2600309 8.70688846,12.6665245 8.2673079,13.1616128 C8.19063688,13.2449961 8.10374305,13.2905963 8.00662641,13.2984135 C7.93378893,13.3042764 7.86382662,13.2844892 7.79673947,13.2390518 L7.73061071,13.1850644 L6.60354661,12.0437555 C6.53709839,11.9707951 6.50131857,11.895229 6.49620717,11.8170572 C6.49109577,11.7388853 6.51665278,11.6633192 6.5728782,11.5903588 C6.94601053,11.1317507 7.4137038,10.7226514 7.975958,10.363061 C8.5382122,10.0034705 9.16180322,9.71944615 9.84673107,9.51098791 C10.5316589,9.30252968 11.2523666,9.19830056 12.008854,9.19830056 Z" id="路径"></path>
                    <path d="M12.008854,4.8519463 C13.128251,4.8519463 14.2169796,5.01350143 15.2750398,5.3366117 C16.3331,5.65972197 17.2978771,6.10269572 18.1693711,6.66553297 C18.3648164,6.79175749 18.5528708,6.9220447 18.7335343,7.05639459 C18.494135,7.01906764 18.2493513,7 18,7 C17.0412647,7 16.1500552,7.28188439 15.408799,7.76528639 C14.3456389,7.35009811 13.212081,7.14238119 12.008854,7.14238119 C10.6901124,7.14238119 9.45443098,7.39253107 8.30180987,7.89283084 C7.14918875,8.39313061 6.12563054,9.12534017 5.23113522,10.0894595 C5.15957559,10.1676314 5.07395961,10.2080201 4.97428728,10.2106259 C4.89953303,10.2125802 4.83268547,10.1932815 4.77374462,10.1527299 L4.71743934,10.1050939 L3.70538178,9.05759125 C3.63893355,8.98463086 3.60443159,8.90776189 3.60187589,8.82698432 C3.59932019,8.74620675 3.62359935,8.66933778 3.67471336,8.5963774 C4.25230177,7.87198502 4.97684298,7.22837021 5.84833699,6.66553297 C6.719831,6.10269572 7.68333025,5.65972197 8.73883472,5.3366117 C9.7943392,5.01350143 10.8843456,4.8519463 12.008854,4.8519463 Z" id="路径"></path>
                    <path d="M12.0126797,0.75 C13.5481259,0.75 15.0415051,0.971600756 16.4928173,1.41480227 C17.9441294,1.85800378 19.2674878,2.46561875 20.4628923,3.23764719 C21.5088712,3.91317208 22.4005222,4.6735285 23.1378453,5.51871646 C23.3020419,5.71561108 23.2857458,6.00602325 23.1005524,6.18331233 L21.9802231,7.25582452 C21.8393108,7.39072248 21.626057,7.4033186 21.471664,7.29647388 L21.4023402,7.23572253 L21.325277,7.15718575 C20.0983223,5.82758121 18.6925827,4.81786809 17.1080583,4.12804639 C15.5235339,3.43822468 13.8233252,3.09331383 12.0074322,3.09331383 C10.1985503,3.09331383 8.50359997,3.43643758 6.92258114,4.12268508 C5.47331389,4.75174529 4.17280272,5.64810148 3.02104764,6.81175365 L2.71062079,7.13574051 C2.53548842,7.35336918 2.2170927,7.38781923 1.99946403,7.21268686 L1.96654006,7.18375435 L1.96654006,7.18375435 L0.881001009,6.14307913 C0.7380107,6.00598358 0.710885133,5.79191051 0.805498578,5.62577473 L0.853517732,5.55787281 C1.49272509,4.81811138 2.24943219,4.14293766 3.12363902,3.53235162 L3.56246705,3.23764719 C4.75787153,2.46561875 6.07947707,1.85800378 7.52728367,1.41480227 C8.97509027,0.971600756 10.4702223,0.75 12.0126797,0.75 Z" id="路径" opacity="0.25"></path>
                    <path d="M18.5,9 C20.4329966,9 22,10.5670034 22,12.5 L22.0007985,13.0084186 C22.2437935,13.025429 22.3657341,13.0679517 22.4884229,13.1335664 C22.6513858,13.2207199 22.7792801,13.3486142 22.8664336,13.5115771 C22.9535872,13.6745401 23,13.8361832 23,14.2819426 L23,17.7180574 C23,18.1638168 22.9535872,18.3254599 22.8664336,18.4884229 C22.7792801,18.6513858 22.6513858,18.7792801 22.4884229,18.8664336 C22.3254599,18.9535872 22.1638168,19 21.7180574,19 L15.2819426,19 C14.8361832,19 14.6745401,18.9535872 14.5115771,18.8664336 C14.3486142,18.7792801 14.2207199,18.6513858 14.1335664,18.4884229 C14.0464128,18.3254599 14,18.1638168 14,17.7180574 L14,14.2819426 C14,13.8361832 14.0464128,13.6745401 14.1335664,13.5115771 C14.2207199,13.3486142 14.3486142,13.2207199 14.5115771,13.1335664 C14.6344214,13.0678685 14.7565156,13.0253212 15.000126,13.0083541 L15,12.5 C15,10.5670034 16.5670034,9 18.5,9 Z M18.5,11 C17.7203039,11 17.0795513,11.5948881 17.0068666,12.35554 L17,12.5 L17,13 L20,13 L20,12.5 C20,11.7203039 19.4051119,11.0795513 18.64446,11.0068666 L18.5,11 Z" id="形状备份"></path>
                </g>
            </g>
        </g>
    </g>
</svg>