<?xml version="1.0" encoding="UTF-8"?>
<svg width="24px" height="24px" viewBox="0 0 24 24" version="1.1" xmlns="http://www.w3.org/2000/svg" xmlns:xlink="http://www.w3.org/1999/xlink">
    <title>icon/wifi-lock-regular</title>
    <defs>
        <filter id="filter-1">
            <feColorMatrix in="SourceGraphic" type="matrix" values="0 0 0 0 0.436811 0 0 0 0 0.436811 0 0 0 0 0.436811 0 0 0 1.000000 0"></feColorMatrix>
        </filter>
    </defs>
    <g id="Icon" stroke="none" stroke-width="1" fill="none" fill-rule="evenodd">
        <g id="Icon-Sets" transform="translate(-195.000000, -1552.000000)">
            <g id="icon/Wifi" transform="translate(195.000000, 1552.000000)" filter="url(#filter-1)">
                <g>
                    <path d="M12.008854,16.5290205 C12.0031218,16.6248486 12,16.7363707 12,16.8665254 L12,16.8665254 L12,20.249 L11.9262197,20.2413142 C11.8705622,20.2297332 11.8137689,20.2065712 11.7558396,20.1718282 C11.6906693,20.1327422 11.6096855,20.0702048 11.5128883,19.9842157 L11.41082,19.8904095 L9.63971929,18.1471775 C9.57838247,18.0898515 9.54004696,18.0247083 9.52471275,17.9517479 C9.50937855,17.8787875 9.52215705,17.8110386 9.56304827,17.7485011 C9.80839555,17.414968 10.1470259,17.1283379 10.5789394,16.8886109 C11.0108528,16.6488839 11.4874911,16.5290205 12.008854,16.5290205 Z M12.008854,12.1983006 C12.7653415,12.1983006 13.487327,12.3025297 14.1748106,12.5109879 L13.8712489,12.4272859 C13.5277951,13.0610183 13.3333333,13.7833674 13.3333333,14.55 L13.3333333,14.55 L13.3339372,14.6549134 C12.9045687,14.5304681 12.4628743,14.469864 12.008854,14.4731011 C11.2881464,14.4678896 10.5942736,14.6242333 9.92723565,14.9421321 C9.26019771,15.2600309 8.70688846,15.6665245 8.2673079,16.1616128 C8.19063688,16.2449961 8.10374305,16.2905963 8.00662641,16.2984135 C7.90950978,16.3062307 7.81750454,16.2684477 7.73061071,16.1850644 L7.73061071,16.1850644 L6.60354661,15.0437555 C6.53709839,14.9707951 6.50131857,14.895229 6.49620717,14.8170572 C6.49109577,14.7388853 6.51665278,14.6633192 6.5728782,14.5903588 C6.94601053,14.1317507 7.4137038,13.7226514 7.975958,13.363061 C8.5382122,13.0034705 9.16180322,12.7194462 9.84673107,12.5109879 C10.5316589,12.3025297 11.2523666,12.1983006 12.008854,12.1983006 Z M12.008854,7.8519463 C13.128251,7.8519463 14.2169796,8.01350143 15.2750398,8.3366117 C16.3331,8.65972197 17.2978771,9.10269572 18.1693711,9.66553297 C18.3648164,9.79175749 18.5528708,9.9220447 18.7335343,10.0563946 C18.494135,10.0190676 18.2493513,10 18,10 C17.0412647,10 16.1500552,10.2818844 15.408799,10.7652864 C14.3456389,10.3500981 13.212081,10.1423812 12.008854,10.1423812 C10.6901124,10.1423812 9.45443098,10.3925311 8.30180987,10.8928308 C7.14918875,11.3931306 6.12563054,12.1253402 5.23113522,13.0894595 C5.15957559,13.1676314 5.07395961,13.2080201 4.97428728,13.2106259 C4.87461494,13.2132316 4.78899896,13.1780543 4.71743934,13.1050939 L4.71743934,13.1050939 L3.70538178,12.0575912 C3.63893355,11.9846309 3.60443159,11.9077619 3.60187589,11.8269843 C3.59932019,11.7462068 3.62359935,11.6693378 3.67471336,11.5963774 C4.25230177,10.871985 4.97684298,10.2283702 5.84833699,9.66553297 C6.719831,9.10269572 7.68333025,8.65972197 8.73883472,8.3366117 C9.7943392,8.01350143 10.8843456,7.8519463 12.008854,7.8519463 Z M12.0126797,3.75 C13.5481259,3.75 15.0415051,3.97160076 16.4928173,4.41480227 C17.9441294,4.85800378 19.2674878,5.46561875 20.4628923,6.23764719 C21.5088712,6.91317208 22.4005222,7.6735285 23.1378453,8.51871646 C23.3020419,8.71561108 23.2857458,9.00602325 23.1005524,9.18331233 L21.9802231,10.2558245 C21.8191805,10.4099936 21.5636509,10.4044215 21.4094818,10.2433789 L21.4058862,10.2395739 L21.4023402,10.2357225 L21.325277,10.1571857 C20.0983223,8.82758121 18.6925827,7.81786809 17.1080583,7.12804639 C15.5235339,6.43822468 13.8233252,6.09331383 12.0074322,6.09331383 C10.1985503,6.09331383 8.50359997,6.43643758 6.92258114,7.12268508 C5.34156232,7.80893258 3.93757553,8.81328439 2.71062079,10.1357405 C2.53548842,10.3533692 2.2170927,10.3878192 1.99946403,10.2126869 C1.98807648,10.203523 1.97709151,10.1938697 1.96654006,10.1837544 L0.881001009,9.14307913 C0.7380107,9.00598358 0.710885133,8.79191051 0.805498578,8.62577473 L0.853517732,8.55787281 C1.49272509,7.81811138 2.24943219,7.14293766 3.12363902,6.53235162 L3.56246705,6.23764719 C4.75787153,5.46561875 6.07947707,4.85800378 7.52728367,4.41480227 C8.97509027,3.97160076 10.4702223,3.75 12.0126797,3.75 Z" id="形状结合" fill="#2FB3E8" fill-rule="nonzero"></path>
                    <path d="M18.5,12 C20.4329966,12 22,13.5670034 22,15.5 L22.0007985,16.0084186 C22.2437935,16.025429 22.3657341,16.0679517 22.4884229,16.1335664 C22.6513858,16.2207199 22.7792801,16.3486142 22.8664336,16.5115771 C22.9535872,16.6745401 23,16.8361832 23,17.2819426 L23,20.7180574 C23,21.1638168 22.9535872,21.3254599 22.8664336,21.4884229 C22.7792801,21.6513858 22.6513858,21.7792801 22.4884229,21.8664336 C22.3254599,21.9535872 22.1638168,22 21.7180574,22 L15.2819426,22 C14.8361832,22 14.6745401,21.9535872 14.5115771,21.8664336 C14.3486142,21.7792801 14.2207199,21.6513858 14.1335664,21.4884229 C14.0464128,21.3254599 14,21.1638168 14,20.7180574 L14,17.2819426 C14,16.8361832 14.0464128,16.6745401 14.1335664,16.5115771 C14.2207199,16.3486142 14.3486142,16.2207199 14.5115771,16.1335664 C14.6344214,16.0678685 14.7565156,16.0253212 15.000126,16.0083541 L15,15.5 C15,13.5670034 16.5670034,12 18.5,12 Z M18.5,14 C17.7203039,14 17.0795513,14.5948881 17.0068666,15.35554 L17,15.5 L17,16 L20,16 L20,15.5 C20,14.7203039 19.4051119,14.0795513 18.64446,14.0068666 L18.5,14 Z" id="形状备份" fill="#2FB3E8" fill-rule="nonzero"></path>
                </g>
            </g>
        </g>
    </g>
</svg>