<?xml version="1.0" encoding="UTF-8"?>
<svg width="24px" height="24px" viewBox="0 0 24 24" version="1.1" xmlns="http://www.w3.org/2000/svg" xmlns:xlink="http://www.w3.org/1999/xlink">
    <title>icon/Wifi 2</title>
    <g id="Icon" stroke="none" stroke-width="1" fill="none" fill-rule="evenodd">
        <g id="Icon-Sets" transform="translate(-236.000000, -1712.000000)">
            <g id="编组" transform="translate(236.000000, 1712.000000)">
                <polygon id="矩形" fill="#000000" opacity="0" points="0 0 24 0 24 24 0 24"></polygon>
                <path d="M12.0126797,3.75 C13.5481259,3.75 15.0415051,3.97160076 16.4928173,4.41480227 C17.9441294,4.85800378 19.2674878,5.46561875 20.4628923,6.23764719 C21.5088712,6.91317208 22.4005222,7.6735285 23.1378453,8.51871646 C23.3020419,8.71561108 23.2857458,9.00602325 23.1005524,9.18331233 L21.4569156,10.8615143 C20.6030061,10.3161623 19.5884249,10 18.5,10 L18.5,10 L18.2787929,10.0043672 L18.0400103,10.0189624 C15.5078268,10.2286288 13.462362,12.1536668 13.0685609,14.6291314 L13.0685609,14.6291314 L13.055,14.718 L12.8799297,14.8799297 C12.6784514,15.0814079 12.5067165,15.3126295 12.36994,15.5683794 C12.0947528,16.0829347 12,16.5736049 12,17.2819426 L12,17.2819426 L12,20.249 L11.9262197,20.2413142 C11.8705622,20.2297332 11.8137689,20.2065712 11.7558396,20.1718282 C11.6906693,20.1327422 11.6096855,20.0702048 11.5128883,19.9842157 L11.41082,19.8904095 L0.881001009,9.14307913 C0.7380107,9.00598358 0.710885133,8.79191051 0.805498578,8.62577473 L0.853517732,8.55787281 C1.49272509,7.81811138 2.24943219,7.14293766 3.12363902,6.53235162 L3.56246705,6.23764719 C4.75787153,5.46561875 6.07947707,4.85800378 7.52728367,4.41480227 C8.97509027,3.97160076 10.4702223,3.75 12.0126797,3.75 Z" id="形状结合" fill="#2FB3E8" fill-rule="nonzero" opacity="0.25"></path>
                <path d="M18.5,12 C20.4329966,12 22,13.5670034 22,15.5 L22.0007985,16.0084186 C22.2437935,16.025429 22.3657341,16.0679517 22.4884229,16.1335664 C22.6513858,16.2207199 22.7792801,16.3486142 22.8664336,16.5115771 C22.9535872,16.6745401 23,16.8361832 23,17.2819426 L23,20.7180574 C23,21.1638168 22.9535872,21.3254599 22.8664336,21.4884229 C22.7792801,21.6513858 22.6513858,21.7792801 22.4884229,21.8664336 C22.3254599,21.9535872 22.1638168,22 21.7180574,22 L15.2819426,22 C14.8361832,22 14.6745401,21.9535872 14.5115771,21.8664336 C14.3486142,21.7792801 14.2207199,21.6513858 14.1335664,21.4884229 C14.0464128,21.3254599 14,21.1638168 14,20.7180574 L14,17.2819426 C14,16.8361832 14.0464128,16.6745401 14.1335664,16.5115771 C14.2207199,16.3486142 14.3486142,16.2207199 14.5115771,16.1335664 C14.6344214,16.0678685 14.7565156,16.0253212 15.000126,16.0083541 L15,15.5 C15,13.5670034 16.5670034,12 18.5,12 Z M18.5,14 C17.7203039,14 17.0795513,14.5948881 17.0068666,15.35554 L17,15.5 L17,16 L20,16 L20,15.5 C20,14.7203039 19.4051119,14.0795513 18.64446,14.0068666 L18.5,14 Z" id="形状备份" fill="#2FB3E8" fill-rule="nonzero"></path>
            </g>
        </g>
    </g>
</svg>